<?xml version="1.0" standalone="no"?>
<!DOCTYPE svg PUBLIC "-//W3C//DTD SVG 1.1//EN" "http://www.w3.org/Graphics/SVG/1.1/DTD/svg11.dtd" >
<svg xmlns="http://www.w3.org/2000/svg" xmlns:xlink="http://www.w3.org/1999/xlink" version="1.1">
<metadata>
Created by FontForge 20201107 at Thu Oct 30 16:41:13 2025
 By 
Copyright (c) 2017 by Good Type Foundry Kenneth Knutsen. All rights reserved.
</metadata>
<defs>
<font id="Adieu-Regular" horiz-adv-x="0" >
  <font-face 
    font-family="Adieu"
    font-weight="400"
    font-stretch="normal"
    units-per-em="2048"
    panose-1="0 0 5 0 0 0 0 0 0 0"
    ascent="1638"
    descent="-410"
    x-height="1024"
    cap-height="1434"
    bbox="-2150 -1090 3473 2091"
    underline-thickness="102"
    underline-position="-409"
    unicode-range="U+0020-25CA"
  />
<missing-glyph horiz-adv-x="1726" 
d="M1231 1360q172 -101 272.5 -271.5t100.5 -369.5q3 -147 -58 -285.5t-162.5 -239.5t-239 -160.5t-280.5 -56.5q-147 -4 -285.5 57.5t-239 163.5t-160 240t-56.5 281q-3 143 57 280t161 238.5t239.5 162.5t283.5 58q199 0 367 -98zM864 1307q-118 2 -228.5 -45t-190 -126.5
t-126.5 -189.5t-45 -227q-3 -158 77 -295.5t217.5 -217.5t295.5 -77q156 -3 293 77t217.5 217.5t77.5 295.5q2 117 -45.5 227t-127 189.5t-189 126.5t-226.5 45zM864 309q-192 0 -319 106.5t-127 278.5l131 19q8 -102 86.5 -168t228.5 -66t230.5 67t85.5 167l129 -19
q0 -114 -60.5 -202.5t-161.5 -135.5t-223 -47zM578 846q-39 36 -39 92q0 54 39 91.5t96 37.5q54 0 92.5 -37.5t38.5 -91.5q0 -55 -38.5 -93t-92.5 -38q-57 0 -96 39zM975 1030q37 37 92 37q56 0 94.5 -37.5t38.5 -91.5q0 -55 -38.5 -93t-94.5 -38q-55 0 -92 37.5t-37 93.5
q0 52 37 92z" />
    <glyph glyph-name=".notdef" horiz-adv-x="1726" 
d="M1231 1360q172 -101 272.5 -271.5t100.5 -369.5q3 -147 -58 -285.5t-162.5 -239.5t-239 -160.5t-280.5 -56.5q-147 -4 -285.5 57.5t-239 163.5t-160 240t-56.5 281q-3 143 57 280t161 238.5t239.5 162.5t283.5 58q199 0 367 -98zM864 1307q-118 2 -228.5 -45t-190 -126.5
t-126.5 -189.5t-45 -227q-3 -158 77 -295.5t217.5 -217.5t295.5 -77q156 -3 293 77t217.5 217.5t77.5 295.5q2 117 -45.5 227t-127 189.5t-189 126.5t-226.5 45zM864 309q-192 0 -319 106.5t-127 278.5l131 19q8 -102 86.5 -168t228.5 -66t230.5 67t85.5 167l129 -19
q0 -114 -60.5 -202.5t-161.5 -135.5t-223 -47zM578 846q-39 36 -39 92q0 54 39 91.5t96 37.5q54 0 92.5 -37.5t38.5 -91.5q0 -55 -38.5 -93t-92.5 -38q-57 0 -96 39zM975 1030q37 37 92 37q56 0 94.5 -37.5t38.5 -91.5q0 -55 -38.5 -93t-94.5 -38q-55 0 -92 37.5t-37 93.5
q0 52 37 92z" />
    <glyph glyph-name=".null" 
 />
    <glyph glyph-name="nonmarkingreturn" horiz-adv-x="681" 
 />
    <glyph glyph-name="space" unicode=" " horiz-adv-x="614" 
 />
    <glyph glyph-name="exclam" unicode="!" horiz-adv-x="573" 
d="M449 1434l-21 -832h-281l-20 832h322zM281 -31q-72 0 -120 45.5t-48 114.5q0 68 48 113t120 45q74 0 122 -44.5t48 -113.5q0 -72 -47.5 -116t-122.5 -44z" />
    <glyph glyph-name="quotedbl" unicode="&#x22;" horiz-adv-x="778" 
d="M61 1434h273l-68 -553h-170zM446 1434h271l-68 -553h-168z" />
    <glyph glyph-name="numbersign" unicode="#" horiz-adv-x="2066" 
d="M541 1024l88 410h289l-89 -410h588l88 410h289l-88 -410h299l-31 -199h-311l-55 -252h325l-30 -198h-338l-80 -375h-289l80 375h-588l-80 -375h-289l80 375h-338l31 198h350l56 252h-365l31 199h377zM731 573h588l55 252h-588z" />
    <glyph glyph-name="dollar" unicode="$" horiz-adv-x="1767" 
d="M868 213q533 0 533 203q0 71 -62.5 112t-169.5 54q-90 11 -274 20q-236 9 -393 37q-153 27 -262 113t-109 258q0 184 150.5 299.5t418.5 146.5v254h353v-254q274 -29 444 -158q165 -128 168 -323h-305q2 113 -124 180.5t-339 67.5q-228 0 -350.5 -49.5t-122.5 -141.5
q0 -131 225 -158q94 -15 269 -24q236 -14 401 -43q151 -27 264 -117q111 -88 111 -264q0 -189 -171 -307.5t-470 -145.5v-198h-353v202q-286 34 -449.5 163.5t-160.5 318.5h303q-2 -113 126.5 -179.5t348.5 -66.5z" />
    <glyph glyph-name="percent" unicode="%" horiz-adv-x="2127" 
d="M1665 1434h258l-1440 -1434h-258zM102 1198q0 110 125.5 183t302.5 73q191 0 309.5 -70.5t118.5 -185.5t-118.5 -185.5t-309.5 -70.5q-177 0 -302.5 73t-125.5 183zM1599 -23q-177 0 -302.5 73t-125.5 183t125.5 183t302.5 73q191 0 310 -70.5t119 -185.5t-119 -185.5
t-310 -70.5zM1599 393q-97 0 -155 -43.5t-58 -116.5t58 -116t155 -43t156.5 43t59.5 112q0 75 -59.5 119.5t-156.5 44.5zM377 1081q58 -43 153 -43q97 0 156 42t59 114q0 75 -59 119.5t-156 44.5q-95 0 -154 -43.5t-59 -116.5q0 -72 60 -117z" />
    <glyph glyph-name="ampersand" unicode="&#x26;" horiz-adv-x="1869" 
d="M606 823l-395 396v215h1280v-258h-864l706 -705q165 145 269 346l180 -203q-104 -192 -256 -329l289 -285h-381l-127 127q-271 -152 -559 -152q-248 0 -459 97q-207 95 -207 340q0 176 150.5 293.5t373.5 117.5zM422 657q-86 -59 -86 -151q0 -275 426 -275q181 0 350 88
l-389 388q-36 8 -90 8q-126 0 -211 -58z" />
    <glyph glyph-name="quotesingle" unicode="'" horiz-adv-x="395" 
d="M96 881l-35 553h273l-68 -553h-170z" />
    <glyph glyph-name="parenleft" unicode="(" horiz-adv-x="962" 
d="M860 1714v-237q-233 0 -377.5 -210t-144.5 -550t144.5 -550t377.5 -210v-238q-233 0 -405.5 125t-262.5 350.5t-90 522.5t90 522t262.5 350t405.5 125z" />
    <glyph glyph-name="parenright" unicode=")" horiz-adv-x="962" 
d="M860 717q0 -297 -90 -522.5t-262.5 -350.5t-405.5 -125v238q242 0 383.5 205t141.5 555t-141.5 555t-383.5 205v237q233 0 405.5 -125t262.5 -350t90 -522z" />
    <glyph glyph-name="asterisk" unicode="*" horiz-adv-x="1259" 
d="M750 397h-242l67 400l-262 -324l-170 154l357 239l-439 -61v221l439 -61l-357 239l170 156l262 -326l-67 400h242l-66 -400l262 326l170 -156l-358 -239l440 61v-221l-440 61l358 -239l-170 -154l-262 324z" />
    <glyph glyph-name="plus" unicode="+" horiz-adv-x="1187" 
d="M709 793h417v-232h-415v-416h-232v416h-418v232h416v417h232v-417z" />
    <glyph glyph-name="comma" unicode="," horiz-adv-x="507" 
d="M215 -346h-154l129 553h256z" />
    <glyph glyph-name="hyphen" unicode="-" horiz-adv-x="942" 
d="M61 561v232h820v-232h-820z" />
    <glyph glyph-name="period" unicode="." horiz-adv-x="522" 
d="M141 242q45 45 119 45t122 -44.5t48 -113.5q0 -72 -47.5 -116t-122.5 -44q-72 0 -120 45.5t-48 114.5q0 67 49 113z" />
    <glyph glyph-name="slash" unicode="/" horiz-adv-x="2115" 
d="M350 0h-289l1704 1434h289z" />
    <glyph glyph-name="zero" unicode="0" horiz-adv-x="1992" 
d="M514 61q-204 92 -314 262.5t-110 393.5q0 339 245 544t660 205q275 0 481.5 -93t316.5 -262.5t110 -393.5q0 -168 -64 -307.5t-180.5 -237t-287 -151.5t-376.5 -54q-277 0 -481 94zM672 1163q-141 -62 -216 -175.5t-75 -270.5q0 -234 166.5 -369t447.5 -135
q283 0 450 134.5t167 369.5t-167 370.5t-450 135.5q-181 0 -323 -60z" />
    <glyph glyph-name="one" unicode="1" horiz-adv-x="1241" 
d="M82 1008l811 426h168v-1434h-291v1161l-688 -442v289z" />
    <glyph glyph-name="two" unicode="2" horiz-adv-x="1740" 
d="M451 246h1151v-246h-1496v170q3 146 115 252q113 104 262 168q144 62 383 137q171 55 259 90.5t145 77.5q59 47 59 102q0 119 -116 170.5t-390 51.5q-204 0 -385 -39q-184 -39 -288 -88v256q111 51 313 86q197 30 416 30q384 0 568.5 -98.5t184.5 -312.5
q0 -163 -100 -269q-101 -106 -244 -166q-144 -60 -368 -129q-156 -47 -236 -77.5t-143 -69.5q-67 -42 -90 -96z" />
    <glyph glyph-name="three" unicode="3" horiz-adv-x="1701" 
d="M410 -2q-216 36 -332 90v252q100 -53 309 -90q206 -37 373 -37q303 0 447.5 41t144.5 127q-4 82 -91.5 128.5t-287 70t-557.5 28.5v221q224 12 368 23.5t251 26.5t163 37t82.5 49.5t30.5 68.5q0 191 -553 191q-164 0 -365 -39q-212 -41 -315 -92v252q119 55 330 90
q191 32 370 32q196 0 344 -23t251.5 -70t156.5 -122.5t53 -177.5q2 -68 -29 -128t-80.5 -99.5t-108.5 -68.5t-111 -42t-91 -14q67 2 146 -21.5t151.5 -66.5t119.5 -113.5t44 -152.5q0 -402 -803 -402q-199 0 -411 31z" />
    <glyph glyph-name="four" unicode="4" horiz-adv-x="1787" 
d="M1743 254h-213v-254h-291v254h-1202v182l1028 998h465v-934h213v-246zM442 500h797v770z" />
    <glyph glyph-name="five" unicode="5" horiz-adv-x="1673" 
d="M1530 1190h-1100l-74 -359q87 46 246 72q159 27 330 27q302 0 473.5 -123t171.5 -354q0 -228 -215 -357t-590 -129q-404 0 -663 125v270q277 -149 679 -149q235 0 366.5 64t131.5 180q0 118 -123.5 179.5t-357.5 61.5q-122 0 -279 -34q-161 -38 -280 -93l-146 131
l109 732h1321v-244z" />
    <glyph glyph-name="six" unicode="6" horiz-adv-x="1769" 
d="M537 1092q-156 -129 -156 -367q132 111 303 164t342 53q319 0 486 -130t167 -357q0 -220 -199 -350t-550 -130q-391 0 -615 193q-225 194 -225 573q0 341 239.5 532t659.5 191q181 0 319 -28.5t261 -89.5v-271q-133 73 -277.5 108.5t-324.5 35.5q-276 0 -430 -127z
M911 221q222 0 348.5 66t126.5 184q0 124 -104 188t-307 64q-148 0 -316 -59q-161 -57 -247 -152q42 -136 173.5 -213.5t325.5 -77.5z" />
    <glyph glyph-name="seven" unicode="7" horiz-adv-x="1677" 
d="M29 1434h1611v-121l-976 -1313h-377l950 1190h-1208v244z" />
    <glyph glyph-name="eight" unicode="8" horiz-adv-x="1742" 
d="M119 1067q0 186 199 289.5t554 103.5q346 0 550 -104t204 -289q0 -138 -114 -232t-310 -130q215 -24 340 -109t125 -221q0 -193 -206.5 -304.5t-559.5 -111.5q-388 0 -605.5 109.5t-217.5 306.5q0 136 124 221t339 109q-195 36 -308.5 130t-113.5 232zM1374 395
q0 92 -126.5 141.5t-375.5 49.5t-375 -49.5t-126 -141.5q0 -94 130 -145t371 -51q239 0 370.5 51t131.5 145zM537 1169q-125 -52 -125 -147q0 -93 115 -144t345 -51q228 0 344.5 51t116.5 144q0 95 -123.5 147t-337.5 52q-213 0 -335 -52z" />
    <glyph glyph-name="nine" unicode="9" horiz-adv-x="1769" 
d="M840 1462q391 0 614 -192q225 -194 225 -574q0 -341 -239.5 -532t-659.5 -191q-180 0 -317.5 29t-261.5 90v273q131 -75 275.5 -110.5t326.5 -35.5q278 0 432 128.5t154 365.5q-132 -111 -303.5 -164t-342.5 -53q-319 0 -486 130t-167 357q0 220 199 349.5t551 129.5z
M510 1153q-127 -68 -127 -184q0 -252 412 -252q149 0 317 59q164 58 246 150q-41 137 -173.5 215t-326.5 78q-219 0 -348 -66z" />
    <glyph glyph-name="colon" unicode=":" horiz-adv-x="624" 
d="M141 868q45 45 119 45t122 -44t48 -113q0 -72 -47.5 -116t-122.5 -44q-72 0 -120 45.5t-48 114.5q0 66 49 112zM141 242q45 45 119 45t122 -44.5t48 -113.5q0 -72 -47.5 -116t-122.5 -44q-72 0 -120 45.5t-48 114.5q0 67 49 113z" />
    <glyph glyph-name="semicolon" unicode=";" horiz-adv-x="600" 
d="M215 -346h-154l129 553h256zM186 868q45 45 119 45t122 -44t48 -113q0 -72 -47.5 -116t-122.5 -44q-72 0 -120 45.5t-48 114.5q0 66 49 112z" />
    <glyph glyph-name="less" unicode="&#x3c;" horiz-adv-x="974" 
d="M414 512l438 -512h-369l-422 512l422 512h369z" />
    <glyph glyph-name="equal" unicode="=" horiz-adv-x="1187" 
d="M61 526h1065v-231h-1065v231zM61 813v231h1065v-231h-1065z" />
    <glyph glyph-name="greater" unicode="&#x3e;" horiz-adv-x="913" 
d="M500 512l-439 512h369l422 -512l-422 -512h-369z" />
    <glyph glyph-name="question" unicode="?" horiz-adv-x="1527" 
d="M623 602q41 57 99.5 90t182.5 80q58 21 90 34t67.5 32t53 38.5t30.5 47t15 63.5q0 232 -403 232q-183 0 -293 -78t-109 -217h-305q-1 108 40.5 198.5t112 153.5t164 106.5t196 64t208.5 19.5q143 0 264 -27.5t213 -80t144.5 -136.5t52.5 -190q0 -116 -51.5 -198
t-134.5 -129q-75 -43 -197 -93q-120 -47 -168.5 -80.5t-52.5 -87.5h-267q0 95 48 158zM705 287q72 0 120.5 -45.5t48.5 -112.5q0 -69 -48 -114.5t-121 -45.5q-72 0 -120 45.5t-48 114.5q0 68 48 113t120 45z" />
    <glyph glyph-name="at" unicode="@" horiz-adv-x="2197" 
d="M1448 98v-223q-166 -41 -350 -41q-223 -2 -410.5 58t-316.5 168.5t-200 262.5t-69 336q-3 243 119.5 431.5t350.5 293t526 101.5q219 2 408.5 -58.5t318.5 -164.5t201 -244.5t69 -296.5q0 -163 -85 -286t-251 -185h-393l45 285h-14q-80 -312 -475 -312q-128 0 -220 47
q-94 46 -94 174q0 114 121 179q124 64 266 84q177 25 367 41q-1 99 -57.5 140.5t-186.5 41.5q-90 0 -199.5 -26t-203.5 -68v192q246 92 471 92q212 0 314 -102t102 -293v-434q140 83 194.5 180t54.5 250q0 248 -206 399.5t-547 151.5q-343 0 -547.5 -166t-204.5 -447
t204.5 -446.5t547.5 -165.5q207 0 350 51zM858 483q0 -43 43 -67.5t117 -24.5q136 0 237 64q100 60 103 172l-74 -6q-215 -13 -320.5 -43t-105.5 -95z" />
    <glyph glyph-name="A" unicode="A" horiz-adv-x="2232" 
d="M1292 1434l875 -1434h-336l-178 303h-1073l-177 -303h-335l872 1434h352zM1118 1231l-397 -682h790z" />
    <glyph glyph-name="B" unicode="B" horiz-adv-x="1896" 
d="M1585 1329q121 -106 121 -274q0 -152 -102.5 -233.5t-294.5 -92.5q209 -5 326.5 -95t117.5 -253q0 -170 -128 -275.5t-335 -105.5h-1110v1434h1065q217 0 340 -105zM1219 627h-748l2 -379h746q241 0 241 192q0 187 -241 187zM1415 1006q0 184 -241 184h-705l2 -361h703
q241 0 241 177z" />
    <glyph glyph-name="C" unicode="C" horiz-adv-x="1912" 
d="M958 1466q252 3 450.5 -80.5t308 -234.5t106.5 -342h-295q-9 195 -164 305q-157 109 -406 109q-260 0 -416.5 -136.5t-156.5 -369.5t156 -368.5t417 -135.5q255 0 409 109.5t161 302.5h295q3 -191 -106.5 -342.5t-308 -235t-450.5 -80.5q-189 -2 -350.5 52.5t-275 153
t-177 239.5t-61.5 305q-3 219 106.5 391t307.5 266t450 92z" />
    <glyph glyph-name="D" unicode="D" horiz-adv-x="1779" 
d="M1690 717q0 -347 -219.5 -532t-616.5 -185h-674v1434h674q396 0 616 -185.5t220 -531.5zM1257 369q142 124 142 348q0 226 -143 349.5t-402 123.5h-383v-944h383q259 0 403 123z" />
    <glyph glyph-name="E" unicode="E" horiz-adv-x="1689" 
d="M471 1190v-348h1042v-228h-1042v-368h1061v-246h-1352v1434h1352v-244h-1061z" />
    <glyph glyph-name="F" unicode="F" horiz-adv-x="1583" 
d="M1466 842v-228h-995v-614h-291v1434h1305v-244h-1014v-348h995z" />
    <glyph glyph-name="G" unicode="G" horiz-adv-x="1976" 
d="M975 1466q242 0 432.5 -69.5t299 -196.5t114.5 -291h-293q-12 151 -156 232.5t-393 81.5q-263 0 -420.5 -136.5t-157.5 -369.5t156.5 -368.5t417.5 -135.5q237 0 388 89t177 251h-780v213h1083v-766h-221l-2 270q-92 -149 -261 -226t-384 -77q-189 -2 -350.5 52.5
t-275 153t-177 239.5t-61.5 305q-3 219 106.5 391t307.5 266t450 92z" />
    <glyph glyph-name="H" unicode="H" horiz-adv-x="1904" 
d="M1436 1434h290v-1434h-290v618h-965v-618h-291v1434h291v-570h965v570z" />
    <glyph glyph-name="I" unicode="I" horiz-adv-x="649" 
d="M180 0v1434h291v-1434h-291z" />
    <glyph glyph-name="J" unicode="J" horiz-adv-x="1699" 
d="M821 -33q-702 0 -702 727h293q0 -253 97.5 -367t311.5 -114q212 0 311 114.5t99 366.5v496h-922v244h1213v-740q0 -727 -701 -727z" />
    <glyph glyph-name="K" unicode="K" horiz-adv-x="1986" 
d="M1829 1434l-639 -541l688 -893h-375l-542 702l-490 -399v-303h-291v1434h291v-797l942 797h416z" />
    <glyph glyph-name="L" unicode="L" horiz-adv-x="1546" 
d="M180 1434h291v-1188h999v-246h-1290v1434z" />
    <glyph glyph-name="M" unicode="M" horiz-adv-x="2164" 
d="M1987 1434v-1434h-291v971l-586 -971h-55l-584 965v-965h-291v1434h299l604 -1008l605 1008h299z" />
    <glyph glyph-name="N" unicode="N" horiz-adv-x="1988" 
d="M1808 0h-266l-1071 1032v-1032h-291v1434h264l1074 -1033v1033h290v-1434z" />
    <glyph glyph-name="O" unicode="O" horiz-adv-x="1992" 
d="M514 61q-204 92 -314 262.5t-110 393.5q0 339 245 544t660 205q275 0 481.5 -93t316.5 -262.5t110 -393.5q0 -168 -64 -307.5t-180.5 -237t-287 -151.5t-376.5 -54q-277 0 -481 94zM672 1163q-141 -62 -216 -175.5t-75 -270.5q0 -234 166.5 -369t447.5 -135
q283 0 450 134.5t167 369.5t-167 370.5t-450 135.5q-181 0 -323 -60z" />
    <glyph glyph-name="P" unicode="P" horiz-adv-x="1798" 
d="M1626 1217q60 -105 60 -222q0 -207 -131 -321.5t-351 -114.5h-733v-559h-291v1434h1024q140 0 250.5 -58t171.5 -159zM1337 1147q-59 47 -184 47h-684v-395h684q128 0 185 46t57 150q0 106 -58 152z" />
    <glyph glyph-name="Q" unicode="Q" horiz-adv-x="2033" 
d="M514 61q-204 92 -314 262.5t-110 393.5q0 339 245 544t660 205q275 0 481.5 -93t316.5 -262.5t110 -393.5q0 -235 -119 -406l196 -114l-135 -211l-239 145q-244 -164 -611 -164q-277 0 -481 94zM995 213q210 0 355 74l-369 223l119 201l440 -258q72 116 72 264
q0 235 -167 370.5t-450 135.5q-281 0 -447.5 -135.5t-166.5 -370.5q0 -234 166.5 -369t447.5 -135z" />
    <glyph glyph-name="R" unicode="R" horiz-adv-x="1927" 
d="M1153 557q-77 51 -207 51h-477l2 -608h-291v1434h1127q214 0 337 -103.5t123 -275.5q0 -169 -124 -265t-336 -96h-152q162 -10 278 -81.5t214 -213.5q92 -135 229 -399h-338q-143 259 -231 395q-71 107 -154 162zM1235 1194h-768l2 -348h766q242 0 242 166
q0 94 -57.5 138t-184.5 44z" />
    <glyph glyph-name="S" unicode="S" horiz-adv-x="1783" 
d="M487 924q59 -34 149.5 -48t281.5 -26q236 -14 401 -43q151 -27 264 -117q111 -88 111 -264q0 -142 -101 -246.5t-282 -158.5t-420 -54q-363 0 -583.5 136t-217.5 356h303q-2 -113 126.5 -179.5t348.5 -66.5q533 0 533 203q0 71 -62.5 112t-169.5 54q-90 11 -274 20
q-236 9 -393 37q-153 27 -262 113t-109 258q0 214 203.5 335t544.5 121q351 0 567 -134.5t219 -356.5h-305q2 113 -124 180.5t-339 67.5q-228 0 -350.5 -49.5t-122.5 -141.5q0 -71 63 -108z" />
    <glyph glyph-name="T" unicode="T" horiz-adv-x="1818" 
d="M68 1190v244h1685v-244h-698v-1190h-291v1190h-696z" />
    <glyph glyph-name="U" unicode="U" horiz-adv-x="1861" 
d="M1393 700v734h290v-672q0 -178 -32 -312.5t-92 -226t-153.5 -149t-209 -82.5t-264.5 -25q-188 0 -323.5 40.5t-233.5 132t-146.5 246.5t-48.5 376v672h291v-734q0 -246 113 -364.5t348 -118.5t348 118.5t113 364.5z" />
    <glyph glyph-name="V" unicode="V" horiz-adv-x="2150" 
d="M68 1434h350l657 -1223l658 1223h352l-803 -1434h-414z" />
    <glyph glyph-name="W" unicode="W" horiz-adv-x="2592" 
d="M2181 1434h316l-531 -1434h-328l-340 1010l-344 -1010h-325l-531 1434h316l381 -1057l360 1057h285l358 -1057z" />
    <glyph glyph-name="X" unicode="X" horiz-adv-x="1927" 
d="M1823 1434l-670 -725l651 -709h-372l-478 514l-475 -514h-375l664 721l-659 713h378l478 -516l479 516h379z" />
    <glyph glyph-name="Y" unicode="Y" horiz-adv-x="1914" 
d="M1507 1434h357l-760 -969v-465h-291v463l-762 971h357l550 -715z" />
    <glyph glyph-name="Z" unicode="Z" horiz-adv-x="1824" 
d="M1716 1434v-174l-1163 -1014h1184v-246h-1649v178l1172 1012h-1156v244h1612z" />
    <glyph glyph-name="bracketleft" unicode="[" horiz-adv-x="1050" 
d="M61 1434h928v-168h-637v-1487h637v-168h-928v1823z" />
    <glyph glyph-name="backslash" unicode="\" horiz-adv-x="2115" 
d="M1765 0l-1704 1434h289l1704 -1434h-289z" />
    <glyph glyph-name="bracketright" unicode="]" horiz-adv-x="1050" 
d="M61 1434h928v-1823h-928v168h637v1487h-637v168z" />
    <glyph glyph-name="asciicircum" unicode="^" horiz-adv-x="1146" 
d="M61 891l512 561l512 -561v-242l-512 496l-512 -496v242z" />
    <glyph glyph-name="underscore" unicode="_" horiz-adv-x="2170" 
d="M61 0v231h2048v-231h-2048z" />
    <glyph glyph-name="grave" unicode="`" horiz-adv-x="792" 
d="M102 1659l588 -361v-184l-588 316v229z" />
    <glyph glyph-name="a" unicode="a" horiz-adv-x="1390" 
d="M463 795q-145 -38 -244 -82v233q136 50 290 80.5t282 30.5q505 0 505 -479v-578h-286l55 346h-18q-95 -379 -576 -379q-153 0 -266 58q-115 56 -115 213q0 132 137 208q136 77 314 107q190 29 424 49l41 4q-1 118 -71 168.5t-226 50.5q-114 0 -246 -30zM588 172
q108 0 200.5 32.5t152.5 99.5t60 155l-88 -6q-184 -13 -279 -27.5t-165 -46.5q-76 -34 -76 -96q0 -51 52.5 -81t142.5 -30z" />
    <glyph glyph-name="b" unicode="b" horiz-adv-x="1617" 
d="M539 145q-74 87 -97 189h-24l45 -334h-299v1434h291v-742h8q35 177 184 271t348 94q146 0 267.5 -67.5t193.5 -191t72 -278.5q0 -245 -161 -399t-415 -154q-127 0 -234 46.5t-179 131.5zM563 346q49 -73 133 -113t183 -40q163 0 263.5 88t100.5 235q0 145 -100.5 231.5
t-263.5 86.5q-152 0 -259.5 -89.5t-107.5 -228.5q0 -99 51 -170z" />
    <glyph glyph-name="c" unicode="c" horiz-adv-x="1318" 
d="M772 193q146 0 251.5 28t205.5 90v-239q-140 -62 -230 -82q-103 -23 -241 -23q-192 0 -344 67.5t-238 192.5t-86 285q0 246 184 395.5t486 149.5q133 0 236 -23.5t233 -81.5v-245q-119 67 -229.5 97t-247.5 30q-171 0 -274 -89t-103 -233q0 -143 109 -231t288 -88z" />
    <glyph glyph-name="d" unicode="d" horiz-adv-x="1617" 
d="M971 963q149 -94 184 -271h8v742h291v-1434h-299l45 334h-24q-37 -161 -178.5 -264t-331.5 -103q-254 0 -415 154t-161 399q0 155 72 278.5t193.5 191t267.5 67.5q199 0 348 -94zM739 193q152 0 259.5 90t107.5 233q0 139 -107.5 228.5t-259.5 89.5q-163 0 -263.5 -86.5
t-100.5 -231.5q0 -147 100.5 -235t263.5 -88z" />
    <glyph glyph-name="e" unicode="e" horiz-adv-x="1413" 
d="M707 1057q273 0 443 -129t173 -336v-168h-944q26 -125 127 -180.5t303 -55.5q141 0 233 25q83 20 189 68l47 20v-233q-155 -59 -268 -80q-114 -21 -303 -21q-277 0 -447 150.5t-170 394.5t170 394.5t447 150.5zM479 762q-92 -74 -104 -197l672 17q-4 115 -97.5 183.5
t-242.5 68.5q-138 0 -228 -72z" />
    <glyph glyph-name="f" unicode="f" horiz-adv-x="892" 
d="M795 819h-279v-819h-291v813h-133v211h133v41q0 205 75.5 296t256.5 91q78 0 238 -33v-159l-70 2q-54 -2 -85 -5t-56.5 -15t-36.5 -23.5t-19 -43.5t-9.5 -61t-2.5 -90h279v-205z" />
    <glyph glyph-name="g" unicode="g" horiz-adv-x="1589" 
d="M991 963q150 -95 185 -271h30l-26 332h276v-901q0 -263 -176 -398t-492 -135q-162 0 -276 21q-96 18 -248 70v251q73 -54 211 -86t291 -32q214 0 313 86t105 268l6 137q-44 -153 -181 -240.5t-323 -87.5q-168 0 -298.5 66.5t-203.5 190t-73 286.5q0 155 72 278.5t193 191
t267 67.5q199 0 348 -94zM1077 684q-51 71 -134.5 110.5t-182.5 39.5q-163 0 -264 -86.5t-101 -231.5q0 -147 101 -235t264 -88q152 0 259 90t107 233q0 95 -49 168z" />
    <glyph glyph-name="h" unicode="h" horiz-adv-x="1452" 
d="M932 1057q149 -2 241.5 -62.5t138.5 -195t46 -355.5v-444h-291v410q0 231 -65.5 329.5t-215.5 98.5q-165 0 -263.5 -152t-98.5 -403v-283h-291v1434h320l-41 -832h16q75 455 504 455z" />
    <glyph glyph-name="i" unicode="i" horiz-adv-x="593" 
d="M444 1024v-1024h-290v1024h290zM430 1489q47 -41 47 -123q0 -81 -47.5 -123.5t-134.5 -42.5q-85 0 -131.5 42.5t-46.5 123.5t46 122.5t132 41.5q85 0 135 -41z" />
    <glyph glyph-name="j" unicode="j" horiz-adv-x="604" 
d="M379 -227q-66 -87 -178.5 -135t-249.5 -48v179q97 0 150 48.5t53 131.5v1075h290v-1044q0 -118 -65 -207zM297 1200q-85 0 -131.5 42.5t-46.5 123.5t46 122.5t132 41.5q87 0 134.5 -41.5t47.5 -122.5t-47.5 -123.5t-134.5 -42.5z" />
    <glyph glyph-name="k" unicode="k" horiz-adv-x="1495" 
d="M975 1024h416l-414 -336l430 -688h-356l-293 508l-334 -268v-240h-291v1434h291v-887z" />
    <glyph glyph-name="l" unicode="l" horiz-adv-x="618" 
d="M164 0v1434h291v-1434h-291z" />
    <glyph glyph-name="m" unicode="m" horiz-adv-x="2385" 
d="M932 1057q194 -5 294 -110.5t124 -344.5h12q75 455 504 455q149 -2 241.5 -62.5t138.5 -195t46 -355.5v-444h-291v410q0 233 -66 333t-215 95q-165 0 -263.5 -152t-98.5 -403v-283h-291v410q0 233 -66 333t-215 95q-165 0 -263.5 -152t-98.5 -403v-283h-291v1024h320
l-41 -422h16q75 455 504 455z" />
    <glyph glyph-name="n" unicode="n" horiz-adv-x="1452" 
d="M932 1057q149 -2 241.5 -62.5t138.5 -195t46 -355.5v-444h-291v410q0 231 -65.5 329.5t-215.5 98.5q-165 0 -263.5 -152t-98.5 -403v-283h-291v1024h320l-41 -422h16q75 455 504 455z" />
    <glyph glyph-name="o" unicode="o" horiz-adv-x="1464" 
d="M1069 989q146 -68 225.5 -192t79.5 -285q0 -245 -176.5 -395t-466.5 -150q-287 0 -464 150.5t-177 394.5t177 394.5t464 150.5q193 0 338 -68zM731 193q167 0 270 88t103 231q0 146 -102.5 234t-270.5 88q-165 0 -268 -89.5t-103 -232.5t102.5 -231t268.5 -88z" />
    <glyph glyph-name="p" unicode="p" horiz-adv-x="1617" 
d="M952 1057q254 0 415 -154t161 -399q0 -155 -72 -278.5t-193.5 -191t-267.5 -67.5q-203 0 -348 96q-150 94 -184 269h-8v-742h-291v1434h299l-45 -334h24q38 164 179 266q140 101 331 101zM512 508q0 -139 107.5 -227t259.5 -88q163 0 263.5 85t100.5 230
q0 148 -100.5 237t-263.5 89q-153 0 -260 -90.5t-107 -235.5z" />
    <glyph glyph-name="q" unicode="q" horiz-adv-x="1617" 
d="M623 -33q-146 0 -267.5 67.5t-193.5 191t-72 278.5q0 245 161 399t415 154q191 0 331 -101q141 -102 179 -266h24l-45 334h299v-1434h-291v742h-8q-34 -175 -184 -269q-145 -96 -348 -96zM477 745q-102 -89 -102 -237q0 -145 100.5 -230t263.5 -85q152 0 259.5 88
t107.5 227q0 145 -107 235.5t-260 90.5q-159 0 -262 -89z" />
    <glyph glyph-name="r" unicode="r" horiz-adv-x="1093" 
d="M1026 1057v-244q-321 0 -461.5 -110t-140.5 -359v-344h-291v1024h320l-41 -381h20q40 224 174.5 319t419.5 95z" />
    <glyph glyph-name="s" unicode="s" horiz-adv-x="1406" 
d="M395 442q-130 22 -210.5 90t-80.5 185q0 165 160 252.5t443 87.5q93 0 237 -15q132 -14 275 -43v-231q-281 59 -482 59q-180 0 -263 -25.5t-83 -80.5q0 -48 70 -67.5t246 -32.5q206 -15 315.5 -39.5t191.5 -85.5q86 -65 86 -191q0 -169 -156.5 -253.5t-445.5 -84.5
q-118 0 -273.5 22.5t-274.5 57.5v244q257 -98 503 -98q197 0 280 25t83 87q0 51 -67.5 69.5t-250.5 31.5q-185 15 -303 36z" />
    <glyph glyph-name="t" unicode="t" horiz-adv-x="886" 
d="M524 262q8 -50 47 -71t131 -21q6 0 20 0.5t40.5 1.5t48.5 2v-154q-121 -40 -279 -40q-70 3 -116 10t-81.5 26.5t-54.5 44t-32 71.5t-17 99.5t-6 137.5v444h-147v211h160v246l278 41v-287h295v-211h-295v-383q0 -127 8 -168z" />
    <glyph glyph-name="u" unicode="u" horiz-adv-x="1452" 
d="M858 256q82 68 126 193.5t44 291.5v283h291v-1024h-320l41 422h-14q-36 -219 -162 -337t-342 -118q-224 3 -326 145t-102 468v444h291v-410q0 -228 66.5 -328t216.5 -100q108 0 190 70z" />
    <glyph glyph-name="v" unicode="v" horiz-adv-x="1617" 
d="M68 1024h309l432 -819l432 819h311l-540 -1024h-404z" />
    <glyph glyph-name="w" unicode="w" horiz-adv-x="2203" 
d="M1864 1024h288l-438 -1024h-377l-241 590l-228 -590h-379l-438 1024h291l328 -776l311 776h223l330 -780z" />
    <glyph glyph-name="x" unicode="x" horiz-adv-x="1619" 
d="M1567 1024l-570 -522l545 -502h-375l-368 340l-373 -340h-373l555 514l-555 510h377l379 -348l383 348h375z" />
    <glyph glyph-name="y" unicode="y" horiz-adv-x="1581" 
d="M668 2l-617 1022h322l430 -754l420 754h307l-787 -1434h-305z" />
    <glyph glyph-name="z" unicode="z" horiz-adv-x="1466" 
d="M1384 219v-219h-1323v123l832 682h-815v219h1327v-117l-827 -688h806z" />
    <glyph glyph-name="braceleft" unicode="{" horiz-adv-x="1413" 
d="M825 1546q154 45 478 45v-125q-281 0 -396.5 -64.5t-115.5 -238.5q0 -137 -15 -213q-15 -75 -90 -141q-77 -65 -240 -92q80 -6 139.5 -22t101.5 -45t68.5 -65t42 -89.5t21 -110t6.5 -133.5q0 -161 114.5 -226t371.5 -65v-125q-154 2 -264 12t-190 32.5t-129.5 52.5
t-79 79t-41 104t-13.5 136q0 200 -127.5 296.5t-405.5 96.5v139q265 4 380.5 97.5t115.5 281.5q0 161 53 250q51 86 215 133z" />
    <glyph glyph-name="bar" unicode="|" horiz-adv-x="536" 
d="M123 -348v1823h291v-1823h-291z" />
    <glyph glyph-name="braceright" unicode="}" horiz-adv-x="1443" 
d="M600 1348q-53 65 -161 91.5t-298 26.5v125q163 -2 278.5 -12t199.5 -33t134 -53t80 -81t41 -107.5t13 -141.5q0 -188 115 -281.5t380 -97.5v-139q-278 0 -405 -96t-127 -297q-2 -81 -13.5 -136t-41 -104t-79 -79t-129.5 -52.5t-190 -32.5t-264 -12v125q257 0 371 65
t114 226q1 77 6.5 133.5t21 110t42 89.5t68.5 65t101.5 45t139.5 22q-291 52 -327 233q-17 87 -17 213q0 120 -53 185z" />
    <glyph glyph-name="asciitilde" unicode="~" horiz-adv-x="903" 
d="M412 725q-33 31 -54 44t-45 13q-58 0 -92 -37t-35 -108h-125q1 118 71.5 192t180.5 74q45 0 78.5 -18.5t79.5 -63.5q40 -37 64.5 -51t54.5 -14q126 0 129 145h123q-1 -121 -71 -193.5t-181 -72.5q-52 0 -91.5 21.5t-86.5 68.5z" />
    <glyph glyph-name="exclamdown" unicode="&#xa1;" horiz-adv-x="563" 
d="M428 436l21 -831h-322l20 831h281zM403 1026q48 -48 48 -115q0 -69 -48 -114t-122 -45q-72 0 -120 45t-48 114q0 68 48 113t120 45q76 0 122 -43z" />
    <glyph glyph-name="cent" unicode="&#xa2;" horiz-adv-x="1206" 
d="M481 -61v247q-192 57 -301.5 192t-109.5 318q0 188 109 322t302 190v226h353v-197q97 -6 182.5 -29t191.5 -71v-246q-119 67 -229.5 97t-247.5 30q-171 0 -274 -89t-103 -233q0 -143 109.5 -231t288.5 -88q145 0 250.5 28t205.5 91v-240q-110 -50 -191 -72.5t-183 -29.5
v-215h-353z" />
    <glyph glyph-name="sterling" unicode="&#xa3;" horiz-adv-x="1847" 
d="M377 485q0 8 -4 62h-193v219h142q-46 162 -46 270q0 228 178 328t570 100q202 0 412 -20q206 -20 309 -51v-254q-73 27 -291 53q-231 27 -383 27q-270 0 -383 -55.5t-113 -202.5q0 -57 23 -195h1036v-219h-1018q-5 -97 -42.5 -172.5t-118.5 -134.5h1276v-240h-1557v244
q106 48 153.5 106.5t49.5 134.5z" />
    <glyph glyph-name="currency" unicode="&#xa4;" horiz-adv-x="1474" 
d="M514 258l-205 -205l-205 205l166 166q-77 109 -77 252q0 155 86 264l-175 174l205 205l219 -219q98 26 207 26q123 0 211 -24l219 217l205 -205l-172 -172q80 -106 80 -266q0 -150 -72 -254l164 -164l-205 -205l-202 201q-106 -29 -228 -29q-133 0 -221 33zM504 477
q85 -76 231 -76q147 0 234.5 75.5t87.5 199.5q0 125 -87.5 199.5t-234.5 74.5t-233 -74.5t-86 -199.5q0 -123 88 -199z" />
    <glyph glyph-name="yen" unicode="&#xa5;" horiz-adv-x="1832" 
d="M813 463l-57 74h-525v208h361l-541 689h357l530 -689h41l528 689h357l-541 -689h363v-208h-527l-55 -72v-12h582v-209h-582v-244h-291v244h-582v209h582v10z" />
    <glyph glyph-name="brokenbar" unicode="&#xa6;" horiz-adv-x="536" 
d="M123 508h291v-856h-291v856zM123 641v834h291v-834h-291z" />
    <glyph glyph-name="section" unicode="&#xa7;" horiz-adv-x="1318" 
d="M633 410q-199 23 -304.5 49.5t-183.5 85.5q-84 66 -84 178q0 115 109 164q-109 83 -109 190q0 162 160.5 249t442.5 87q103 0 237 -14q132 -14 275 -43v-223q-107 22 -255.5 37.5t-256.5 15.5q-184 0 -248 -17.5t-64 -70.5q0 -33 57 -48t209 -30q211 -20 332.5 -49
t210.5 -97q96 -75 96 -208q0 -106 -94 -170q94 -85 94 -185q0 -151 -159.5 -231t-442.5 -80q-118 0 -274 22.5t-275 57.5v223q126 -48 250 -67q120 -21 299 -21q176 0 244 15.5t68 54.5q0 52 -71.5 75.5t-262.5 49.5zM737 571q114 0 167.5 30t53.5 97q0 65 -69.5 99.5
t-226.5 52.5q-86 4 -91 4q-105 0 -156 -29.5t-57 -91.5q-5 -69 64.5 -108t224.5 -52q23 -2 90 -2z" />
    <glyph glyph-name="dieresis" unicode="&#xa8;" horiz-adv-x="1204" 
d="M160 1403q56 47 145 47q96 0 149.5 -47t53.5 -127t-53.5 -127t-149.5 -47q-91 0 -147 48t-56 126t58 127zM899 1102q-91 0 -147 48t-56 126t56 126t147 48q96 0 149.5 -47t53.5 -127t-53.5 -127t-149.5 -47z" />
    <glyph glyph-name="copyright" unicode="&#xa9;" horiz-adv-x="1976" 
d="M1464 61q-198 -94 -477 -94q-411 0 -648 204.5t-237 545.5q0 340 240 544.5t645 204.5q413 0 650 -202.5t237 -546.5q0 -225 -106 -394.5t-304 -261.5zM987 1411q-194 0 -352 -51.5t-262.5 -144.5t-160.5 -221t-56 -281q0 -203 98 -358.5t287.5 -243.5t445.5 -88
q202 0 360.5 51t261 144t155.5 220.5t53 282.5q0 154 -53.5 280.5t-156.5 218t-261 141.5t-359 50zM1319 1204q140 -62 216.5 -173t76.5 -253h-295q-11 122 -99 196.5t-221 74.5q-146 0 -235.5 -90.5t-89.5 -239.5t89.5 -239.5t235.5 -90.5q137 0 227 79t97 208h293
q0 -226 -170 -364t-447 -138t-446.5 150t-169.5 395t169.5 395t446.5 150q180 0 322 -60z" />
    <glyph glyph-name="guillemotleft" unicode="&#xab;" horiz-adv-x="1751" 
d="M92 512l422 512h369l-439 -512l439 -512h-369zM1659 1024l-438 -512l438 -512h-369l-422 512l422 512h369z" />
    <glyph glyph-name="logicalnot" unicode="&#xac;" horiz-adv-x="1372" 
d="M61 854h1250v-698h-232l-2 467h-1016v231z" />
    <glyph glyph-name="registered" unicode="&#xae;" horiz-adv-x="1976" 
d="M1769 1114q105 -169 105 -397q0 -342 -237.5 -546t-649.5 -204q-411 0 -648 204.5t-237 545.5q0 340 240 544.5t645 204.5q274 0 474.5 -91.5t307.5 -260.5zM1444 1325q-189 86 -457 86q-194 0 -352 -51.5t-262.5 -144.5t-160.5 -221t-56 -281q0 -203 98 -358.5
t287.5 -243.5t445.5 -88q202 0 360.5 51t261 144t155.5 220.5t53 282.5q0 206 -94.5 361.5t-278.5 242.5zM1133 618q-54 31 -129 31h-297v-377h-181v891h701q133 0 209.5 -64.5t76.5 -170.5q0 -105 -77.5 -165.5t-208.5 -60.5h-94q100 -6 171.5 -50t133.5 -132
q68 -99 143 -248h-211q-98 178 -141 244q-43 65 -96 102zM1182 1014h-477l2 -217h475q149 0 149 102q0 60 -35.5 87.5t-113.5 27.5z" />
    <glyph glyph-name="overscore" unicode="&#xaf;" horiz-adv-x="1294" 
d="M102 1323v111h1090v-111h-1090z" />
    <glyph glyph-name="degree" unicode="&#xb0;" horiz-adv-x="1060" 
d="M840 1384q118 -69 118 -186q0 -115 -118.5 -185.5t-309.5 -70.5q-177 0 -302.5 73t-125.5 183t125.5 183t302.5 73q191 0 310 -70zM530 1038q97 0 156 42t59 114q0 75 -59 119.5t-156 44.5q-95 0 -154 -43.5t-59 -116.5t59 -116.5t154 -43.5z" />
    <glyph glyph-name="plusminus" unicode="&#xb1;" horiz-adv-x="1228" 
d="M993 698h-297v-297h-204v297h-297v205h297v297h204v-297h297v-205zM1126 150v-150h-1065v150h1065z" />
    <glyph glyph-name="acute" unicode="&#xb4;" horiz-adv-x="792" 
d="M102 1114v184l588 361v-229z" />
    <glyph glyph-name="paragraph" unicode="&#xb6;" horiz-adv-x="1923" 
d="M1106 -369h-299v928h-264q-220 0 -351 114.5t-131 321.5q0 186 134.5 312.5t347.5 126.5h563v-1803zM1862 -369h-291v1803h291v-1803z" />
    <glyph glyph-name="middot" unicode="&#xb7;" horiz-adv-x="522" 
d="M141 745q46 46 119 46q74 0 122 -44.5t48 -113.5q0 -72 -47.5 -116t-122.5 -44q-72 0 -120 45.5t-48 114.5q0 66 49 112z" />
    <glyph glyph-name="cedilla" unicode="&#xb8;" horiz-adv-x="1077" 
d="M866 -477q-112 -52 -311 -81.5t-453 -29.5v113q568 3 568 113q0 56 -134.5 85t-433.5 33v109l119 207h219l-108 -213q305 -17 474 -74t169 -147q0 -62 -109 -115z" />
    <glyph glyph-name="guillemotright" unicode="&#xbb;" horiz-adv-x="1812" 
d="M92 0l438 512l-438 512h369l422 -512l-422 -512h-369zM868 1024h369l422 -512l-422 -512h-369l439 512z" />
    <glyph glyph-name="onequarter" unicode="&#xbc;" horiz-adv-x="3282" 
d="M1976 422l703 682h317v-639h146v-166h-146v-174h-198v174h-822v123zM2507 1479l-1407 -1524h-240l1409 1524h238zM594 1122l-471 -301v197l555 291h115v-979h-199v792zM2255 465h543v528z" />
    <glyph glyph-name="onehalf" unicode="&#xbd;" horiz-adv-x="3551" 
d="M2648 1102q141 22 285 22q263 0 388.5 -67t125.5 -213q0 -104 -64 -178t-170 -119q-94 -40 -254 -88q-157 -46 -227 -80.5t-92 -85.5h786v-168h-1022v117q1 94 72 165.5t184 118.5q113 48 265 97q177 56 246 93t69 89q0 82 -78.5 116.5t-267.5 34.5q-140 0 -264 -26
q-136 -28 -195 -60v174q84 38 213 58zM1098 -45h-240l1409 1524h238zM123 821v197l555 291h115v-979h-199v792z" />
    <glyph glyph-name="threequarters" unicode="&#xbe;" horiz-adv-x="3297" 
d="M1991 293v123l702 682h318v-639h145v-166h-145v-174h-199v174h-821zM903 678q-122 64 -577 67v150q153 9 250 17t171 18.5t111.5 25t56.5 33.5t21 47q0 129 -377 129q-111 0 -250 -26q-143 -27 -215 -62v172q85 39 225 62q151 22 254 22q549 0 549 -268q3 -58 -29.5 -107
t-81 -77t-95.5 -43t-80 -15q65 0 135 -25.5t125 -83t55 -132.5q0 -275 -557 -275q-124 0 -275 23q-148 23 -225 59v172q66 -37 211 -61q147 -25 254 -25q208 0 307 27.5t99 87.5q0 53 -62 88zM2521 1479l-1407 -1524h-240l1410 1524h237zM2812 987l-543 -528h543v528z" />
    <glyph glyph-name="questiondown" unicode="&#xbf;" horiz-adv-x="1519" 
d="M559 504q54 36 57 90h267q0 -170 -156 -252q-67 -36 -174 -76q-58 -21 -90 -34t-67.5 -32t-53 -38.5t-30.5 -47t-15 -63.5q0 -231 403 -231q184 0 293.5 78.5t108.5 218.5h305q2 -109 -39 -200.5t-111 -154.5t-163.5 -106.5t-196 -64t-209.5 -19.5q-143 0 -264 27.5
t-213 80t-144.5 136.5t-52.5 190q0 116 52 198.5t135 129.5q67 40 194 92q112 44 164 78zM586 911q0 69 47.5 113.5t122.5 44.5q70 0 119 -45.5t49 -112.5q0 -68 -49 -113.5t-119 -45.5q-74 0 -122 45t-48 114z" />
    <glyph glyph-name="Agrave" unicode="&#xc0;" horiz-adv-x="2232" 
d="M1292 1434l875 -1434h-336l-178 303h-1073l-177 -303h-335l872 1434h352zM1118 1231l-397 -682h790zM543 2068l587 -360v-184l-587 315v229z" />
    <glyph glyph-name="Aacute" unicode="&#xc1;" horiz-adv-x="2232" 
d="M1292 1434l875 -1434h-336l-178 303h-1073l-177 -303h-335l872 1434h352zM1118 1231l-397 -682h790zM1069 1524v184l588 360v-229z" />
    <glyph glyph-name="Acircumflex" unicode="&#xc2;" horiz-adv-x="2232" 
d="M1292 1434l875 -1434h-336l-178 303h-1073l-177 -303h-335l872 1434h352zM1118 1231l-397 -682h790zM1118 1882l-588 -336v164l588 381l588 -381v-164z" />
    <glyph glyph-name="Atilde" unicode="&#xc3;" horiz-adv-x="2232" 
d="M1292 1434l875 -1434h-336l-178 303h-1073l-177 -303h-335l872 1434h352zM1118 1231l-397 -682h790zM1114 1671q-34 32 -54.5 45t-43.5 13q-58 0 -92 -37.5t-35 -108.5h-125q1 118 71.5 192t180.5 74q45 0 78.5 -18.5t79.5 -63.5q40 -37 64.5 -51t53.5 -14q126 0 129 145
h123q-1 -121 -71 -193.5t-181 -72.5q-52 0 -91.5 21.5t-86.5 68.5z" />
    <glyph glyph-name="Adieresis" unicode="&#xc4;" horiz-adv-x="2232" 
d="M1292 1434l875 -1434h-336l-178 303h-1073l-177 -303h-335l872 1434h352zM1118 1231l-397 -682h790zM684 1812q57 48 145 48q96 0 149.5 -47t53.5 -127t-53.5 -127.5t-149.5 -47.5q-91 0 -146.5 48.5t-55.5 126.5t57 126zM1423 1511q-91 0 -146.5 48.5t-55.5 126.5
t55.5 126t146.5 48q96 0 149.5 -47t53.5 -127t-53.5 -127.5t-149.5 -47.5z" />
    <glyph glyph-name="Aring" unicode="&#xc5;" horiz-adv-x="2232" 
d="M1292 1434l875 -1434h-336l-178 303h-1073l-177 -303h-335l872 1434h352zM1118 1231l-397 -682h790zM1389 1907q118 -26 182.5 -74t64.5 -111q0 -94 -144.5 -152.5t-373.5 -58.5q-140 0 -258 26.5t-189 75t-71 109.5t71 109.5t189 75t258 26.5q155 0 271 -26zM1118 1616
q84 0 135.5 27.5t51.5 76.5q0 53 -49.5 81t-137.5 28q-83 0 -132.5 -28.5t-49.5 -78.5t49.5 -78t132.5 -28z" />
    <glyph glyph-name="AE" unicode="&#xc6;" horiz-adv-x="2934" 
d="M1745 623v-394h1030v-229h-1321v303h-766l-244 -303h-376l1216 1434h1491v-230h-1030v-370h1012v-211h-1012zM1454 532v723l-582 -723h582z" />
    <glyph glyph-name="Ccedilla" unicode="&#xc7;" horiz-adv-x="1912" 
d="M737 -135l64 112q-322 40 -514.5 240t-192.5 500q-3 219 106.5 391t307.5 266t450 92q252 3 450.5 -80.5t308 -234.5t106.5 -342h-295q-9 195 -164 305q-157 109 -406 109q-260 0 -416.5 -136.5t-156.5 -369.5t156 -368.5t417 -135.5q255 0 409 109.5t161 302.5h295
q0 -282 -220 -461.5t-581 -194.5l-55 -110q305 -17 474 -74t169 -147q0 -63 -109 -114.5t-309.5 -81.5t-454.5 -30v113q568 3 568 113q0 56 -134.5 85t-433.5 33v109z" />
    <glyph glyph-name="Egrave" unicode="&#xc8;" horiz-adv-x="1689" 
d="M471 1190v-348h1042v-228h-1042v-368h1061v-246h-1352v1434h1352v-244h-1061zM287 2068l587 -360v-184l-587 315v229z" />
    <glyph glyph-name="Eacute" unicode="&#xc9;" horiz-adv-x="1689" 
d="M471 1190v-348h1042v-228h-1042v-368h1061v-246h-1352v1434h1352v-244h-1061zM813 1524v184l588 360v-229z" />
    <glyph glyph-name="Ecircumflex" unicode="&#xca;" horiz-adv-x="1689" 
d="M471 1190v-348h1042v-228h-1042v-368h1061v-246h-1352v1434h1352v-244h-1061zM862 1882l-588 -336v164l588 381l588 -381v-164z" />
    <glyph glyph-name="Edieresis" unicode="&#xcb;" horiz-adv-x="1689" 
d="M471 1190v-348h1042v-228h-1042v-368h1061v-246h-1352v1434h1352v-244h-1061zM428 1812q57 48 145 48q96 0 149.5 -47t53.5 -127t-53.5 -127.5t-149.5 -47.5q-91 0 -146.5 48.5t-55.5 126.5t57 126zM1167 1511q-91 0 -146.5 48.5t-55.5 126.5t55.5 126t146.5 48
q96 0 149.5 -47t53.5 -127t-53.5 -127.5t-149.5 -47.5z" />
    <glyph glyph-name="Igrave" unicode="&#xcc;" horiz-adv-x="649" 
d="M180 0v1434h291v-1434h-291zM-252 2068l588 -360v-184l-588 315v229z" />
    <glyph glyph-name="Iacute" unicode="&#xcd;" horiz-adv-x="649" 
d="M180 0v1434h291v-1434h-291zM276 1524v184l588 360v-229z" />
    <glyph glyph-name="Icircumflex" unicode="&#xce;" horiz-adv-x="649" 
d="M180 0v1434h291v-1434h-291zM324 1882l-588 -336v164l588 381l587 -381v-164z" />
    <glyph glyph-name="Idieresis" unicode="&#xcf;" horiz-adv-x="649" 
d="M180 0v1434h291v-1434h-291zM-111 1812q57 48 146 48q96 0 149.5 -47t53.5 -127t-53.5 -127.5t-149.5 -47.5q-91 0 -147 48.5t-56 126.5t57 126zM629 1511q-91 0 -147 48.5t-56 126.5t56 126t147 48q96 0 149 -47t53 -127q0 -81 -53 -128t-149 -47z" />
    <glyph glyph-name="Eth" unicode="&#xd0;" horiz-adv-x="1779" 
d="M854 0h-674v602h-139v232h139v600h674q396 0 616 -185.5t220 -531.5q0 -347 -219.5 -532t-616.5 -185zM471 834h594v-232h-594v-356h383q260 0 402.5 123t142.5 348q0 226 -143 349.5t-402 123.5h-383v-356z" />
    <glyph glyph-name="Ntilde" unicode="&#xd1;" horiz-adv-x="1988" 
d="M1808 0h-266l-1071 1032v-1032h-291v1434h264l1074 -1033v1033h290v-1434zM997 1671q-34 32 -54.5 45t-43.5 13q-58 0 -92 -37.5t-35 -108.5h-125q1 118 71.5 192t180.5 74q45 0 78.5 -18.5t79.5 -63.5q40 -37 64.5 -51t54.5 -14q126 0 129 145h122q-1 -121 -70.5 -193.5
t-180.5 -72.5q-52 0 -92 21.5t-87 68.5z" />
    <glyph glyph-name="Ograve" unicode="&#xd2;" horiz-adv-x="1992" 
d="M514 61q-204 92 -314 262.5t-110 393.5q0 339 245 544t660 205q275 0 481.5 -93t316.5 -262.5t110 -393.5q0 -168 -64 -307.5t-180.5 -237t-287 -151.5t-376.5 -54q-277 0 -481 94zM672 1163q-141 -62 -216 -175.5t-75 -270.5q0 -234 166.5 -369t447.5 -135
q283 0 450 134.5t167 369.5t-167 370.5t-450 135.5q-181 0 -323 -60zM422 2068l588 -360v-184l-588 315v229z" />
    <glyph glyph-name="Oacute" unicode="&#xd3;" horiz-adv-x="1992" 
d="M514 61q-204 92 -314 262.5t-110 393.5q0 339 245 544t660 205q275 0 481.5 -93t316.5 -262.5t110 -393.5q0 -168 -64 -307.5t-180.5 -237t-287 -151.5t-376.5 -54q-277 0 -481 94zM672 1163q-141 -62 -216 -175.5t-75 -270.5q0 -234 166.5 -369t447.5 -135
q283 0 450 134.5t167 369.5t-167 370.5t-450 135.5q-181 0 -323 -60zM948 1524v184l588 360v-229z" />
    <glyph glyph-name="Ocircumflex" unicode="&#xd4;" horiz-adv-x="1992" 
d="M514 61q-204 92 -314 262.5t-110 393.5q0 339 245 544t660 205q275 0 481.5 -93t316.5 -262.5t110 -393.5q0 -168 -64 -307.5t-180.5 -237t-287 -151.5t-376.5 -54q-277 0 -481 94zM672 1163q-141 -62 -216 -175.5t-75 -270.5q0 -234 166.5 -369t447.5 -135
q283 0 450 134.5t167 369.5t-167 370.5t-450 135.5q-181 0 -323 -60zM997 1882l-587 -336v164l587 381l588 -381v-164z" />
    <glyph glyph-name="Otilde" unicode="&#xd5;" horiz-adv-x="1992" 
d="M514 61q-204 92 -314 262.5t-110 393.5q0 339 245 544t660 205q275 0 481.5 -93t316.5 -262.5t110 -393.5q0 -168 -64 -307.5t-180.5 -237t-287 -151.5t-376.5 -54q-277 0 -481 94zM672 1163q-141 -62 -216 -175.5t-75 -270.5q0 -234 166.5 -369t447.5 -135
q283 0 450 134.5t167 369.5t-167 370.5t-450 135.5q-181 0 -323 -60zM993 1671q-34 32 -54.5 45t-43.5 13q-58 0 -92 -37.5t-35 -108.5h-125q1 118 71.5 192t180.5 74q45 0 78.5 -18.5t79.5 -63.5q40 -37 64.5 -51t53.5 -14q126 0 129 145h123q-1 -121 -71 -193.5
t-181 -72.5q-52 0 -91.5 21.5t-86.5 68.5z" />
    <glyph glyph-name="Odieresis" unicode="&#xd6;" horiz-adv-x="1992" 
d="M514 61q-204 92 -314 262.5t-110 393.5q0 339 245 544t660 205q275 0 481.5 -93t316.5 -262.5t110 -393.5q0 -168 -64 -307.5t-180.5 -237t-287 -151.5t-376.5 -54q-277 0 -481 94zM672 1163q-141 -62 -216 -175.5t-75 -270.5q0 -234 166.5 -369t447.5 -135
q283 0 450 134.5t167 369.5t-167 370.5t-450 135.5q-181 0 -323 -60zM563 1812q57 48 146 48q96 0 149 -47t53 -127q0 -81 -53 -128t-149 -47q-91 0 -147 48.5t-56 126.5t57 126zM1303 1511q-91 0 -147 48.5t-56 126.5t56 126t147 48q96 0 149 -47t53 -127q0 -81 -53 -128
t-149 -47z" />
    <glyph glyph-name="multiply" unicode="&#xd7;" horiz-adv-x="1228" 
d="M756 678l295 -295l-162 -164l-295 295l-295 -295l-162 164l293 295l-295 295l164 162l295 -293l295 295l162 -164z" />
    <glyph glyph-name="Oslash" unicode="&#xd8;" horiz-adv-x="1992" 
d="M422 109l-129 -109h-289l270 227q-184 196 -184 490q0 339 245 544t660 205q347 0 580 -145l133 113h289l-275 -232q181 -196 181 -485q0 -168 -64 -307.5t-180.5 -237t-287 -151.5t-376.5 -54q-337 0 -573 142zM457 989q-76 -113 -76 -272q0 -187 106 -311l875 737
q-154 80 -367 80q-185 0 -324 -60.5t-214 -173.5zM995 213q283 0 450 134.5t167 369.5q0 180 -103 307l-872 -735q146 -76 358 -76z" />
    <glyph glyph-name="Ugrave" unicode="&#xd9;" horiz-adv-x="1861" 
d="M1393 700v734h290v-672q0 -178 -32 -312.5t-92 -226t-153.5 -149t-209 -82.5t-264.5 -25q-188 0 -323.5 40.5t-233.5 132t-146.5 246.5t-48.5 376v672h291v-734q0 -246 113 -364.5t348 -118.5t348 118.5t113 364.5zM356 2068l588 -360v-184l-588 315v229z" />
    <glyph glyph-name="Uacute" unicode="&#xda;" horiz-adv-x="1861" 
d="M1393 700v734h290v-672q0 -178 -32 -312.5t-92 -226t-153.5 -149t-209 -82.5t-264.5 -25q-188 0 -323.5 40.5t-233.5 132t-146.5 246.5t-48.5 376v672h291v-734q0 -246 113 -364.5t348 -118.5t348 118.5t113 364.5zM883 1524v184l587 360v-229z" />
    <glyph glyph-name="Ucircumflex" unicode="&#xdb;" horiz-adv-x="1861" 
d="M1393 700v734h290v-672q0 -178 -32 -312.5t-92 -226t-153.5 -149t-209 -82.5t-264.5 -25q-188 0 -323.5 40.5t-233.5 132t-146.5 246.5t-48.5 376v672h291v-734q0 -246 113 -364.5t348 -118.5t348 118.5t113 364.5zM932 1882l-588 -336v164l588 381l588 -381v-164z" />
    <glyph glyph-name="Udieresis" unicode="&#xdc;" horiz-adv-x="1861" 
d="M1393 700v734h290v-672q0 -178 -32 -312.5t-92 -226t-153.5 -149t-209 -82.5t-264.5 -25q-188 0 -323.5 40.5t-233.5 132t-146.5 246.5t-48.5 376v672h291v-734q0 -246 113 -364.5t348 -118.5t348 118.5t113 364.5zM498 1812q57 48 145 48q96 0 149.5 -47t53.5 -127
t-53.5 -127.5t-149.5 -47.5q-91 0 -147 48.5t-56 126.5q0 77 58 126zM1237 1511q-91 0 -147 48.5t-56 126.5t56 126t147 48q96 0 149.5 -47t53.5 -127t-53.5 -127.5t-149.5 -47.5z" />
    <glyph glyph-name="Yacute" unicode="&#xdd;" horiz-adv-x="1914" 
d="M1507 1434h357l-760 -969v-465h-291v463l-762 971h357l550 -715zM909 1524v184l588 360v-229z" />
    <glyph glyph-name="Thorn" unicode="&#xde;" horiz-adv-x="1695" 
d="M1174 150h-695v-150h-299v1434h297v-410h697q213 0 347 -126t134 -312q0 -207 -131 -321.5t-350 -114.5zM479 375h643q108 0 175 58.5t67 152.5t-67 154.5t-175 60.5h-645z" />
    <glyph glyph-name="germandbls" unicode="&#xdf;" horiz-adv-x="1759" 
d="M807 213q116 1 194.5 3.5t148.5 10.5t112.5 21t74.5 34.5t45.5 50.5t16.5 70q0 79 -61.5 121t-221.5 68q-174 26 -495 43v174q194 13 316 25.5t208 28t129 39t61.5 52t22.5 72.5q-2 43 -21.5 72t-56 49t-104 30.5t-154 15t-217.5 5.5h-395v-1198h-291v1434h706
q271 0 435 -21q162 -21 268 -98q102 -77 102 -240q0 -180 -161 -262t-515 -82v-18q374 -12 545.5 -91t171.5 -239q0 -98 -36 -170t-101 -119t-167.5 -75.5t-222.5 -40t-278 -11.5q-100 0 -245 8v244q99 -6 186 -6z" />
    <glyph glyph-name="agrave" unicode="&#xe0;" horiz-adv-x="1390" 
d="M463 795q-145 -38 -244 -82v233q136 50 290 80.5t282 30.5q505 0 505 -479v-578h-286l55 346h-18q-95 -379 -576 -379q-153 0 -266 58q-115 56 -115 213q0 132 137 208q136 77 314 107q190 29 424 49l41 4q-1 118 -71 168.5t-226 50.5q-114 0 -246 -30zM588 172
q108 0 200.5 32.5t152.5 99.5t60 155l-88 -6q-184 -13 -279 -27.5t-165 -46.5q-76 -34 -76 -96q0 -51 52.5 -81t142.5 -30zM176 1659l588 -361v-184l-588 316v229z" />
    <glyph glyph-name="aacute" unicode="&#xe1;" horiz-adv-x="1390" 
d="M463 795q-145 -38 -244 -82v233q136 50 290 80.5t282 30.5q505 0 505 -479v-578h-286l55 346h-18q-95 -379 -576 -379q-153 0 -266 58q-115 56 -115 213q0 132 137 208q136 77 314 107q190 29 424 49l41 4q-1 118 -71 168.5t-226 50.5q-114 0 -246 -30zM588 172
q108 0 200.5 32.5t152.5 99.5t60 155l-88 -6q-184 -13 -279 -27.5t-165 -46.5q-76 -34 -76 -96q0 -51 52.5 -81t142.5 -30zM702 1114v184l588 361v-229z" />
    <glyph glyph-name="acircumflex" unicode="&#xe2;" horiz-adv-x="1390" 
d="M463 795q-145 -38 -244 -82v233q136 50 290 80.5t282 30.5q505 0 505 -479v-578h-286l55 346h-18q-95 -379 -576 -379q-153 0 -266 58q-115 56 -115 213q0 132 137 208q136 77 314 107q190 29 424 49l41 4q-1 118 -71 168.5t-226 50.5q-114 0 -246 -30zM588 172
q108 0 200.5 32.5t152.5 99.5t60 155l-88 -6q-184 -13 -279 -27.5t-165 -46.5q-76 -34 -76 -96q0 -51 52.5 -81t142.5 -30zM752 1473l-588 -336v163l588 381l587 -381v-163z" />
    <glyph glyph-name="atilde" unicode="&#xe3;" horiz-adv-x="1390" 
d="M463 795q-145 -38 -244 -82v233q136 50 290 80.5t282 30.5q505 0 505 -479v-578h-286l55 346h-18q-95 -379 -576 -379q-153 0 -266 58q-115 56 -115 213q0 132 137 208q136 77 314 107q190 29 424 49l41 4q-1 118 -71 168.5t-226 50.5q-114 0 -246 -30zM588 172
q108 0 200.5 32.5t152.5 99.5t60 155l-88 -6q-184 -13 -279 -27.5t-165 -46.5q-76 -34 -76 -96q0 -51 52.5 -81t142.5 -30zM748 1262q-33 31 -54 44t-45 13q-58 0 -92 -37t-35 -108h-125q1 118 71.5 192t180.5 74q45 0 78.5 -18.5t79.5 -63.5q41 -37 65.5 -51.5t53.5 -14.5
q61 0 94.5 36.5t34.5 109.5h123q-1 -121 -71 -194t-181 -73q-52 0 -91.5 22t-86.5 69z" />
    <glyph glyph-name="adieresis" unicode="&#xe4;" horiz-adv-x="1390" 
d="M463 795q-145 -38 -244 -82v233q136 50 290 80.5t282 30.5q505 0 505 -479v-578h-286l55 346h-18q-95 -379 -576 -379q-153 0 -266 58q-115 56 -115 213q0 132 137 208q136 77 314 107q190 29 424 49l41 4q-1 118 -71 168.5t-226 50.5q-114 0 -246 -30zM588 172
q108 0 200.5 32.5t152.5 99.5t60 155l-88 -6q-184 -13 -279 -27.5t-165 -46.5q-76 -34 -76 -96q0 -51 52.5 -81t142.5 -30zM317 1403q56 47 146 47q96 0 149.5 -47t53.5 -127t-53.5 -127t-149.5 -47q-91 0 -147 48t-56 126q0 79 57 127zM1057 1102q-91 0 -147 48t-56 126
t56 126t147 48q96 0 149.5 -47t53.5 -127t-53.5 -127t-149.5 -47z" />
    <glyph glyph-name="aring" unicode="&#xe5;" horiz-adv-x="1390" 
d="M463 795q-145 -38 -244 -82v233q136 50 290 80.5t282 30.5q505 0 505 -479v-578h-286l55 346h-18q-95 -379 -576 -379q-153 0 -266 58q-115 56 -115 213q0 132 137 208q136 77 314 107q190 29 424 49l41 4q-1 118 -71 168.5t-226 50.5q-114 0 -246 -30zM588 172
q108 0 200.5 32.5t152.5 99.5t60 155l-88 -6q-184 -13 -279 -27.5t-165 -46.5q-76 -34 -76 -96q0 -51 52.5 -81t142.5 -30zM1022 1497q118 -27 183 -74.5t65 -109.5q0 -94 -144.5 -152.5t-373.5 -58.5q-140 0 -258.5 26.5t-189.5 75t-71 109.5t71 109.5t189.5 75t258.5 26.5
q150 0 270 -27zM752 1206q83 0 134.5 28t51.5 77q0 53 -49 80.5t-137 27.5q-83 0 -133 -28t-50 -78t50 -78.5t133 -28.5z" />
    <glyph glyph-name="ae" unicode="&#xe6;" horiz-adv-x="2328" 
d="M1241 68q-160 105 -211 274q-42 -187 -185 -281t-374 -94q-153 0 -266 58q-115 56 -115 213q0 138 141 215q137 75 316 102q188 26 393 37l53 4q0 73 -13.5 117.5t-49.5 69.5t-86 33.5t-135 8.5q-113 0 -246 -30t-244 -78v229q136 50 290 80.5t282 30.5q266 0 385 -152
q80 74 195 113t251 39q273 0 443 -129t173 -336v-168h-954q26 -124 131 -180t309 -56q142 0 234 25q81 19 188 68l47 20v-233q-155 -59 -268 -80q-114 -21 -303 -21q-227 0 -381 101zM1280 565l682 17q-4 135 -85.5 193.5t-254.5 58.5q-168 0 -249 -62.5t-93 -206.5z
M532 406q-139 -35 -139 -123q0 -51 53.5 -81t141.5 -30q161 0 282 74q116 73 119 209l-86 -6q-227 -12 -371 -43z" />
    <glyph glyph-name="ccedilla" unicode="&#xe7;" horiz-adv-x="1318" 
d="M504 -244v109l69 121q-219 44 -350 184q-133 142 -133 342q0 246 184 395.5t486 149.5q133 0 236 -23.5t233 -81.5v-245q-119 67 -229.5 97t-247.5 30q-171 0 -274 -89t-103 -233q0 -143 109 -231t288 -88q146 0 251.5 28t205.5 90v-239q-130 -57 -217 -80
q-96 -22 -224 -25l-55 -108q305 -17 474 -74t169 -147q0 -63 -109 -114.5t-309 -81.5t-454 -30v113q567 3 567 113q0 56 -134.5 85t-432.5 33z" />
    <glyph glyph-name="egrave" unicode="&#xe8;" horiz-adv-x="1413" 
d="M707 1057q273 0 443 -129t173 -336v-168h-944q26 -125 127 -180.5t303 -55.5q141 0 233 25q83 20 189 68l47 20v-233q-155 -59 -268 -80q-114 -21 -303 -21q-277 0 -447 150.5t-170 394.5t170 394.5t447 150.5zM479 762q-92 -74 -104 -197l672 17q-4 115 -97.5 183.5
t-242.5 68.5q-138 0 -228 -72zM168 1659l588 -361v-184l-588 316v229z" />
    <glyph glyph-name="eacute" unicode="&#xe9;" horiz-adv-x="1413" 
d="M707 1057q273 0 443 -129t173 -336v-168h-944q26 -125 127 -180.5t303 -55.5q141 0 233 25q83 20 189 68l47 20v-233q-155 -59 -268 -80q-114 -21 -303 -21q-277 0 -447 150.5t-170 394.5t170 394.5t447 150.5zM479 762q-92 -74 -104 -197l672 17q-4 115 -97.5 183.5
t-242.5 68.5q-138 0 -228 -72zM657 1114v184l588 361v-229z" />
    <glyph glyph-name="ecircumflex" unicode="&#xea;" horiz-adv-x="1413" 
d="M707 1057q273 0 443 -129t173 -336v-168h-944q26 -125 127 -180.5t303 -55.5q141 0 233 25q83 20 189 68l47 20v-233q-155 -59 -268 -80q-114 -21 -303 -21q-277 0 -447 150.5t-170 394.5t170 394.5t447 150.5zM479 762q-92 -74 -104 -197l672 17q-4 115 -97.5 183.5
t-242.5 68.5q-138 0 -228 -72zM707 1473l-588 -336v163l588 381l587 -381v-163z" />
    <glyph glyph-name="edieresis" unicode="&#xeb;" horiz-adv-x="1413" 
d="M707 1057q273 0 443 -129t173 -336v-168h-944q26 -125 127 -180.5t303 -55.5q141 0 233 25q83 20 189 68l47 20v-233q-155 -59 -268 -80q-114 -21 -303 -21q-277 0 -447 150.5t-170 394.5t170 394.5t447 150.5zM479 762q-92 -74 -104 -197l672 17q-4 115 -97.5 183.5
t-242.5 68.5q-138 0 -228 -72zM272 1403q56 47 146 47q96 0 149.5 -47t53.5 -127t-53.5 -127t-149.5 -47q-91 0 -147 48t-56 126q0 79 57 127zM1012 1102q-91 0 -147 48t-56 126t56 126t147 48q96 0 149 -47t53 -127t-53 -127t-149 -47z" />
    <glyph glyph-name="igrave" unicode="&#xec;" horiz-adv-x="557" 
d="M135 0v1024h291v-1024h-291zM-295 1659l588 -361v-184l-588 316v229z" />
    <glyph glyph-name="iacute" unicode="&#xed;" horiz-adv-x="557" 
d="M135 0v1024h291v-1024h-291zM231 1114v184l588 361v-229z" />
    <glyph glyph-name="icircumflex" unicode="&#xee;" horiz-adv-x="557" 
d="M135 0v1024h291v-1024h-291zM281 1473l-588 -336v163l588 381l587 -381v-163z" />
    <glyph glyph-name="idieresis" unicode="&#xef;" horiz-adv-x="557" 
d="M135 0v1024h291v-1024h-291zM-154 1403q56 47 146 47q96 0 149.5 -47t53.5 -127t-53.5 -127t-149.5 -47q-91 0 -147 48t-56 126q0 79 57 127zM586 1102q-91 0 -147 48t-56 126t56 126t147 48q96 0 149 -47t53 -127t-53 -127t-149 -47z" />
    <glyph glyph-name="eth" unicode="&#xf0;" horiz-adv-x="1683" 
d="M752 1030l-58 172l342 98q-141 90 -342 105l8 141q344 0 590 -170l301 86l60 -170l-205 -59q172 -209 172 -492q0 -378 -209.5 -572t-599.5 -194q-351 0 -550.5 130t-199.5 350q0 227 167.5 357t486.5 130q191 0 347.5 -78t264.5 -205q2 18 2 82q0 106 -35 216t-102 200z
M766 768q-189 0 -300.5 -77t-111.5 -206q0 -127 130.5 -203.5t344.5 -76.5q200 0 316.5 75.5t157.5 231.5q-80 108 -230 182q-151 74 -307 74z" />
    <glyph glyph-name="ntilde" unicode="&#xf1;" horiz-adv-x="1452" 
d="M932 1057q149 -2 241.5 -62.5t138.5 -195t46 -355.5v-444h-291v410q0 231 -65.5 329.5t-215.5 98.5q-165 0 -263.5 -152t-98.5 -403v-283h-291v1024h320l-41 -422h16q75 455 504 455zM797 1262q-33 31 -54 44t-45 13q-58 0 -92 -37t-35 -108h-125q1 118 71.5 192
t180.5 74q45 0 78.5 -18.5t79.5 -63.5q41 -37 65.5 -51.5t53.5 -14.5q61 0 94.5 36.5t34.5 109.5h123q-1 -121 -71 -194t-181 -73q-52 0 -91.5 22t-86.5 69z" />
    <glyph glyph-name="ograve" unicode="&#xf2;" horiz-adv-x="1464" 
d="M1069 989q146 -68 225.5 -192t79.5 -285q0 -245 -176.5 -395t-466.5 -150q-287 0 -464 150.5t-177 394.5t177 394.5t464 150.5q193 0 338 -68zM731 193q167 0 270 88t103 231q0 146 -102.5 234t-270.5 88q-165 0 -268 -89.5t-103 -232.5t102.5 -231t268.5 -88zM158 1659
l587 -361v-184l-587 316v229z" />
    <glyph glyph-name="oacute" unicode="&#xf3;" horiz-adv-x="1464" 
d="M1069 989q146 -68 225.5 -192t79.5 -285q0 -245 -176.5 -395t-466.5 -150q-287 0 -464 150.5t-177 394.5t177 394.5t464 150.5q193 0 338 -68zM731 193q167 0 270 88t103 231q0 146 -102.5 234t-270.5 88q-165 0 -268 -89.5t-103 -232.5t102.5 -231t268.5 -88zM684 1114
v184l588 361v-229z" />
    <glyph glyph-name="ocircumflex" unicode="&#xf4;" horiz-adv-x="1464" 
d="M1069 989q146 -68 225.5 -192t79.5 -285q0 -245 -176.5 -395t-466.5 -150q-287 0 -464 150.5t-177 394.5t177 394.5t464 150.5q193 0 338 -68zM731 193q167 0 270 88t103 231q0 146 -102.5 234t-270.5 88q-165 0 -268 -89.5t-103 -232.5t102.5 -231t268.5 -88zM733 1473
l-588 -336v163l588 381l588 -381v-163z" />
    <glyph glyph-name="otilde" unicode="&#xf5;" horiz-adv-x="1464" 
d="M1069 989q146 -68 225.5 -192t79.5 -285q0 -245 -176.5 -395t-466.5 -150q-287 0 -464 150.5t-177 394.5t177 394.5t464 150.5q193 0 338 -68zM731 193q167 0 270 88t103 231q0 146 -102.5 234t-270.5 88q-165 0 -268 -89.5t-103 -232.5t102.5 -231t268.5 -88zM729 1262
q-33 32 -54 44.5t-44 12.5q-58 0 -92 -37t-35 -108h-125q1 118 71.5 192t180.5 74q44 0 77 -18.5t80 -63.5q41 -37 65.5 -51.5t53.5 -14.5q61 0 94.5 36.5t34.5 109.5h123q-1 -121 -71 -194t-181 -73q-52 0 -91.5 22t-86.5 69z" />
    <glyph glyph-name="odieresis" unicode="&#xf6;" horiz-adv-x="1464" 
d="M1069 989q146 -68 225.5 -192t79.5 -285q0 -245 -176.5 -395t-466.5 -150q-287 0 -464 150.5t-177 394.5t177 394.5t464 150.5q193 0 338 -68zM731 193q167 0 270 88t103 231q0 146 -102.5 234t-270.5 88q-165 0 -268 -89.5t-103 -232.5t102.5 -231t268.5 -88zM299 1403
q56 47 145 47q96 0 149.5 -47t53.5 -127t-53.5 -127t-149.5 -47q-91 0 -146.5 48t-55.5 126q0 79 57 127zM1038 1102q-91 0 -146.5 48t-55.5 126t55.5 126t146.5 48q96 0 149.5 -47t53.5 -127t-53.5 -127t-149.5 -47z" />
    <glyph glyph-name="divide" unicode="&#xf7;" horiz-adv-x="1228" 
d="M1143 729v-231h-1065v231h1065zM733 1184q47 -47 47 -115q0 -72 -47.5 -116t-122.5 -44q-72 0 -120 45.5t-48 114.5q0 68 48 113t120 45q74 0 123 -43zM492 14q-50 47 -50 115t48 113t120 45q74 0 122 -44.5t48 -113.5q0 -72 -47.5 -116t-122.5 -44q-73 0 -118 45z" />
    <glyph glyph-name="oslash" unicode="&#xf8;" horiz-adv-x="1464" 
d="M731 1057q231 0 395 -99l78 66h289l-225 -188q106 -132 106 -324q0 -245 -176.5 -395t-466.5 -150q-223 0 -383 92l-72 -59h-288l215 180q-113 140 -113 332q0 244 177 394.5t464 150.5zM403 350l525 443q-87 41 -197 41q-165 0 -268 -89.5t-103 -232.5q0 -92 43 -162z
M731 193q167 0 270 88t103 231q0 87 -37 154l-520 -439q81 -34 184 -34z" />
    <glyph glyph-name="ugrave" unicode="&#xf9;" horiz-adv-x="1452" 
d="M858 256q82 68 126 193.5t44 291.5v283h291v-1024h-320l41 422h-14q-36 -219 -162 -337t-342 -118q-224 3 -326 145t-102 468v444h291v-410q0 -228 66.5 -328t216.5 -100q108 0 190 70zM106 1659l588 -361v-184l-588 316v229z" />
    <glyph glyph-name="uacute" unicode="&#xfa;" horiz-adv-x="1452" 
d="M858 256q82 68 126 193.5t44 291.5v283h291v-1024h-320l41 422h-14q-36 -219 -162 -337t-342 -118q-224 3 -326 145t-102 468v444h291v-410q0 -228 66.5 -328t216.5 -100q108 0 190 70zM633 1114v184l588 361v-229z" />
    <glyph glyph-name="ucircumflex" unicode="&#xfb;" horiz-adv-x="1452" 
d="M858 256q82 68 126 193.5t44 291.5v283h291v-1024h-320l41 422h-14q-36 -219 -162 -337t-342 -118q-224 3 -326 145t-102 468v444h291v-410q0 -228 66.5 -328t216.5 -100q108 0 190 70zM682 1473l-588 -336v163l588 381l588 -381v-163z" />
    <glyph glyph-name="udieresis" unicode="&#xfc;" horiz-adv-x="1452" 
d="M858 256q82 68 126 193.5t44 291.5v283h291v-1024h-320l41 422h-14q-36 -219 -162 -337t-342 -118q-224 3 -326 145t-102 468v444h291v-410q0 -228 66.5 -328t216.5 -100q108 0 190 70zM248 1403q56 47 145 47q96 0 149.5 -47t53.5 -127t-53.5 -127t-149.5 -47
q-91 0 -147 48t-56 126t58 127zM987 1102q-91 0 -147 48t-56 126t56 126t147 48q96 0 149.5 -47t53.5 -127t-53.5 -127t-149.5 -47z" />
    <glyph glyph-name="yacute" unicode="&#xfd;" horiz-adv-x="1581" 
d="M668 2l-617 1022h322l430 -754l420 754h307l-787 -1434h-305zM766 1114v184l588 361v-229z" />
    <glyph glyph-name="thorn" unicode="&#xfe;" horiz-adv-x="1587" 
d="M969 1057q146 0 266 -69.5t191 -197t71 -286.5q0 -155 -72 -278.5t-193 -191t-267 -67.5q-204 0 -349 96q-150 94 -184 269h-8v-742h-291v1844h299l-45 -744h25q35 178 192 273q155 94 365 94zM481 508q0 -139 107.5 -227t259.5 -88q163 0 263.5 85t100.5 230
q0 148 -100.5 237t-263.5 89q-153 0 -260 -90.5t-107 -235.5z" />
    <glyph glyph-name="ydieresis" unicode="&#xff;" horiz-adv-x="1581" 
d="M668 2l-617 1022h322l430 -754l420 754h307l-787 -1434h-305zM381 1403q56 47 145 47q96 0 149.5 -47t53.5 -127t-53.5 -127t-149.5 -47q-91 0 -146.5 48t-55.5 126q0 79 57 127zM1120 1102q-91 0 -146.5 48t-55.5 126t55.5 126t146.5 48q96 0 149.5 -47t53.5 -127
t-53.5 -127t-149.5 -47z" />
    <glyph glyph-name="Amacron" unicode="&#x100;" horiz-adv-x="2232" 
d="M1292 1434l875 -1434h-336l-178 303h-1073l-177 -303h-335l872 1434h352zM1118 1231l-397 -682h790zM573 1733v110h1090v-110h-1090z" />
    <glyph glyph-name="amacron" unicode="&#x101;" horiz-adv-x="1390" 
d="M463 795q-145 -38 -244 -82v233q136 50 290 80.5t282 30.5q505 0 505 -479v-578h-286l55 346h-18q-95 -379 -576 -379q-153 0 -266 58q-115 56 -115 213q0 132 137 208q136 77 314 107q190 29 424 49l41 4q-1 118 -71 168.5t-226 50.5q-114 0 -246 -30zM588 172
q108 0 200.5 32.5t152.5 99.5t60 155l-88 -6q-184 -13 -279 -27.5t-165 -46.5q-76 -34 -76 -96q0 -51 52.5 -81t142.5 -30zM207 1323v111h1089v-111h-1089z" />
    <glyph glyph-name="Abreve" unicode="&#x102;" horiz-adv-x="2232" 
d="M1292 1434l875 -1434h-336l-178 303h-1073l-177 -303h-335l872 1434h352zM1118 1231l-397 -682h790zM1343 1843h211q-2 -142 -116.5 -223.5t-319.5 -81.5q-188 0 -312 85t-124 220h215q1 -80 60.5 -123t160.5 -43t160 42.5t65 123.5z" />
    <glyph glyph-name="abreve" unicode="&#x103;" horiz-adv-x="1390" 
d="M463 795q-145 -38 -244 -82v233q136 50 290 80.5t282 30.5q505 0 505 -479v-578h-286l55 346h-18q-95 -379 -576 -379q-153 0 -266 58q-115 56 -115 213q0 132 137 208q136 77 314 107q190 29 424 49l41 4q-1 118 -71 168.5t-226 50.5q-114 0 -246 -30zM588 172
q108 0 200.5 32.5t152.5 99.5t60 155l-88 -6q-184 -13 -279 -27.5t-165 -46.5q-76 -34 -76 -96q0 -51 52.5 -81t142.5 -30zM977 1434h211q-2 -142 -116.5 -224t-319.5 -82q-188 0 -312.5 85.5t-124.5 220.5h215q1 -80 61 -123t161 -43t160 42.5t65 123.5z" />
    <glyph glyph-name="Aogonek" unicode="&#x104;" horiz-adv-x="2232" 
d="M1761 63l21 21l-129 219h-1073l-177 -303h-335l872 1434h352l875 -1434h-287q-63 -63 -63 -129q0 -73 85 -120.5t216 -47.5q84 0 172 18l-6 -159q-103 -33 -226 -33q-180 0 -307 76.5t-127 197.5q0 126 137 260zM721 549h790l-393 682z" />
    <glyph glyph-name="aogonek" unicode="&#x105;" horiz-adv-x="1390" 
d="M1382 -297q84 0 172 18l-6 -159q-103 -33 -225 -33q-180 0 -307 76.5t-127 197.5q0 120 129 252l47 291h-18q-95 -379 -576 -379q-153 0 -266 58q-115 56 -115 213q0 132 137 208q136 77 314 107q190 29 424 49l41 4q-1 118 -71 168.5t-226 50.5q-111 0 -244.5 -31
t-245.5 -81v233q136 50 290 80.5t282 30.5q505 0 505 -479v-578h-151q-64 -64 -64 -129q0 -73 85 -120.5t216 -47.5zM393 283q0 -51 52.5 -81t142.5 -30q108 0 200.5 32.5t152.5 99.5t60 155l-88 -6q-184 -13 -279 -27.5t-165 -46.5q-76 -34 -76 -96z" />
    <glyph glyph-name="Cacute" unicode="&#x106;" horiz-adv-x="1912" 
d="M958 1466q252 3 450.5 -80.5t308 -234.5t106.5 -342h-295q-9 195 -164 305q-157 109 -406 109q-260 0 -416.5 -136.5t-156.5 -369.5t156 -368.5t417 -135.5q255 0 409 109.5t161 302.5h295q3 -191 -106.5 -342.5t-308 -235t-450.5 -80.5q-189 -2 -350.5 52.5t-275 153
t-177 239.5t-61.5 305q-3 219 106.5 391t307.5 266t450 92zM909 1524v184l588 360v-229z" />
    <glyph glyph-name="cacute" unicode="&#x107;" horiz-adv-x="1318" 
d="M772 193q146 0 251.5 28t205.5 90v-239q-140 -62 -230 -82q-103 -23 -241 -23q-192 0 -344 67.5t-238 192.5t-86 285q0 246 184 395.5t486 149.5q133 0 236 -23.5t233 -81.5v-245q-119 67 -229.5 97t-247.5 30q-171 0 -274 -89t-103 -233q0 -143 109 -231t288 -88z
M711 1114v184l587 361v-229z" />
    <glyph glyph-name="Cdotaccent" unicode="&#x10a;" horiz-adv-x="1912" 
d="M958 1466q252 3 450.5 -80.5t308 -234.5t106.5 -342h-295q-9 195 -164 305q-157 109 -406 109q-260 0 -416.5 -136.5t-156.5 -369.5t156 -368.5t417 -135.5q255 0 409 109.5t161 302.5h295q3 -191 -106.5 -342.5t-308 -235t-450.5 -80.5q-189 -2 -350.5 52.5t-275 153
t-177 239.5t-61.5 305q-3 219 106.5 391t307.5 266t450 92zM815 1812q57 48 146 48q96 0 149 -47t53 -127q0 -81 -53 -128t-149 -47q-91 0 -147 48.5t-56 126.5t57 126z" />
    <glyph glyph-name="cdotaccent" unicode="&#x10b;" horiz-adv-x="1318" 
d="M772 193q146 0 251.5 28t205.5 90v-239q-140 -62 -230 -82q-103 -23 -241 -23q-192 0 -344 67.5t-238 192.5t-86 285q0 246 184 395.5t486 149.5q133 0 236 -23.5t233 -81.5v-245q-119 67 -229.5 97t-247.5 30q-171 0 -274 -89t-103 -233q0 -143 109 -231t288 -88z
M614 1403q56 47 146 47q96 0 149.5 -47t53.5 -127t-53.5 -127t-149.5 -47q-91 0 -147 48t-56 126q0 79 57 127z" />
    <glyph glyph-name="Ccaron" unicode="&#x10c;" horiz-adv-x="1912" 
d="M958 1466q252 3 450.5 -80.5t308 -234.5t106.5 -342h-295q-9 195 -164 305q-157 109 -406 109q-260 0 -416.5 -136.5t-156.5 -369.5t156 -368.5t417 -135.5q255 0 409 109.5t161 302.5h295q3 -191 -106.5 -342.5t-308 -235t-450.5 -80.5q-189 -2 -350.5 52.5t-275 153
t-177 239.5t-61.5 305q-3 219 106.5 391t307.5 266t450 92zM958 1546l-587 381v164l587 -336l588 336v-164z" />
    <glyph glyph-name="ccaron" unicode="&#x10d;" horiz-adv-x="1318" 
d="M772 193q146 0 251.5 28t205.5 90v-239q-140 -62 -230 -82q-103 -23 -241 -23q-192 0 -344 67.5t-238 192.5t-86 285q0 246 184 395.5t486 149.5q133 0 236 -23.5t233 -81.5v-245q-119 67 -229.5 97t-247.5 30q-171 0 -274 -89t-103 -233q0 -143 109 -231t288 -88z
M760 1137l-588 381v163l588 -335l588 335v-163z" />
    <glyph glyph-name="Dcaron" unicode="&#x10e;" horiz-adv-x="1779" 
d="M1690 717q0 -347 -219.5 -532t-616.5 -185h-674v1434h674q396 0 616 -185.5t220 -531.5zM1257 369q142 124 142 348q0 226 -143 349.5t-402 123.5h-383v-944h383q259 0 403 123zM934 1546l-588 381v164l588 -336l588 336v-164z" />
    <glyph glyph-name="dcaron" unicode="&#x10f;" horiz-adv-x="1961" 
d="M971 963q149 -94 184 -271h8v742h291v-1434h-299l45 334h-24q-37 -161 -178.5 -264t-331.5 -103q-254 0 -415 154t-161 399q0 155 72 278.5t193.5 191t267.5 67.5q199 0 348 -94zM739 193q152 0 259.5 90t107.5 233q0 139 -107.5 228.5t-259.5 89.5q-163 0 -263.5 -86.5
t-100.5 -231.5q0 -147 100.5 -235t263.5 -88zM1669 879h-153l129 553h256z" />
    <glyph glyph-name="Dcroat" unicode="&#x110;" horiz-adv-x="1779" 
d="M854 0h-674v602h-139v232h139v600h674q396 0 616 -185.5t220 -531.5q0 -347 -219.5 -532t-616.5 -185zM471 834h594v-232h-594v-356h383q260 0 402.5 123t142.5 348q0 226 -143 349.5t-402 123.5h-383v-356z" />
    <glyph glyph-name="dslash" unicode="&#x111;" horiz-adv-x="1607" 
d="M971 963q149 -94 184 -271h8v406h-577v211h577v125h291v-125h70v-211h-70v-1098h-299l45 334h-24q-37 -161 -178.5 -264t-331.5 -103q-254 0 -415 154t-161 399q0 155 72 278.5t193.5 191t267.5 67.5q199 0 348 -94zM922 233q86 39 135 113t49 170q0 139 -107.5 228.5
t-259.5 89.5q-163 0 -263.5 -86.5t-100.5 -231.5q0 -147 100.5 -235t263.5 -88q102 0 183 40z" />
    <glyph glyph-name="Emacron" unicode="&#x112;" horiz-adv-x="1689" 
d="M471 1190v-348h1042v-228h-1042v-368h1061v-246h-1352v1434h1352v-244h-1061zM317 1733v110h1090v-110h-1090z" />
    <glyph glyph-name="emacron" unicode="&#x113;" horiz-adv-x="1413" 
d="M707 1057q273 0 443 -129t173 -336v-168h-944q26 -125 127 -180.5t303 -55.5q141 0 233 25q83 20 189 68l47 20v-233q-155 -59 -268 -80q-114 -21 -303 -21q-277 0 -447 150.5t-170 394.5t170 394.5t447 150.5zM479 762q-92 -74 -104 -197l672 17q-4 115 -97.5 183.5
t-242.5 68.5q-138 0 -228 -72zM162 1323v111h1089v-111h-1089z" />
    <glyph glyph-name="Edotaccent" unicode="&#x116;" horiz-adv-x="1689" 
d="M471 1190v-348h1042v-228h-1042v-368h1061v-246h-1352v1434h1352v-244h-1061zM717 1812q57 48 145 48q96 0 149.5 -47t53.5 -127t-53.5 -127.5t-149.5 -47.5q-91 0 -147 48.5t-56 126.5q0 77 58 126z" />
    <glyph glyph-name="edotaccent" unicode="&#x117;" horiz-adv-x="1413" 
d="M707 1057q273 0 443 -129t173 -336v-168h-944q26 -125 127 -180.5t303 -55.5q141 0 233 25q83 20 189 68l47 20v-233q-155 -59 -268 -80q-114 -21 -303 -21q-277 0 -447 150.5t-170 394.5t170 394.5t447 150.5zM479 762q-92 -74 -104 -197l672 17q-4 115 -97.5 183.5
t-242.5 68.5q-138 0 -228 -72zM561 1403q56 47 146 47q96 0 149 -47t53 -127t-53 -127t-149 -47q-91 0 -147 48t-56 126q0 79 57 127z" />
    <glyph glyph-name="Eogonek" unicode="&#x118;" horiz-adv-x="1689" 
d="M647 -197q0 94 80 197h-547v1434h1352v-244h-1061v-348h1042v-228h-1042v-368h1061v-246h-629q-63 -63 -63 -129q0 -73 85 -120.5t216 -47.5q83 0 172 18l-6 -159q-103 -33 -226 -33q-180 0 -307 76.5t-127 197.5z" />
    <glyph glyph-name="eogonek" unicode="&#x119;" horiz-adv-x="1413" 
d="M707 1057q273 0 443 -129t173 -336v-168h-944q26 -125 127 -180.5t303 -55.5q141 0 233 25q83 20 189 68l47 20v-233q-133 -52 -236 -76q-96 -20 -247 -23q-39 -51 -39 -98q0 -73 86 -120.5t217 -47.5q83 0 172 18l-6 -159q-103 -33 -228 -33q-180 0 -307 76.5
t-127 197.5q0 77 60 168q-240 21 -387 168q-146 146 -146 373q0 244 170 394.5t447 150.5zM479 762q-92 -74 -104 -197l672 17q-4 115 -97.5 183.5t-242.5 68.5q-138 0 -228 -72z" />
    <glyph glyph-name="Ecaron" unicode="&#x11a;" horiz-adv-x="1689" 
d="M471 1190v-348h1042v-228h-1042v-368h1061v-246h-1352v1434h1352v-244h-1061zM862 1546l-588 381v164l588 -336l588 336v-164z" />
    <glyph glyph-name="ecaron" unicode="&#x11b;" horiz-adv-x="1413" 
d="M707 1057q273 0 443 -129t173 -336v-168h-944q26 -125 127 -180.5t303 -55.5q141 0 233 25q83 20 189 68l47 20v-233q-155 -59 -268 -80q-114 -21 -303 -21q-277 0 -447 150.5t-170 394.5t170 394.5t447 150.5zM479 762q-92 -74 -104 -197l672 17q-4 115 -97.5 183.5
t-242.5 68.5q-138 0 -228 -72zM707 1137l-588 381v163l588 -335l587 335v-163z" />
    <glyph glyph-name="Gbreve" unicode="&#x11e;" horiz-adv-x="1976" 
d="M975 1466q242 0 432.5 -69.5t299 -196.5t114.5 -291h-293q-12 151 -156 232.5t-393 81.5q-263 0 -420.5 -136.5t-157.5 -369.5t156.5 -368.5t417.5 -135.5q237 0 388 89t177 251h-780v213h1083v-766h-221l-2 270q-92 -149 -261 -226t-384 -77q-189 -2 -350.5 52.5
t-275 153t-177 239.5t-61.5 305q-3 219 106.5 391t307.5 266t450 92zM1200 1843h211q-2 -142 -116.5 -223.5t-319.5 -81.5q-188 0 -312 85t-124 220h215q1 -80 60.5 -123t160.5 -43t160 42.5t65 123.5z" />
    <glyph glyph-name="gbreve" unicode="&#x11f;" horiz-adv-x="1589" 
d="M991 963q150 -95 185 -271h30l-26 332h276v-901q0 -263 -176 -398t-492 -135q-162 0 -276 21q-96 18 -248 70v251q73 -54 211 -86t291 -32q214 0 313 86t105 268l6 137q-44 -153 -181 -240.5t-323 -87.5q-168 0 -298.5 66.5t-203.5 190t-73 286.5q0 155 72 278.5t193 191
t267 67.5q199 0 348 -94zM1077 684q-51 71 -134.5 110.5t-182.5 39.5q-163 0 -264 -86.5t-101 -231.5q0 -147 101 -235t264 -88q152 0 259 90t107 233q0 95 -49 168zM1114 1434h211q-2 -142 -116.5 -224t-319.5 -82q-188 0 -312 85.5t-124 220.5h215q1 -80 60.5 -123
t160.5 -43t160 42.5t65 123.5z" />
    <glyph glyph-name="Gdotaccent" unicode="&#x120;" horiz-adv-x="1976" 
d="M975 1466q242 0 432.5 -69.5t299 -196.5t114.5 -291h-293q-12 151 -156 232.5t-393 81.5q-263 0 -420.5 -136.5t-157.5 -369.5t156.5 -368.5t417.5 -135.5q237 0 388 89t177 251h-780v213h1083v-766h-221l-2 270q-92 -149 -261 -226t-384 -77q-189 -2 -350.5 52.5
t-275 153t-177 239.5t-61.5 305q-3 219 106.5 391t307.5 266t450 92zM829 1812q57 48 146 48q96 0 149.5 -47t53.5 -127t-53.5 -127.5t-149.5 -47.5q-91 0 -147 48.5t-56 126.5t57 126z" />
    <glyph glyph-name="gdotaccent" unicode="&#x121;" horiz-adv-x="1589" 
d="M991 963q150 -95 185 -271h30l-26 332h276v-901q0 -263 -176 -398t-492 -135q-162 0 -276 21q-96 18 -248 70v251q73 -54 211 -86t291 -32q214 0 313 86t105 268l6 137q-44 -153 -181 -240.5t-323 -87.5q-168 0 -298.5 66.5t-203.5 190t-73 286.5q0 155 72 278.5t193 191
t267 67.5q199 0 348 -94zM1077 684q-51 71 -134.5 110.5t-182.5 39.5q-163 0 -264 -86.5t-101 -231.5q0 -147 101 -235t264 -88q152 0 259 90t107 233q0 95 -49 168zM743 1403q56 47 146 47q96 0 149.5 -47t53.5 -127t-53.5 -127t-149.5 -47q-91 0 -147 48t-56 126
q0 79 57 127z" />
    <glyph glyph-name="uni0122" unicode="&#x122;" horiz-adv-x="1976" 
d="M975 1466q242 0 432.5 -69.5t299 -196.5t114.5 -291h-293q-12 151 -156 232.5t-393 81.5q-263 0 -420.5 -136.5t-157.5 -369.5t156.5 -368.5t417.5 -135.5q237 0 388 89t177 251h-780v213h1083v-766h-221l-2 270q-92 -149 -261 -226t-384 -77q-189 -2 -350.5 52.5
t-275 153t-177 239.5t-61.5 305q-3 219 106.5 391t307.5 266t450 92zM924 -717h-154l129 553h256z" />
    <glyph glyph-name="uni0123" unicode="&#x123;" horiz-adv-x="1589" 
d="M991 963q150 -95 185 -271h30l-26 332h276v-901q0 -263 -176 -398t-492 -135q-162 0 -276 21q-96 18 -248 70v251q73 -54 211 -86t291 -32q214 0 313 86t105 268l6 137q-44 -153 -181 -240.5t-323 -87.5q-168 0 -298.5 66.5t-203.5 190t-73 286.5q0 155 72 278.5t193 191
t267 67.5q199 0 348 -94zM1077 684q-51 71 -134.5 110.5t-182.5 39.5q-163 0 -264 -86.5t-101 -231.5q0 -147 101 -235t264 -88q152 0 259 90t107 233q0 95 -49 168zM672 -1090h-154l129 553h256z" />
    <glyph glyph-name="Hbar" unicode="&#x126;" horiz-adv-x="1904" 
d="M471 1315h965v119h290v-119h107v-211h-107v-1104h-290v618h-965v-618h-291v1104h-108v211h108v119h291v-119zM471 1104v-240h965v240h-965z" />
    <glyph glyph-name="hbar" unicode="&#x127;" horiz-adv-x="1452" 
d="M424 283v-283h-291v1098h-102v211h102v125h320l-7 -125h523v-211h-533l-24 -496h16q75 455 504 455q149 -2 241.5 -62.5t138.5 -195t46 -355.5v-444h-291v410q0 231 -65.5 329.5t-215.5 98.5q-165 0 -263.5 -152t-98.5 -403z" />
    <glyph glyph-name="Imacron" unicode="&#x12a;" horiz-adv-x="649" 
d="M180 0v1434h291v-1434h-291zM-221 1733v110h1089v-110h-1089z" />
    <glyph glyph-name="imacron" unicode="&#x12b;" horiz-adv-x="557" 
d="M135 0v1024h291v-1024h-291zM-264 1323v111h1089v-111h-1089z" />
    <glyph glyph-name="Iogonek" unicode="&#x12e;" horiz-adv-x="649" 
d="M750 -279l-7 -159q-103 -33 -227 -33q-180 0 -307 76.5t-127 197.5q0 101 98 217v1414h291v-1434h-131q-66 -69 -66 -129q0 -75 85 -121.5t219 -46.5q80 0 172 18z" />
    <glyph glyph-name="iogonek" unicode="&#x12f;" horiz-adv-x="593" 
d="M225 -129q0 -73 85 -120.5t216 -47.5q84 0 172 18l-6 -159q-103 -33 -225 -33q-180 0 -307 76.5t-127 197.5q0 114 121 244v977h290v-1024h-155q-64 -64 -64 -129zM430 1489q47 -41 47 -123q0 -81 -47.5 -123.5t-134.5 -42.5q-85 0 -131.5 42.5t-46.5 123.5t46 122.5
t132 41.5q85 0 135 -41z" />
    <glyph glyph-name="Idot" unicode="&#x130;" horiz-adv-x="649" 
d="M180 0v1434h291v-1434h-291zM184 1812q57 48 146 48q96 0 149 -47t53 -127q0 -81 -53 -128t-149 -47q-91 0 -147 48.5t-56 126.5t57 126z" />
    <glyph glyph-name="dotlessi" unicode="&#x131;" horiz-adv-x="557" 
d="M135 0v1024h291v-1024h-291z" />
    <glyph glyph-name="uni0136" unicode="&#x136;" horiz-adv-x="1986" 
d="M1829 1434l-639 -541l688 -893h-375l-542 702l-490 -399v-303h-291v1434h291v-797l942 797h416zM831 -717h-153l129 553h256z" />
    <glyph glyph-name="uni0137" unicode="&#x137;" horiz-adv-x="1495" 
d="M975 1024h416l-414 -336l430 -688h-356l-293 508l-334 -268v-240h-291v1434h291v-887zM618 -717h-153l129 553h256z" />
    <glyph glyph-name="Lacute" unicode="&#x139;" horiz-adv-x="1546" 
d="M180 1434h291v-1188h999v-246h-1290v1434zM303 1524v184l588 360v-229z" />
    <glyph glyph-name="lacute" unicode="&#x13a;" horiz-adv-x="618" 
d="M164 0v1434h291v-1434h-291zM262 1524v184l588 360v-229z" />
    <glyph glyph-name="uni013B" unicode="&#x13b;" horiz-adv-x="1546" 
d="M180 1434h291v-1188h999v-246h-1290v1434zM709 -717h-154l129 553h256z" />
    <glyph glyph-name="uni013C" unicode="&#x13c;" horiz-adv-x="557" 
d="M164 0v1434h291v-1434h-291zM174 -717h-154l130 553h256z" />
    <glyph glyph-name="Lcaron" unicode="&#x13d;" horiz-adv-x="1546" 
d="M180 1434h291v-1188h999v-246h-1290v1434zM846 879h-154l129 553h256z" />
    <glyph glyph-name="lcaron" unicode="&#x13e;" horiz-adv-x="942" 
d="M164 0v1434h291v-1434h-291zM643 879h-154l129 553h256z" />
    <glyph glyph-name="Lslash" unicode="&#x141;" horiz-adv-x="1546" 
d="M877 1268l110 -189l-516 -297v-536h999v-246h-1290v614l-147 -84l-111 191l258 147v566h291v-398z" />
    <glyph glyph-name="lslash" unicode="&#x142;" horiz-adv-x="1110" 
d="M713 1434v-322l270 156l96 -168l-366 -211v-889h-291v721l-297 -170l-94 170l391 225v488h291z" />
    <glyph glyph-name="Nacute" unicode="&#x143;" horiz-adv-x="1988" 
d="M1808 0h-266l-1071 1032v-1032h-291v1434h264l1074 -1033v1033h290v-1434zM952 1524v184l588 360v-229z" />
    <glyph glyph-name="nacute" unicode="&#x144;" horiz-adv-x="1452" 
d="M932 1057q149 -2 241.5 -62.5t138.5 -195t46 -355.5v-444h-291v410q0 231 -65.5 329.5t-215.5 98.5q-165 0 -263.5 -152t-98.5 -403v-283h-291v1024h320l-41 -422h16q75 455 504 455zM752 1114v184l587 361v-229z" />
    <glyph glyph-name="uni0145" unicode="&#x145;" horiz-adv-x="1988" 
d="M1808 0h-266l-1071 1032v-1032h-291v1434h264l1074 -1033v1033h290v-1434zM907 -717h-153l129 553h256z" />
    <glyph glyph-name="uni0146" unicode="&#x146;" horiz-adv-x="1452" 
d="M932 1057q149 -2 241.5 -62.5t138.5 -195t46 -355.5v-444h-291v410q0 231 -65.5 329.5t-215.5 98.5q-165 0 -263.5 -152t-98.5 -403v-283h-291v1024h320l-41 -422h16q75 455 504 455zM637 -717h-154l129 553h256z" />
    <glyph glyph-name="Ncaron" unicode="&#x147;" horiz-adv-x="1988" 
d="M1808 0h-266l-1071 1032v-1032h-291v1434h264l1074 -1033v1033h290v-1434zM1001 1546l-587 381v164l587 -336l588 336v-164z" />
    <glyph glyph-name="ncaron" unicode="&#x148;" horiz-adv-x="1452" 
d="M932 1057q149 -2 241.5 -62.5t138.5 -195t46 -355.5v-444h-291v410q0 231 -65.5 329.5t-215.5 98.5q-165 0 -263.5 -152t-98.5 -403v-283h-291v1024h320l-41 -422h16q75 455 504 455zM801 1137l-588 381v163l588 -335l588 335v-163z" />
    <glyph glyph-name="Eng" unicode="&#x14a;" horiz-adv-x="1988" 
d="M1518 401v1033h290v-1434q0 -169 -74 -254.5t-257 -120.5q-187 -35 -545 -35v183q310 0 479.5 40.5t169.5 112.5q0 35 -39 74l-1071 1032v-1032h-291v1434h264z" />
    <glyph glyph-name="eng" unicode="&#x14b;" horiz-adv-x="1452" 
d="M846 -217q115 11 168 45.5t53 105.5v476q0 231 -65.5 329.5t-215.5 98.5q-165 0 -263.5 -152t-98.5 -403v-283h-291v1024h320l-41 -422h16q75 455 504 455q149 -2 241.5 -62.5t138.5 -195t46 -355.5v-444q-3 -186 -58 -268q-59 -83 -229 -113q-185 -29 -561 -29v183
q209 0 336 10z" />
    <glyph glyph-name="Omacron" unicode="&#x14c;" horiz-adv-x="1992" 
d="M514 61q-204 92 -314 262.5t-110 393.5q0 339 245 544t660 205q275 0 481.5 -93t316.5 -262.5t110 -393.5q0 -168 -64 -307.5t-180.5 -237t-287 -151.5t-376.5 -54q-277 0 -481 94zM672 1163q-141 -62 -216 -175.5t-75 -270.5q0 -234 166.5 -369t447.5 -135
q283 0 450 134.5t167 369.5t-167 370.5t-450 135.5q-181 0 -323 -60zM453 1733v110h1089v-110h-1089z" />
    <glyph glyph-name="omacron" unicode="&#x14d;" horiz-adv-x="1464" 
d="M1069 989q146 -68 225.5 -192t79.5 -285q0 -245 -176.5 -395t-466.5 -150q-287 0 -464 150.5t-177 394.5t177 394.5t464 150.5q193 0 338 -68zM731 193q167 0 270 88t103 231q0 146 -102.5 234t-270.5 88q-165 0 -268 -89.5t-103 -232.5t102.5 -231t268.5 -88zM207 1323
v111h1089v-111h-1089z" />
    <glyph glyph-name="Ohungarumlaut" unicode="&#x150;" horiz-adv-x="1992" 
d="M514 61q-204 92 -314 262.5t-110 393.5q0 339 245 544t660 205q275 0 481.5 -93t316.5 -262.5t110 -393.5q0 -168 -64 -307.5t-180.5 -237t-287 -151.5t-376.5 -54q-277 0 -481 94zM672 1163q-141 -62 -216 -175.5t-75 -270.5q0 -234 166.5 -369t447.5 -135
q283 0 450 134.5t167 369.5t-167 370.5t-450 135.5q-181 0 -323 -60zM1819 1860l-588 -336v164l588 380v-208zM719 1524v164l588 380v-208z" />
    <glyph glyph-name="ohungarumlaut" unicode="&#x151;" horiz-adv-x="1464" 
d="M1069 989q146 -68 225.5 -192t79.5 -285q0 -245 -176.5 -395t-466.5 -150q-287 0 -464 150.5t-177 394.5t177 394.5t464 150.5q193 0 338 -68zM731 193q167 0 270 88t103 231q0 146 -102.5 234t-270.5 88q-165 0 -268 -89.5t-103 -232.5t102.5 -231t268.5 -88zM1554 1450
l-587 -336v164l587 381v-209zM455 1114v164l587 381v-209z" />
    <glyph glyph-name="OE" unicode="&#x152;" horiz-adv-x="3155" 
d="M1645 1434h1351v-244h-1061v-348h1043v-228h-1043v-368h1061v-246h-1351v162q-246 -195 -650 -195q-415 0 -660 205.5t-245 544.5t245 544t660 205q405 0 650 -194v162zM1321 274q141 61 216 173.5t75 269.5q0 235 -167 370.5t-450 135.5q-281 0 -447.5 -135.5
t-166.5 -370.5q0 -234 166.5 -369t447.5 -135q189 0 326 61z" />
    <glyph glyph-name="oe" unicode="&#x153;" horiz-adv-x="2435" 
d="M2032 -12q-114 -21 -303 -21q-158 0 -283 49t-205 142q-179 -191 -510 -191q-287 0 -464 150.5t-177 394.5t177 394.5t464 150.5q331 0 510 -191q80 93 205 142t283 49q273 0 443 -129t173 -336v-168h-942q25 -125 125.5 -180.5t302.5 -55.5q141 0 233 25q83 20 189 68
l47 20v-233q-155 -59 -268 -80zM463 281q101 -88 268 -88t270 88t103 231q0 146 -102.5 234t-270.5 88q-165 0 -268 -89.5t-103 -232.5q0 -142 103 -231zM1970 766q-95 68 -241 68q-137 0 -228.5 -73.5t-103.5 -195.5l671 17q-3 113 -98 184z" />
    <glyph glyph-name="Racute" unicode="&#x154;" horiz-adv-x="1927" 
d="M1153 557q-77 51 -207 51h-477l2 -608h-291v1434h1127q214 0 337 -103.5t123 -275.5q0 -169 -124 -265t-336 -96h-152q162 -10 278 -81.5t214 -213.5q92 -135 229 -399h-338q-143 259 -231 395q-71 107 -154 162zM1235 1194h-768l2 -348h766q242 0 242 166
q0 94 -57.5 138t-184.5 44zM877 1524v184l587 360v-229z" />
    <glyph glyph-name="racute" unicode="&#x155;" horiz-adv-x="1093" 
d="M1026 1057v-244q-321 0 -461.5 -110t-140.5 -359v-344h-291v1024h320l-41 -381h20q40 224 174.5 319t419.5 95zM547 1114v184l588 361v-229z" />
    <glyph glyph-name="uni0156" unicode="&#x156;" horiz-adv-x="1927" 
d="M1153 557q-77 51 -207 51h-477l2 -608h-291v1434h1127q214 0 337 -103.5t123 -275.5q0 -169 -124 -265t-336 -96h-152q162 -10 278 -81.5t214 -213.5q92 -135 229 -399h-338q-143 259 -231 395q-71 107 -154 162zM1235 1194h-768l2 -348h766q242 0 242 166
q0 94 -57.5 138t-184.5 44zM836 -717h-154l129 553h256z" />
    <glyph glyph-name="uni0157" unicode="&#x157;" horiz-adv-x="1093" 
d="M1026 1057v-244q-321 0 -461.5 -110t-140.5 -359v-344h-291v1024h320l-41 -381h20q40 224 174.5 319t419.5 95zM168 -717h-154l129 553h256z" />
    <glyph glyph-name="Rcaron" unicode="&#x158;" horiz-adv-x="1927" 
d="M1153 557q-77 51 -207 51h-477l2 -608h-291v1434h1127q214 0 337 -103.5t123 -275.5q0 -169 -124 -265t-336 -96h-152q162 -10 278 -81.5t214 -213.5q92 -135 229 -399h-338q-143 259 -231 395q-71 107 -154 162zM1235 1194h-768l2 -348h766q242 0 242 166
q0 94 -57.5 138t-184.5 44zM926 1546l-588 381v164l588 -336l587 336v-164z" />
    <glyph glyph-name="rcaron" unicode="&#x159;" horiz-adv-x="1093" 
d="M1026 1057v-244q-321 0 -461.5 -110t-140.5 -359v-344h-291v1024h320l-41 -381h20q40 224 174.5 319t419.5 95zM596 1137l-588 381v163l588 -335l588 335v-163z" />
    <glyph glyph-name="Sacute" unicode="&#x15a;" horiz-adv-x="1783" 
d="M487 924q59 -34 149.5 -48t281.5 -26q236 -14 401 -43q151 -27 264 -117q111 -88 111 -264q0 -142 -101 -246.5t-282 -158.5t-420 -54q-363 0 -583.5 136t-217.5 356h303q-2 -113 126.5 -179.5t348.5 -66.5q533 0 533 203q0 71 -62.5 112t-169.5 54q-90 11 -274 20
q-236 9 -393 37q-153 27 -262 113t-109 258q0 214 203.5 335t544.5 121q351 0 567 -134.5t219 -356.5h-305q2 113 -124 180.5t-339 67.5q-228 0 -350.5 -49.5t-122.5 -141.5q0 -71 63 -108zM848 1524v184l588 360v-229z" />
    <glyph glyph-name="sacute" unicode="&#x15b;" horiz-adv-x="1406" 
d="M395 442q-130 22 -210.5 90t-80.5 185q0 165 160 252.5t443 87.5q93 0 237 -15q132 -14 275 -43v-231q-281 59 -482 59q-180 0 -263 -25.5t-83 -80.5q0 -48 70 -67.5t246 -32.5q206 -15 315.5 -39.5t191.5 -85.5q86 -65 86 -191q0 -169 -156.5 -253.5t-445.5 -84.5
q-118 0 -273.5 22.5t-274.5 57.5v244q257 -98 503 -98q197 0 280 25t83 87q0 51 -67.5 69.5t-250.5 31.5q-185 15 -303 36zM653 1114v184l588 361v-229z" />
    <glyph glyph-name="Scedilla" unicode="&#x15e;" horiz-adv-x="1783" 
d="M1288 1407q179 -62 277.5 -173.5t99.5 -258.5h-305q2 113 -124 180.5t-339 67.5q-228 0 -350.5 -49.5t-122.5 -141.5q0 -131 225 -158q94 -15 269 -24q236 -14 401 -43q151 -27 264 -117q111 -88 111 -264q0 -194 -183 -315q-183 -119 -497 -140l-58 -112
q306 -17 476 -74t170 -147q0 -63 -109 -114.5t-309.5 -81.5t-454.5 -30v113q567 3 567 113q0 56 -134.5 85t-432.5 33v109l62 104q-323 19 -513.5 152.5t-187.5 337.5h303q-2 -113 126.5 -179.5t348.5 -66.5q533 0 533 203q0 71 -62.5 112t-169.5 54q-90 11 -274 20
q-236 9 -393 37q-153 27 -262 113t-109 258q0 214 203.5 335t544.5 121q229 0 409 -59z" />
    <glyph glyph-name="scedilla" unicode="&#x15f;" horiz-adv-x="1406" 
d="M1300 305q0 -153 -129.5 -237.5t-371.5 -98.5l-58 -110q305 -17 474 -74t169 -147q0 -63 -109 -114.5t-309 -81.5t-454 -30v113q567 3 567 113q0 56 -134.5 85t-432.5 33v109l61 108q-221 15 -423 74v244q257 -98 503 -98q197 0 280 25t83 87q0 51 -67.5 69.5
t-250.5 31.5q-209 15 -318.5 38.5t-189.5 83.5q-86 65 -86 189q0 165 160 252.5t443 87.5q93 0 237 -15q132 -14 275 -43v-231q-281 59 -482 59q-180 0 -263 -25.5t-83 -80.5q0 -48 70 -67.5t246 -32.5q206 -15 315.5 -39.5t191.5 -85.5q86 -65 86 -191z" />
    <glyph glyph-name="Scaron" unicode="&#x160;" horiz-adv-x="1783" 
d="M487 924q59 -34 149.5 -48t281.5 -26q236 -14 401 -43q151 -27 264 -117q111 -88 111 -264q0 -142 -101 -246.5t-282 -158.5t-420 -54q-363 0 -583.5 136t-217.5 356h303q-2 -113 126.5 -179.5t348.5 -66.5q533 0 533 203q0 71 -62.5 112t-169.5 54q-90 11 -274 20
q-236 9 -393 37q-153 27 -262 113t-109 258q0 214 203.5 335t544.5 121q351 0 567 -134.5t219 -356.5h-305q2 113 -124 180.5t-339 67.5q-228 0 -350.5 -49.5t-122.5 -141.5q0 -71 63 -108zM897 1546l-588 381v164l588 -336l588 336v-164z" />
    <glyph glyph-name="scaron" unicode="&#x161;" horiz-adv-x="1406" 
d="M395 442q-130 22 -210.5 90t-80.5 185q0 165 160 252.5t443 87.5q93 0 237 -15q132 -14 275 -43v-231q-281 59 -482 59q-180 0 -263 -25.5t-83 -80.5q0 -48 70 -67.5t246 -32.5q206 -15 315.5 -39.5t191.5 -85.5q86 -65 86 -191q0 -169 -156.5 -253.5t-445.5 -84.5
q-118 0 -273.5 22.5t-274.5 57.5v244q257 -98 503 -98q197 0 280 25t83 87q0 51 -67.5 69.5t-250.5 31.5q-185 15 -303 36zM702 1137l-587 381v163l587 -335l588 335v-163z" />
    <glyph glyph-name="uni0162" unicode="&#x162;" horiz-adv-x="1818" 
d="M764 8v1182h-696v244h1685v-244h-698v-1190h-74l-72 -141q306 -17 475.5 -74t169.5 -147q0 -63 -109 -114.5t-309 -81.5t-454 -30v113q567 3 567 113q0 56 -134.5 85t-432.5 33v109z" />
    <glyph glyph-name="uni0163" unicode="&#x163;" horiz-adv-x="886" 
d="M250 -244v109l86 149q-64 34 -87.5 113t-23.5 242v444h-147v211h160v246l278 41v-287h295v-211h-295v-383q0 -128 9 -172t46 -65q41 -23 131 -23q6 0 20 0.5t40.5 1.5t48.5 2v-154q-119 -40 -272 -40l-62 -121q306 -17 475.5 -74t169.5 -147q0 -63 -109 -114.5
t-309 -81.5t-454 -30v113q567 3 567 113q0 56 -134.5 85t-432.5 33z" />
    <glyph glyph-name="Tcaron" unicode="&#x164;" horiz-adv-x="1818" 
d="M68 1190v244h1685v-244h-698v-1190h-291v1190h-696zM911 1546l-587 381v164l587 -336l588 336v-164z" />
    <glyph glyph-name="tcaron" unicode="&#x165;" horiz-adv-x="1243" 
d="M524 262q8 -50 47 -71t131 -21q6 0 20 0.5t40.5 1.5t48.5 2v-154q-121 -40 -279 -40q-70 3 -116 10t-81.5 26.5t-54.5 44t-32 71.5t-17 99.5t-6 137.5v444h-147v211h160v246l278 41v-287h295v-211h-295v-383q0 -127 8 -168zM995 879h-153l129 553h256z" />
    <glyph glyph-name="Tbar" unicode="&#x166;" horiz-adv-x="1818" 
d="M1055 793h368v-232h-368v-561h-291v561h-365v232h365v397h-696v244h1685v-244h-698v-397z" />
    <glyph glyph-name="tbar" unicode="&#x167;" horiz-adv-x="886" 
d="M238 1024v246l278 41v-287h295v-211h-295v-164h297v-215h-297v-4q0 -128 9 -172t46 -65q41 -23 131 -23q6 0 20 0.5t40.5 1.5t48.5 2v-154q-121 -40 -279 -40q-70 3 -116 10t-81.5 26.5t-54.5 44t-32 71.5t-17 99.5t-6 137.5v65h-147v215h147v164h-147v211h160z" />
    <glyph glyph-name="Umacron" unicode="&#x16a;" horiz-adv-x="1861" 
d="M1393 700v734h290v-672q0 -178 -32 -312.5t-92 -226t-153.5 -149t-209 -82.5t-264.5 -25q-188 0 -323.5 40.5t-233.5 132t-146.5 246.5t-48.5 376v672h291v-734q0 -246 113 -364.5t348 -118.5t348 118.5t113 364.5zM387 1733v110h1090v-110h-1090z" />
    <glyph glyph-name="umacron" unicode="&#x16b;" horiz-adv-x="1452" 
d="M858 256q82 68 126 193.5t44 291.5v283h291v-1024h-320l41 422h-14q-36 -219 -162 -337t-342 -118q-224 3 -326 145t-102 468v444h291v-410q0 -228 66.5 -328t216.5 -100q108 0 190 70zM182 1323v111h1090v-111h-1090z" />
    <glyph glyph-name="Uring" unicode="&#x16e;" horiz-adv-x="1861" 
d="M1393 700v734h290v-672q0 -178 -32 -312.5t-92 -226t-153.5 -149t-209 -82.5t-264.5 -25q-188 0 -323.5 40.5t-233.5 132t-146.5 246.5t-48.5 376v672h291v-734q0 -246 113 -364.5t348 -118.5t348 118.5t113 364.5zM1202 1907q118 -26 183 -74t65 -111
q0 -94 -144.5 -152.5t-373.5 -58.5q-140 0 -258 26.5t-189 75t-71 109.5t71 109.5t189 75t258 26.5q154 0 270 -26zM932 1616q83 0 134.5 27.5t51.5 76.5q0 53 -49 81t-137 28q-83 0 -132.5 -28.5t-49.5 -78.5t49.5 -78t132.5 -28z" />
    <glyph glyph-name="uring" unicode="&#x16f;" horiz-adv-x="1452" 
d="M858 256q82 68 126 193.5t44 291.5v283h291v-1024h-320l41 422h-14q-36 -219 -162 -337t-342 -118q-224 3 -326 145t-102 468v444h291v-410q0 -228 66.5 -328t216.5 -100q108 0 190 70zM952 1497q118 -27 183 -74.5t65 -109.5q0 -94 -144.5 -152.5t-373.5 -58.5
q-140 0 -258 26.5t-189 75t-71 109.5t71 109.5t189 75t258 26.5q150 0 270 -27zM682 1206q83 0 134.5 28t51.5 77q0 53 -49 80.5t-137 27.5q-83 0 -132.5 -28t-49.5 -78t49.5 -78.5t132.5 -28.5z" />
    <glyph glyph-name="Uhungarumlaut" unicode="&#x170;" horiz-adv-x="1861" 
d="M1393 700v734h290v-672q0 -178 -32 -312.5t-92 -226t-153.5 -149t-209 -82.5t-264.5 -25q-188 0 -323.5 40.5t-233.5 132t-146.5 246.5t-48.5 376v672h291v-734q0 -246 113 -364.5t348 -118.5t348 118.5t113 364.5zM1753 1860l-588 -336v164l588 380v-208zM653 1524v164
l588 380v-208z" />
    <glyph glyph-name="uhungarumlaut" unicode="&#x171;" horiz-adv-x="1452" 
d="M858 256q82 68 126 193.5t44 291.5v283h291v-1024h-320l41 422h-14q-36 -219 -162 -337t-342 -118q-224 3 -326 145t-102 468v444h291v-410q0 -228 66.5 -328t216.5 -100q108 0 190 70zM1503 1450l-588 -336v164l588 381v-209zM403 1114v164l588 381v-209z" />
    <glyph glyph-name="Uogonek" unicode="&#x172;" horiz-adv-x="1861" 
d="M850 -342q-59 65 -59 145q0 77 59 166q-329 18 -500 201q-170 182 -170 592v672h291v-734q0 -246 113 -364.5t348 -118.5t348 118.5t113 364.5v734h290v-672q0 -412 -165 -592q-168 -183 -496 -201q-39 -51 -39 -98q0 -73 86 -120.5t217 -47.5q84 0 172 18l-6 -159
q-103 -33 -227 -33q-117 0 -216 34t-159 95z" />
    <glyph glyph-name="uogonek" unicode="&#x173;" horiz-adv-x="1452" 
d="M858 256q82 68 126 193.5t44 291.5v283h291v-1024h-166q-66 -69 -66 -129q0 -75 85 -121.5t219 -46.5q81 0 172 18l-7 -159q-103 -33 -227 -33q-180 0 -307 76.5t-127 197.5q0 106 109 230l36 389h-14q-36 -219 -162 -337t-342 -118q-224 3 -326 145t-102 468v444h291
v-410q0 -228 66.5 -328t216.5 -100q108 0 190 70z" />
    <glyph glyph-name="Wcircumflex" unicode="&#x174;" horiz-adv-x="2592" 
d="M2181 1434h316l-531 -1434h-328l-340 1010l-344 -1010h-325l-531 1434h316l381 -1057l360 1057h285l358 -1057zM1298 1882l-587 -336v164l587 381l588 -381v-164z" />
    <glyph glyph-name="wcircumflex" unicode="&#x175;" horiz-adv-x="2203" 
d="M1864 1024h288l-438 -1024h-377l-241 590l-228 -590h-379l-438 1024h291l328 -776l311 776h223l330 -780zM1092 1473l-588 -336v163l588 381l587 -381v-163z" />
    <glyph glyph-name="Ycircumflex" unicode="&#x176;" horiz-adv-x="1914" 
d="M1507 1434h357l-760 -969v-465h-291v463l-762 971h357l550 -715zM958 1882l-587 -336v164l587 381l588 -381v-164z" />
    <glyph glyph-name="ycircumflex" unicode="&#x177;" horiz-adv-x="1581" 
d="M668 2l-617 1022h322l430 -754l420 754h307l-787 -1434h-305zM815 1473l-588 -336v163l588 381l588 -381v-163z" />
    <glyph glyph-name="Ydieresis" unicode="&#x178;" horiz-adv-x="1914" 
d="M1507 1434h357l-760 -969v-465h-291v463l-762 971h357l550 -715zM524 1812q57 48 146 48q96 0 149 -47t53 -127q0 -81 -53 -128t-149 -47q-91 0 -147 48.5t-56 126.5t57 126zM1264 1511q-91 0 -147 48.5t-56 126.5t56 126t147 48q96 0 149 -47t53 -127q0 -81 -53 -128
t-149 -47z" />
    <glyph glyph-name="Zacute" unicode="&#x179;" horiz-adv-x="1824" 
d="M1716 1434v-174l-1163 -1014h1184v-246h-1649v178l1172 1012h-1156v244h1612zM825 1524v184l588 360v-229z" />
    <glyph glyph-name="zacute" unicode="&#x17a;" horiz-adv-x="1466" 
d="M1384 219v-219h-1323v123l832 682h-815v219h1327v-117l-827 -688h806zM715 1114v184l588 361v-229z" />
    <glyph glyph-name="Zdotaccent" unicode="&#x17b;" horiz-adv-x="1824" 
d="M1716 1434v-174l-1163 -1014h1184v-246h-1649v178l1172 1012h-1156v244h1612zM729 1812q57 48 145 48q96 0 149.5 -47t53.5 -127t-53.5 -127.5t-149.5 -47.5q-91 0 -146.5 48.5t-55.5 126.5t57 126z" />
    <glyph glyph-name="zdotaccent" unicode="&#x17c;" horiz-adv-x="1466" 
d="M1384 219v-219h-1323v123l832 682h-815v219h1327v-117l-827 -688h806zM618 1403q56 47 146 47q96 0 149.5 -47t53.5 -127t-53.5 -127t-149.5 -47q-91 0 -147 48t-56 126q0 79 57 127z" />
    <glyph glyph-name="Zcaron" unicode="&#x17d;" horiz-adv-x="1824" 
d="M1716 1434v-174l-1163 -1014h1184v-246h-1649v178l1172 1012h-1156v244h1612zM874 1546l-587 381v164l587 -336l588 336v-164z" />
    <glyph glyph-name="zcaron" unicode="&#x17e;" horiz-adv-x="1466" 
d="M1384 219v-219h-1323v123l832 682h-815v219h1327v-117l-827 -688h806zM764 1137l-588 381v163l588 -335l588 335v-163z" />
    <glyph glyph-name="uni0218" unicode="&#x218;" horiz-adv-x="1783" 
d="M487 924q59 -34 149.5 -48t281.5 -26q236 -14 401 -43q151 -27 264 -117q111 -88 111 -264q0 -142 -101 -246.5t-282 -158.5t-420 -54q-363 0 -583.5 136t-217.5 356h303q-2 -113 126.5 -179.5t348.5 -66.5q533 0 533 203q0 71 -62.5 112t-169.5 54q-90 11 -274 20
q-236 9 -393 37q-153 27 -262 113t-109 258q0 214 203.5 335t544.5 121q351 0 567 -134.5t219 -356.5h-305q2 113 -124 180.5t-339 67.5q-228 0 -350.5 -49.5t-122.5 -141.5q0 -71 63 -108zM823 -717h-153l129 553h256z" />
    <glyph glyph-name="uni0219" unicode="&#x219;" horiz-adv-x="1406" 
d="M395 442q-130 22 -210.5 90t-80.5 185q0 165 160 252.5t443 87.5q93 0 237 -15q132 -14 275 -43v-231q-281 59 -482 59q-180 0 -263 -25.5t-83 -80.5q0 -48 70 -67.5t246 -32.5q206 -15 315.5 -39.5t191.5 -85.5q86 -65 86 -191q0 -169 -156.5 -253.5t-445.5 -84.5
q-118 0 -273.5 22.5t-274.5 57.5v244q257 -98 503 -98q197 0 280 25t83 87q0 51 -67.5 69.5t-250.5 31.5q-185 15 -303 36zM625 -698h-154l129 553h256z" />
    <glyph glyph-name="uni021A" unicode="&#x21a;" horiz-adv-x="1818" 
d="M68 1190v244h1685v-244h-698v-1190h-291v1190h-696zM805 -717h-154l129 553h256z" />
    <glyph glyph-name="uni021B" unicode="&#x21b;" horiz-adv-x="886" 
d="M524 262q8 -50 47 -71t131 -21q6 0 20 0.5t40.5 1.5t48.5 2v-154q-121 -40 -279 -40q-70 3 -116 10t-81.5 26.5t-54.5 44t-32 71.5t-17 99.5t-6 137.5v444h-147v211h160v246l278 41v-287h295v-211h-295v-383q0 -127 8 -168zM381 -698h-154l129 553h256z" />
    <glyph glyph-name="circumflex" unicode="&#x2c6;" horiz-adv-x="1380" 
d="M690 1473l-588 -336v163l588 381l588 -381v-163z" />
    <glyph glyph-name="caron" unicode="&#x2c7;" horiz-adv-x="1380" 
d="M690 1137l-588 381v163l588 -335l588 335v-163z" />
    <glyph glyph-name="breve" unicode="&#x2d8;" horiz-adv-x="1077" 
d="M764 1434h211q-2 -142 -116.5 -224t-319.5 -82q-188 0 -312.5 85.5t-124.5 220.5h215q1 -80 61 -123t161 -43t160 42.5t65 123.5z" />
    <glyph glyph-name="dotaccent" unicode="&#x2d9;" horiz-adv-x="610" 
d="M160 1403q56 47 145 47q96 0 149.5 -47t53.5 -127t-53.5 -127t-149.5 -47q-91 0 -147 48t-56 126t58 127z" />
    <glyph glyph-name="ring" unicode="&#x2da;" horiz-adv-x="1241" 
d="M891 1497q118 -27 183 -74.5t65 -109.5q0 -94 -144.5 -152.5t-373.5 -58.5q-140 0 -258.5 26.5t-189.5 75t-71 109.5t71 109.5t189.5 75t258.5 26.5q150 0 270 -27zM621 1206q83 0 134.5 28t51.5 77q0 53 -49 80.5t-137 27.5q-83 0 -133 -28t-50 -78t50 -78.5t133 -28.5z
" />
    <glyph glyph-name="ogonek" unicode="&#x2db;" horiz-adv-x="911" 
d="M778 -279l-6 -159q-103 -33 -225 -33q-180 0 -307 76.5t-127 197.5q0 126 137 260q62 62 106 62q24 0 40 -15.5t16 -39.5q0 -26 -19 -45q-88 -79 -88 -154q0 -73 85 -120.5t216 -47.5q84 0 172 18z" />
    <glyph glyph-name="tilde" unicode="&#x2dc;" horiz-adv-x="985" 
d="M453 1262q-33 31 -54 44t-45 13q-58 0 -92 -37t-35 -108h-125q1 118 71.5 192t180.5 74q45 0 78.5 -18.5t79.5 -63.5q41 -37 65.5 -51.5t53.5 -14.5q61 0 94.5 36.5t34.5 109.5h123q-1 -121 -71 -194t-181 -73q-52 0 -91.5 22t-86.5 69z" />
    <glyph glyph-name="hungarumlaut" unicode="&#x2dd;" horiz-adv-x="1304" 
d="M1202 1450l-588 -336v164l588 381v-209zM102 1114v164l588 381v-209z" />
    <glyph glyph-name="gravecomb" unicode="&#x300;" 
d="M-690 1659l588 -361v-184l-588 316v229z" />
    <glyph glyph-name="acutecomb" unicode="&#x301;" 
d="M-690 1114v184l588 361v-229z" />
    <glyph glyph-name="uni0302" unicode="&#x302;" 
d="M-690 1473l-588 -336v163l588 381l588 -381v-163z" />
    <glyph glyph-name="tildecomb" unicode="&#x303;" 
d="M-532 1262q-33 31 -54 44t-45 13q-58 0 -92 -37t-35 -108h-125q1 118 71.5 192t180.5 74q45 0 78.5 -18.5t79.5 -63.5q41 -37 65.5 -51.5t53.5 -14.5q61 0 94.5 36.5t34.5 109.5h123q-1 -121 -71 -194t-181 -73q-52 0 -91.5 22t-86.5 69z" />
    <glyph glyph-name="uni0304" unicode="&#x304;" 
d="M-1192 1323v111h1090v-111h-1090z" />
    <glyph glyph-name="uni0306" unicode="&#x306;" 
d="M-313 1434h211q-2 -142 -117 -224t-320 -82q-188 0 -312 85.5t-124 220.5h215q1 -80 60.5 -123t160.5 -43t160.5 42.5t65.5 123.5z" />
    <glyph glyph-name="uni0307" unicode="&#x307;" 
d="M-332 1403q56 47 146 47q96 0 149 -47t53 -127t-53 -127t-149 -47q-91 0 -147 48t-56 126q0 79 57 127z" />
    <glyph glyph-name="uni0308" unicode="&#x308;" 
d="M-1044 1403q56 47 145 47q96 0 149.5 -47t53.5 -127t-53.5 -127t-149.5 -47q-91 0 -147 48t-56 126t58 127zM-305 1102q-91 0 -147 48t-56 126t56 126t147 48q96 0 149.5 -47t53.5 -127t-53.5 -127t-149.5 -47z" />
    <glyph glyph-name="uni030A" unicode="&#x30a;" 
d="M-350 1497q118 -27 183 -74.5t65 -109.5q0 -94 -145 -152.5t-374 -58.5q-140 0 -258 26.5t-189 75t-71 109.5t71 109.5t189 75t258 26.5q151 0 271 -27zM-621 1206q83 0 135 28t52 77q0 53 -49.5 80.5t-137.5 27.5q-83 0 -132.5 -28t-49.5 -78t49.5 -78.5t132.5 -28.5z
" />
    <glyph glyph-name="uni030B" unicode="&#x30b;" 
d="M-102 1450l-588 -336v164l588 381v-209zM-1202 1114v164l588 381v-209z" />
    <glyph glyph-name="uni030C" unicode="&#x30c;" 
d="M-690 1137l-588 381v163l588 -335l588 335v-163z" />
    <glyph glyph-name="uni0312" unicode="&#x312;" 
d="M-231 1081h-256l231 553h154z" />
    <glyph glyph-name="uni0326" unicode="&#x326;" 
d="M-365 -698h-153l129 553h256z" />
    <glyph glyph-name="uni0327" unicode="&#x327;" 
d="M-211 -477q-112 -52 -311 -81.5t-453 -29.5v113q567 3 567 113q0 56 -134.5 85t-432.5 33v109l119 207h219l-108 -213q305 -17 474 -74t169 -147q0 -62 -109 -115z" />
    <glyph glyph-name="uni0328" unicode="&#x328;" 
d="M-133 -279l-6 -159q-103 -33 -226 -33q-180 0 -307 76.5t-127 197.5q0 126 137 260q62 62 107 62q24 0 39.5 -15.5t15.5 -39.5q0 -27 -18 -45q-88 -79 -88 -154q0 -73 85 -120.5t216 -47.5q83 0 172 18z" />
    <glyph glyph-name="uni0335" unicode="&#x335;" 
d="M-1126 561v232h1024v-232h-1024z" />
    <glyph glyph-name="uni0336" unicode="&#x336;" 
d="M-2150 561v232h2048v-232h-2048z" />
    <glyph glyph-name="uni0337" unicode="&#x337;" 
d="M-1319 0h-289l1217 1024h289z" />
    <glyph glyph-name="uni0338" unicode="&#x338;" 
d="M-1806 0h-289l1704 1434h289z" />
    <glyph glyph-name="uni0401" unicode="&#x401;" horiz-adv-x="1689" 
d="M471 1190v-348h1042v-228h-1042v-368h1061v-246h-1352v1434h1352v-244h-1061zM428 1812q57 48 145 48q96 0 149.5 -47t53.5 -127t-53.5 -127.5t-149.5 -47.5q-91 0 -146.5 48.5t-55.5 126.5t57 126zM1167 1511q-91 0 -146.5 48.5t-55.5 126.5t55.5 126t146.5 48
q96 0 149.5 -47t53.5 -127t-53.5 -127.5t-149.5 -47.5zM428 1812q57 48 145 48q96 0 149.5 -47t53.5 -127t-53.5 -127.5t-149.5 -47.5q-91 0 -146.5 48.5t-55.5 126.5t57 126zM1167 1511q-91 0 -146.5 48.5t-55.5 126.5t55.5 126t146.5 48q96 0 149.5 -47t53.5 -127
t-53.5 -127.5t-149.5 -47.5z" />
    <glyph glyph-name="uni0410" unicode="&#x410;" horiz-adv-x="2232" 
d="M1292 1434l875 -1434h-336l-178 303h-1073l-177 -303h-335l872 1434h352zM1118 1231l-397 -682h790z" />
    <glyph glyph-name="uni0411" unicode="&#x411;" horiz-adv-x="1798" 
d="M1204 0h-1024v1434h1321v-244h-1030v-316h733q220 0 351 -114.5t131 -321.5q0 -186 -134.5 -312t-347.5 -126zM1337 287q58 46 58 151q0 104 -57 150.5t-185 46.5h-684v-395h684q125 0 184 47z" />
    <glyph glyph-name="uni0412" unicode="&#x412;" horiz-adv-x="1896" 
d="M1585 1329q121 -106 121 -274q0 -152 -102.5 -233.5t-294.5 -92.5q209 -5 326.5 -95t117.5 -253q0 -170 -128 -275.5t-335 -105.5h-1110v1434h1065q217 0 340 -105zM1219 627h-748l2 -379h746q241 0 241 192q0 187 -241 187zM1415 1006q0 184 -241 184h-705l2 -361h703
q241 0 241 177z" />
    <glyph glyph-name="uni0413" unicode="&#x413;" horiz-adv-x="1517" 
d="M180 1434h1317v-244h-1026v-1190h-291v1434z" />
    <glyph glyph-name="uni0414" unicode="&#x414;" horiz-adv-x="1898" 
d="M1858 -211h-291v211h-1252v-211h-290v420q104 0 162.5 42.5t64.5 123.5l92 1061l1274 -2v-1225h240v-420zM496 246h831v944h-713l-67 -797q-6 -85 -51 -147z" />
    <glyph glyph-name="uni0415" unicode="&#x415;" horiz-adv-x="1689" 
d="M471 1190v-348h1042v-228h-1042v-368h1061v-246h-1352v1434h1352v-244h-1061z" />
    <glyph glyph-name="uni0416" unicode="&#x416;" horiz-adv-x="2689" 
d="M1200 770v664h291v-664l760 664h413l-876 -715l881 -719h-418l-760 666v-666h-291v666l-762 -666h-418l881 719l-874 715h411z" />
    <glyph glyph-name="uni0417" unicode="&#x417;" horiz-adv-x="1665" 
d="M410 -2q-216 36 -332 90v252q100 -53 309 -90q206 -37 373 -37q303 0 447.5 41t144.5 127q-4 82 -91.5 128.5t-287 70t-557.5 28.5v221q224 12 368 23.5t251 26.5t163 37t82.5 49.5t30.5 68.5q0 191 -553 191q-164 0 -365 -39q-212 -41 -315 -92v252q119 55 330 90
q191 32 370 32q196 0 344 -23t251.5 -70t156.5 -122.5t53 -177.5q2 -68 -29 -128t-80.5 -99.5t-108.5 -68.5t-111 -42t-91 -14q67 2 146 -21.5t151.5 -66.5t119.5 -113.5t44 -152.5q0 -402 -803 -402q-199 0 -411 31z" />
    <glyph glyph-name="uni0418" unicode="&#x418;" horiz-adv-x="1988" 
d="M1544 1434h264v-1434h-290v1032l-1072 -1032h-266v1434h291v-1033z" />
    <glyph glyph-name="uni0419" unicode="&#x419;" horiz-adv-x="1988" 
d="M1544 1434h264v-1434h-290v1032l-1072 -1032h-266v1434h291v-1033zM764 1577q-100 37 -156.5 106.5t-56.5 159.5h215q1 -80 60.5 -123t160.5 -43t160 42.5t65 123.5h211q-2 -142 -116.5 -223.5t-319.5 -81.5q-128 0 -223 39z" />
    <glyph glyph-name="uni041A" unicode="&#x41a;" horiz-adv-x="1685" 
d="M1645 1434l-877 -715l881 -719h-418l-760 664v-664h-291v1434h291v-664l760 664h414z" />
    <glyph glyph-name="uni041B" unicode="&#x41b;" horiz-adv-x="1802" 
d="M1327 0v1190h-709l-71 -873q-15 -165 -144 -256q-131 -94 -321 -94q-48 0 -62 2l15 164l31 -2q84 0 132 44.5t54 123.5l96 1135h1270v-1434h-291z" />
    <glyph glyph-name="uni041C" unicode="&#x41c;" horiz-adv-x="2164" 
d="M1987 1434v-1434h-291v971l-586 -971h-55l-584 965v-965h-291v1434h299l604 -1008l605 1008h299z" />
    <glyph glyph-name="uni041D" unicode="&#x41d;" horiz-adv-x="1904" 
d="M1436 1434h290v-1434h-290v618h-965v-618h-291v1434h291v-570h965v570z" />
    <glyph glyph-name="uni041E" unicode="&#x41e;" horiz-adv-x="1992" 
d="M514 61q-204 92 -314 262.5t-110 393.5q0 339 245 544t660 205q275 0 481.5 -93t316.5 -262.5t110 -393.5q0 -168 -64 -307.5t-180.5 -237t-287 -151.5t-376.5 -54q-277 0 -481 94zM672 1163q-141 -62 -216 -175.5t-75 -270.5q0 -234 166.5 -369t447.5 -135
q283 0 450 134.5t167 369.5t-167 370.5t-450 135.5q-181 0 -323 -60z" />
    <glyph glyph-name="uni041F" unicode="&#x41f;" horiz-adv-x="1689" 
d="M471 0h-291v1434h1331v-1434h-290v1190h-750v-1190z" />
    <glyph glyph-name="uni0420" unicode="&#x420;" horiz-adv-x="1798" 
d="M1626 1217q60 -105 60 -222q0 -207 -131 -321.5t-351 -114.5h-733v-559h-291v1434h1024q140 0 250.5 -58t171.5 -159zM1337 1147q-59 47 -184 47h-684v-395h684q128 0 185 46t57 150q0 106 -58 152z" />
    <glyph glyph-name="uni0421" unicode="&#x421;" horiz-adv-x="1912" 
d="M958 1466q252 3 450.5 -80.5t308 -234.5t106.5 -342h-295q-9 195 -164 305q-157 109 -406 109q-260 0 -416.5 -136.5t-156.5 -369.5t156 -368.5t417 -135.5q255 0 409 109.5t161 302.5h295q3 -191 -106.5 -342.5t-308 -235t-450.5 -80.5q-189 -2 -350.5 52.5t-275 153
t-177 239.5t-61.5 305q-3 219 106.5 391t307.5 266t450 92z" />
    <glyph glyph-name="uni0422" unicode="&#x422;" horiz-adv-x="1818" 
d="M68 1190v244h1685v-244h-698v-1190h-291v1190h-696z" />
    <glyph glyph-name="uni0423" unicode="&#x423;" horiz-adv-x="1581" 
d="M668 410l-617 1022h322l430 -754l420 754h307l-787 -1434h-305z" />
    <glyph glyph-name="uni0424" unicode="&#x424;" horiz-adv-x="1464" 
d="M606 1264v170h250v-170q238 -30 379 -174q139 -145 139 -363q0 -215 -139 -360q-144 -147 -379 -177v-190h-250v190q-238 32 -377 176.5t-139 360.5t139 360.5t377 176.5zM856 1034v-612q116 31 182 112t66 193q0 115 -66 195.5t-182 111.5zM606 422v612
q-116 -31 -181 -111.5t-65 -195.5q0 -112 65 -193t181 -112z" />
    <glyph glyph-name="uni0425" unicode="&#x425;" horiz-adv-x="1927" 
d="M1823 1434l-670 -725l651 -709h-372l-478 514l-475 -514h-375l664 721l-659 713h378l478 -516l479 516h379z" />
    <glyph glyph-name="uni0426" unicode="&#x426;" horiz-adv-x="1679" 
d="M1362 -211v211h-1178v1434h291v-1188h637v1188h291v-1188h250v-457h-291z" />
    <glyph glyph-name="uni0427" unicode="&#x427;" horiz-adv-x="1452" 
d="M858 666q82 68 126 193.5t44 291.5v283h291v-1434h-320l41 831h-14q-36 -219 -161.5 -336.5t-342.5 -117.5q-224 3 -326 144.5t-102 467.5v445h291v-410q0 -228 66.5 -328t216.5 -100q108 0 190 70z" />
    <glyph glyph-name="uni0428" unicode="&#x428;" horiz-adv-x="2320" 
d="M1307 246h544v1188h291v-1434h-1962v1434h291v-1188h545v1188h291v-1188z" />
    <glyph glyph-name="uni0429" unicode="&#x429;" horiz-adv-x="2422" 
d="M2105 -211v211h-1921v1434h291v-1188h545v1188h291v-1188h544v1188h291v-1188h250v-457h-291z" />
    <glyph glyph-name="uni042A" unicode="&#x42a;" horiz-adv-x="1798" 
d="M471 874h733q220 0 351 -114.5t131 -321.5q0 -186 -134.5 -312t-347.5 -126h-1024v1225h-239v209h530v-560zM1153 635h-684v-395h684q127 0 184.5 47t57.5 151t-57 150.5t-185 46.5z" />
    <glyph glyph-name="uni042B" unicode="&#x42b;" horiz-adv-x="2443" 
d="M1552 762q134 -116 134 -324q0 -186 -134.5 -312t-347.5 -126h-1024v1434h291v-560h733q218 0 348 -112zM2263 0h-291v1434h291v-1434zM1153 635h-684v-395h684q127 0 184.5 47t57.5 151t-57 150.5t-185 46.5z" />
    <glyph glyph-name="uni042C" unicode="&#x42c;" horiz-adv-x="1798" 
d="M1458 59q-112 -59 -254 -59h-1024v1434h291v-560h733q220 0 351 -114.5t131 -321.5q0 -122 -60 -222t-168 -157zM1337 590q-57 45 -184 45h-684v-395h684q127 0 184.5 47t57.5 151q0 106 -58 152z" />
    <glyph glyph-name="uni042D" unicode="&#x42d;" horiz-adv-x="1908" 
d="M496 49q-197 82 -304.5 231.5t-107.5 344.5h295q7 -193 161 -302.5t408 -109.5q224 0 373.5 100t187.5 279h-729v246h729q-38 182 -187.5 283.5t-373.5 101.5q-252 0 -405.5 -110t-163.5 -304h-295q-3 191 106 342t307.5 234.5t450.5 80.5q252 2 450 -92t307.5 -266
t106.5 -391q2 -164 -61.5 -305t-177 -239.5t-275 -153t-350.5 -52.5q-257 0 -452 82z" />
    <glyph glyph-name="uni042E" unicode="&#x42e;" horiz-adv-x="2750" 
d="M1311 1391q190 75 442 75q416 0 661.5 -204.5t245.5 -544.5q0 -224 -110 -394t-316 -263t-481 -93q-373 0 -612.5 169t-282.5 456h-383v-592h-291v1434h291v-596h381q29 191 146 333t309 220zM1139 717q0 -234 166.5 -369t447.5 -135q283 0 450 134.5t167 369.5
t-167 370.5t-450 135.5q-281 0 -447.5 -135.5t-166.5 -370.5z" />
    <glyph glyph-name="uni042F" unicode="&#x42f;" horiz-adv-x="1927" 
d="M772 694h-149q-212 0 -336.5 96t-124.5 265q0 172 123.5 275.5t337.5 103.5h1126v-1434h-291l2 608h-479q-124 0 -204 -49.5t-156 -163.5q-95 -147 -232 -395h-338q127 246 232 399q93 137 209 211q117 75 280 84zM453 1012q0 -166 241 -166h766l2 348h-768
q-128 0 -184.5 -42.5t-56.5 -139.5z" />
    <glyph glyph-name="uni0430" unicode="&#x430;" horiz-adv-x="1390" 
d="M463 795q-145 -38 -244 -82v233q136 50 290 80.5t282 30.5q505 0 505 -479v-578h-286l55 346h-18q-95 -379 -576 -379q-153 0 -266 58q-115 56 -115 213q0 132 137 208q136 77 314 107q190 29 424 49l41 4q-1 118 -71 168.5t-226 50.5q-114 0 -246 -30zM588 172
q108 0 200.5 32.5t152.5 99.5t60 155l-88 -6q-184 -13 -279 -27.5t-165 -46.5q-76 -34 -76 -96q0 -51 52.5 -81t142.5 -30z" />
    <glyph glyph-name="uni0431" unicode="&#x431;" horiz-adv-x="1769" 
d="M535 1083q-154 -136 -154 -383q121 107 289.5 174.5t355.5 67.5q319 0 486 -130t167 -357q0 -220 -199 -350t-550 -130q-391 0 -615 193q-225 194 -225 573q0 230 113.5 394.5t314.5 246.5t471 82h189q130 0 217 8.5t174 32.5v-272q-89 -29 -223 -29q-54 0 -183 6
q-126 9 -196 9q-278 0 -432 -136zM911 221q242 0 358.5 59.5t116.5 190.5q0 124 -104 188t-307 64q-148 0 -316 -59q-161 -57 -247 -152q44 -149 166.5 -220t332.5 -71z" />
    <glyph glyph-name="uni0432" unicode="&#x432;" horiz-adv-x="1640" 
d="M1407 958q109 -65 109 -210q0 -109 -90.5 -163t-286.5 -61q222 -5 323 -63t101 -182q0 -146 -110.5 -212.5t-352.5 -66.5h-916v1024h871q241 0 352 -66zM987 442h-512l2 -231h510q149 0 216 29t67 92q0 110 -283 110zM942 815h-469l2 -211h467q150 0 216.5 23.5
t66.5 77.5q0 57 -67 83.5t-216 26.5z" />
    <glyph glyph-name="uni0433" unicode="&#x433;" horiz-adv-x="1187" 
d="M184 1024h969v-244h-678v-780h-291v1024z" />
    <glyph glyph-name="uni0434" unicode="&#x434;" horiz-adv-x="1714" 
d="M1673 -211h-291v211h-1067v-211h-290v420q104 0 162.5 42.5t64.5 123.5l61 702h1121v-868h239v-420zM496 246h647v588h-559l-37 -441q-6 -85 -51 -147z" />
    <glyph glyph-name="uni0435" unicode="&#x435;" horiz-adv-x="1413" 
d="M707 1057q273 0 443 -129t173 -336v-168h-944q26 -125 127 -180.5t303 -55.5q141 0 233 25q83 20 189 68l47 20v-233q-155 -59 -268 -80q-114 -21 -303 -21q-277 0 -447 150.5t-170 394.5t170 394.5t447 150.5zM479 762q-92 -74 -104 -197l672 17q-4 115 -97.5 183.5
t-242.5 68.5q-138 0 -228 -72z" />
    <glyph glyph-name="uni0436" unicode="&#x436;" horiz-adv-x="2443" 
d="M1077 608v416h291v-416l617 416h417l-792 -510l813 -514h-438l-617 416v-416h-291v416l-618 -416h-439l814 514l-793 510h418z" />
    <glyph glyph-name="uni0437" unicode="&#x437;" horiz-adv-x="1675" 
d="M1337 997q215 -59 215 -206q0 -169 -231 -216q-237 -47 -444 -47v-18h49q192 -2 318 -17.5t233 -64.5q116 -55 116 -166q0 -293 -805 -293q-469 0 -706 90v246q101 -41 289 -65q195 -25 358 -25q225 0 351 8.5t176.5 25t50.5 46.5q0 44 -96 70t-330 45q-391 25 -721 39
v133q401 13 694 32q218 14 320 41q92 21 92 64q0 52 -114 72t-425 20q-154 0 -352 -25q-192 -27 -293 -67v244q114 44 311 69q209 23 355 23q373 0 589 -58z" />
    <glyph glyph-name="uni0438" unicode="&#x438;" horiz-adv-x="1777" 
d="M1329 1024h264v-1024h-290v713l-852 -713h-267v1024h291v-711z" />
    <glyph glyph-name="uni0439" unicode="&#x439;" horiz-adv-x="1777" 
d="M1329 1024h264v-1024h-290v713l-852 -713h-267v1024h291v-711zM676 1167q-99 37 -156 107t-57 160h215q1 -80 60.5 -123t160.5 -43t160 42.5t65 123.5h211q-2 -142 -116.5 -224t-319.5 -82q-128 0 -223 39z" />
    <glyph glyph-name="uni043A" unicode="&#x43a;" horiz-adv-x="1536" 
d="M1505 1024l-792 -510l813 -514h-439l-616 416v-416h-291v1024h291v-416l616 416h418z" />
    <glyph glyph-name="uni043B" unicode="&#x43b;" horiz-adv-x="1464" 
d="M1096 780h-518l-37 -456q-13 -164 -134.5 -257.5t-310.5 -93.5q-47 0 -61 2l-6 164q205 0 217 166l61 719h1079v-1024h-290v780z" />
    <glyph glyph-name="uni043C" unicode="&#x43c;" horiz-adv-x="2011" 
d="M1827 1024v-1024h-291v627l-508 -627h-45l-508 635v-635h-291v1024h310l512 -659l512 659h309z" />
    <glyph glyph-name="uni043D" unicode="&#x43d;" horiz-adv-x="1751" 
d="M1276 1024h291v-1024h-291v412h-801v-412h-291v1024h291v-367h801v367z" />
    <glyph glyph-name="uni043E" unicode="&#x43e;" horiz-adv-x="1464" 
d="M1069 989q146 -68 225.5 -192t79.5 -285q0 -245 -176.5 -395t-466.5 -150q-287 0 -464 150.5t-177 394.5t177 394.5t464 150.5q193 0 338 -68zM731 193q167 0 270 88t103 231q0 146 -102.5 234t-270.5 88q-165 0 -268 -89.5t-103 -232.5t102.5 -231t268.5 -88z" />
    <glyph glyph-name="uni043F" unicode="&#x43f;" horiz-adv-x="1617" 
d="M471 0h-291v1024h1260v-1024h-291v774h-678v-774z" />
    <glyph glyph-name="uni0440" unicode="&#x440;" horiz-adv-x="1617" 
d="M952 1057q254 0 415 -154t161 -399q0 -155 -72 -278.5t-193.5 -191t-267.5 -67.5q-203 0 -348 96q-150 94 -184 269h-8v-742h-291v1434h299l-45 -334h24q38 164 179 266q140 101 331 101zM512 508q0 -139 107.5 -227t259.5 -88q163 0 263.5 85t100.5 230
q0 148 -100.5 237t-263.5 89q-153 0 -260 -90.5t-107 -235.5z" />
    <glyph glyph-name="uni0441" unicode="&#x441;" horiz-adv-x="1318" 
d="M772 193q146 0 251.5 28t205.5 90v-239q-140 -62 -230 -82q-103 -23 -241 -23q-192 0 -344 67.5t-238 192.5t-86 285q0 246 184 395.5t486 149.5q133 0 236 -23.5t233 -81.5v-245q-119 67 -229.5 97t-247.5 30q-171 0 -274 -89t-103 -233q0 -143 109 -231t288 -88z" />
    <glyph glyph-name="uni0442" unicode="&#x442;" horiz-adv-x="1490" 
d="M68 780v244h1357v-244h-532v-780h-291v780h-534z" />
    <glyph glyph-name="uni0443" unicode="&#x443;" horiz-adv-x="1581" 
d="M668 2l-617 1022h322l430 -754l420 754h307l-787 -1434h-305z" />
    <glyph glyph-name="uni0444" unicode="&#x444;" horiz-adv-x="1464" 
d="M606 1049v188h250v-188q237 -30 379 -175q139 -145 139 -362q0 -215 -139 -360q-144 -147 -379 -177v-172h-250v172q-238 32 -377 176.5t-139 360.5t139 360.5t377 176.5zM856 819v-612q116 31 182 112t66 193q0 115 -66 195.5t-182 111.5zM606 207v612
q-116 -31 -181 -111.5t-65 -195.5q0 -112 65 -193t181 -112z" />
    <glyph glyph-name="uni0445" unicode="&#x445;" horiz-adv-x="1619" 
d="M1567 1024l-570 -522l545 -502h-375l-368 340l-373 -340h-373l555 514l-555 510h377l379 -348l383 348h375z" />
    <glyph glyph-name="uni0446" unicode="&#x446;" horiz-adv-x="1607" 
d="M1290 -211v211h-1106v1024h291v-778h565v778h291v-778h250v-457h-291z" />
    <glyph glyph-name="uni0447" unicode="&#x447;" horiz-adv-x="1447" 
d="M854 477q82 68 126 193.5t44 292.5v61h291v-1024h-320l31 643h-6q-75 -455 -504 -455q-149 2 -241.5 62.5t-138.5 195t-46 355.5v223h291v-188q0 -231 65.5 -329.5t215.5 -98.5q111 0 192 69z" />
    <glyph glyph-name="uni0448" unicode="&#x448;" horiz-adv-x="2279" 
d="M1286 246h518v778h291v-1024h-1911v1024h291v-778h520v778h291v-778z" />
    <glyph glyph-name="uni0449" unicode="&#x449;" horiz-adv-x="2371" 
d="M2054 -211v211h-1870v1024h291v-778h520v778h291v-778h518v778h291v-778h250v-457h-291z" />
    <glyph glyph-name="uni044A" unicode="&#x44a;" horiz-adv-x="1720" 
d="M1470 762q134 -116 134 -324q0 -186 -134.5 -312t-347.5 -126h-942v1190h-241v244h532v-560h651q218 0 348 -112zM471 240h600q127 0 184.5 47t57.5 151t-57 150.5t-185 46.5h-600v-395z" />
    <glyph glyph-name="uni044B" unicode="&#x44b;" horiz-adv-x="2371" 
d="M1475 762q133 -115 133 -324q0 -186 -134.5 -312t-347.5 -126h-942v1434h291v-560h651q219 0 349 -112zM1896 1434h291v-1434h-291v1434zM1260 287q57 45 57 151q0 104 -57 150.5t-185 46.5h-600v-395h600q126 0 185 47z" />
    <glyph glyph-name="uni044C" unicode="&#x44c;" horiz-adv-x="1720" 
d="M1376 59q-112 -59 -254 -59h-942v1434h291v-560h651q220 0 351 -114.5t131 -321.5q0 -122 -60 -222t-168 -157zM1255 590q-57 45 -184 45h-600v-395h600q127 0 184.5 47t57.5 151q0 106 -58 152z" />
    <glyph glyph-name="uni044D" unicode="&#x44d;" horiz-adv-x="1277" 
d="M518 1057q302 0 486 -149.5t184 -395.5q0 -160 -86 -285t-238 -192.5t-344 -67.5q-138 0 -241 23q-90 20 -230 82v239q100 -62 205.5 -90t251.5 -28q142 0 243 57.5t136 157.5h-533v208h535q-33 101 -128 159.5t-233 58.5q-137 0 -247.5 -30t-229.5 -97v245
q130 58 233 81.5t236 23.5z" />
    <glyph glyph-name="uni044E" unicode="&#x44e;" horiz-adv-x="2064" 
d="M1264 1057q290 0 466.5 -150t176.5 -395t-176.5 -395t-466.5 -150q-250 0 -418 113.5t-211 308.5h-180v-389h-291v1024h291v-389h180q43 195 211 308.5t418 113.5zM893 512q0 -143 102.5 -231t268.5 -88q167 0 269.5 88t102.5 231q0 146 -102 234t-270 88
q-165 0 -268 -89.5t-103 -232.5z" />
    <glyph glyph-name="uni044F" unicode="&#x44f;" horiz-adv-x="1660" 
d="M743 408h-116q-244 0 -352.5 72t-108.5 233q0 149 108 214.5t353 65.5h850v-993h-291l2 332h-232q-76 -2 -110.5 -4t-84 -15.5t-75 -29t-75.5 -58t-93.5 -90t-122.5 -135.5h-334q100 124 168.5 194t148 118t160 67t205.5 29zM522 580q64 -27 217 -27h449l2 221h-451
q-153 0 -217.5 -22.5t-64.5 -77.5q0 -67 65 -94z" />
    <glyph glyph-name="uni0451" unicode="&#x451;" horiz-adv-x="1413" 
d="M707 1057q273 0 443 -129t173 -336v-168h-944q26 -125 127 -180.5t303 -55.5q141 0 233 25q83 20 189 68l47 20v-233q-155 -59 -268 -80q-114 -21 -303 -21q-277 0 -447 150.5t-170 394.5t170 394.5t447 150.5zM479 762q-92 -74 -104 -197l672 17q-4 115 -97.5 183.5
t-242.5 68.5q-138 0 -228 -72zM707 1057q273 0 443 -129t173 -336v-168h-944q26 -125 127 -180.5t303 -55.5q141 0 233 25q83 20 189 68l47 20v-233q-155 -59 -268 -80q-114 -21 -303 -21q-277 0 -447 150.5t-170 394.5t170 394.5t447 150.5zM479 762q-92 -74 -104 -197
l672 17q-4 115 -97.5 183.5t-242.5 68.5q-138 0 -228 -72zM272 1403q56 47 146 47q96 0 149.5 -47t53.5 -127t-53.5 -127t-149.5 -47q-91 0 -147 48t-56 126q0 79 57 127zM1012 1102q-91 0 -147 48t-56 126t56 126t147 48q96 0 149 -47t53 -127t-53 -127t-149 -47zM272 1403
q56 47 146 47q96 0 149.5 -47t53.5 -127t-53.5 -127t-149.5 -47q-91 0 -147 48t-56 126q0 79 57 127zM1012 1102q-91 0 -147 48t-56 126t56 126t147 48q96 0 149 -47t53 -127t-53 -127t-149 -47z" />
    <glyph glyph-name="Wgrave" unicode="&#x1e80;" horiz-adv-x="2592" 
d="M2181 1434h316l-531 -1434h-328l-340 1010l-344 -1010h-325l-531 1434h316l381 -1057l360 1057h285l358 -1057zM723 2068l588 -360v-184l-588 315v229z" />
    <glyph glyph-name="wgrave" unicode="&#x1e81;" horiz-adv-x="2203" 
d="M1864 1024h288l-438 -1024h-377l-241 590l-228 -590h-379l-438 1024h291l328 -776l311 776h223l330 -780zM516 1659l588 -361v-184l-588 316v229z" />
    <glyph glyph-name="Wacute" unicode="&#x1e82;" horiz-adv-x="2592" 
d="M2181 1434h316l-531 -1434h-328l-340 1010l-344 -1010h-325l-531 1434h316l381 -1057l360 1057h285l358 -1057zM1249 1524v184l588 360v-229z" />
    <glyph glyph-name="wacute" unicode="&#x1e83;" horiz-adv-x="2203" 
d="M1864 1024h288l-438 -1024h-377l-241 590l-228 -590h-379l-438 1024h291l328 -776l311 776h223l330 -780zM1042 1114v184l588 361v-229z" />
    <glyph glyph-name="Wdieresis" unicode="&#x1e84;" horiz-adv-x="2592" 
d="M2181 1434h316l-531 -1434h-328l-340 1010l-344 -1010h-325l-531 1434h316l381 -1057l360 1057h285l358 -1057zM864 1812q57 48 146 48q96 0 149 -47t53 -127q0 -81 -53 -128t-149 -47q-91 0 -147 48.5t-56 126.5t57 126zM1604 1511q-91 0 -147 48.5t-56 126.5t56 126
t147 48q96 0 149 -47t53 -127q0 -81 -53 -128t-149 -47z" />
    <glyph glyph-name="wdieresis" unicode="&#x1e85;" horiz-adv-x="2203" 
d="M1864 1024h288l-438 -1024h-377l-241 590l-228 -590h-379l-438 1024h291l328 -776l311 776h223l330 -780zM641 1403q56 47 145 47q96 0 149.5 -47t53.5 -127t-53.5 -127t-149.5 -47q-91 0 -146.5 48t-55.5 126q0 79 57 127zM1380 1102q-91 0 -146.5 48t-55.5 126
t55.5 126t146.5 48q96 0 149.5 -47t53.5 -127t-53.5 -127t-149.5 -47z" />
    <glyph glyph-name="Ygrave" unicode="&#x1ef2;" horiz-adv-x="1914" 
d="M1507 1434h357l-760 -969v-465h-291v463l-762 971h357l550 -715zM383 2068l588 -360v-184l-588 315v229z" />
    <glyph glyph-name="ygrave" unicode="&#x1ef3;" horiz-adv-x="1581" 
d="M668 2l-617 1022h322l430 -754l420 754h307l-787 -1434h-305zM240 1659l587 -361v-184l-587 316v229z" />
    <glyph glyph-name="endash" unicode="&#x2013;" horiz-adv-x="1146" 
d="M61 561v232h1024v-232h-1024z" />
    <glyph glyph-name="emdash" unicode="&#x2014;" horiz-adv-x="2170" 
d="M61 561v232h2048v-232h-2048z" />
    <glyph glyph-name="quoteleft" unicode="&#x2018;" horiz-adv-x="600" 
d="M410 881h-256l231 553h154z" />
    <glyph glyph-name="quoteright" unicode="&#x2019;" horiz-adv-x="600" 
d="M215 881h-154l129 553h256z" />
    <glyph glyph-name="quotesinglbase" unicode="&#x201a;" horiz-adv-x="600" 
d="M215 -346h-154l129 553h256z" />
    <glyph glyph-name="quotedblleft" unicode="&#x201c;" horiz-adv-x="1054" 
d="M608 881l232 553h153l-129 -553h-256zM154 881l231 553h154l-129 -553h-256z" />
    <glyph glyph-name="quotedblright" unicode="&#x201d;" horiz-adv-x="1054" 
d="M215 881h-154l129 553h256zM670 881h-154l129 553h256z" />
    <glyph glyph-name="quotedblbase" unicode="&#x201e;" horiz-adv-x="993" 
d="M215 -346h-154l129 553h256zM670 -346h-154l129 553h256z" />
    <glyph glyph-name="dagger" unicode="&#x2020;" horiz-adv-x="1187" 
d="M739 791v-1139h-290v1139h-388v231h388v453h290v-453h387v-231h-387z" />
    <glyph glyph-name="daggerdbl" unicode="&#x2021;" horiz-adv-x="1228" 
d="M449 -348v348h-388v231h388v560h-388v231h388v453h290v-453h387v-231h-387v-560h387v-231h-387v-348h-290z" />
    <glyph glyph-name="bullet" unicode="&#x2022;" horiz-adv-x="1163" 
d="M965 756q57 -92 57 -215q0 -182 -124.5 -299t-317.5 -117q-186 0 -312.5 118.5t-126.5 297.5t126.5 297t312.5 118q122 0 223.5 -53t161.5 -147z" />
    <glyph glyph-name="ellipsis" unicode="&#x2026;" horiz-adv-x="1853" 
d="M141 242q45 45 119 45t122 -44.5t48 -113.5q0 -72 -47.5 -116t-122.5 -44q-72 0 -120 45.5t-48 114.5q0 67 49 113zM756 242q45 45 118 45q74 0 122 -44.5t48 -113.5q0 -72 -47.5 -116t-122.5 -44q-72 0 -119.5 45.5t-47.5 114.5q0 67 49 113zM1370 242q45 45 119 45
t122 -44.5t48 -113.5q0 -72 -47.5 -116t-122.5 -44q-72 0 -120 45.5t-48 114.5q0 67 49 113z" />
    <glyph glyph-name="perthousand" unicode="&#x2030;" horiz-adv-x="3110" 
d="M1665 1434h258l-1440 -1434h-258zM1171 233q0 110 125.5 183t302.5 73q191 0 310 -70.5t119 -185.5t-119 -185.5t-310 -70.5q-177 0 -302.5 73t-125.5 183zM530 942q-177 0 -302.5 73t-125.5 183t125.5 183t302.5 73q191 0 309.5 -70.5t118.5 -185.5t-118.5 -185.5
t-309.5 -70.5zM2212 367q57 57 155 89.5t213 32.5q191 0 310 -70.5t119 -185.5t-119 -185.5t-310 -70.5q-177 0 -302.5 73t-125.5 183q0 74 60 134zM1446 350q-60 -45 -60 -117q0 -73 58 -116t155 -43t156.5 43t59.5 112q0 75 -59.5 119.5t-156.5 44.5q-95 0 -153 -43z
M745 1194q0 75 -59 119.5t-156 44.5q-95 0 -154 -43.5t-59 -116.5t59 -116.5t154 -43.5q97 0 156 42t59 114zM2427 117q58 -43 153 -43q97 0 156.5 43t59.5 112q0 75 -59.5 119.5t-156.5 44.5q-95 0 -154 -43.5t-59 -116.5q0 -71 60 -116z" />
    <glyph glyph-name="guilsinglleft" unicode="&#x2039;" horiz-adv-x="913" 
d="M852 1024l-438 -512l438 -512h-369l-422 512l422 512h369z" />
    <glyph glyph-name="guilsinglright" unicode="&#x203a;" horiz-adv-x="913" 
d="M500 512l-439 512h369l422 -512l-422 -512h-369z" />
    <glyph glyph-name="fraction" unicode="&#x2044;" horiz-adv-x="2156" 
d="M371 -205h-289l1704 1843h289z" />
    <glyph glyph-name="Euro" unicode="&#x20ac;" horiz-adv-x="2082" 
d="M1321 762h-760q-2 -10 -2 -45q0 -31 2 -39h760v-209h-705q67 -123 202 -189.5t315 -66.5q254 0 408 109.5t161 302.5h295q2 -143 -61.5 -266.5t-176.5 -210t-275.5 -135t-350.5 -46.5q-309 0 -527 135q-220 133 -299 367h-276v209h237v39q0 35 2 45h-239v209h278
q79 231 299 364q216 131 525 131q252 3 450.5 -80.5t307.5 -234.5t106 -342h-295q-9 195 -164 305q-157 109 -405 109q-179 0 -312 -65.5t-200 -186.5h700v-209z" />
    <glyph glyph-name="trademark" unicode="&#x2122;" horiz-adv-x="2678" 
d="M1581 455h-199v979h203l414 -689l411 689h205v-979h-198v663l-400 -663h-37l-399 659v-659zM141 1434h1151v-168h-477v-811h-199v811h-475v168z" />
    <glyph glyph-name="oneeighth" unicode="&#x215b;" horiz-adv-x="3489" 
d="M2847 96q-260 0 -407.5 75t-147.5 210q0 92 85.5 151.5t229.5 73.5q-133 24 -211 88t-78 160q0 127 137 197.5t379 70.5q239 0 376.5 -70.5t137.5 -197.5q0 -96 -77 -160t-211 -88q144 -14 230.5 -73.5t86.5 -151.5q0 -134 -141.5 -209.5t-388.5 -75.5zM1100 -45h-240
l1409 1524h238zM678 1309h115v-979h-199v792l-471 -301v197zM3176 393q0 131 -342 131q-170 0 -257 -33.5t-87 -97.5q0 -63 89.5 -98t254.5 -35q164 0 253 35t89 98zM2834 690q156 0 235 34t79 97q0 65 -84.5 101t-229.5 36q-148 0 -231.5 -36t-83.5 -101q0 -131 315 -131z
" />
    <glyph glyph-name="threeeighths" unicode="&#x215c;" horiz-adv-x="3504" 
d="M2394 528q83 57 227 72q-133 24 -210.5 88t-77.5 160q0 127 137 197.5t379 70.5q239 0 376.5 -70.5t137.5 -197.5q0 -96 -77.5 -160t-211.5 -88q144 -14 230.5 -73.5t86.5 -151.5q0 -134 -141.5 -209.5t-388.5 -75.5q-260 0 -407.5 75t-147.5 210q0 95 88 153zM319 330
q-148 23 -225 59v172q66 -37 211 -61q147 -25 254 -25q208 0 307 27.5t99 87.5q0 55 -61.5 88t-199.5 49t-378 18v150q153 9 250 17t171 18.5t111.5 25t56.5 33.5t21 47q0 129 -377 129q-111 0 -250 -26q-143 -27 -215 -62v172q85 39 225 62q151 22 254 22q549 0 549 -268
q3 -58 -29.5 -107t-81 -77t-95.5 -43t-80 -15q65 0 135 -25.5t125 -83t55 -132.5q0 -275 -557 -275q-124 0 -275 23zM1092 -45h-240l1409 1524h238zM2505 387q0 -63 89.5 -98t254.5 -35q164 0 253 35t89 98q0 131 -342 131q-170 0 -257 -33.5t-87 -97.5zM2533 815
q0 -63 79 -97t237 -34q156 0 234.5 34t78.5 97q0 65 -84 101t-229 36q-148 0 -232 -36t-84 -101z" />
    <glyph glyph-name="fiveeighths" unicode="&#x215d;" horiz-adv-x="3586" 
d="M2535 166q-147 74 -147 209q0 92 85.5 151.5t229.5 73.5q-133 24 -210.5 88t-77.5 160q0 127 137 197.5t379 70.5q239 0 376.5 -70.5t137.5 -197.5q0 -96 -77.5 -160t-211.5 -88q144 -14 230.5 -73.5t86.5 -151.5q0 -134 -141.5 -209.5t-388.5 -75.5q-262 0 -408 76z
M920 635q0 81 -85 123.5t-245 42.5q-73 0 -189 -25q-110 -24 -192 -61l-100 88l73 500h903v-168h-751l-49 -244q57 29 166.5 48t224.5 19q208 0 325 -83t117 -242q0 -157 -146.5 -244.5t-404.5 -87.5q-272 0 -452 86v184q187 -102 465 -102q161 0 250.5 43.5t89.5 122.5z
M2589 1479l-1407 -1524h-240l1409 1524h238zM2677 289q90 -35 254 -35t253 35t89 98q0 131 -342 131q-170 0 -257 -33.5t-87 -97.5q0 -63 90 -98zM2693 719q78 -35 238 -35q156 0 234.5 34t78.5 97q0 65 -84 101t-229 36q-148 0 -232 -36t-84 -101q0 -61 78 -96z" />
    <glyph glyph-name="seveneighths" unicode="&#x215e;" horiz-adv-x="3313" 
d="M2671 90q-260 0 -407.5 75t-147.5 210q0 92 85.5 151.5t229.5 73.5q-133 24 -211 88t-78 160q0 127 137 197.5t379 70.5q239 0 376.5 -70.5t137.5 -197.5q0 -96 -77 -160t-211 -88q144 -14 230.5 -73.5t86.5 -151.5q0 -134 -141.5 -209.5t-388.5 -75.5zM1161 1221
l-667 -897h-258l651 811h-828v168h1102v-82zM883 -45h-240l1409 1524h238zM3000 387q0 131 -342 131q-170 0 -257 -33.5t-87 -97.5q0 -63 89.5 -98t254.5 -35q164 0 253 35t89 98zM2658 684q156 0 235 34t79 97q0 65 -84.5 101t-229.5 36q-148 0 -231.5 -36t-83.5 -101
q0 -131 315 -131z" />
    <glyph glyph-name="arrowleft" unicode="&#x2190;" horiz-adv-x="1699" 
d="M1638 807v-262h-1163l326 -381l-318 2l-422 512l422 512h318l-328 -383h1165z" />
    <glyph glyph-name="arrowup" unicode="&#x2191;" horiz-adv-x="1148" 
d="M1087 1036v-317l-380 328v-1166h-263v1163l-383 -325l2 317l512 422z" />
    <glyph glyph-name="arrowright" unicode="&#x2192;" horiz-adv-x="1699" 
d="M1217 1188l421 -512l-421 -512h-318l328 383h-1166v262h1164l-326 381z" />
    <glyph glyph-name="arrowdown" unicode="&#x2193;" horiz-adv-x="1148" 
d="M1087 594l-2 -318l-512 -421l-512 421v318l383 -328v1166h263v-1164z" />
    <glyph glyph-name="partialdiff" unicode="&#x2202;" horiz-adv-x="1712" 
d="M696 1372l6 174q194 2 366 -58.5t294 -167t191.5 -257.5t66.5 -322q0 -378 -209.5 -572t-599.5 -194q-351 0 -550.5 130t-199.5 350q0 227 167.5 357t486.5 130q190 0 347 -77.5t265 -202.5q2 12 2 57q0 289 -168 463q-169 172 -465 190zM766 768q-189 0 -300.5 -77
t-111.5 -206q0 -127 130.5 -203.5t344.5 -76.5q196 0 310.5 71.5t158.5 221.5q-75 111 -227 192q-153 78 -305 78z" />
    <glyph glyph-name="emptyset" unicode="&#x2205;" horiz-adv-x="1437" 
d="M731 1057q215 0 375 -86l237 200l166 -155l-231 -195q96 -137 96 -309q0 -245 -176.5 -395t-466.5 -150q-213 0 -366 84l-267 -225l-155 164l247 209q-100 129 -100 313q0 244 177 394.5t464 150.5zM393 371l512 432q-76 31 -174 31q-165 0 -268 -89.5t-103 -232.5
q0 -79 33 -141zM731 193q167 0 270 88t103 231q0 68 -29 137l-510 -428q79 -28 166 -28z" />
    <glyph glyph-name="product" unicode="&#x220f;" horiz-adv-x="1617" 
d="M1104 -348v1550h-590v-1550h-291v1550h-162v232h1495v-232h-161v-1550h-291z" />
    <glyph glyph-name="summation" unicode="&#x2211;" horiz-adv-x="1617" 
d="M496 1202l612 -506l-612 -465h1060v-231h-1495v231l613 465l-613 506v232h1495v-232h-1060z" />
    <glyph glyph-name="minus" unicode="&#x2212;" horiz-adv-x="1187" 
d="M61 561v232h1065v-232h-1065z" />
    <glyph glyph-name="radical" unicode="&#x221a;" horiz-adv-x="2271" 
d="M2210 1434v-232h-531l-632 -1202h-496l-541 1026h326l463 -879l678 1287h733z" />
    <glyph glyph-name="infinity" unicode="&#x221e;" horiz-adv-x="2023" 
d="M1896 862q66 -117 66 -237q0 -92 -37.5 -177t-103 -149t-161.5 -102.5t-206 -38.5q-197 0 -310 83t-132 238q-19 -155 -132.5 -238t-310.5 -83q-110 0 -206 38.5t-161.5 102.5t-103 149t-37.5 177q-2 92 37 181t107 156t165 107.5t203 38.5q193 0 306.5 -90t132.5 -252
q19 162 133.5 252t304.5 90q143 0 260.5 -66.5t185.5 -179.5zM1626 786q-67 64 -174 64q-117 0 -183.5 -61t-66.5 -162q0 -95 59.5 -157.5t168.5 -74.5q113 -9 188.5 60t75.5 172q0 94 -68 159zM571 850q-105 0 -172 -63t-67 -160q0 -103 75 -172t187 -60q109 12 169 74.5
t60 157.5q0 101 -67.5 162t-184.5 61z" />
    <glyph glyph-name="integral" unicode="&#x222b;" horiz-adv-x="1396" 
d="M1151 1329q-87 -50 -102 -123l-283 -1202q-17 -69 -59 -119t-124.5 -90.5t-223 -61t-339.5 -20.5l27 119q114 0 198.5 49.5t102.5 122.5l283 1202q17 70 59 120.5t124.5 90.5t222.5 60t339 20l-26 -119q-117 0 -199 -49z" />
    <glyph glyph-name="approxequal" unicode="&#x2248;" horiz-adv-x="903" 
d="M395 535q27 -17 76 -62q40 -37 64.5 -51t54.5 -14q126 0 129 145h123q-1 -121 -71 -193.5t-181 -72.5q-52 0 -91.5 21.5t-86.5 68.5q-33 31 -54 44t-45 13q-58 0 -92 -37t-35 -108h-125q1 118 71.5 192t180.5 74q49 0 82 -20zM360 768q-20 14 -47 14q-58 0 -92 -37
t-35 -108h-125q1 118 71.5 192t180.5 74q45 0 78.5 -18.5t79.5 -63.5q40 -37 64.5 -51t54.5 -14q126 0 129 145h123q-1 -121 -71 -193.5t-181 -72.5q-52 0 -91.5 21.5t-86.5 68.5q-32 28 -52 43z" />
    <glyph glyph-name="notequal" unicode="&#x2260;" horiz-adv-x="1187" 
d="M401 526l160 287h-500v231h629l125 226h227l-124 -226h208v-231h-338l-159 -287h497v-231h-626l-142 -254h-227l141 254h-211v231h340z" />
    <glyph glyph-name="lessequal" unicode="&#x2264;" horiz-adv-x="1228" 
d="M633 995h473l-531 -288l531 -289h-473l-510 289zM1174 150v-150h-1004v150h1004z" />
    <glyph glyph-name="greaterequal" unicode="&#x2265;" horiz-adv-x="1228" 
d="M664 995l510 -288l-510 -289h-474l531 289l-531 288h474zM1126 150v-150h-1003v150h1003z" />
    <glyph glyph-name="lozenge" unicode="&#x25ca;" horiz-adv-x="1486" 
d="M1004 1024l421 -512l-421 -512h-521l-422 512l422 512h521zM414 512l329 -385l330 385l-330 385z" />
    <glyph glyph-name="null" 
 />
    <glyph glyph-name="A.001" horiz-adv-x="2232" 
d="M1360 1434l807 -1434h-346l-160 303h-1090l-157 -303h-346l806 1434h486zM1116 1341l-426 -809h852z" />
    <glyph glyph-name="B.001" horiz-adv-x="1896" 
d="M1161 713h129q222 0 342.5 -86.5t120.5 -259.5q0 -161 -128.5 -264t-334.5 -103h-1110v1434h1065q212 0 336.5 -102t124.5 -261q0 -172 -116.5 -251t-344.5 -79h-84v-28zM1399 297q61 46 61 149q0 94 -62 137.5t-196 43.5h-729v-379h729q133 0 197 49zM1354 868
q61 40 61 125q0 103 -62 150t-196 47h-686v-361h686q135 0 197 39z" />
    <glyph glyph-name="C.001" horiz-adv-x="1751" 
d="M1057 1466q190 -2 330 -26.5t274 -83.5v-264q-122 63 -280.5 97t-323.5 34q-313 0 -494.5 -135t-181.5 -371q0 -237 181 -370.5t495 -133.5q165 0 323.5 34t280.5 97v-266q-134 -59 -274.5 -84t-329.5 -27q-227 0 -409.5 54t-304.5 152t-187.5 236.5t-65.5 307.5
t65.5 307.5t187.5 236.5t304.5 151.5t409.5 53.5z" />
    <glyph glyph-name="G.001" horiz-adv-x="1822" 
d="M1061 1466q197 -2 345.5 -27t279.5 -83v-264q-121 61 -289 96t-336 35q-313 0 -494.5 -135t-181.5 -371q0 -237 181 -370.5t495 -133.5q206 0 401 49v326h-755v225h1019v-694q-308 -149 -665 -152q-227 0 -409.5 54t-304.5 152t-187.5 236.5t-65.5 307.5t65.5 307.5
t187.5 236.5t304.5 151.5t409.5 53.5z" />
    <glyph glyph-name="J.001" horiz-adv-x="1433" 
d="M963 694v740h290v-740q0 -380 -162 -553.5t-507 -173.5q-175 3 -308 25q-122 23 -266 86v287q303 -152 574 -152q199 0 289 112t90 369z" />
    <glyph glyph-name="R.001" horiz-adv-x="1875" 
d="M1055 575q-97 60 -207 60h-379l2 -635h-291v1434h1080q218 0 339 -97t121 -264q0 -165 -122 -254.5t-338 -89.5h-168v-31q156 0 279 -71t233 -219.5t237 -407.5h-360q-143 253 -239.5 384.5t-186.5 190.5zM1174 1194h-707l2 -317h705q140 0 198 34.5t58 118.5
q0 90 -58 127t-198 37z" />
    <glyph glyph-name="S.001" horiz-adv-x="1816" 
d="M616 885q116 -20 283 -37q278 -29 426 -60q161 -34 283 -118q118 -84 118 -242q0 -244 -243 -352q-244 -107 -588 -107q-225 0 -428 49q-204 49 -324 103v272q113 -59 332 -119q216 -59 387 -59q301 0 437.5 45t136.5 143q0 134 -252 177q-106 18 -297 36
q-271 28 -414 60q-151 29 -270 115q-113 82 -113 237q0 221 229 328q228 108 566 108q474 0 719 -110v-264q-108 55 -320 94q-203 37 -369 37q-274 0 -404 -46t-130 -141q0 -108 235 -149z" />
    <glyph glyph-name="i.loclTRK" horiz-adv-x="557" 
d="M135 0v1024h291v-1024h-291zM133 1399q56 47 146 47q96 0 149 -47t53 -127t-53 -127t-149 -47q-91 0 -147 48t-56 126q0 79 57 127zM133 1399q56 47 146 47q96 0 149 -47t53 -127t-53 -127t-149 -47q-91 0 -147 48t-56 126q0 79 57 127z" />
    <glyph glyph-name="zero.tf" horiz-adv-x="1951" 
d="M1757 1114q105 -169 105 -397q0 -342 -237.5 -546t-649.5 -204q-411 0 -648 204.5t-237 545.5q0 340 240 544.5t645 204.5q274 0 474.5 -91.5t307.5 -260.5zM1436 113q183 86 276.5 243.5t93.5 364.5q0 154 -53.5 280.5t-156 218t-260.5 141.5t-359 50
q-195 0 -352.5 -51.5t-262 -144.5t-161 -221t-56.5 -281q0 -152 57 -279t162.5 -218t262.5 -142t350 -51q268 0 459 90zM1278 1126q128 -60 196 -165t68 -244q0 -210 -153 -337.5t-410 -127.5t-410 127.5t-153 337.5t153 338.5t410 128.5q174 0 299 -58zM979 403
q174 0 277.5 84.5t103.5 229.5q0 147 -101.5 230t-279.5 83t-280.5 -83t-102.5 -230q0 -146 103 -230t280 -84z" />
    <glyph glyph-name="one.tf" horiz-adv-x="1951" 
d="M975 1466q413 0 650 -202.5t237 -546.5q0 -342 -237.5 -546t-649.5 -204q-411 0 -648 204.5t-237 545.5q0 340 240 544.5t645 204.5zM526 1323q-187 -90 -285 -248t-98 -362q0 -152 57 -279t162.5 -218t262.5 -142t350 -51q202 0 360.5 51t260.5 144t155 220.5t53 282.5
q0 154 -53.5 280.5t-156 218t-260.5 141.5t-359 50q-263 0 -449 -88zM520 719v178l502 266h104v-891h-180v721z" />
    <glyph glyph-name="two.tf" horiz-adv-x="1951" 
d="M1452 1374q198 -92 304 -261t106 -396q0 -342 -237.5 -546t-649.5 -204q-411 0 -648 204.5t-237 545.5q0 337 240.5 543t644.5 206q276 0 477 -92zM977 1411q-195 0 -352.5 -51.5t-262 -144.5t-161 -221t-56.5 -281q0 -152 57 -279t162.5 -218t262.5 -142t350 -51
q202 0 360.5 51t260.5 144t155 220.5t53 282.5q0 154 -53.5 280.5t-156 218t-260.5 141.5t-359 50zM956 1034q-117 0 -234 -23.5t-183 -54.5v158q73 33 196 53.5t256 20.5q238 0 353.5 -61.5t115.5 -194.5q0 -94 -58.5 -161t-154.5 -107q-76 -35 -229 -82
q-146 -45 -207.5 -75t-83.5 -77h715v-151h-930v106q1 85 65.5 150.5t165.5 107.5q72 32 242 88q161 51 224 85t63 81q0 74 -73 105.5t-243 31.5z" />
    <glyph glyph-name="three.tf" horiz-adv-x="1951" 
d="M975 -33q-411 0 -648 204.5t-237 545.5q0 337 240.5 543t644.5 206q413 0 650 -202.5t237 -546.5q0 -342 -237.5 -546t-649.5 -204zM975 1411q-195 0 -352.5 -51.5t-262 -144.5t-161 -221t-56.5 -281q0 -152 57 -279t162.5 -218t262.5 -142t350 -51q202 0 360.5 51
t260.5 144t155 220.5t53 282.5q0 154 -53.5 280.5t-156 218t-260.5 141.5t-359 50zM748 649v137q225 10 340.5 24.5t163 38t51.5 64.5q0 119 -345 119q-93 0 -225 -24q-124 -23 -196 -56v156q73 34 204 55q129 21 232 21q500 0 500 -244q0 -53 -29 -97t-72 -69.5t-86 -39
t-76 -13.5q60 0 124 -23.5t113.5 -76t49.5 -121.5q0 -248 -506 -248q-131 0 -254.5 20t-199.5 56v155q61 -34 192 -55q134 -25 232 -25q368 0 368 105q0 51 -55.5 80.5t-180.5 44t-345 16.5z" />
    <glyph glyph-name="four.tf" horiz-adv-x="1951" 
d="M197 324q-107 168 -107 393q0 337 240.5 543t644.5 206q413 0 650 -202.5t237 -546.5q0 -342 -237.5 -546t-649.5 -204q-273 0 -473 92.5t-305 264.5zM1712 1081q-95 158 -283 244t-454 86q-195 0 -352.5 -51.5t-262 -144.5t-161 -221t-56.5 -281q0 -152 57 -279
t162.5 -218t262.5 -142t350 -51q202 0 360.5 51t260.5 144t155 220.5t53 282.5q0 203 -92 360zM1454 582v-152h-131v-158h-180v158h-748v113l639 620h289v-581h131zM647 582h496v479z" />
    <glyph glyph-name="five.tf" horiz-adv-x="1951" 
d="M975 -33q-411 0 -648 204.5t-237 545.5q0 337 240.5 543t644.5 206q413 0 650 -202.5t237 -546.5q0 -342 -237.5 -546t-649.5 -204zM1434 1325q-189 86 -457 86q-195 0 -352.5 -51.5t-262 -144.5t-161 -221t-56.5 -281q0 -152 57 -279t162.5 -218t262.5 -142t350 -51
q202 0 360.5 51t260.5 144t155 220.5t53 282.5q0 207 -94 362t-278 242zM975 698q-73 0 -172.5 -22.5t-173.5 -57.5l-90 82l67 455h819v-154h-682l-47 -221q55 27 155 44.5t204 17.5q188 0 294.5 -76t106.5 -221q0 -141 -133.5 -221t-366.5 -80q-246 0 -413 78v167
q170 -92 424 -92q147 0 227 39t80 111q0 74 -76.5 112.5t-222.5 38.5z" />
    <glyph glyph-name="six.tf" horiz-adv-x="1951" 
d="M975 -33q-411 0 -648 204.5t-237 545.5q0 337 240.5 543t644.5 206q413 0 650 -202.5t237 -546.5q0 -342 -237.5 -546t-649.5 -204zM977 1411q-195 0 -352.5 -51.5t-262 -144.5t-161 -221t-56.5 -281q0 -152 57 -279t162.5 -218t262.5 -142t350 -51q202 0 360.5 51
t260.5 144t155 220.5t53 282.5q0 154 -53.5 280.5t-156 218t-260.5 141.5t-359 50zM987 258q-246 0 -384 121t-138 354q0 213 148 331t411 118q209 0 360 -74v-168q-172 90 -374 90q-172 0 -267.5 -80t-95.5 -227q82 68 188 101.5t212 33.5q197 0 301 -81.5t104 -221.5
q0 -137 -123.5 -217t-341.5 -80zM1192 451q78 41 78 112q0 158 -254 158q-96 0 -197 -37q-102 -38 -153 -94q26 -85 107 -132.5t202 -47.5q137 0 217 41z" />
    <glyph glyph-name="seven.tf" horiz-adv-x="1951" 
d="M975 1466q413 0 650 -202.5t237 -546.5q0 -342 -237.5 -546t-649.5 -204q-411 0 -648 204.5t-237 545.5q0 337 240.5 543t644.5 206zM526 1323q-187 -90 -285 -248t-98 -362q0 -152 57 -279t162.5 -218t262.5 -142t350 -51q202 0 360.5 51t260.5 144t155 220.5t53 282.5
q0 154 -53.5 280.5t-156 218t-260.5 141.5t-359 50q-263 0 -449 -88zM1280 1010h-752v153h1002v-76l-606 -815h-234z" />
    <glyph glyph-name="eight.tf" horiz-adv-x="1951" 
d="M1452 1374q198 -92 304 -261t106 -396q0 -342 -237.5 -546t-649.5 -204q-411 0 -648 204.5t-237 545.5q0 337 240.5 543t644.5 206q276 0 477 -92zM977 1411q-195 0 -352.5 -51.5t-262 -144.5t-161 -221t-56.5 -281q0 -152 57 -279t162.5 -218t262.5 -142t350 -51
q202 0 360.5 51t260.5 144t155 220.5t53 282.5q0 154 -53.5 280.5t-156 218t-260.5 141.5t-359 50zM772 709q-121 21 -191.5 79t-70.5 144q0 117 123.5 181.5t343.5 64.5q217 0 343 -65t126 -181q0 -86 -71.5 -144t-192.5 -79q133 -14 210.5 -67t77.5 -138
q0 -121 -125.5 -189.5t-345.5 -68.5q-245 0 -380.5 67.5t-135.5 190.5q0 84 78.5 137.5t210.5 67.5zM666 516q0 -60 81.5 -91.5t231.5 -31.5t229.5 31.5t79.5 91.5q0 117 -311 117q-153 0 -232 -30.5t-79 -86.5zM762 817q67 -33 215 -33q143 0 215 32t72 89q0 59 -77 91
t-210 32t-210 -32t-77 -91q0 -57 72 -88z" />
    <glyph glyph-name="nine.tf" horiz-adv-x="1951" 
d="M1452 1374q198 -92 304 -261t106 -396q0 -342 -237.5 -546t-649.5 -204q-411 0 -648 204.5t-237 545.5q0 337 240.5 543t644.5 206q276 0 477 -92zM977 1411q-195 0 -352.5 -51.5t-262 -144.5t-161 -221t-56.5 -281q0 -152 57 -279t162.5 -218t262.5 -142t350 -51
q202 0 360.5 51t260.5 144t155 220.5t53 282.5q0 154 -53.5 280.5t-156 218t-260.5 141.5t-359 50zM932 580q-197 0 -301.5 81.5t-104.5 221.5q0 137 123.5 217t341.5 80q246 0 384 -122t138 -353q0 -213 -148 -331t-411 -118q-209 0 -360 74v168q166 -90 375 -90
q173 0 268.5 80t95.5 227q-83 -68 -189.5 -101.5t-211.5 -33.5zM1159 754q103 35 154 92q-26 86 -107 134t-202 48q-137 0 -216 -41.5t-79 -114.5q0 -155 256 -155q93 0 194 37z" />
    <glyph glyph-name="dollar.001" horiz-adv-x="1767" 
d="M879 848q278 -29 426 -60q159 -34 282 -118q119 -85 119 -242q0 -217 -195 -326q-197 -108 -493 -129v-198h-352v207q-154 17 -300 56.5t-243 82.5v272q113 -59 332 -119q216 -59 387 -59q300 0 436.5 45t136.5 143q0 134 -252 177q-106 18 -297 36q-269 28 -413 60
q-153 29 -271 115q-112 81 -112 237q0 185 166 293q165 106 430 133v256h352v-250q361 -15 565 -106v-264q-108 56 -319 94q-203 37 -369 37q-275 0 -405 -46t-130 -141q0 -108 236 -149q116 -20 283 -37z" />
    <glyph glyph-name="Euro.001" horiz-adv-x="1898" 
d="M860 279q160 -66 373 -66q165 0 323.5 34t280.5 97v-266q-134 -59 -274.5 -84t-329.5 -27q-363 0 -601.5 131t-324.5 369h-246v211h205v39q0 33 2 43h-207v211h248q86 235 324.5 365t599.5 130q190 -2 330 -26.5t274 -83.5v-264q-128 63 -286.5 97t-317.5 34
q-213 0 -368.5 -65t-235.5 -187h887v-211h-957l-2 -43q0 -31 2 -39h957v-211h-889q77 -123 233 -188z" />
    <glyph glyph-name="brevecombcy" 
d="M-301 1434h211q-2 -142 -116.5 -224t-319.5 -82q-188 0 -312.5 85.5t-124.5 220.5h215q1 -80 61 -123t161 -43t160 42.5t65 123.5zM-301 1434h211q-2 -142 -116.5 -224t-319.5 -82q-188 0 -312.5 85.5t-124.5 220.5h215q1 -80 61 -123t161 -43t160 42.5t65 123.5z" />
    </font>
</defs>
</svg>
