<?xml version="1.0" standalone="no"?>
<!DOCTYPE svg PUBLIC "-//W3C//DTD SVG 1.1//EN" "http://www.w3.org/Graphics/SVG/1.1/DTD/svg11.dtd" >
<svg xmlns="http://www.w3.org/2000/svg" xmlns:xlink="http://www.w3.org/1999/xlink" version="1.1">
<metadata>
Created by FontForge 20201107 at Mon Oct 10 12:13:23 2022
 By 
Copyright (c) 2016 by Grilli Type. All rights reserved.
</metadata>
<defs>
<font id="GTAmericaTrial-Rg" horiz-adv-x="571" >
  <font-face 
    font-family="GT America Trial Rg"
    font-weight="400"
    font-stretch="normal"
    units-per-em="1000"
    panose-1="0 0 0 0 0 0 0 0 0 0"
    ascent="785"
    descent="-215"
    x-height="500"
    cap-height="710"
    bbox="-15 -207 1286 743"
    underline-thickness="50"
    underline-position="-125"
    unicode-range="U+0020-1EF3"
  />
<missing-glyph horiz-adv-x="550" 
d="M422 342v158h-30v-158h30zM50 0v700h450v-700h-450zM71 420q0 -35 18 -58t49 -23q32 0 43 20l4 -17h23v87h-67v-28h40v-2q0 -12 -9 -22.5t-27 -10.5q-41 0 -41 53q0 25 10.5 40t29.5 15q24 0 31 -23l30 12q-14 39 -60 39q-35 0 -54.5 -23t-19.5 -59zM89 278h44v-127h30
v127h44v29h-118v-29zM198 151h30v49q0 35 28 35q6 0 10 -1v28q-3 1 -10 1q-20 0 -30 -21v18h-28v-109zM226 342h29v50q0 35 30 35q7 0 10 -1v27q-6 2 -11 2q-18 0 -31 -21v18h-27v-110zM272 279h32v30h-32v-30zM273 151h30v109h-30v-109zM301 471h32v29h-32v-29zM302 342h30
v110h-30v-110zM311 182q0 -16 10.5 -25t27.5 -9q25 0 35 19q0 -11 1 -16h29q-3 15 -3 21v40q0 27 -10 39t-36 12q-49 0 -51 -37h29q1 15 21 15q18 0 18 -22q-32 -3 -50 -8q-21 -9 -21 -29zM341 183q0 13 23 16l18 2v-3q0 -28 -24 -28q-17 0 -17 13zM347 342h29v158h-29v-158
zM427 151h29v158h-29v-158zM438 471h32v29h-32v-29zM439 342h30v110h-30v-110z" />
    <glyph glyph-name=".notdef" horiz-adv-x="550" 
d="M422 342v158h-30v-158h30zM50 0v700h450v-700h-450zM71 420q0 -35 18 -58t49 -23q32 0 43 20l4 -17h23v87h-67v-28h40v-2q0 -12 -9 -22.5t-27 -10.5q-41 0 -41 53q0 25 10.5 40t29.5 15q24 0 31 -23l30 12q-14 39 -60 39q-35 0 -54.5 -23t-19.5 -59zM89 278h44v-127h30
v127h44v29h-118v-29zM198 151h30v49q0 35 28 35q6 0 10 -1v28q-3 1 -10 1q-20 0 -30 -21v18h-28v-109zM226 342h29v50q0 35 30 35q7 0 10 -1v27q-6 2 -11 2q-18 0 -31 -21v18h-27v-110zM272 279h32v30h-32v-30zM273 151h30v109h-30v-109zM301 471h32v29h-32v-29zM302 342h30
v110h-30v-110zM311 182q0 -16 10.5 -25t27.5 -9q25 0 35 19q0 -11 1 -16h29q-3 15 -3 21v40q0 27 -10 39t-36 12q-49 0 -51 -37h29q1 15 21 15q18 0 18 -22q-32 -3 -50 -8q-21 -9 -21 -29zM341 183q0 13 23 16l18 2v-3q0 -28 -24 -28q-17 0 -17 13zM347 342h29v158h-29v-158
zM427 151h29v158h-29v-158zM438 471h32v29h-32v-29zM439 342h30v110h-30v-110z" />
    <glyph glyph-name=".null" horiz-adv-x="0" 
 />
    <glyph glyph-name=".null" horiz-adv-x="0" 
 />
    <glyph glyph-name="nonmarkingreturn" horiz-adv-x="333" 
 />
    <glyph glyph-name="space" unicode=" " horiz-adv-x="260" 
 />
    <glyph glyph-name="space" unicode="&#xa0;" horiz-adv-x="260" 
 />
    <glyph glyph-name="comma" unicode="," horiz-adv-x="257" 
d="M74 -96q36 16 48 35.5t12 57.5v3h-64v118h117v-111q0 -61 -19.5 -93.5t-70.5 -53.5z" />
    <glyph glyph-name="hyphen" unicode="-" horiz-adv-x="389" 
d="M50 318h289v-80h-289v80z" />
    <glyph glyph-name="period" unicode="." horiz-adv-x="257" 
d="M187 118v-118h-117v118h117z" />
    <glyph glyph-name="zero" unicode="0" horiz-adv-x="636" 
d="M318 -15q-130 0 -199 96.5t-69 265.5q0 170 69 266.5t199 96.5t199 -96.5t69 -266.5q0 -169 -69 -265.5t-199 -96.5zM140 347q0 -135 45 -211t133 -76t133 76t45 211q0 136 -45 212t-133 76t-133 -76t-45 -212z" />
    <glyph glyph-name="one" unicode="1" horiz-adv-x="399" 
d="M189 545q-15 -20 -48.5 -32t-64.5 -12h-36v81h22q52 0 90.5 29.5t50.5 83.5h76v-695h-90v545z" />
    <glyph glyph-name="two" unicode="2" horiz-adv-x="541" 
d="M35 74q121 89 236 199q66 64 92 114t26 112q0 64 -33.5 98.5t-93.5 34.5t-95 -34t-35 -91q0 -24 8 -64l-90 9q-7 28 -7 56q0 93 60 147.5t164 54.5q102 0 159 -54.5t57 -155.5q0 -73 -37.5 -140t-118.5 -142q-80 -74 -171 -137h335v-81h-456v74z" />
    <glyph glyph-name="three" unicode="3" horiz-adv-x="567" 
d="M281 -15q-109 0 -176 58t-70 155l88 11q3 -70 46 -109.5t115 -39.5q143 0 143 135q0 129 -156 129h-39v74h35q68 0 102 31.5t34 88.5q0 55 -34 86t-96 31q-68 0 -104.5 -41t-36.5 -118l-84 18q0 100 61.5 158t168.5 58q102 0 158.5 -48.5t56.5 -133.5q0 -60 -34 -103
t-92 -57q150 -26 150 -171q0 -99 -63.5 -155.5t-172.5 -56.5z" />
    <glyph glyph-name="four" unicode="4" horiz-adv-x="585" 
d="M550 176h-114v-176h-85v176h-326v61l311 458h100v-449h114v-70zM116 246h235v255q0 70 2 106h-2q-15 -39 -50 -91l-119 -179q-39 -59 -66 -91z" />
    <glyph glyph-name="five" unicode="5" horiz-adv-x="565" 
d="M279 -15q-92 0 -153.5 50t-75.5 135l93 11q11 -54 47 -86.5t94 -32.5q69 0 107.5 43.5t38.5 120.5q0 80 -37 126.5t-107 46.5q-109 0 -139 -116l-86 9l41 403h384v-78h-316l-26 -236q50 93 164 93q99 0 155.5 -65t56.5 -178q0 -110 -65.5 -178t-175.5 -68z" />
    <glyph glyph-name="six" unicode="6" horiz-adv-x="569" 
d="M300 -15q-250 0 -250 347q0 182 67 280t192 98q87 0 141.5 -44.5t70.5 -127.5l-90 -20q-24 117 -123 117q-164 0 -170 -272q24 48 70 74.5t106 26.5q98 0 156.5 -64.5t58.5 -172.5t-63 -175t-166 -67zM141 248q8 -86 51 -137t109 -51q63 0 100.5 45t37.5 121
q0 75 -38.5 119t-103.5 44q-57 0 -97.5 -36.5t-58.5 -104.5z" />
    <glyph glyph-name="seven" unicode="7" horiz-adv-x="490" 
d="M130 10q0 299 243 602h-348v83h450v-70q-121 -135 -183.5 -292.5t-62.5 -315.5v-17h-99v10z" />
    <glyph glyph-name="eight" unicode="8" horiz-adv-x="578" 
d="M292 -15q-114 0 -183 53.5t-69 141.5q0 142 141 185q-60 27 -87.5 67t-27.5 99q0 80 62 129.5t162 49.5q101 0 161.5 -48t60.5 -129q0 -122 -120 -160q77 -28 111.5 -72.5t34.5 -114.5q0 -91 -67 -146t-179 -55zM131 193q0 -61 44 -98.5t117 -37.5t114.5 34t41.5 95
q0 48 -29 79t-94 52l-66 21q-69 -24 -98.5 -58t-29.5 -87zM156 531q0 -45 28 -73.5t90 -47.5l35 -11q63 24 88 53t25 77q0 53 -35.5 83t-99.5 30q-61 0 -96 -29.5t-35 -81.5z" />
    <glyph glyph-name="nine" unicode="9" 
d="M274 -15q-95 0 -152 47t-74 135l90 20q23 -127 137 -127q153 0 156 288q-52 -89 -168 -89q-99 0 -161 58.5t-62 164.5q0 100 64 164t168 64q249 0 249 -349q0 -111 -24 -192.5t-80.5 -132.5t-142.5 -51zM130 483q0 -69 39.5 -109t102.5 -40q56 0 100.5 37.5t56.5 93.5
q-8 73 -45 121.5t-113 48.5q-64 0 -102.5 -42t-38.5 -110z" />
    <glyph glyph-name="A" unicode="A" horiz-adv-x="662" 
d="M15 0l269 710h94l269 -710h-98l-73 205h-290l-73 -205h-98zM214 285h234l-99 277q-7 18 -17 54h-2q-10 -36 -17 -54z" />
    <glyph glyph-name="B" unicode="B" horiz-adv-x="658" 
d="M100 0v710h247q67 0 115.5 -17t73.5 -46.5t36 -60.5t11 -65q0 -53 -30.5 -95t-88.5 -59q65 -11 102 -56.5t37 -115.5q0 -37 -12 -69.5t-37.5 -61.5t-73.5 -46.5t-112 -17.5h-268zM195 80h168q77 0 111.5 35t34.5 89q0 53 -33.5 85.5t-102.5 32.5h-178v-242zM195 402h152
q142 0 142 112q0 116 -142 116h-152v-228z" />
    <glyph glyph-name="C" unicode="C" horiz-adv-x="689" 
d="M365 -17q-157 0 -238.5 105t-81.5 269q0 168 84 269t239 101q125 0 196 -67t85 -182l-97 -10q-11 82 -59.5 130t-129.5 48q-103 0 -160.5 -78.5t-57.5 -209.5q0 -129 57.5 -210.5t162.5 -81.5q75 0 126 46.5t66 126.5l92 -16q-22 -108 -92.5 -174t-191.5 -66z" />
    <glyph glyph-name="D" unicode="D" horiz-adv-x="715" 
d="M100 0v710h233q152 0 244.5 -97.5t92.5 -256.5q0 -157 -92.5 -256.5t-246.5 -99.5h-231zM195 80h134q111 0 175.5 79t64.5 197q0 122 -63 198t-175 76h-136v-550z" />
    <glyph glyph-name="E" unicode="E" horiz-adv-x="612" 
d="M195 80h352v-80h-447v710h440v-80h-345v-226h328v-80h-328v-244z" />
    <glyph glyph-name="F" unicode="F" horiz-adv-x="585" 
d="M195 0h-95v710h440v-80h-345v-226h328v-80h-328v-324z" />
    <glyph glyph-name="G" unicode="G" horiz-adv-x="726" 
d="M356 -17q-143 0 -227 104t-84 268q0 167 86.5 269.5t240.5 102.5q56 0 102 -15t75 -37.5t50 -53t30.5 -57t13.5 -52.5l-94 -13q-10 58 -52.5 103t-127.5 45q-107 0 -167 -80.5t-60 -212.5q0 -128 58.5 -209t169.5 -81q50 0 88 16t58.5 39.5t33.5 55t17 56t4 48.5v12h-208
v80h293v-371h-69l-13 114q-24 -59 -82 -95t-136 -36z" />
    <glyph glyph-name="H" unicode="H" horiz-adv-x="748" 
d="M648 710v-710h-95v323h-358v-323h-95v710h95v-307h358v307h95z" />
    <glyph glyph-name="I" unicode="I" horiz-adv-x="295" 
d="M195 0h-95v710h95v-710z" />
    <glyph glyph-name="J" unicode="J" horiz-adv-x="399" 
d="M309 191q0 -110 -57.5 -156.5t-148.5 -46.5q-59 0 -83 7v88q28 -5 84 -5q50 0 80 26t30 94v512h95v-519z" />
    <glyph glyph-name="K" unicode="K" horiz-adv-x="668" 
d="M100 0v710h95v-352l312 352h119l-261 -284l283 -426h-111l-237 358l-105 -115v-243h-95z" />
    <glyph glyph-name="L" unicode="L" horiz-adv-x="543" 
d="M100 0v710h95v-630h328v-80h-423z" />
    <glyph glyph-name="M" unicode="M" horiz-adv-x="884" 
d="M100 0v710h135l188 -546q14 -41 18 -67h2q4 26 18 67l188 546h135v-710h-87v548q0 45 4 76h-4q-6 -40 -21 -81l-188 -543h-92l-188 543q-15 41 -21 81h-4q4 -31 4 -76v-548h-87z" />
    <glyph glyph-name="N" unicode="N" horiz-adv-x="744" 
d="M100 0v710h115l301 -517q30 -52 44 -91h2q-3 37 -3 94v514h85v-710h-115l-301 517q-32 56 -44 91h-2q3 -38 3 -94v-514h-85z" />
    <glyph glyph-name="O" unicode="O" horiz-adv-x="739" 
d="M370 -17q-148 0 -236.5 101t-88.5 271q0 173 88 272.5t237 99.5q148 0 236 -99.5t88 -272.5q0 -172 -88 -272t-236 -100zM145 355q0 -135 59.5 -213.5t165.5 -78.5t165 77.5t59 214.5t-59 214.5t-165 77.5t-165.5 -77.5t-59.5 -214.5z" />
    <glyph glyph-name="P" unicode="P" horiz-adv-x="623" 
d="M195 0h-95v710h252q110 0 175.5 -57t65.5 -153t-65.5 -153t-175.5 -57h-157v-290zM195 370h147q69 0 110 35.5t41 94.5t-41 94.5t-110 35.5h-147v-260z" />
    <glyph glyph-name="Q" unicode="Q" horiz-adv-x="739" 
d="M370 -17q-148 0 -236.5 101t-88.5 271q0 173 88 272.5t237 99.5q148 0 236 -99.5t88 -272.5q0 -132 -53.5 -223.5t-148.5 -127.5q46 -52 122 -52q21 0 51 7v-83q-48 -6 -68 -6q-67 0 -115.5 30.5t-73.5 84.5q-24 -2 -38 -2zM145 355q0 -135 59.5 -213.5t165.5 -78.5
t165 77.5t59 214.5t-59 214.5t-165 77.5t-165.5 -77.5t-59.5 -214.5z" />
    <glyph glyph-name="R" unicode="R" horiz-adv-x="665" 
d="M100 0v710h263q67 0 115 -17.5t73 -48t36 -65.5t11 -77q0 -67 -38.5 -121t-121.5 -73l182 -308h-107l-174 295h-144v-295h-95zM195 375h157q146 0 146 127q0 128 -146 128h-157v-255z" />
    <glyph glyph-name="S" unicode="S" horiz-adv-x="624" 
d="M325 -17q-130 0 -203 62.5t-82 165.5l96 14q11 -72 57.5 -118t134.5 -46q66 0 112 30t46 92q0 59 -33 86.5t-102 41.5l-103 21q-178 37 -178 196q0 90 67 144.5t180 54.5q111 0 182 -51t81 -151l-95 -20q-19 147 -170 147q-66 0 -106.5 -31t-40.5 -84q0 -51 28 -80
t88 -42l104 -22q93 -19 144.5 -65t51.5 -136q0 -89 -66.5 -149t-192.5 -60z" />
    <glyph glyph-name="T" unicode="T" 
d="M15 630v80h541v-80h-223v-630h-95v630h-223z" />
    <glyph glyph-name="U" unicode="U" horiz-adv-x="726" 
d="M90 710h95v-456q0 -87 46.5 -137t131.5 -50t131.5 50t46.5 137v456h95v-462q0 -121 -71.5 -193t-201.5 -72t-201.5 72t-71.5 193v462z" />
    <glyph glyph-name="V" unicode="V" horiz-adv-x="626" 
d="M261 0l-246 710h100l170 -522q18 -53 26 -96h4q8 43 26 96l170 522h100l-246 -710h-104z" />
    <glyph glyph-name="W" unicode="W" horiz-adv-x="912" 
d="M194 0l-169 710h97l123 -572q4 -21 6 -39h3q1 12 8 39l146 572h96l146 -572q7 -27 8 -39h3q2 18 6 39l123 572h97l-169 -710h-116l-138 554q-5 20 -6 33h-4q-1 -13 -6 -33l-138 -554h-116z" />
    <glyph glyph-name="X" unicode="X" horiz-adv-x="640" 
d="M15 0l248 375l-225 335h111l149 -233q15 -23 23 -42h2q5 12 23 41l148 234h105l-223 -343l249 -367h-112l-162 252q-27 42 -33 56h-2q-8 -19 -33 -56l-161 -252h-107z" />
    <glyph glyph-name="Y" unicode="Y" horiz-adv-x="598" 
d="M251 0v283l-241 427h106l163 -301q15 -28 19 -41h2q4 13 19 41l163 301h106l-241 -427v-283h-96z" />
    <glyph glyph-name="Z" unicode="Z" horiz-adv-x="569" 
d="M35 88l399 542h-386v80h487v-88l-400 -542h414v-80h-514v88z" />
    <glyph glyph-name="a" unicode="a" horiz-adv-x="539" 
d="M214 -12q-77 0 -123 40t-46 107q0 79 70 118q54 27 168 41l93 11v8q0 69 -26 99t-84 30q-51 0 -81 -26t-33 -73h-91q5 77 60.5 123t143.5 46q103 0 150 -49.5t47 -158.5v-135q0 -114 17 -169h-89q-6 42 -8 91q-17 -48 -62 -75.5t-106 -27.5zM135 137q0 -37 26 -58t72 -21
q65 0 104.5 43.5t39.5 116.5v25l-136 -20q-55 -8 -80.5 -28.5t-25.5 -57.5z" />
    <glyph glyph-name="b" unicode="b" horiz-adv-x="580" 
d="M329 -12q-56 0 -97.5 26.5t-61.5 71.5l-15 -86h-65v725h85v-312q21 44 62 71.5t97 27.5q91 0 146 -73t55 -189q0 -118 -56.5 -190t-149.5 -72zM173 235q0 -79 35.5 -125.5t97.5 -46.5q65 0 102 50.5t37 136.5t-36 136.5t-102 50.5q-63 0 -98.5 -47t-35.5 -129v-26z" />
    <glyph glyph-name="c" unicode="c" horiz-adv-x="526" 
d="M275 -12q-105 0 -167.5 71t-62.5 191q0 122 61.5 192t168.5 70q88 0 142 -48t64 -134l-87 -10q-7 57 -38.5 87.5t-82.5 30.5q-65 0 -101.5 -49.5t-36.5 -137.5q0 -90 37 -139.5t104 -49.5q103 0 123 119l81 -13q-14 -86 -67.5 -133t-137.5 -47z" />
    <glyph glyph-name="d" unicode="d" horiz-adv-x="580" 
d="M248 -12q-91 0 -147 72t-56 190q0 115 59.5 188.5t153.5 73.5q100 0 147 -86v299h85v-725h-80v93q-47 -105 -162 -105zM135 250q0 -88 36 -137.5t100 -49.5q62 0 99 47.5t37 127.5v23q0 82 -36.5 129t-99.5 47q-64 0 -100 -49.5t-36 -137.5z" />
    <glyph glyph-name="e" unicode="e" horiz-adv-x="535" 
d="M273 -12q-108 0 -168 66.5t-60 189.5q0 126 60 197t167 71q102 0 157.5 -58t55.5 -169v-60h-355q1 -73 41.5 -117.5t107.5 -44.5q99 0 133 95l70 -31q-53 -139 -209 -139zM130 294h269v11q0 68 -33.5 104t-95.5 36q-65 0 -101.5 -40t-38.5 -111z" />
    <glyph glyph-name="f" unicode="f" horiz-adv-x="347" 
d="M322 500v-70h-125v-430h-85v430h-92v70h92v79q0 69 40 110.5t106 41.5q37 0 64 -7v-73q-30 5 -53 5q-38 0 -55 -21.5t-17 -67.5v-67h125z" />
    <glyph glyph-name="g" unicode="g" horiz-adv-x="535" 
d="M260 -207q-225 0 -225 137q0 36 21 63.5t60 40.5q-58 26 -58 87q0 73 71 100q-49 47 -49 122q0 74 50 121.5t135 47.5q53 0 98 -21q27 91 119 91q18 0 33 -4v-74q-20 4 -36 4q-57 0 -75 -47q46 -46 46 -118q0 -75 -50 -123t-135 -48q-52 0 -96 21q-36 -15 -36 -49
q0 -51 83 -51h122q84 0 127 -36.5t43 -104.5q0 -74 -61 -116.5t-187 -42.5zM118 -55q0 -82 152 -82q153 0 153 83q0 72 -104 72h-106q-16 0 -42 2q-53 -24 -53 -75zM160 343q0 -46 29 -76t76 -30t76 29.5t29 75.5t-29 75.5t-76 29.5q-48 0 -76.5 -29t-28.5 -75z" />
    <glyph glyph-name="h" unicode="h" horiz-adv-x="579" 
d="M90 0v725h85v-319q45 106 164 106q81 0 123 -51t42 -150v-311h-85v305q0 134 -109 134q-64 0 -99.5 -46.5t-35.5 -131.5v-261h-85z" />
    <glyph glyph-name="i" unicode="i" horiz-adv-x="265" 
d="M90 0v500h85v-500h-85zM84 593v107h97v-107h-97z" />
    <glyph glyph-name="j" unicode="j" horiz-adv-x="263" 
d="M46 -202q-39 0 -61 6v73q29 -2 49 -2q29 0 41.5 17.5t12.5 66.5v541h85v-550q0 -152 -127 -152zM82 593v107h97v-107h-97z" />
    <glyph glyph-name="k" unicode="k" horiz-adv-x="537" 
d="M90 0v725h85v-471l224 246h111l-183 -193l195 -307h-105l-151 245l-91 -92v-153h-85z" />
    <glyph glyph-name="l" unicode="l" horiz-adv-x="265" 
d="M175 725v-725h-85v725h85z" />
    <glyph glyph-name="m" unicode="m" horiz-adv-x="834" 
d="M90 500h80v-87q42 99 143 99q107 0 142 -100q49 100 152 100q72 0 112 -48.5t40 -135.5v-328h-85v321q0 118 -95 118q-53 0 -82.5 -37.5t-29.5 -105.5v-296h-85v325q0 55 -24.5 84.5t-69.5 29.5q-52 0 -82.5 -39.5t-30.5 -107.5v-292h-85v500z" />
    <glyph glyph-name="n" unicode="n" horiz-adv-x="579" 
d="M90 0v500h80v-99q49 111 167 111q167 0 167 -201v-311h-85v306q0 133 -110 133q-62 0 -98 -47.5t-36 -130.5v-261h-85z" />
    <glyph glyph-name="o" unicode="o" horiz-adv-x="556" 
d="M278 -12q-106 0 -169.5 70.5t-63.5 191.5t63.5 191.5t169.5 70.5t169.5 -70.5t63.5 -191.5t-63.5 -191.5t-169.5 -70.5zM135 250q0 -92 37.5 -140t105.5 -48t105.5 48t37.5 140t-37.5 140t-105.5 48t-105.5 -48t-37.5 -140z" />
    <glyph glyph-name="p" unicode="p" horiz-adv-x="580" 
d="M90 -195v695h80v-93q49 105 163 105q91 0 146.5 -72t55.5 -190q0 -119 -57.5 -190.5t-149.5 -71.5q-55 0 -95 26t-58 65v-274h-85zM173 239q0 -81 36.5 -128.5t98.5 -47.5q64 0 100.5 49.5t36.5 137.5t-35.5 137.5t-98.5 49.5t-100.5 -46.5t-37.5 -127.5v-24z" />
    <glyph glyph-name="q" unicode="q" horiz-adv-x="580" 
d="M405 86q-21 -46 -61 -72t-94 -26q-92 0 -148.5 71.5t-56.5 190.5q0 118 60 190t153 72q104 0 151 -91l19 79h62v-695h-85v281zM135 250q0 -87 36 -137t100 -50q62 0 99 46t37 126v28q0 79 -36.5 126.5t-99.5 47.5t-99.5 -49t-36.5 -138z" />
    <glyph glyph-name="r" unicode="r" horiz-adv-x="359" 
d="M169 386q19 56 58.5 91t93.5 35q12 0 18 -1v-83h-4q-71 0 -110 -39q-22 -22 -34 -55t-14 -57t-2 -63v-214h-85v500h79v-114z" />
    <glyph glyph-name="s" unicode="s" horiz-adv-x="502" 
d="M260 -12q-89 0 -145.5 40t-69.5 114l86 15q9 -47 43 -73t89 -26q49 0 76.5 21.5t27.5 54.5q0 32 -18 48t-54 22l-98 18q-133 25 -133 140q0 66 51.5 108t138.5 42q84 0 137.5 -36t60.5 -99l-84 -19q-9 39 -39 62t-79 23q-48 0 -75.5 -20t-27.5 -57q0 -57 77 -71l97 -18
q130 -25 130 -136q0 -69 -50.5 -111t-140.5 -42z" />
    <glyph glyph-name="t" unicode="t" horiz-adv-x="353" 
d="M15 430v70h93v131l85 36v-167h125v-70h-125v-277q0 -43 17.5 -62.5t55.5 -19.5q22 0 52 7v-78q-33 -9 -74 -9q-76 0 -106 41t-30 118v280h-93z" />
    <glyph glyph-name="u" unicode="u" 
d="M246 -12q-171 0 -171 193v319h85v-309q0 -63 26.5 -96.5t75.5 -33.5q60 0 97 47t37 123v269h85v-500h-80v94q-17 -46 -60 -76t-95 -30z" />
    <glyph glyph-name="v" unicode="v" horiz-adv-x="473" 
d="M191 0l-181 500h92l112 -337q13 -39 21 -76h3q8 37 21 76l112 337h92l-181 -500h-91z" />
    <glyph glyph-name="w" unicode="w" horiz-adv-x="732" 
d="M166 0l-141 500h88l90 -357q7 -30 11 -59h2q0 2 13 59l91 357h92l91 -357q13 -57 13 -59h2q4 29 11 59l90 357h88l-141 -500h-93l-95 360q-8 30 -11 56h-2q-3 -26 -11 -56l-95 -360h-93z" />
    <glyph glyph-name="x" unicode="x" horiz-adv-x="495" 
d="M15 0l181 258l-168 242h100l91 -141q25 -39 29 -52h1q6 16 28 52l86 141h104l-165 -248l178 -252h-101l-103 154q-24 37 -28 51h-1q-4 -13 -29 -51l-102 -154h-101z" />
    <glyph glyph-name="y" unicode="y" horiz-adv-x="487" 
d="M92 -200q-25 0 -46 4v75q13 -2 36 -2q45 0 71 21.5t43 70.5l13 37l-199 494h95l128 -348q11 -30 17 -59h2q4 18 17 59l116 348h92l-195 -532q-33 -91 -79 -129.5t-111 -38.5z" />
    <glyph glyph-name="z" unicode="z" horiz-adv-x="455" 
d="M35 65l273 363h-263v72h365v-63l-270 -364h285v-73h-390v65z" />
    <glyph glyph-name="ordfeminine" unicode="&#xaa;" horiz-adv-x="539" 
d="M214 -12q-77 0 -123 40t-46 107q0 79 70 118q54 27 168 41l93 11v8q0 69 -26 99t-84 30q-51 0 -81 -26t-33 -73h-91q5 77 60.5 123t143.5 46q103 0 150 -49.5t47 -158.5v-135q0 -114 17 -169h-89q-6 42 -8 91q-17 -48 -62 -75.5t-106 -27.5zM135 137q0 -37 26 -58t72 -21
q65 0 104.5 43.5t39.5 116.5v25l-136 -20q-55 -8 -80.5 -28.5t-25.5 -57.5z" />
    <glyph glyph-name="ordmasculine" unicode="&#xba;" horiz-adv-x="556" 
d="M278 -12q-106 0 -169.5 70.5t-63.5 191.5t63.5 191.5t169.5 70.5t169.5 -70.5t63.5 -191.5t-63.5 -191.5t-169.5 -70.5zM135 250q0 -92 37.5 -140t105.5 -48t105.5 48t37.5 140t-37.5 140t-105.5 48t-105.5 -48t-37.5 -140z" />
    <glyph glyph-name="Agrave" unicode="&#xc0;" horiz-adv-x="662" 
d="M15 0l269 710h94l269 -710h-98l-73 205h-290l-73 -205h-98zM214 285h234l-99 277q-7 18 -17 54h-2q-10 -36 -17 -54z" />
    <glyph glyph-name="Aacute" unicode="&#xc1;" horiz-adv-x="662" 
d="M15 0l269 710h94l269 -710h-98l-73 205h-290l-73 -205h-98zM214 285h234l-99 277q-7 18 -17 54h-2q-10 -36 -17 -54z" />
    <glyph glyph-name="Acircumflex" unicode="&#xc2;" horiz-adv-x="662" 
d="M15 0l269 710h94l269 -710h-98l-73 205h-290l-73 -205h-98zM214 285h234l-99 277q-7 18 -17 54h-2q-10 -36 -17 -54z" />
    <glyph glyph-name="Atilde" unicode="&#xc3;" horiz-adv-x="662" 
d="M15 0l269 710h94l269 -710h-98l-73 205h-290l-73 -205h-98zM214 285h234l-99 277q-7 18 -17 54h-2q-10 -36 -17 -54z" />
    <glyph glyph-name="Adieresis" unicode="&#xc4;" horiz-adv-x="662" 
d="M15 0l269 710h94l269 -710h-98l-73 205h-290l-73 -205h-98zM214 285h234l-99 277q-7 18 -17 54h-2q-10 -36 -17 -54z" />
    <glyph glyph-name="Aring" unicode="&#xc5;" horiz-adv-x="662" 
d="M15 0l269 710h94l269 -710h-98l-73 205h-290l-73 -205h-98zM214 285h234l-99 277q-7 18 -17 54h-2q-10 -36 -17 -54z" />
    <glyph glyph-name="AE" unicode="&#xc6;" horiz-adv-x="1274" 
d="M15 0l269 710h94l269 -710h-98l-73 205h-290l-73 -205h-98zM214 285h234l-99 277q-7 18 -17 54h-2q-10 -36 -17 -54zM762 0v710h440v-80h-345v-226h328v-80h-328v-244h352v-80h-447z" />
    <glyph glyph-name="Ccedilla" unicode="&#xc7;" horiz-adv-x="689" 
d="M365 -17q-157 0 -238.5 105t-81.5 269q0 168 84 269t239 101q125 0 196 -67t85 -182l-97 -10q-11 82 -59.5 130t-129.5 48q-103 0 -160.5 -78.5t-57.5 -209.5q0 -129 57.5 -210.5t162.5 -81.5q75 0 126 46.5t66 126.5l92 -16q-22 -108 -92.5 -174t-191.5 -66z" />
    <glyph glyph-name="Egrave" unicode="&#xc8;" horiz-adv-x="612" 
d="M195 80h352v-80h-447v710h440v-80h-345v-226h328v-80h-328v-244z" />
    <glyph glyph-name="Eacute" unicode="&#xc9;" horiz-adv-x="612" 
d="M195 80h352v-80h-447v710h440v-80h-345v-226h328v-80h-328v-244z" />
    <glyph glyph-name="Ecircumflex" unicode="&#xca;" horiz-adv-x="612" 
d="M195 80h352v-80h-447v710h440v-80h-345v-226h328v-80h-328v-244z" />
    <glyph glyph-name="Edieresis" unicode="&#xcb;" horiz-adv-x="612" 
d="M195 80h352v-80h-447v710h440v-80h-345v-226h328v-80h-328v-244z" />
    <glyph glyph-name="Igrave" unicode="&#xcc;" horiz-adv-x="295" 
d="M195 0h-95v710h95v-710z" />
    <glyph glyph-name="Iacute" unicode="&#xcd;" horiz-adv-x="295" 
d="M195 0h-95v710h95v-710z" />
    <glyph glyph-name="Icircumflex" unicode="&#xce;" horiz-adv-x="295" 
d="M195 0h-95v710h95v-710z" />
    <glyph glyph-name="Idieresis" unicode="&#xcf;" horiz-adv-x="295" 
d="M195 0h-95v710h95v-710z" />
    <glyph glyph-name="Eth" unicode="&#xd0;" horiz-adv-x="715" 
d="M100 0v710h233q152 0 244.5 -97.5t92.5 -256.5q0 -157 -92.5 -256.5t-246.5 -99.5h-231zM195 80h134q111 0 175.5 79t64.5 197q0 122 -63 198t-175 76h-136v-550z" />
    <glyph glyph-name="Ntilde" unicode="&#xd1;" horiz-adv-x="744" 
d="M100 0v710h115l301 -517q30 -52 44 -91h2q-3 37 -3 94v514h85v-710h-115l-301 517q-32 56 -44 91h-2q3 -38 3 -94v-514h-85z" />
    <glyph glyph-name="Ograve" unicode="&#xd2;" horiz-adv-x="739" 
d="M370 -17q-148 0 -236.5 101t-88.5 271q0 173 88 272.5t237 99.5q148 0 236 -99.5t88 -272.5q0 -172 -88 -272t-236 -100zM145 355q0 -135 59.5 -213.5t165.5 -78.5t165 77.5t59 214.5t-59 214.5t-165 77.5t-165.5 -77.5t-59.5 -214.5z" />
    <glyph glyph-name="Oacute" unicode="&#xd3;" horiz-adv-x="739" 
d="M370 -17q-148 0 -236.5 101t-88.5 271q0 173 88 272.5t237 99.5q148 0 236 -99.5t88 -272.5q0 -172 -88 -272t-236 -100zM145 355q0 -135 59.5 -213.5t165.5 -78.5t165 77.5t59 214.5t-59 214.5t-165 77.5t-165.5 -77.5t-59.5 -214.5z" />
    <glyph glyph-name="Ocircumflex" unicode="&#xd4;" horiz-adv-x="739" 
d="M370 -17q-148 0 -236.5 101t-88.5 271q0 173 88 272.5t237 99.5q148 0 236 -99.5t88 -272.5q0 -172 -88 -272t-236 -100zM145 355q0 -135 59.5 -213.5t165.5 -78.5t165 77.5t59 214.5t-59 214.5t-165 77.5t-165.5 -77.5t-59.5 -214.5z" />
    <glyph glyph-name="Otilde" unicode="&#xd5;" horiz-adv-x="739" 
d="M370 -17q-148 0 -236.5 101t-88.5 271q0 173 88 272.5t237 99.5q148 0 236 -99.5t88 -272.5q0 -172 -88 -272t-236 -100zM145 355q0 -135 59.5 -213.5t165.5 -78.5t165 77.5t59 214.5t-59 214.5t-165 77.5t-165.5 -77.5t-59.5 -214.5z" />
    <glyph glyph-name="Odieresis" unicode="&#xd6;" horiz-adv-x="739" 
d="M370 -17q-148 0 -236.5 101t-88.5 271q0 173 88 272.5t237 99.5q148 0 236 -99.5t88 -272.5q0 -172 -88 -272t-236 -100zM145 355q0 -135 59.5 -213.5t165.5 -78.5t165 77.5t59 214.5t-59 214.5t-165 77.5t-165.5 -77.5t-59.5 -214.5z" />
    <glyph glyph-name="Oslash" unicode="&#xd8;" horiz-adv-x="739" 
d="M370 -17q-148 0 -236.5 101t-88.5 271q0 173 88 272.5t237 99.5q148 0 236 -99.5t88 -272.5q0 -172 -88 -272t-236 -100zM145 355q0 -135 59.5 -213.5t165.5 -78.5t165 77.5t59 214.5t-59 214.5t-165 77.5t-165.5 -77.5t-59.5 -214.5z" />
    <glyph glyph-name="Ugrave" unicode="&#xd9;" horiz-adv-x="726" 
d="M90 710h95v-456q0 -87 46.5 -137t131.5 -50t131.5 50t46.5 137v456h95v-462q0 -121 -71.5 -193t-201.5 -72t-201.5 72t-71.5 193v462z" />
    <glyph glyph-name="Uacute" unicode="&#xda;" horiz-adv-x="726" 
d="M90 710h95v-456q0 -87 46.5 -137t131.5 -50t131.5 50t46.5 137v456h95v-462q0 -121 -71.5 -193t-201.5 -72t-201.5 72t-71.5 193v462z" />
    <glyph glyph-name="Ucircumflex" unicode="&#xdb;" horiz-adv-x="726" 
d="M90 710h95v-456q0 -87 46.5 -137t131.5 -50t131.5 50t46.5 137v456h95v-462q0 -121 -71.5 -193t-201.5 -72t-201.5 72t-71.5 193v462z" />
    <glyph glyph-name="Udieresis" unicode="&#xdc;" horiz-adv-x="726" 
d="M90 710h95v-456q0 -87 46.5 -137t131.5 -50t131.5 50t46.5 137v456h95v-462q0 -121 -71.5 -193t-201.5 -72t-201.5 72t-71.5 193v462z" />
    <glyph glyph-name="Yacute" unicode="&#xdd;" horiz-adv-x="598" 
d="M251 0v283l-241 427h106l163 -301q15 -28 19 -41h2q4 13 19 41l163 301h106l-241 -427v-283h-96z" />
    <glyph glyph-name="Thorn" unicode="&#xde;" horiz-adv-x="623" 
d="M195 0h-95v710h252q110 0 175.5 -57t65.5 -153t-65.5 -153t-175.5 -57h-157v-290zM195 370h147q69 0 110 35.5t41 94.5t-41 94.5t-110 35.5h-147v-260z" />
    <glyph glyph-name="agrave" unicode="&#xe0;" horiz-adv-x="539" 
d="M214 -12q-77 0 -123 40t-46 107q0 79 70 118q54 27 168 41l93 11v8q0 69 -26 99t-84 30q-51 0 -81 -26t-33 -73h-91q5 77 60.5 123t143.5 46q103 0 150 -49.5t47 -158.5v-135q0 -114 17 -169h-89q-6 42 -8 91q-17 -48 -62 -75.5t-106 -27.5zM135 137q0 -37 26 -58t72 -21
q65 0 104.5 43.5t39.5 116.5v25l-136 -20q-55 -8 -80.5 -28.5t-25.5 -57.5z" />
    <glyph glyph-name="aacute" unicode="&#xe1;" horiz-adv-x="539" 
d="M214 -12q-77 0 -123 40t-46 107q0 79 70 118q54 27 168 41l93 11v8q0 69 -26 99t-84 30q-51 0 -81 -26t-33 -73h-91q5 77 60.5 123t143.5 46q103 0 150 -49.5t47 -158.5v-135q0 -114 17 -169h-89q-6 42 -8 91q-17 -48 -62 -75.5t-106 -27.5zM135 137q0 -37 26 -58t72 -21
q65 0 104.5 43.5t39.5 116.5v25l-136 -20q-55 -8 -80.5 -28.5t-25.5 -57.5z" />
    <glyph glyph-name="acircumflex" unicode="&#xe2;" horiz-adv-x="539" 
d="M214 -12q-77 0 -123 40t-46 107q0 79 70 118q54 27 168 41l93 11v8q0 69 -26 99t-84 30q-51 0 -81 -26t-33 -73h-91q5 77 60.5 123t143.5 46q103 0 150 -49.5t47 -158.5v-135q0 -114 17 -169h-89q-6 42 -8 91q-17 -48 -62 -75.5t-106 -27.5zM135 137q0 -37 26 -58t72 -21
q65 0 104.5 43.5t39.5 116.5v25l-136 -20q-55 -8 -80.5 -28.5t-25.5 -57.5z" />
    <glyph glyph-name="atilde" unicode="&#xe3;" horiz-adv-x="539" 
d="M214 -12q-77 0 -123 40t-46 107q0 79 70 118q54 27 168 41l93 11v8q0 69 -26 99t-84 30q-51 0 -81 -26t-33 -73h-91q5 77 60.5 123t143.5 46q103 0 150 -49.5t47 -158.5v-135q0 -114 17 -169h-89q-6 42 -8 91q-17 -48 -62 -75.5t-106 -27.5zM135 137q0 -37 26 -58t72 -21
q65 0 104.5 43.5t39.5 116.5v25l-136 -20q-55 -8 -80.5 -28.5t-25.5 -57.5z" />
    <glyph glyph-name="adieresis" unicode="&#xe4;" horiz-adv-x="539" 
d="M214 -12q-77 0 -123 40t-46 107q0 79 70 118q54 27 168 41l93 11v8q0 69 -26 99t-84 30q-51 0 -81 -26t-33 -73h-91q5 77 60.5 123t143.5 46q103 0 150 -49.5t47 -158.5v-135q0 -114 17 -169h-89q-6 42 -8 91q-17 -48 -62 -75.5t-106 -27.5zM135 137q0 -37 26 -58t72 -21
q65 0 104.5 43.5t39.5 116.5v25l-136 -20q-55 -8 -80.5 -28.5t-25.5 -57.5z" />
    <glyph glyph-name="aring" unicode="&#xe5;" horiz-adv-x="539" 
d="M214 -12q-77 0 -123 40t-46 107q0 79 70 118q54 27 168 41l93 11v8q0 69 -26 99t-84 30q-51 0 -81 -26t-33 -73h-91q5 77 60.5 123t143.5 46q103 0 150 -49.5t47 -158.5v-135q0 -114 17 -169h-89q-6 42 -8 91q-17 -48 -62 -75.5t-106 -27.5zM135 137q0 -37 26 -58t72 -21
q65 0 104.5 43.5t39.5 116.5v25l-136 -20q-55 -8 -80.5 -28.5t-25.5 -57.5z" />
    <glyph glyph-name="ae" unicode="&#xe6;" horiz-adv-x="1069" 
d="M214 -12q-77 0 -123 40t-46 107q0 79 70 118q54 27 168 41l93 11v8q0 69 -26 99t-84 30q-51 0 -81 -26t-33 -73h-91q5 77 60.5 123t143.5 46q103 0 150 -49.5t47 -158.5v-135q0 -114 17 -169h-89q-6 42 -8 91q-17 -48 -62 -75.5t-106 -27.5zM135 137q0 -37 26 -58t72 -21
q65 0 104.5 43.5t39.5 116.5v25l-136 -20q-55 -8 -80.5 -28.5t-25.5 -57.5zM579 244q0 126 60 197t167 71q102 0 157.5 -58t55.5 -169v-60h-355q1 -73 41.5 -117.5t107.5 -44.5q99 0 133 95l70 -31q-53 -139 -209 -139q-108 0 -168 66.5t-60 189.5zM664 294h269v11
q0 68 -33.5 104t-95.5 36q-65 0 -101.5 -40t-38.5 -111z" />
    <glyph glyph-name="ccedilla" unicode="&#xe7;" horiz-adv-x="526" 
d="M275 -12q-105 0 -167.5 71t-62.5 191q0 122 61.5 192t168.5 70q88 0 142 -48t64 -134l-87 -10q-7 57 -38.5 87.5t-82.5 30.5q-65 0 -101.5 -49.5t-36.5 -137.5q0 -90 37 -139.5t104 -49.5q103 0 123 119l81 -13q-14 -86 -67.5 -133t-137.5 -47z" />
    <glyph glyph-name="egrave" unicode="&#xe8;" horiz-adv-x="535" 
d="M273 -12q-108 0 -168 66.5t-60 189.5q0 126 60 197t167 71q102 0 157.5 -58t55.5 -169v-60h-355q1 -73 41.5 -117.5t107.5 -44.5q99 0 133 95l70 -31q-53 -139 -209 -139zM130 294h269v11q0 68 -33.5 104t-95.5 36q-65 0 -101.5 -40t-38.5 -111z" />
    <glyph glyph-name="eacute" unicode="&#xe9;" horiz-adv-x="535" 
d="M273 -12q-108 0 -168 66.5t-60 189.5q0 126 60 197t167 71q102 0 157.5 -58t55.5 -169v-60h-355q1 -73 41.5 -117.5t107.5 -44.5q99 0 133 95l70 -31q-53 -139 -209 -139zM130 294h269v11q0 68 -33.5 104t-95.5 36q-65 0 -101.5 -40t-38.5 -111z" />
    <glyph glyph-name="ecircumflex" unicode="&#xea;" horiz-adv-x="535" 
d="M273 -12q-108 0 -168 66.5t-60 189.5q0 126 60 197t167 71q102 0 157.5 -58t55.5 -169v-60h-355q1 -73 41.5 -117.5t107.5 -44.5q99 0 133 95l70 -31q-53 -139 -209 -139zM130 294h269v11q0 68 -33.5 104t-95.5 36q-65 0 -101.5 -40t-38.5 -111z" />
    <glyph glyph-name="edieresis" unicode="&#xeb;" horiz-adv-x="535" 
d="M273 -12q-108 0 -168 66.5t-60 189.5q0 126 60 197t167 71q102 0 157.5 -58t55.5 -169v-60h-355q1 -73 41.5 -117.5t107.5 -44.5q99 0 133 95l70 -31q-53 -139 -209 -139zM130 294h269v11q0 68 -33.5 104t-95.5 36q-65 0 -101.5 -40t-38.5 -111z" />
    <glyph glyph-name="igrave" unicode="&#xec;" horiz-adv-x="265" 
d="M90 0v500h85v-500h-85zM84 593v107h97v-107h-97z" />
    <glyph glyph-name="iacute" unicode="&#xed;" horiz-adv-x="265" 
d="M90 0v500h85v-500h-85zM84 593v107h97v-107h-97z" />
    <glyph glyph-name="icircumflex" unicode="&#xee;" horiz-adv-x="265" 
d="M90 0v500h85v-500h-85zM84 593v107h97v-107h-97z" />
    <glyph glyph-name="idieresis" unicode="&#xef;" horiz-adv-x="265" 
d="M90 0v500h85v-500h-85zM84 593v107h97v-107h-97z" />
    <glyph glyph-name="ntilde" unicode="&#xf1;" horiz-adv-x="579" 
d="M90 0v500h80v-99q49 111 167 111q167 0 167 -201v-311h-85v306q0 133 -110 133q-62 0 -98 -47.5t-36 -130.5v-261h-85z" />
    <glyph glyph-name="ograve" unicode="&#xf2;" horiz-adv-x="556" 
d="M278 -12q-106 0 -169.5 70.5t-63.5 191.5t63.5 191.5t169.5 70.5t169.5 -70.5t63.5 -191.5t-63.5 -191.5t-169.5 -70.5zM135 250q0 -92 37.5 -140t105.5 -48t105.5 48t37.5 140t-37.5 140t-105.5 48t-105.5 -48t-37.5 -140z" />
    <glyph glyph-name="oacute" unicode="&#xf3;" horiz-adv-x="556" 
d="M278 -12q-106 0 -169.5 70.5t-63.5 191.5t63.5 191.5t169.5 70.5t169.5 -70.5t63.5 -191.5t-63.5 -191.5t-169.5 -70.5zM135 250q0 -92 37.5 -140t105.5 -48t105.5 48t37.5 140t-37.5 140t-105.5 48t-105.5 -48t-37.5 -140z" />
    <glyph glyph-name="ocircumflex" unicode="&#xf4;" horiz-adv-x="556" 
d="M278 -12q-106 0 -169.5 70.5t-63.5 191.5t63.5 191.5t169.5 70.5t169.5 -70.5t63.5 -191.5t-63.5 -191.5t-169.5 -70.5zM135 250q0 -92 37.5 -140t105.5 -48t105.5 48t37.5 140t-37.5 140t-105.5 48t-105.5 -48t-37.5 -140z" />
    <glyph glyph-name="otilde" unicode="&#xf5;" horiz-adv-x="556" 
d="M278 -12q-106 0 -169.5 70.5t-63.5 191.5t63.5 191.5t169.5 70.5t169.5 -70.5t63.5 -191.5t-63.5 -191.5t-169.5 -70.5zM135 250q0 -92 37.5 -140t105.5 -48t105.5 48t37.5 140t-37.5 140t-105.5 48t-105.5 -48t-37.5 -140z" />
    <glyph glyph-name="odieresis" unicode="&#xf6;" horiz-adv-x="556" 
d="M278 -12q-106 0 -169.5 70.5t-63.5 191.5t63.5 191.5t169.5 70.5t169.5 -70.5t63.5 -191.5t-63.5 -191.5t-169.5 -70.5zM135 250q0 -92 37.5 -140t105.5 -48t105.5 48t37.5 140t-37.5 140t-105.5 48t-105.5 -48t-37.5 -140z" />
    <glyph glyph-name="oslash" unicode="&#xf8;" horiz-adv-x="556" 
d="M278 -12q-106 0 -169.5 70.5t-63.5 191.5t63.5 191.5t169.5 70.5t169.5 -70.5t63.5 -191.5t-63.5 -191.5t-169.5 -70.5zM135 250q0 -92 37.5 -140t105.5 -48t105.5 48t37.5 140t-37.5 140t-105.5 48t-105.5 -48t-37.5 -140z" />
    <glyph glyph-name="ugrave" unicode="&#xf9;" 
d="M246 -12q-171 0 -171 193v319h85v-309q0 -63 26.5 -96.5t75.5 -33.5q60 0 97 47t37 123v269h85v-500h-80v94q-17 -46 -60 -76t-95 -30z" />
    <glyph glyph-name="uacute" unicode="&#xfa;" 
d="M246 -12q-171 0 -171 193v319h85v-309q0 -63 26.5 -96.5t75.5 -33.5q60 0 97 47t37 123v269h85v-500h-80v94q-17 -46 -60 -76t-95 -30z" />
    <glyph glyph-name="ucircumflex" unicode="&#xfb;" 
d="M246 -12q-171 0 -171 193v319h85v-309q0 -63 26.5 -96.5t75.5 -33.5q60 0 97 47t37 123v269h85v-500h-80v94q-17 -46 -60 -76t-95 -30z" />
    <glyph glyph-name="udieresis" unicode="&#xfc;" 
d="M246 -12q-171 0 -171 193v319h85v-309q0 -63 26.5 -96.5t75.5 -33.5q60 0 97 47t37 123v269h85v-500h-80v94q-17 -46 -60 -76t-95 -30z" />
    <glyph glyph-name="yacute" unicode="&#xfd;" horiz-adv-x="487" 
d="M92 -200q-25 0 -46 4v75q13 -2 36 -2q45 0 71 21.5t43 70.5l13 37l-199 494h95l128 -348q11 -30 17 -59h2q4 18 17 59l116 348h92l-195 -532q-33 -91 -79 -129.5t-111 -38.5z" />
    <glyph glyph-name="thorn" unicode="&#xfe;" horiz-adv-x="580" 
d="M90 -195v695h80v-93q49 105 163 105q91 0 146.5 -72t55.5 -190q0 -119 -57.5 -190.5t-149.5 -71.5q-55 0 -95 26t-58 65v-274h-85zM173 239q0 -81 36.5 -128.5t98.5 -47.5q64 0 100.5 49.5t36.5 137.5t-35.5 137.5t-98.5 49.5t-100.5 -46.5t-37.5 -127.5v-24z" />
    <glyph glyph-name="ydieresis" unicode="&#xff;" horiz-adv-x="487" 
d="M92 -200q-25 0 -46 4v75q13 -2 36 -2q45 0 71 21.5t43 70.5l13 37l-199 494h95l128 -348q11 -30 17 -59h2q4 18 17 59l116 348h92l-195 -532q-33 -91 -79 -129.5t-111 -38.5z" />
    <glyph glyph-name="Amacron" unicode="&#x100;" horiz-adv-x="662" 
d="M15 0l269 710h94l269 -710h-98l-73 205h-290l-73 -205h-98zM214 285h234l-99 277q-7 18 -17 54h-2q-10 -36 -17 -54z" />
    <glyph glyph-name="amacron" unicode="&#x101;" horiz-adv-x="539" 
d="M214 -12q-77 0 -123 40t-46 107q0 79 70 118q54 27 168 41l93 11v8q0 69 -26 99t-84 30q-51 0 -81 -26t-33 -73h-91q5 77 60.5 123t143.5 46q103 0 150 -49.5t47 -158.5v-135q0 -114 17 -169h-89q-6 42 -8 91q-17 -48 -62 -75.5t-106 -27.5zM135 137q0 -37 26 -58t72 -21
q65 0 104.5 43.5t39.5 116.5v25l-136 -20q-55 -8 -80.5 -28.5t-25.5 -57.5z" />
    <glyph glyph-name="Abreve" unicode="&#x102;" horiz-adv-x="662" 
d="M15 0l269 710h94l269 -710h-98l-73 205h-290l-73 -205h-98zM214 285h234l-99 277q-7 18 -17 54h-2q-10 -36 -17 -54z" />
    <glyph glyph-name="abreve" unicode="&#x103;" horiz-adv-x="539" 
d="M214 -12q-77 0 -123 40t-46 107q0 79 70 118q54 27 168 41l93 11v8q0 69 -26 99t-84 30q-51 0 -81 -26t-33 -73h-91q5 77 60.5 123t143.5 46q103 0 150 -49.5t47 -158.5v-135q0 -114 17 -169h-89q-6 42 -8 91q-17 -48 -62 -75.5t-106 -27.5zM135 137q0 -37 26 -58t72 -21
q65 0 104.5 43.5t39.5 116.5v25l-136 -20q-55 -8 -80.5 -28.5t-25.5 -57.5z" />
    <glyph glyph-name="Aogonek" unicode="&#x104;" horiz-adv-x="662" 
d="M15 0l269 710h94l269 -710h-98l-73 205h-290l-73 -205h-98zM214 285h234l-99 277q-7 18 -17 54h-2q-10 -36 -17 -54z" />
    <glyph glyph-name="aogonek" unicode="&#x105;" horiz-adv-x="539" 
d="M214 -12q-77 0 -123 40t-46 107q0 79 70 118q54 27 168 41l93 11v8q0 69 -26 99t-84 30q-51 0 -81 -26t-33 -73h-91q5 77 60.5 123t143.5 46q103 0 150 -49.5t47 -158.5v-135q0 -114 17 -169h-89q-6 42 -8 91q-17 -48 -62 -75.5t-106 -27.5zM135 137q0 -37 26 -58t72 -21
q65 0 104.5 43.5t39.5 116.5v25l-136 -20q-55 -8 -80.5 -28.5t-25.5 -57.5z" />
    <glyph glyph-name="Cacute" unicode="&#x106;" horiz-adv-x="689" 
d="M365 -17q-157 0 -238.5 105t-81.5 269q0 168 84 269t239 101q125 0 196 -67t85 -182l-97 -10q-11 82 -59.5 130t-129.5 48q-103 0 -160.5 -78.5t-57.5 -209.5q0 -129 57.5 -210.5t162.5 -81.5q75 0 126 46.5t66 126.5l92 -16q-22 -108 -92.5 -174t-191.5 -66z" />
    <glyph glyph-name="cacute" unicode="&#x107;" horiz-adv-x="526" 
d="M275 -12q-105 0 -167.5 71t-62.5 191q0 122 61.5 192t168.5 70q88 0 142 -48t64 -134l-87 -10q-7 57 -38.5 87.5t-82.5 30.5q-65 0 -101.5 -49.5t-36.5 -137.5q0 -90 37 -139.5t104 -49.5q103 0 123 119l81 -13q-14 -86 -67.5 -133t-137.5 -47z" />
    <glyph glyph-name="Ccircumflex" unicode="&#x108;" horiz-adv-x="689" 
d="M365 -17q-157 0 -238.5 105t-81.5 269q0 168 84 269t239 101q125 0 196 -67t85 -182l-97 -10q-11 82 -59.5 130t-129.5 48q-103 0 -160.5 -78.5t-57.5 -209.5q0 -129 57.5 -210.5t162.5 -81.5q75 0 126 46.5t66 126.5l92 -16q-22 -108 -92.5 -174t-191.5 -66z" />
    <glyph glyph-name="ccircumflex" unicode="&#x109;" horiz-adv-x="526" 
d="M275 -12q-105 0 -167.5 71t-62.5 191q0 122 61.5 192t168.5 70q88 0 142 -48t64 -134l-87 -10q-7 57 -38.5 87.5t-82.5 30.5q-65 0 -101.5 -49.5t-36.5 -137.5q0 -90 37 -139.5t104 -49.5q103 0 123 119l81 -13q-14 -86 -67.5 -133t-137.5 -47z" />
    <glyph glyph-name="Cdotaccent" unicode="&#x10a;" horiz-adv-x="689" 
d="M365 -17q-157 0 -238.5 105t-81.5 269q0 168 84 269t239 101q125 0 196 -67t85 -182l-97 -10q-11 82 -59.5 130t-129.5 48q-103 0 -160.5 -78.5t-57.5 -209.5q0 -129 57.5 -210.5t162.5 -81.5q75 0 126 46.5t66 126.5l92 -16q-22 -108 -92.5 -174t-191.5 -66z" />
    <glyph glyph-name="cdotaccent" unicode="&#x10b;" horiz-adv-x="526" 
d="M275 -12q-105 0 -167.5 71t-62.5 191q0 122 61.5 192t168.5 70q88 0 142 -48t64 -134l-87 -10q-7 57 -38.5 87.5t-82.5 30.5q-65 0 -101.5 -49.5t-36.5 -137.5q0 -90 37 -139.5t104 -49.5q103 0 123 119l81 -13q-14 -86 -67.5 -133t-137.5 -47z" />
    <glyph glyph-name="Ccaron" unicode="&#x10c;" horiz-adv-x="689" 
d="M365 -17q-157 0 -238.5 105t-81.5 269q0 168 84 269t239 101q125 0 196 -67t85 -182l-97 -10q-11 82 -59.5 130t-129.5 48q-103 0 -160.5 -78.5t-57.5 -209.5q0 -129 57.5 -210.5t162.5 -81.5q75 0 126 46.5t66 126.5l92 -16q-22 -108 -92.5 -174t-191.5 -66z" />
    <glyph glyph-name="ccaron" unicode="&#x10d;" horiz-adv-x="526" 
d="M275 -12q-105 0 -167.5 71t-62.5 191q0 122 61.5 192t168.5 70q88 0 142 -48t64 -134l-87 -10q-7 57 -38.5 87.5t-82.5 30.5q-65 0 -101.5 -49.5t-36.5 -137.5q0 -90 37 -139.5t104 -49.5q103 0 123 119l81 -13q-14 -86 -67.5 -133t-137.5 -47z" />
    <glyph glyph-name="Dcaron" unicode="&#x10e;" horiz-adv-x="715" 
d="M100 0v710h233q152 0 244.5 -97.5t92.5 -256.5q0 -157 -92.5 -256.5t-246.5 -99.5h-231zM195 80h134q111 0 175.5 79t64.5 197q0 122 -63 198t-175 76h-136v-550z" />
    <glyph glyph-name="dcaron" unicode="&#x10f;" horiz-adv-x="580" 
d="M248 -12q-91 0 -147 72t-56 190q0 115 59.5 188.5t153.5 73.5q100 0 147 -86v299h85v-725h-80v93q-47 -105 -162 -105zM135 250q0 -88 36 -137.5t100 -49.5q62 0 99 47.5t37 127.5v23q0 82 -36.5 129t-99.5 47q-64 0 -100 -49.5t-36 -137.5z" />
    <glyph glyph-name="Dcroat" unicode="&#x110;" horiz-adv-x="715" 
d="M100 0v710h233q152 0 244.5 -97.5t92.5 -256.5q0 -157 -92.5 -256.5t-246.5 -99.5h-231zM195 80h134q111 0 175.5 79t64.5 197q0 122 -63 198t-175 76h-136v-550z" />
    <glyph glyph-name="dcroat" unicode="&#x111;" horiz-adv-x="580" 
d="M248 -12q-91 0 -147 72t-56 190q0 115 59.5 188.5t153.5 73.5q100 0 147 -86v299h85v-725h-80v93q-47 -105 -162 -105zM135 250q0 -88 36 -137.5t100 -49.5q62 0 99 47.5t37 127.5v23q0 82 -36.5 129t-99.5 47q-64 0 -100 -49.5t-36 -137.5z" />
    <glyph glyph-name="Emacron" unicode="&#x112;" horiz-adv-x="612" 
d="M195 80h352v-80h-447v710h440v-80h-345v-226h328v-80h-328v-244z" />
    <glyph glyph-name="emacron" unicode="&#x113;" horiz-adv-x="535" 
d="M273 -12q-108 0 -168 66.5t-60 189.5q0 126 60 197t167 71q102 0 157.5 -58t55.5 -169v-60h-355q1 -73 41.5 -117.5t107.5 -44.5q99 0 133 95l70 -31q-53 -139 -209 -139zM130 294h269v11q0 68 -33.5 104t-95.5 36q-65 0 -101.5 -40t-38.5 -111z" />
    <glyph glyph-name="Ebreve" unicode="&#x114;" horiz-adv-x="612" 
d="M195 80h352v-80h-447v710h440v-80h-345v-226h328v-80h-328v-244z" />
    <glyph glyph-name="ebreve" unicode="&#x115;" horiz-adv-x="535" 
d="M273 -12q-108 0 -168 66.5t-60 189.5q0 126 60 197t167 71q102 0 157.5 -58t55.5 -169v-60h-355q1 -73 41.5 -117.5t107.5 -44.5q99 0 133 95l70 -31q-53 -139 -209 -139zM130 294h269v11q0 68 -33.5 104t-95.5 36q-65 0 -101.5 -40t-38.5 -111z" />
    <glyph glyph-name="Edotaccent" unicode="&#x116;" horiz-adv-x="612" 
d="M195 80h352v-80h-447v710h440v-80h-345v-226h328v-80h-328v-244z" />
    <glyph glyph-name="edotaccent" unicode="&#x117;" horiz-adv-x="535" 
d="M273 -12q-108 0 -168 66.5t-60 189.5q0 126 60 197t167 71q102 0 157.5 -58t55.5 -169v-60h-355q1 -73 41.5 -117.5t107.5 -44.5q99 0 133 95l70 -31q-53 -139 -209 -139zM130 294h269v11q0 68 -33.5 104t-95.5 36q-65 0 -101.5 -40t-38.5 -111z" />
    <glyph glyph-name="Eogonek" unicode="&#x118;" horiz-adv-x="612" 
d="M195 80h352v-80h-447v710h440v-80h-345v-226h328v-80h-328v-244z" />
    <glyph glyph-name="eogonek" unicode="&#x119;" horiz-adv-x="535" 
d="M273 -12q-108 0 -168 66.5t-60 189.5q0 126 60 197t167 71q102 0 157.5 -58t55.5 -169v-60h-355q1 -73 41.5 -117.5t107.5 -44.5q99 0 133 95l70 -31q-53 -139 -209 -139zM130 294h269v11q0 68 -33.5 104t-95.5 36q-65 0 -101.5 -40t-38.5 -111z" />
    <glyph glyph-name="Ecaron" unicode="&#x11a;" horiz-adv-x="612" 
d="M195 80h352v-80h-447v710h440v-80h-345v-226h328v-80h-328v-244z" />
    <glyph glyph-name="ecaron" unicode="&#x11b;" horiz-adv-x="535" 
d="M273 -12q-108 0 -168 66.5t-60 189.5q0 126 60 197t167 71q102 0 157.5 -58t55.5 -169v-60h-355q1 -73 41.5 -117.5t107.5 -44.5q99 0 133 95l70 -31q-53 -139 -209 -139zM130 294h269v11q0 68 -33.5 104t-95.5 36q-65 0 -101.5 -40t-38.5 -111z" />
    <glyph glyph-name="Gcircumflex" unicode="&#x11c;" horiz-adv-x="726" 
d="M356 -17q-143 0 -227 104t-84 268q0 167 86.5 269.5t240.5 102.5q56 0 102 -15t75 -37.5t50 -53t30.5 -57t13.5 -52.5l-94 -13q-10 58 -52.5 103t-127.5 45q-107 0 -167 -80.5t-60 -212.5q0 -128 58.5 -209t169.5 -81q50 0 88 16t58.5 39.5t33.5 55t17 56t4 48.5v12h-208
v80h293v-371h-69l-13 114q-24 -59 -82 -95t-136 -36z" />
    <glyph glyph-name="gcircumflex" unicode="&#x11d;" horiz-adv-x="535" 
d="M260 -207q-225 0 -225 137q0 36 21 63.5t60 40.5q-58 26 -58 87q0 73 71 100q-49 47 -49 122q0 74 50 121.5t135 47.5q53 0 98 -21q27 91 119 91q18 0 33 -4v-74q-20 4 -36 4q-57 0 -75 -47q46 -46 46 -118q0 -75 -50 -123t-135 -48q-52 0 -96 21q-36 -15 -36 -49
q0 -51 83 -51h122q84 0 127 -36.5t43 -104.5q0 -74 -61 -116.5t-187 -42.5zM118 -55q0 -82 152 -82q153 0 153 83q0 72 -104 72h-106q-16 0 -42 2q-53 -24 -53 -75zM160 343q0 -46 29 -76t76 -30t76 29.5t29 75.5t-29 75.5t-76 29.5q-48 0 -76.5 -29t-28.5 -75z" />
    <glyph glyph-name="Gbreve" unicode="&#x11e;" horiz-adv-x="726" 
d="M356 -17q-143 0 -227 104t-84 268q0 167 86.5 269.5t240.5 102.5q56 0 102 -15t75 -37.5t50 -53t30.5 -57t13.5 -52.5l-94 -13q-10 58 -52.5 103t-127.5 45q-107 0 -167 -80.5t-60 -212.5q0 -128 58.5 -209t169.5 -81q50 0 88 16t58.5 39.5t33.5 55t17 56t4 48.5v12h-208
v80h293v-371h-69l-13 114q-24 -59 -82 -95t-136 -36z" />
    <glyph glyph-name="gbreve" unicode="&#x11f;" horiz-adv-x="535" 
d="M260 -207q-225 0 -225 137q0 36 21 63.5t60 40.5q-58 26 -58 87q0 73 71 100q-49 47 -49 122q0 74 50 121.5t135 47.5q53 0 98 -21q27 91 119 91q18 0 33 -4v-74q-20 4 -36 4q-57 0 -75 -47q46 -46 46 -118q0 -75 -50 -123t-135 -48q-52 0 -96 21q-36 -15 -36 -49
q0 -51 83 -51h122q84 0 127 -36.5t43 -104.5q0 -74 -61 -116.5t-187 -42.5zM118 -55q0 -82 152 -82q153 0 153 83q0 72 -104 72h-106q-16 0 -42 2q-53 -24 -53 -75zM160 343q0 -46 29 -76t76 -30t76 29.5t29 75.5t-29 75.5t-76 29.5q-48 0 -76.5 -29t-28.5 -75z" />
    <glyph glyph-name="Gdotaccent" unicode="&#x120;" horiz-adv-x="726" 
d="M356 -17q-143 0 -227 104t-84 268q0 167 86.5 269.5t240.5 102.5q56 0 102 -15t75 -37.5t50 -53t30.5 -57t13.5 -52.5l-94 -13q-10 58 -52.5 103t-127.5 45q-107 0 -167 -80.5t-60 -212.5q0 -128 58.5 -209t169.5 -81q50 0 88 16t58.5 39.5t33.5 55t17 56t4 48.5v12h-208
v80h293v-371h-69l-13 114q-24 -59 -82 -95t-136 -36z" />
    <glyph glyph-name="gdotaccent" unicode="&#x121;" horiz-adv-x="535" 
d="M260 -207q-225 0 -225 137q0 36 21 63.5t60 40.5q-58 26 -58 87q0 73 71 100q-49 47 -49 122q0 74 50 121.5t135 47.5q53 0 98 -21q27 91 119 91q18 0 33 -4v-74q-20 4 -36 4q-57 0 -75 -47q46 -46 46 -118q0 -75 -50 -123t-135 -48q-52 0 -96 21q-36 -15 -36 -49
q0 -51 83 -51h122q84 0 127 -36.5t43 -104.5q0 -74 -61 -116.5t-187 -42.5zM118 -55q0 -82 152 -82q153 0 153 83q0 72 -104 72h-106q-16 0 -42 2q-53 -24 -53 -75zM160 343q0 -46 29 -76t76 -30t76 29.5t29 75.5t-29 75.5t-76 29.5q-48 0 -76.5 -29t-28.5 -75z" />
    <glyph glyph-name="uni0122" unicode="&#x122;" horiz-adv-x="726" 
d="M356 -17q-143 0 -227 104t-84 268q0 167 86.5 269.5t240.5 102.5q56 0 102 -15t75 -37.5t50 -53t30.5 -57t13.5 -52.5l-94 -13q-10 58 -52.5 103t-127.5 45q-107 0 -167 -80.5t-60 -212.5q0 -128 58.5 -209t169.5 -81q50 0 88 16t58.5 39.5t33.5 55t17 56t4 48.5v12h-208
v80h293v-371h-69l-13 114q-24 -59 -82 -95t-136 -36z" />
    <glyph glyph-name="uni0123" unicode="&#x123;" horiz-adv-x="535" 
d="M260 -207q-225 0 -225 137q0 36 21 63.5t60 40.5q-58 26 -58 87q0 73 71 100q-49 47 -49 122q0 74 50 121.5t135 47.5q53 0 98 -21q27 91 119 91q18 0 33 -4v-74q-20 4 -36 4q-57 0 -75 -47q46 -46 46 -118q0 -75 -50 -123t-135 -48q-52 0 -96 21q-36 -15 -36 -49
q0 -51 83 -51h122q84 0 127 -36.5t43 -104.5q0 -74 -61 -116.5t-187 -42.5zM118 -55q0 -82 152 -82q153 0 153 83q0 72 -104 72h-106q-16 0 -42 2q-53 -24 -53 -75zM160 343q0 -46 29 -76t76 -30t76 29.5t29 75.5t-29 75.5t-76 29.5q-48 0 -76.5 -29t-28.5 -75z" />
    <glyph glyph-name="Hcircumflex" unicode="&#x124;" horiz-adv-x="748" 
d="M648 710v-710h-95v323h-358v-323h-95v710h95v-307h358v307h95z" />
    <glyph glyph-name="hcircumflex" unicode="&#x125;" horiz-adv-x="579" 
d="M90 0v725h85v-319q45 106 164 106q81 0 123 -51t42 -150v-311h-85v305q0 134 -109 134q-64 0 -99.5 -46.5t-35.5 -131.5v-261h-85z" />
    <glyph glyph-name="Hbar" unicode="&#x126;" horiz-adv-x="748" 
d="M648 710v-710h-95v323h-358v-323h-95v710h95v-307h358v307h95z" />
    <glyph glyph-name="hbar" unicode="&#x127;" horiz-adv-x="579" 
d="M90 0v725h85v-319q45 106 164 106q81 0 123 -51t42 -150v-311h-85v305q0 134 -109 134q-64 0 -99.5 -46.5t-35.5 -131.5v-261h-85z" />
    <glyph glyph-name="Itilde" unicode="&#x128;" horiz-adv-x="295" 
d="M195 0h-95v710h95v-710z" />
    <glyph glyph-name="itilde" unicode="&#x129;" horiz-adv-x="265" 
d="M90 0v500h85v-500h-85zM84 593v107h97v-107h-97z" />
    <glyph glyph-name="Imacron" unicode="&#x12a;" horiz-adv-x="295" 
d="M195 0h-95v710h95v-710z" />
    <glyph glyph-name="imacron" unicode="&#x12b;" horiz-adv-x="265" 
d="M90 0v500h85v-500h-85zM84 593v107h97v-107h-97z" />
    <glyph glyph-name="Ibreve" unicode="&#x12c;" horiz-adv-x="295" 
d="M195 0h-95v710h95v-710z" />
    <glyph glyph-name="ibreve" unicode="&#x12d;" horiz-adv-x="265" 
d="M90 0v500h85v-500h-85zM84 593v107h97v-107h-97z" />
    <glyph glyph-name="Iogonek" unicode="&#x12e;" horiz-adv-x="295" 
d="M195 0h-95v710h95v-710z" />
    <glyph glyph-name="iogonek" unicode="&#x12f;" horiz-adv-x="265" 
d="M90 0v500h85v-500h-85zM84 593v107h97v-107h-97z" />
    <glyph glyph-name="Idotaccent" unicode="&#x130;" horiz-adv-x="295" 
d="M195 0h-95v710h95v-710z" />
    <glyph glyph-name="dotlessi" unicode="&#x131;" horiz-adv-x="265" 
d="M90 0v500h85v-500h-85zM84 593v107h97v-107h-97z" />
    <glyph glyph-name="IJ" unicode="&#x132;" horiz-adv-x="694" 
d="M195 0h-95v710h95v-710zM315 -5v88q28 -5 84 -5q50 0 80 26t30 94v512h95v-519q0 -110 -57.5 -156.5t-148.5 -46.5q-58 0 -83 7z" />
    <glyph glyph-name="ij" unicode="&#x133;" horiz-adv-x="528" 
d="M90 0v500h85v-500h-85zM84 593v107h97v-107h-97zM250 -196v73q29 -2 49 -2q29 0 41.5 17.5t12.5 66.5v541h85v-550q0 -152 -127 -152q-39 0 -61 6zM347 593v107h97v-107h-97z" />
    <glyph glyph-name="Jcircumflex" unicode="&#x134;" horiz-adv-x="399" 
d="M309 191q0 -110 -57.5 -156.5t-148.5 -46.5q-59 0 -83 7v88q28 -5 84 -5q50 0 80 26t30 94v512h95v-519z" />
    <glyph glyph-name="jcircumflex" unicode="&#x135;" horiz-adv-x="263" 
d="M46 -202q-39 0 -61 6v73q29 -2 49 -2q29 0 41.5 17.5t12.5 66.5v541h85v-550q0 -152 -127 -152zM82 593v107h97v-107h-97z" />
    <glyph glyph-name="uni0136" unicode="&#x136;" horiz-adv-x="668" 
d="M100 0v710h95v-352l312 352h119l-261 -284l283 -426h-111l-237 358l-105 -115v-243h-95z" />
    <glyph glyph-name="uni0137" unicode="&#x137;" horiz-adv-x="537" 
d="M90 0v725h85v-471l224 246h111l-183 -193l195 -307h-105l-151 245l-91 -92v-153h-85z" />
    <glyph glyph-name="kgreenlandic" unicode="&#x138;" horiz-adv-x="537" 
d="M90 0v725h85v-471l224 246h111l-183 -193l195 -307h-105l-151 245l-91 -92v-153h-85z" />
    <glyph glyph-name="Lacute" unicode="&#x139;" horiz-adv-x="543" 
d="M100 0v710h95v-630h328v-80h-423z" />
    <glyph glyph-name="lacute" unicode="&#x13a;" horiz-adv-x="265" 
d="M175 725v-725h-85v725h85z" />
    <glyph glyph-name="uni013B" unicode="&#x13b;" horiz-adv-x="543" 
d="M100 0v710h95v-630h328v-80h-423z" />
    <glyph glyph-name="uni013C" unicode="&#x13c;" horiz-adv-x="265" 
d="M175 725v-725h-85v725h85z" />
    <glyph glyph-name="Lcaron" unicode="&#x13d;" horiz-adv-x="543" 
d="M100 0v710h95v-630h328v-80h-423z" />
    <glyph glyph-name="lcaron" unicode="&#x13e;" horiz-adv-x="265" 
d="M175 725v-725h-85v725h85z" />
    <glyph glyph-name="Ldot" unicode="&#x13f;" horiz-adv-x="543" 
d="M100 0v710h95v-630h328v-80h-423z" />
    <glyph glyph-name="ldot" unicode="&#x140;" horiz-adv-x="265" 
d="M175 725v-725h-85v725h85z" />
    <glyph glyph-name="Lslash" unicode="&#x141;" horiz-adv-x="543" 
d="M100 0v710h95v-630h328v-80h-423z" />
    <glyph glyph-name="lslash" unicode="&#x142;" horiz-adv-x="265" 
d="M175 725v-725h-85v725h85z" />
    <glyph glyph-name="Nacute" unicode="&#x143;" horiz-adv-x="744" 
d="M100 0v710h115l301 -517q30 -52 44 -91h2q-3 37 -3 94v514h85v-710h-115l-301 517q-32 56 -44 91h-2q3 -38 3 -94v-514h-85z" />
    <glyph glyph-name="nacute" unicode="&#x144;" horiz-adv-x="579" 
d="M90 0v500h80v-99q49 111 167 111q167 0 167 -201v-311h-85v306q0 133 -110 133q-62 0 -98 -47.5t-36 -130.5v-261h-85z" />
    <glyph glyph-name="uni0145" unicode="&#x145;" horiz-adv-x="744" 
d="M100 0v710h115l301 -517q30 -52 44 -91h2q-3 37 -3 94v514h85v-710h-115l-301 517q-32 56 -44 91h-2q3 -38 3 -94v-514h-85z" />
    <glyph glyph-name="uni0146" unicode="&#x146;" horiz-adv-x="579" 
d="M90 0v500h80v-99q49 111 167 111q167 0 167 -201v-311h-85v306q0 133 -110 133q-62 0 -98 -47.5t-36 -130.5v-261h-85z" />
    <glyph glyph-name="Ncaron" unicode="&#x147;" horiz-adv-x="744" 
d="M100 0v710h115l301 -517q30 -52 44 -91h2q-3 37 -3 94v514h85v-710h-115l-301 517q-32 56 -44 91h-2q3 -38 3 -94v-514h-85z" />
    <glyph glyph-name="ncaron" unicode="&#x148;" horiz-adv-x="579" 
d="M90 0v500h80v-99q49 111 167 111q167 0 167 -201v-311h-85v306q0 133 -110 133q-62 0 -98 -47.5t-36 -130.5v-261h-85z" />
    <glyph glyph-name="napostrophe" unicode="&#x149;" horiz-adv-x="579" 
d="M90 0v500h80v-99q49 111 167 111q167 0 167 -201v-311h-85v306q0 133 -110 133q-62 0 -98 -47.5t-36 -130.5v-261h-85z" />
    <glyph glyph-name="Eng" unicode="&#x14a;" horiz-adv-x="744" 
d="M100 0v710h115l301 -517q30 -52 44 -91h2q-3 37 -3 94v514h85v-710h-115l-301 517q-32 56 -44 91h-2q3 -38 3 -94v-514h-85z" />
    <glyph glyph-name="eng" unicode="&#x14b;" horiz-adv-x="579" 
d="M90 0v500h80v-99q49 111 167 111q167 0 167 -201v-311h-85v306q0 133 -110 133q-62 0 -98 -47.5t-36 -130.5v-261h-85z" />
    <glyph glyph-name="Omacron" unicode="&#x14c;" horiz-adv-x="739" 
d="M370 -17q-148 0 -236.5 101t-88.5 271q0 173 88 272.5t237 99.5q148 0 236 -99.5t88 -272.5q0 -172 -88 -272t-236 -100zM145 355q0 -135 59.5 -213.5t165.5 -78.5t165 77.5t59 214.5t-59 214.5t-165 77.5t-165.5 -77.5t-59.5 -214.5z" />
    <glyph glyph-name="omacron" unicode="&#x14d;" horiz-adv-x="556" 
d="M278 -12q-106 0 -169.5 70.5t-63.5 191.5t63.5 191.5t169.5 70.5t169.5 -70.5t63.5 -191.5t-63.5 -191.5t-169.5 -70.5zM135 250q0 -92 37.5 -140t105.5 -48t105.5 48t37.5 140t-37.5 140t-105.5 48t-105.5 -48t-37.5 -140z" />
    <glyph glyph-name="Obreve" unicode="&#x14e;" horiz-adv-x="739" 
d="M370 -17q-148 0 -236.5 101t-88.5 271q0 173 88 272.5t237 99.5q148 0 236 -99.5t88 -272.5q0 -172 -88 -272t-236 -100zM145 355q0 -135 59.5 -213.5t165.5 -78.5t165 77.5t59 214.5t-59 214.5t-165 77.5t-165.5 -77.5t-59.5 -214.5z" />
    <glyph glyph-name="obreve" unicode="&#x14f;" horiz-adv-x="556" 
d="M278 -12q-106 0 -169.5 70.5t-63.5 191.5t63.5 191.5t169.5 70.5t169.5 -70.5t63.5 -191.5t-63.5 -191.5t-169.5 -70.5zM135 250q0 -92 37.5 -140t105.5 -48t105.5 48t37.5 140t-37.5 140t-105.5 48t-105.5 -48t-37.5 -140z" />
    <glyph glyph-name="Ohungarumlaut" unicode="&#x150;" horiz-adv-x="739" 
d="M370 -17q-148 0 -236.5 101t-88.5 271q0 173 88 272.5t237 99.5q148 0 236 -99.5t88 -272.5q0 -172 -88 -272t-236 -100zM145 355q0 -135 59.5 -213.5t165.5 -78.5t165 77.5t59 214.5t-59 214.5t-165 77.5t-165.5 -77.5t-59.5 -214.5z" />
    <glyph glyph-name="ohungarumlaut" unicode="&#x151;" horiz-adv-x="556" 
d="M278 -12q-106 0 -169.5 70.5t-63.5 191.5t63.5 191.5t169.5 70.5t169.5 -70.5t63.5 -191.5t-63.5 -191.5t-169.5 -70.5zM135 250q0 -92 37.5 -140t105.5 -48t105.5 48t37.5 140t-37.5 140t-105.5 48t-105.5 -48t-37.5 -140z" />
    <glyph glyph-name="OE" unicode="&#x152;" horiz-adv-x="1351" 
d="M370 -17q-148 0 -236.5 101t-88.5 271q0 173 88 272.5t237 99.5q148 0 236 -99.5t88 -272.5q0 -172 -88 -272t-236 -100zM145 355q0 -135 59.5 -213.5t165.5 -78.5t165 77.5t59 214.5t-59 214.5t-165 77.5t-165.5 -77.5t-59.5 -214.5zM839 0v710h440v-80h-345v-226h328
v-80h-328v-244h352v-80h-447z" />
    <glyph glyph-name="oe" unicode="&#x153;" horiz-adv-x="1091" 
d="M278 -12q-106 0 -169.5 70.5t-63.5 191.5t63.5 191.5t169.5 70.5t169.5 -70.5t63.5 -191.5t-63.5 -191.5t-169.5 -70.5zM135 250q0 -92 37.5 -140t105.5 -48t105.5 48t37.5 140t-37.5 140t-105.5 48t-105.5 -48t-37.5 -140zM601 244q0 126 60 197t167 71q102 0 157.5 -58
t55.5 -169v-60h-355q1 -73 41.5 -117.5t107.5 -44.5q99 0 133 95l70 -31q-53 -139 -209 -139q-108 0 -168 66.5t-60 189.5zM686 294h269v11q0 68 -33.5 104t-95.5 36q-65 0 -101.5 -40t-38.5 -111z" />
    <glyph glyph-name="Racute" unicode="&#x154;" horiz-adv-x="665" 
d="M100 0v710h263q67 0 115 -17.5t73 -48t36 -65.5t11 -77q0 -67 -38.5 -121t-121.5 -73l182 -308h-107l-174 295h-144v-295h-95zM195 375h157q146 0 146 127q0 128 -146 128h-157v-255z" />
    <glyph glyph-name="racute" unicode="&#x155;" horiz-adv-x="359" 
d="M169 386q19 56 58.5 91t93.5 35q12 0 18 -1v-83h-4q-71 0 -110 -39q-22 -22 -34 -55t-14 -57t-2 -63v-214h-85v500h79v-114z" />
    <glyph glyph-name="uni0156" unicode="&#x156;" horiz-adv-x="665" 
d="M100 0v710h263q67 0 115 -17.5t73 -48t36 -65.5t11 -77q0 -67 -38.5 -121t-121.5 -73l182 -308h-107l-174 295h-144v-295h-95zM195 375h157q146 0 146 127q0 128 -146 128h-157v-255z" />
    <glyph glyph-name="uni0157" unicode="&#x157;" horiz-adv-x="359" 
d="M169 386q19 56 58.5 91t93.5 35q12 0 18 -1v-83h-4q-71 0 -110 -39q-22 -22 -34 -55t-14 -57t-2 -63v-214h-85v500h79v-114z" />
    <glyph glyph-name="Rcaron" unicode="&#x158;" horiz-adv-x="665" 
d="M100 0v710h263q67 0 115 -17.5t73 -48t36 -65.5t11 -77q0 -67 -38.5 -121t-121.5 -73l182 -308h-107l-174 295h-144v-295h-95zM195 375h157q146 0 146 127q0 128 -146 128h-157v-255z" />
    <glyph glyph-name="rcaron" unicode="&#x159;" horiz-adv-x="359" 
d="M169 386q19 56 58.5 91t93.5 35q12 0 18 -1v-83h-4q-71 0 -110 -39q-22 -22 -34 -55t-14 -57t-2 -63v-214h-85v500h79v-114z" />
    <glyph glyph-name="Sacute" unicode="&#x15a;" horiz-adv-x="624" 
d="M325 -17q-130 0 -203 62.5t-82 165.5l96 14q11 -72 57.5 -118t134.5 -46q66 0 112 30t46 92q0 59 -33 86.5t-102 41.5l-103 21q-178 37 -178 196q0 90 67 144.5t180 54.5q111 0 182 -51t81 -151l-95 -20q-19 147 -170 147q-66 0 -106.5 -31t-40.5 -84q0 -51 28 -80
t88 -42l104 -22q93 -19 144.5 -65t51.5 -136q0 -89 -66.5 -149t-192.5 -60z" />
    <glyph glyph-name="sacute" unicode="&#x15b;" horiz-adv-x="502" 
d="M260 -12q-89 0 -145.5 40t-69.5 114l86 15q9 -47 43 -73t89 -26q49 0 76.5 21.5t27.5 54.5q0 32 -18 48t-54 22l-98 18q-133 25 -133 140q0 66 51.5 108t138.5 42q84 0 137.5 -36t60.5 -99l-84 -19q-9 39 -39 62t-79 23q-48 0 -75.5 -20t-27.5 -57q0 -57 77 -71l97 -18
q130 -25 130 -136q0 -69 -50.5 -111t-140.5 -42z" />
    <glyph glyph-name="Scircumflex" unicode="&#x15c;" horiz-adv-x="624" 
d="M325 -17q-130 0 -203 62.5t-82 165.5l96 14q11 -72 57.5 -118t134.5 -46q66 0 112 30t46 92q0 59 -33 86.5t-102 41.5l-103 21q-178 37 -178 196q0 90 67 144.5t180 54.5q111 0 182 -51t81 -151l-95 -20q-19 147 -170 147q-66 0 -106.5 -31t-40.5 -84q0 -51 28 -80
t88 -42l104 -22q93 -19 144.5 -65t51.5 -136q0 -89 -66.5 -149t-192.5 -60z" />
    <glyph glyph-name="scircumflex" unicode="&#x15d;" horiz-adv-x="502" 
d="M260 -12q-89 0 -145.5 40t-69.5 114l86 15q9 -47 43 -73t89 -26q49 0 76.5 21.5t27.5 54.5q0 32 -18 48t-54 22l-98 18q-133 25 -133 140q0 66 51.5 108t138.5 42q84 0 137.5 -36t60.5 -99l-84 -19q-9 39 -39 62t-79 23q-48 0 -75.5 -20t-27.5 -57q0 -57 77 -71l97 -18
q130 -25 130 -136q0 -69 -50.5 -111t-140.5 -42z" />
    <glyph glyph-name="Scedilla" unicode="&#x15e;" horiz-adv-x="624" 
d="M325 -17q-130 0 -203 62.5t-82 165.5l96 14q11 -72 57.5 -118t134.5 -46q66 0 112 30t46 92q0 59 -33 86.5t-102 41.5l-103 21q-178 37 -178 196q0 90 67 144.5t180 54.5q111 0 182 -51t81 -151l-95 -20q-19 147 -170 147q-66 0 -106.5 -31t-40.5 -84q0 -51 28 -80
t88 -42l104 -22q93 -19 144.5 -65t51.5 -136q0 -89 -66.5 -149t-192.5 -60z" />
    <glyph glyph-name="scedilla" unicode="&#x15f;" horiz-adv-x="502" 
d="M260 -12q-89 0 -145.5 40t-69.5 114l86 15q9 -47 43 -73t89 -26q49 0 76.5 21.5t27.5 54.5q0 32 -18 48t-54 22l-98 18q-133 25 -133 140q0 66 51.5 108t138.5 42q84 0 137.5 -36t60.5 -99l-84 -19q-9 39 -39 62t-79 23q-48 0 -75.5 -20t-27.5 -57q0 -57 77 -71l97 -18
q130 -25 130 -136q0 -69 -50.5 -111t-140.5 -42z" />
    <glyph glyph-name="Scaron" unicode="&#x160;" horiz-adv-x="624" 
d="M325 -17q-130 0 -203 62.5t-82 165.5l96 14q11 -72 57.5 -118t134.5 -46q66 0 112 30t46 92q0 59 -33 86.5t-102 41.5l-103 21q-178 37 -178 196q0 90 67 144.5t180 54.5q111 0 182 -51t81 -151l-95 -20q-19 147 -170 147q-66 0 -106.5 -31t-40.5 -84q0 -51 28 -80
t88 -42l104 -22q93 -19 144.5 -65t51.5 -136q0 -89 -66.5 -149t-192.5 -60z" />
    <glyph glyph-name="scaron" unicode="&#x161;" horiz-adv-x="502" 
d="M260 -12q-89 0 -145.5 40t-69.5 114l86 15q9 -47 43 -73t89 -26q49 0 76.5 21.5t27.5 54.5q0 32 -18 48t-54 22l-98 18q-133 25 -133 140q0 66 51.5 108t138.5 42q84 0 137.5 -36t60.5 -99l-84 -19q-9 39 -39 62t-79 23q-48 0 -75.5 -20t-27.5 -57q0 -57 77 -71l97 -18
q130 -25 130 -136q0 -69 -50.5 -111t-140.5 -42z" />
    <glyph glyph-name="uni0162" unicode="&#x162;" 
d="M15 630v80h541v-80h-223v-630h-95v630h-223z" />
    <glyph glyph-name="uni0163" unicode="&#x163;" horiz-adv-x="353" 
d="M15 430v70h93v131l85 36v-167h125v-70h-125v-277q0 -43 17.5 -62.5t55.5 -19.5q22 0 52 7v-78q-33 -9 -74 -9q-76 0 -106 41t-30 118v280h-93z" />
    <glyph glyph-name="Tcaron" unicode="&#x164;" 
d="M15 630v80h541v-80h-223v-630h-95v630h-223z" />
    <glyph glyph-name="tcaron" unicode="&#x165;" horiz-adv-x="353" 
d="M15 430v70h93v131l85 36v-167h125v-70h-125v-277q0 -43 17.5 -62.5t55.5 -19.5q22 0 52 7v-78q-33 -9 -74 -9q-76 0 -106 41t-30 118v280h-93z" />
    <glyph glyph-name="Tbar" unicode="&#x166;" 
d="M15 630v80h541v-80h-223v-630h-95v630h-223z" />
    <glyph glyph-name="tbar" unicode="&#x167;" horiz-adv-x="353" 
d="M15 430v70h93v131l85 36v-167h125v-70h-125v-277q0 -43 17.5 -62.5t55.5 -19.5q22 0 52 7v-78q-33 -9 -74 -9q-76 0 -106 41t-30 118v280h-93z" />
    <glyph glyph-name="Utilde" unicode="&#x168;" horiz-adv-x="726" 
d="M90 710h95v-456q0 -87 46.5 -137t131.5 -50t131.5 50t46.5 137v456h95v-462q0 -121 -71.5 -193t-201.5 -72t-201.5 72t-71.5 193v462z" />
    <glyph glyph-name="utilde" unicode="&#x169;" 
d="M246 -12q-171 0 -171 193v319h85v-309q0 -63 26.5 -96.5t75.5 -33.5q60 0 97 47t37 123v269h85v-500h-80v94q-17 -46 -60 -76t-95 -30z" />
    <glyph glyph-name="Umacron" unicode="&#x16a;" horiz-adv-x="726" 
d="M90 710h95v-456q0 -87 46.5 -137t131.5 -50t131.5 50t46.5 137v456h95v-462q0 -121 -71.5 -193t-201.5 -72t-201.5 72t-71.5 193v462z" />
    <glyph glyph-name="umacron" unicode="&#x16b;" 
d="M246 -12q-171 0 -171 193v319h85v-309q0 -63 26.5 -96.5t75.5 -33.5q60 0 97 47t37 123v269h85v-500h-80v94q-17 -46 -60 -76t-95 -30z" />
    <glyph glyph-name="Ubreve" unicode="&#x16c;" horiz-adv-x="726" 
d="M90 710h95v-456q0 -87 46.5 -137t131.5 -50t131.5 50t46.5 137v456h95v-462q0 -121 -71.5 -193t-201.5 -72t-201.5 72t-71.5 193v462z" />
    <glyph glyph-name="ubreve" unicode="&#x16d;" 
d="M246 -12q-171 0 -171 193v319h85v-309q0 -63 26.5 -96.5t75.5 -33.5q60 0 97 47t37 123v269h85v-500h-80v94q-17 -46 -60 -76t-95 -30z" />
    <glyph glyph-name="Uring" unicode="&#x16e;" horiz-adv-x="726" 
d="M90 710h95v-456q0 -87 46.5 -137t131.5 -50t131.5 50t46.5 137v456h95v-462q0 -121 -71.5 -193t-201.5 -72t-201.5 72t-71.5 193v462z" />
    <glyph glyph-name="uring" unicode="&#x16f;" 
d="M246 -12q-171 0 -171 193v319h85v-309q0 -63 26.5 -96.5t75.5 -33.5q60 0 97 47t37 123v269h85v-500h-80v94q-17 -46 -60 -76t-95 -30z" />
    <glyph glyph-name="Uhungarumlaut" unicode="&#x170;" horiz-adv-x="726" 
d="M90 710h95v-456q0 -87 46.5 -137t131.5 -50t131.5 50t46.5 137v456h95v-462q0 -121 -71.5 -193t-201.5 -72t-201.5 72t-71.5 193v462z" />
    <glyph glyph-name="uhungarumlaut" unicode="&#x171;" 
d="M246 -12q-171 0 -171 193v319h85v-309q0 -63 26.5 -96.5t75.5 -33.5q60 0 97 47t37 123v269h85v-500h-80v94q-17 -46 -60 -76t-95 -30z" />
    <glyph glyph-name="Uogonek" unicode="&#x172;" horiz-adv-x="726" 
d="M90 710h95v-456q0 -87 46.5 -137t131.5 -50t131.5 50t46.5 137v456h95v-462q0 -121 -71.5 -193t-201.5 -72t-201.5 72t-71.5 193v462z" />
    <glyph glyph-name="uogonek" unicode="&#x173;" 
d="M246 -12q-171 0 -171 193v319h85v-309q0 -63 26.5 -96.5t75.5 -33.5q60 0 97 47t37 123v269h85v-500h-80v94q-17 -46 -60 -76t-95 -30z" />
    <glyph glyph-name="Wcircumflex" unicode="&#x174;" horiz-adv-x="912" 
d="M194 0l-169 710h97l123 -572q4 -21 6 -39h3q1 12 8 39l146 572h96l146 -572q7 -27 8 -39h3q2 18 6 39l123 572h97l-169 -710h-116l-138 554q-5 20 -6 33h-4q-1 -13 -6 -33l-138 -554h-116z" />
    <glyph glyph-name="wcircumflex" unicode="&#x175;" horiz-adv-x="732" 
d="M166 0l-141 500h88l90 -357q7 -30 11 -59h2q0 2 13 59l91 357h92l91 -357q13 -57 13 -59h2q4 29 11 59l90 357h88l-141 -500h-93l-95 360q-8 30 -11 56h-2q-3 -26 -11 -56l-95 -360h-93z" />
    <glyph glyph-name="Ycircumflex" unicode="&#x176;" horiz-adv-x="598" 
d="M251 0v283l-241 427h106l163 -301q15 -28 19 -41h2q4 13 19 41l163 301h106l-241 -427v-283h-96z" />
    <glyph glyph-name="ycircumflex" unicode="&#x177;" horiz-adv-x="487" 
d="M92 -200q-25 0 -46 4v75q13 -2 36 -2q45 0 71 21.5t43 70.5l13 37l-199 494h95l128 -348q11 -30 17 -59h2q4 18 17 59l116 348h92l-195 -532q-33 -91 -79 -129.5t-111 -38.5z" />
    <glyph glyph-name="Ydieresis" unicode="&#x178;" horiz-adv-x="598" 
d="M251 0v283l-241 427h106l163 -301q15 -28 19 -41h2q4 13 19 41l163 301h106l-241 -427v-283h-96z" />
    <glyph glyph-name="Zacute" unicode="&#x179;" horiz-adv-x="569" 
d="M35 88l399 542h-386v80h487v-88l-400 -542h414v-80h-514v88z" />
    <glyph glyph-name="zacute" unicode="&#x17a;" horiz-adv-x="455" 
d="M35 65l273 363h-263v72h365v-63l-270 -364h285v-73h-390v65z" />
    <glyph glyph-name="Zdotaccent" unicode="&#x17b;" horiz-adv-x="569" 
d="M35 88l399 542h-386v80h487v-88l-400 -542h414v-80h-514v88z" />
    <glyph glyph-name="zdotaccent" unicode="&#x17c;" horiz-adv-x="455" 
d="M35 65l273 363h-263v72h365v-63l-270 -364h285v-73h-390v65z" />
    <glyph glyph-name="Zcaron" unicode="&#x17d;" horiz-adv-x="569" 
d="M35 88l399 542h-386v80h487v-88l-400 -542h414v-80h-514v88z" />
    <glyph glyph-name="zcaron" unicode="&#x17e;" horiz-adv-x="455" 
d="M35 65l273 363h-263v72h365v-63l-270 -364h285v-73h-390v65z" />
    <glyph glyph-name="AEacute" unicode="&#x1fc;" horiz-adv-x="1274" 
d="M15 0l269 710h94l269 -710h-98l-73 205h-290l-73 -205h-98zM214 285h234l-99 277q-7 18 -17 54h-2q-10 -36 -17 -54zM762 0v710h440v-80h-345v-226h328v-80h-328v-244h352v-80h-447z" />
    <glyph glyph-name="aeacute" unicode="&#x1fd;" horiz-adv-x="1069" 
d="M214 -12q-77 0 -123 40t-46 107q0 79 70 118q54 27 168 41l93 11v8q0 69 -26 99t-84 30q-51 0 -81 -26t-33 -73h-91q5 77 60.5 123t143.5 46q103 0 150 -49.5t47 -158.5v-135q0 -114 17 -169h-89q-6 42 -8 91q-17 -48 -62 -75.5t-106 -27.5zM135 137q0 -37 26 -58t72 -21
q65 0 104.5 43.5t39.5 116.5v25l-136 -20q-55 -8 -80.5 -28.5t-25.5 -57.5zM579 244q0 126 60 197t167 71q102 0 157.5 -58t55.5 -169v-60h-355q1 -73 41.5 -117.5t107.5 -44.5q99 0 133 95l70 -31q-53 -139 -209 -139q-108 0 -168 66.5t-60 189.5zM664 294h269v11
q0 68 -33.5 104t-95.5 36q-65 0 -101.5 -40t-38.5 -111z" />
    <glyph glyph-name="Oslashacute" unicode="&#x1fe;" horiz-adv-x="739" 
d="M370 -17q-148 0 -236.5 101t-88.5 271q0 173 88 272.5t237 99.5q148 0 236 -99.5t88 -272.5q0 -172 -88 -272t-236 -100zM145 355q0 -135 59.5 -213.5t165.5 -78.5t165 77.5t59 214.5t-59 214.5t-165 77.5t-165.5 -77.5t-59.5 -214.5z" />
    <glyph glyph-name="oslashacute" unicode="&#x1ff;" horiz-adv-x="556" 
d="M278 -12q-106 0 -169.5 70.5t-63.5 191.5t63.5 191.5t169.5 70.5t169.5 -70.5t63.5 -191.5t-63.5 -191.5t-169.5 -70.5zM135 250q0 -92 37.5 -140t105.5 -48t105.5 48t37.5 140t-37.5 140t-105.5 48t-105.5 -48t-37.5 -140z" />
    <glyph glyph-name="uni0218" unicode="&#x218;" horiz-adv-x="624" 
d="M325 -17q-130 0 -203 62.5t-82 165.5l96 14q11 -72 57.5 -118t134.5 -46q66 0 112 30t46 92q0 59 -33 86.5t-102 41.5l-103 21q-178 37 -178 196q0 90 67 144.5t180 54.5q111 0 182 -51t81 -151l-95 -20q-19 147 -170 147q-66 0 -106.5 -31t-40.5 -84q0 -51 28 -80
t88 -42l104 -22q93 -19 144.5 -65t51.5 -136q0 -89 -66.5 -149t-192.5 -60z" />
    <glyph glyph-name="uni0219" unicode="&#x219;" horiz-adv-x="502" 
d="M260 -12q-89 0 -145.5 40t-69.5 114l86 15q9 -47 43 -73t89 -26q49 0 76.5 21.5t27.5 54.5q0 32 -18 48t-54 22l-98 18q-133 25 -133 140q0 66 51.5 108t138.5 42q84 0 137.5 -36t60.5 -99l-84 -19q-9 39 -39 62t-79 23q-48 0 -75.5 -20t-27.5 -57q0 -57 77 -71l97 -18
q130 -25 130 -136q0 -69 -50.5 -111t-140.5 -42z" />
    <glyph glyph-name="uni021A" unicode="&#x21a;" 
d="M15 630v80h541v-80h-223v-630h-95v630h-223z" />
    <glyph glyph-name="uni021B" unicode="&#x21b;" horiz-adv-x="353" 
d="M15 430v70h93v131l85 36v-167h125v-70h-125v-277q0 -43 17.5 -62.5t55.5 -19.5q22 0 52 7v-78q-33 -9 -74 -9q-76 0 -106 41t-30 118v280h-93z" />
    <glyph glyph-name="uni0237" unicode="&#x237;" horiz-adv-x="263" 
d="M46 -202q-39 0 -61 6v73q29 -2 49 -2q29 0 41.5 17.5t12.5 66.5v541h85v-550q0 -152 -127 -152zM82 593v107h97v-107h-97z" />
    <glyph glyph-name="uni0401" unicode="&#x401;" horiz-adv-x="612" 
d="M195 80h352v-80h-447v710h440v-80h-345v-226h328v-80h-328v-244z" />
    <glyph glyph-name="uni0404" unicode="&#x404;" horiz-adv-x="689" 
d="M365 -17q-157 0 -238.5 105t-81.5 269q0 168 84 269t239 101q125 0 196 -67t85 -182l-97 -10q-11 83 -60 133.5t-129 50.5q-99 0 -156 -64.5t-65 -187.5h324v-80h-324q8 -119 64 -189t159 -70q78 0 127 48t65 130l92 -16q-22 -108 -92.5 -174t-191.5 -66z" />
    <glyph glyph-name="uni0405" unicode="&#x405;" horiz-adv-x="624" 
d="M325 -17q-130 0 -203 62.5t-82 165.5l96 14q11 -72 57.5 -118t134.5 -46q66 0 112 30t46 92q0 59 -33 86.5t-102 41.5l-103 21q-178 37 -178 196q0 90 67 144.5t180 54.5q111 0 182 -51t81 -151l-95 -20q-19 147 -170 147q-66 0 -106.5 -31t-40.5 -84q0 -51 28 -80
t88 -42l104 -22q93 -19 144.5 -65t51.5 -136q0 -89 -66.5 -149t-192.5 -60z" />
    <glyph glyph-name="uni0406" unicode="&#x406;" horiz-adv-x="295" 
d="M195 0h-95v710h95v-710z" />
    <glyph glyph-name="uni0408" unicode="&#x408;" horiz-adv-x="399" 
d="M309 191q0 -110 -57.5 -156.5t-148.5 -46.5q-59 0 -83 7v88q28 -5 84 -5q50 0 80 26t30 94v512h95v-519z" />
    <glyph glyph-name="uni040F" unicode="&#x40f;" horiz-adv-x="746" 
d="M646 0h-228v-160h-90v160h-228v710h95v-630h356v630h95v-710z" />
    <glyph glyph-name="uni0410" unicode="&#x410;" horiz-adv-x="662" 
d="M15 0l269 710h94l269 -710h-98l-73 205h-290l-73 -205h-98zM214 285h234l-99 277q-7 18 -17 54h-2q-10 -36 -17 -54z" />
    <glyph glyph-name="uni0411" unicode="&#x411;" horiz-adv-x="650" 
d="M355 77q74 0 107.5 36t33.5 96q0 58 -34 94t-107 36h-160v-262h160zM100 0v710h454v-80h-359v-214h166q117 0 175.5 -56.5t58.5 -150.5q0 -95 -58.5 -152t-175.5 -57h-261z" />
    <glyph glyph-name="uni0412" unicode="&#x412;" horiz-adv-x="658" 
d="M100 0v710h247q67 0 115.5 -17t73.5 -46.5t36 -60.5t11 -65q0 -53 -30.5 -95t-88.5 -59q65 -11 102 -56.5t37 -115.5q0 -37 -12 -69.5t-37.5 -61.5t-73.5 -46.5t-112 -17.5h-268zM195 80h168q77 0 111.5 35t34.5 89q0 53 -33.5 85.5t-102.5 32.5h-178v-242zM195 402h152
q142 0 142 112q0 116 -142 116h-152v-228z" />
    <glyph glyph-name="uni0413" unicode="&#x413;" horiz-adv-x="523" 
d="M508 710v-80h-313v-630h-95v710h408z" />
    <glyph glyph-name="uni0414" unicode="&#x414;" horiz-adv-x="738" 
d="M628 710v-628h90v-232h-90v150h-528v-150h-90v232h77q59 116 81 265q17 121 19 363h441zM181 82h352v548h-261q-3 -171 -19 -285q-20 -148 -72 -263z" />
    <glyph glyph-name="uni0415" unicode="&#x415;" horiz-adv-x="612" 
d="M195 80h352v-80h-447v710h440v-80h-345v-226h328v-80h-328v-244z" />
    <glyph glyph-name="uni0416" unicode="&#x416;" horiz-adv-x="1029" 
d="M467 0v330h-122l-219 -330h-111l249 374l-236 336h106l206 -300h127v300h95v-300h127l206 300h106l-236 -336l249 -374h-111l-219 330h-122v-330h-95z" />
    <glyph glyph-name="uni0417" unicode="&#x417;" horiz-adv-x="641" 
d="M311 -17q-121 0 -191.5 61.5t-79.5 156.5l96 14q32 -155 180 -155q87 0 133.5 37.5t46.5 102.5q0 71 -46.5 102.5t-139.5 31.5h-72v74h68q78 0 121.5 32.5t43.5 92.5q0 56 -41.5 87.5t-113.5 31.5q-148 0 -174 -147l-95 20q13 101 83.5 151.5t185.5 50.5q116 0 181 -49
t65 -135q0 -61 -28.5 -104.5t-80.5 -60.5q62 -16 97.5 -62.5t35.5 -113.5q0 -102 -72 -160.5t-203 -58.5z" />
    <glyph glyph-name="uni0418" unicode="&#x418;" horiz-adv-x="769" 
d="M669 0h-87v532v92h-4q-11 -35 -43 -89l-311 -535h-124v710h87v-535v-89h4q9 32 43 90l310 534h125v-710z" />
    <glyph glyph-name="uni0419" unicode="&#x419;" horiz-adv-x="769" 
d="M669 0h-87v532v92h-4q-11 -35 -43 -89l-311 -535h-124v710h87v-535v-89h4q9 32 43 90l310 534h125v-710z" />
    <glyph glyph-name="uni041A" unicode="&#x41a;" horiz-adv-x="667" 
d="M100 0v710h95v-300h127l206 300h106l-236 -336l249 -374h-111l-219 330h-122v-330h-95z" />
    <glyph glyph-name="uni041B" unicode="&#x41b;" horiz-adv-x="722" 
d="M15 -6v88q20 -3 32 -3q48 0 70.5 32t31.5 114q25 230 30 485h443v-710h-95v630h-262q-16 -284 -30 -420q-12 -118 -52.5 -170t-119.5 -52q-26 0 -48 6z" />
    <glyph glyph-name="uni041C" unicode="&#x41c;" horiz-adv-x="884" 
d="M100 0v710h135l188 -546q14 -41 18 -67h2q4 26 18 67l188 546h135v-710h-87v548q0 45 4 76h-4q-6 -40 -21 -81l-188 -543h-92l-188 543q-15 41 -21 81h-4q4 -31 4 -76v-548h-87z" />
    <glyph glyph-name="uni041D" unicode="&#x41d;" horiz-adv-x="748" 
d="M648 710v-710h-95v323h-358v-323h-95v710h95v-307h358v307h95z" />
    <glyph glyph-name="uni041E" unicode="&#x41e;" horiz-adv-x="739" 
d="M370 -17q-148 0 -236.5 101t-88.5 271q0 173 88 272.5t237 99.5q148 0 236 -99.5t88 -272.5q0 -172 -88 -272t-236 -100zM145 355q0 -135 59.5 -213.5t165.5 -78.5t165 77.5t59 214.5t-59 214.5t-165 77.5t-165.5 -77.5t-59.5 -214.5z" />
    <glyph glyph-name="uni041F" unicode="&#x41f;" horiz-adv-x="746" 
d="M646 710v-710h-95v630h-356v-630h-95v710h546z" />
    <glyph glyph-name="uni0420" unicode="&#x420;" horiz-adv-x="623" 
d="M195 0h-95v710h252q110 0 175.5 -57t65.5 -153t-65.5 -153t-175.5 -57h-157v-290zM195 370h147q69 0 110 35.5t41 94.5t-41 94.5t-110 35.5h-147v-260z" />
    <glyph glyph-name="uni0421" unicode="&#x421;" horiz-adv-x="689" 
d="M365 -17q-157 0 -238.5 105t-81.5 269q0 168 84 269t239 101q125 0 196 -67t85 -182l-97 -10q-11 82 -59.5 130t-129.5 48q-103 0 -160.5 -78.5t-57.5 -209.5q0 -129 57.5 -210.5t162.5 -81.5q75 0 126 46.5t66 126.5l92 -16q-22 -108 -92.5 -174t-191.5 -66z" />
    <glyph glyph-name="uni0422" unicode="&#x422;" 
d="M15 630v80h541v-80h-223v-630h-95v630h-223z" />
    <glyph glyph-name="uni0423" unicode="&#x423;" horiz-adv-x="626" 
d="M276 145l-261 565h98l183 -405q21 -47 26 -72h2q5 26 25 72l169 405h93l-247 -566q-38 -86 -80 -121t-109 -35q-40 0 -65 6v84q24 -4 49 -4q41 0 65.5 11.5t42.5 43.5z" />
    <glyph glyph-name="uni0424" unicode="&#x424;" horiz-adv-x="829" 
d="M460 743v-66q155 -6 239.5 -88t84.5 -229q0 -152 -84 -233.5t-240 -86.5v-67h-91v67q-156 6 -240 87.5t-84 232.5q0 147 84.5 229t239.5 88v66h91zM140 360q0 -118 55.5 -179t175.5 -65v484q-121 -6 -176 -66t-55 -174zM458 116q121 4 176 64t55 180q0 229 -231 240v-484
z" />
    <glyph glyph-name="uni0425" unicode="&#x425;" horiz-adv-x="640" 
d="M15 0l248 375l-225 335h111l149 -233q15 -23 23 -42h2q5 12 23 41l148 234h105l-223 -343l249 -367h-112l-162 252q-27 42 -33 56h-2q-8 -19 -33 -56l-161 -252h-107z" />
    <glyph glyph-name="uni0426" unicode="&#x426;" horiz-adv-x="756" 
d="M646 0h-546v710h95v-630h356v630h95v-630h90v-230h-90v150z" />
    <glyph glyph-name="uni0427" unicode="&#x427;" horiz-adv-x="669" 
d="M569 710v-710h-95v312q-91 -33 -178 -33q-119 0 -177.5 54t-58.5 174v203h95v-191q0 -83 35.5 -120.5t111.5 -37.5q85 0 172 29v320h95z" />
    <glyph glyph-name="uni0428" unicode="&#x428;" horiz-adv-x="1015" 
d="M820 710h95v-710h-815v710h95v-628h265v628h95v-628h265v628z" />
    <glyph glyph-name="uni0429" unicode="&#x429;" horiz-adv-x="1025" 
d="M820 710h95v-629h90v-243h-90v162h-815v710h95v-628h265v628h95v-628h265v628z" />
    <glyph glyph-name="uni042A" unicode="&#x42a;" horiz-adv-x="773" 
d="M15 710h315v-294h164q115 0 174.5 -59.5t59.5 -148.5t-59.5 -148.5t-174.5 -59.5h-259v630h-220v80zM330 79h158q73 0 107 36t34 93t-34 93t-107 36h-158v-258z" />
    <glyph glyph-name="uni042B" unicode="&#x42b;" horiz-adv-x="902" 
d="M353 79q73 0 107 36t34 93t-34 93t-107 36h-158v-258h158zM100 0v710h95v-294h164q115 0 174.5 -59.5t59.5 -148.5t-59.5 -148.5t-174.5 -59.5h-259zM707 0v710h95v-710h-95z" />
    <glyph glyph-name="uni042C" unicode="&#x42c;" horiz-adv-x="638" 
d="M353 79q73 0 107 36t34 93t-34 93t-107 36h-158v-258h158zM100 0v710h95v-294h164q115 0 174.5 -59.5t59.5 -148.5t-59.5 -148.5t-174.5 -59.5h-259z" />
    <glyph glyph-name="uni042D" unicode="&#x42d;" horiz-adv-x="693" 
d="M339 -17q-134 0 -209.5 69t-89.5 177l98 10q13 -86 65 -132t135 -46q97 0 151 71t62 188h-324v80h324q-9 118 -61 185t-147 67q-89 0 -139.5 -50t-61.5 -134l-98 10q14 114 89.5 181.5t205.5 67.5q156 0 232.5 -100t76.5 -270q0 -165 -77.5 -269.5t-231.5 -104.5z" />
    <glyph glyph-name="uni042E" unicode="&#x42e;" horiz-adv-x="1028" 
d="M652 -17q-143 0 -230.5 89t-98.5 243h-128v-315h-95v710h95v-315h128q10 156 98 244t231 88q153 0 242 -99.5t89 -272.5q0 -172 -89 -272t-242 -100zM420 355q0 -135 61 -213.5t171 -78.5q111 0 171 77.5t60 214.5q0 138 -60 215t-171 77t-171.5 -77t-60.5 -215z" />
    <glyph glyph-name="uni042F" unicode="&#x42f;" horiz-adv-x="665" 
d="M565 0h-95v295h-144l-174 -295h-107l179 303q-157 31 -157 197q0 210 235 210h263v-710zM167 500q0 -56 34.5 -90.5t111.5 -34.5h157v255h-157q-76 0 -111 -37t-35 -93z" />
    <glyph glyph-name="uni0430" unicode="&#x430;" horiz-adv-x="539" 
d="M214 -12q-77 0 -123 40t-46 107q0 79 70 118q54 27 168 41l93 11v8q0 69 -26 99t-84 30q-51 0 -81 -26t-33 -73h-91q5 77 60.5 123t143.5 46q103 0 150 -49.5t47 -158.5v-135q0 -114 17 -169h-89q-6 42 -8 91q-17 -48 -62 -75.5t-106 -27.5zM135 137q0 -37 26 -58t72 -21
q65 0 104.5 43.5t39.5 116.5v25l-136 -20q-55 -8 -80.5 -28.5t-25.5 -57.5z" />
    <glyph glyph-name="uni0431" unicode="&#x431;" horiz-adv-x="559" 
d="M309 500q96 0 150.5 -66t54.5 -183q0 -122 -62.5 -192.5t-166.5 -70.5q-124 0 -182 83t-58 268q0 149 43 230t161 102l85 15q38 7 52 17.5t15 34.5h74q0 -54 -21 -83t-79 -38l-81 -13q-93 -15 -132.5 -61t-39.5 -143v-52q38 152 187 152zM139 243q0 -88 37 -136.5
t103 -48.5q67 0 106 49.5t39 137.5q0 87 -37 136t-108 49t-105.5 -52.5t-34.5 -134.5z" />
    <glyph glyph-name="uni0432" unicode="&#x432;" horiz-adv-x="543" 
d="M90 0v500h228q77 0 121 -35.5t44 -97.5q0 -41 -25 -70.5t-69 -39.5q49 -5 81.5 -37.5t32.5 -82.5q0 -65 -44 -101t-130 -36h-239zM175 68h152q43 0 66.5 20t23.5 56q0 37 -24.5 57.5t-69.5 20.5h-148v-154zM175 288h133q88 0 88 74q0 69 -85 69h-136v-143z" />
    <glyph glyph-name="uni0433" unicode="&#x433;" horiz-adv-x="432" 
d="M412 420h-237v-420h-85v500h322v-80z" />
    <glyph glyph-name="uni0434" unicode="&#x434;" horiz-adv-x="586" 
d="M92 -140h-82v220h71q36 65 49 141q14 81 14 279h339v-420h83v-220h-82v140h-392v-140zM164 80h234v341h-180q-3 -120 -13 -199q-10 -76 -41 -142z" />
    <glyph glyph-name="uni0435" unicode="&#x435;" horiz-adv-x="535" 
d="M273 -12q-108 0 -168 66.5t-60 189.5q0 126 60 197t167 71q102 0 157.5 -58t55.5 -169v-60h-355q1 -73 41.5 -117.5t107.5 -44.5q99 0 133 95l70 -31q-53 -139 -209 -139zM130 294h269v11q0 68 -33.5 104t-95.5 36q-65 0 -101.5 -40t-38.5 -111z" />
    <glyph glyph-name="uni0436" unicode="&#x436;" horiz-adv-x="789" 
d="M356 0v217h-95l-141 -217h-105l177 263l-165 237h96l138 -214h95v214h77v-214h95l138 214h96l-165 -237l177 -263h-105l-141 217h-95v-217h-77z" />
    <glyph glyph-name="uni0437" unicode="&#x437;" horiz-adv-x="496" 
d="M257 -12q-86 0 -143 38.5t-69 111.5l85 11q19 -93 130 -93q50 0 81 21t31 66q0 80 -112 80h-76v69h73q103 0 103 72q0 40 -30 59t-77 19q-102 0 -122 -99l-86 11q14 80 70.5 119t142.5 39q81 0 133 -34.5t52 -102.5q0 -87 -90 -116q103 -25 103 -121q0 -69 -55.5 -109.5
t-143.5 -40.5z" />
    <glyph glyph-name="uni0438" unicode="&#x438;" horiz-adv-x="601" 
d="M90 0v500h82v-337v-96h4q10 40 31 80l182 353h122v-500h-82v349v84h-4q-10 -40 -31 -80l-182 -353h-122z" />
    <glyph glyph-name="uni0439" unicode="&#x439;" horiz-adv-x="601" 
d="M90 0v500h82v-337v-96h4q10 40 31 80l182 353h122v-500h-82v349v84h-4q-10 -40 -31 -80l-182 -353h-122z" />
    <glyph glyph-name="uni043A" unicode="&#x43a;" horiz-adv-x="527" 
d="M90 0v500h85v-214h91l138 214h96l-165 -237l177 -263h-105l-142 217h-90v-217h-85z" />
    <glyph glyph-name="uni043B" unicode="&#x43b;" horiz-adv-x="581" 
d="M20 -5v75q10 -2 21 -2q39 0 58 35t24 112q10 129 14 285h354v-501h-85v421h-193q-8 -138 -12 -209q-8 -119 -43 -169t-105 -50q-18 0 -33 3z" />
    <glyph glyph-name="uni043C" unicode="&#x43c;" horiz-adv-x="748" 
d="M549 354l-129 -354h-92l-129 354q-14 36 -25 79h-4v-91v-342h-80v500h139l125 -361q11 -31 19 -67h3q9 33 21 67l126 361h135v-500h-80v342v91h-4q-11 -43 -25 -79z" />
    <glyph glyph-name="uni043D" unicode="&#x43d;" horiz-adv-x="588" 
d="M175 500v-209h238v209h85v-500h-85v222h-238v-222h-85v500h85z" />
    <glyph glyph-name="uni043E" unicode="&#x43e;" horiz-adv-x="556" 
d="M278 -12q-106 0 -169.5 70.5t-63.5 191.5t63.5 191.5t169.5 70.5t169.5 -70.5t63.5 -191.5t-63.5 -191.5t-169.5 -70.5zM135 250q0 -92 37.5 -140t105.5 -48t105.5 48t37.5 140t-37.5 140t-105.5 48t-105.5 -48t-37.5 -140z" />
    <glyph glyph-name="uni043F" unicode="&#x43f;" horiz-adv-x="583" 
d="M90 0v500h403v-500h-85v420h-233v-420h-85z" />
    <glyph glyph-name="uni0440" unicode="&#x440;" horiz-adv-x="580" 
d="M90 -195v695h80v-93q49 105 163 105q91 0 146.5 -72t55.5 -190q0 -119 -57.5 -190.5t-149.5 -71.5q-55 0 -95 26t-58 65v-274h-85zM173 239q0 -81 36.5 -128.5t98.5 -47.5q64 0 100.5 49.5t36.5 137.5t-35.5 137.5t-98.5 49.5t-100.5 -46.5t-37.5 -127.5v-24z" />
    <glyph glyph-name="uni0441" unicode="&#x441;" horiz-adv-x="526" 
d="M275 -12q-105 0 -167.5 71t-62.5 191q0 122 61.5 192t168.5 70q88 0 142 -48t64 -134l-87 -10q-7 57 -38.5 87.5t-82.5 30.5q-65 0 -101.5 -49.5t-36.5 -137.5q0 -90 37 -139.5t104 -49.5q103 0 123 119l81 -13q-14 -86 -67.5 -133t-137.5 -47z" />
    <glyph glyph-name="uni0442" unicode="&#x442;" horiz-adv-x="484" 
d="M20 420v80h444v-80h-179v-420h-85v420h-180z" />
    <glyph glyph-name="uni0443" unicode="&#x443;" horiz-adv-x="487" 
d="M92 -200q-25 0 -46 4v75q13 -2 36 -2q45 0 71 21.5t43 70.5l13 37l-199 494h95l128 -348q11 -30 17 -59h2q4 18 17 59l116 348h92l-195 -532q-33 -91 -79 -129.5t-111 -38.5z" />
    <glyph glyph-name="uni0444" unicode="&#x444;" horiz-adv-x="806" 
d="M362 725h82v-294q41 81 136 81q94 0 137.5 -70.5t43.5 -191.5q0 -123 -44.5 -192.5t-137.5 -69.5q-88 0 -135 71v-255h-82v255q-47 -71 -135 -71q-93 0 -137.5 69.5t-44.5 192.5q0 121 43.5 191.5t137.5 70.5q95 0 136 -81v294zM135 250q0 -106 28 -151.5t84 -45.5
q58 0 86.5 39t28.5 106v100q0 64 -30.5 106.5t-82.5 42.5q-59 0 -86.5 -44.5t-27.5 -152.5zM444 198q0 -67 28.5 -106t86.5 -39q56 0 84 45.5t28 151.5q0 108 -27.5 152.5t-86.5 44.5q-52 0 -82.5 -42.5t-30.5 -106.5v-100z" />
    <glyph glyph-name="uni0445" unicode="&#x445;" horiz-adv-x="495" 
d="M15 0l181 258l-168 242h100l91 -141q25 -39 29 -52h1q6 16 28 52l86 141h104l-165 -248l178 -252h-101l-103 154q-24 37 -28 51h-1q-4 -13 -29 -51l-102 -154h-101z" />
    <glyph glyph-name="uni0446" unicode="&#x446;" horiz-adv-x="593" 
d="M90 0v500h85v-420h231v420h85v-420h82v-220h-82v140h-401z" />
    <glyph glyph-name="uni0447" unicode="&#x447;" horiz-adv-x="546" 
d="M135 367q0 -63 27 -89t97 -26q59 0 112 22v226h85v-500h-85v208q-59 -26 -139 -26q-95 0 -138.5 42.5t-43.5 138.5v137h85v-133z" />
    <glyph glyph-name="uni0448" unicode="&#x448;" horiz-adv-x="827" 
d="M652 500h85v-500h-647v500h85v-420h196v420h85v-420h196v420z" />
    <glyph glyph-name="uni0449" unicode="&#x449;" horiz-adv-x="838" 
d="M652 500h85v-420h81v-220h-82v140h-646v500h85v-420h196v420h85v-420h196v420z" />
    <glyph glyph-name="uni044A" unicode="&#x44a;" horiz-adv-x="597" 
d="M20 420v80h235v-170h122q86 0 133 -43t47 -122q0 -80 -47.5 -122.5t-132.5 -42.5h-207v420h-150zM255 69h108q109 0 109 96q0 97 -109 97h-108v-193z" />
    <glyph glyph-name="uni044B" unicode="&#x44b;" horiz-adv-x="517" 
d="M477 165q0 -80 -47.5 -122.5t-132.5 -42.5h-207v500h85v-170h122q86 0 133 -43t47 -122zM175 69h108q109 0 109 96q0 97 -109 97h-108v-193z" />
    <glyph glyph-name="uni044C" unicode="&#x44c;" horiz-adv-x="517" 
d="M477 165q0 -80 -47.5 -122.5t-132.5 -42.5h-207v500h85v-170h122q86 0 133 -43t47 -122zM175 69h108q109 0 109 96q0 97 -109 97h-108v-193z" />
    <glyph glyph-name="uni044D" unicode="&#x44d;" horiz-adv-x="512" 
d="M244 -12q-82 0 -136.5 43t-62.5 113l79 10q21 -97 123 -97q67 0 98.5 38t35.5 126h-203v69h203q-6 79 -38 117t-96 38q-96 0 -122 -100l-80 10q14 77 69 117t133 40q111 0 165.5 -71.5t54.5 -190.5q0 -122 -57.5 -192t-165.5 -70z" />
    <glyph glyph-name="uni044E" unicode="&#x44e;" horiz-adv-x="768" 
d="M490 -12q-99 0 -161 62.5t-69 171.5h-85v-222h-85v500h85v-209h86q10 103 71.5 162t157.5 59q106 0 169.5 -70.5t63.5 -191.5t-63.5 -191.5t-169.5 -70.5zM84 593v107h97v-107h-97zM347 250q0 -92 37.5 -140t105.5 -48t105.5 48t37.5 140t-37.5 140t-105.5 48t-105.5 -48
t-37.5 -140z" />
    <glyph glyph-name="uni044F" unicode="&#x44f;" horiz-adv-x="553" 
d="M57 345q0 75 49.5 115t133.5 40h223v-500h-85v189h-106l-124 -189h-98l132 195q-59 12 -92 50.5t-33 99.5zM147 345q0 -88 104 -88h127v174h-127q-104 0 -104 -86z" />
    <glyph glyph-name="uni0451" unicode="&#x451;" horiz-adv-x="535" 
d="M273 -12q-108 0 -168 66.5t-60 189.5q0 126 60 197t167 71q102 0 157.5 -58t55.5 -169v-60h-355q1 -73 41.5 -117.5t107.5 -44.5q99 0 133 95l70 -31q-53 -139 -209 -139zM130 294h269v11q0 68 -33.5 104t-95.5 36q-65 0 -101.5 -40t-38.5 -111z" />
    <glyph glyph-name="uni0454" unicode="&#x454;" horiz-adv-x="513" 
d="M332 290v-69h-201q12 -164 139 -164q95 0 116 97l78 -10q-5 -67 -60 -111.5t-134 -44.5q-110 0 -167.5 69.5t-57.5 192.5q0 120 55.5 191t170.5 71q78 0 131.5 -44.5t65.5 -111.5l-83 -11q-14 51 -43 74.5t-80 23.5q-118 0 -130 -153h200z" />
    <glyph glyph-name="uni0455" unicode="&#x455;" horiz-adv-x="502" 
d="M260 -12q-89 0 -145.5 40t-69.5 114l86 15q9 -47 43 -73t89 -26q49 0 76.5 21.5t27.5 54.5q0 32 -18 48t-54 22l-98 18q-133 25 -133 140q0 66 51.5 108t138.5 42q84 0 137.5 -36t60.5 -99l-84 -19q-9 39 -39 62t-79 23q-48 0 -75.5 -20t-27.5 -57q0 -57 77 -71l97 -18
q130 -25 130 -136q0 -69 -50.5 -111t-140.5 -42z" />
    <glyph glyph-name="uni0458" unicode="&#x458;" horiz-adv-x="263" 
d="M46 -202q-39 0 -61 6v73q29 -2 49 -2q29 0 41.5 17.5t12.5 66.5v541h85v-550q0 -152 -127 -152zM82 593v107h97v-107h-97z" />
    <glyph glyph-name="Wgrave" unicode="&#x1e80;" horiz-adv-x="912" 
d="M194 0l-169 710h97l123 -572q4 -21 6 -39h3q1 12 8 39l146 572h96l146 -572q7 -27 8 -39h3q2 18 6 39l123 572h97l-169 -710h-116l-138 554q-5 20 -6 33h-4q-1 -13 -6 -33l-138 -554h-116z" />
    <glyph glyph-name="wgrave" unicode="&#x1e81;" horiz-adv-x="732" 
d="M166 0l-141 500h88l90 -357q7 -30 11 -59h2q0 2 13 59l91 357h92l91 -357q13 -57 13 -59h2q4 29 11 59l90 357h88l-141 -500h-93l-95 360q-8 30 -11 56h-2q-3 -26 -11 -56l-95 -360h-93z" />
    <glyph glyph-name="Wacute" unicode="&#x1e82;" horiz-adv-x="912" 
d="M194 0l-169 710h97l123 -572q4 -21 6 -39h3q1 12 8 39l146 572h96l146 -572q7 -27 8 -39h3q2 18 6 39l123 572h97l-169 -710h-116l-138 554q-5 20 -6 33h-4q-1 -13 -6 -33l-138 -554h-116z" />
    <glyph glyph-name="wacute" unicode="&#x1e83;" horiz-adv-x="732" 
d="M166 0l-141 500h88l90 -357q7 -30 11 -59h2q0 2 13 59l91 357h92l91 -357q13 -57 13 -59h2q4 29 11 59l90 357h88l-141 -500h-93l-95 360q-8 30 -11 56h-2q-3 -26 -11 -56l-95 -360h-93z" />
    <glyph glyph-name="Wdieresis" unicode="&#x1e84;" horiz-adv-x="912" 
d="M194 0l-169 710h97l123 -572q4 -21 6 -39h3q1 12 8 39l146 572h96l146 -572q7 -27 8 -39h3q2 18 6 39l123 572h97l-169 -710h-116l-138 554q-5 20 -6 33h-4q-1 -13 -6 -33l-138 -554h-116z" />
    <glyph glyph-name="wdieresis" unicode="&#x1e85;" horiz-adv-x="732" 
d="M166 0l-141 500h88l90 -357q7 -30 11 -59h2q0 2 13 59l91 357h92l91 -357q13 -57 13 -59h2q4 29 11 59l90 357h88l-141 -500h-93l-95 360q-8 30 -11 56h-2q-3 -26 -11 -56l-95 -360h-93z" />
    <glyph glyph-name="Ygrave" unicode="&#x1ef2;" horiz-adv-x="598" 
d="M251 0v283l-241 427h106l163 -301q15 -28 19 -41h2q4 13 19 41l163 301h106l-241 -427v-283h-96z" />
    <glyph glyph-name="ygrave" unicode="&#x1ef3;" horiz-adv-x="487" 
d="M92 -200q-25 0 -46 4v75q13 -2 36 -2q45 0 71 21.5t43 70.5l13 37l-199 494h95l128 -348q11 -30 17 -59h2q4 18 17 59l116 348h92l-195 -532q-33 -91 -79 -129.5t-111 -38.5z" />
    </font>
</defs>
</svg>
