<?xml version="1.0" standalone="no"?>
<!DOCTYPE svg PUBLIC "-//W3C//DTD SVG 1.1//EN" "http://www.w3.org/Graphics/SVG/1.1/DTD/svg11.dtd" >
<svg xmlns="http://www.w3.org/2000/svg" xmlns:xlink="http://www.w3.org/1999/xlink" version="1.1">
<metadata>
Created by FontForge 20201107 at Tue Nov  4 15:52:17 2025
 By 
Copyright (c) 2023 by Pangram Pangram. All rights reserved.
</metadata>
<defs>
<font id="PPEditorialOld-Regular" horiz-adv-x="1925" >
  <font-face 
    font-family="PP Editorial Old"
    font-weight="400"
    font-stretch="normal"
    units-per-em="2048"
    panose-1="0 0 0 0 0 0 0 0 0 0"
    ascent="1638"
    descent="-410"
    x-height="1096"
    cap-height="1649"
    bbox="-199 -606.088 3201 2224"
    underline-thickness="71"
    underline-position="-214"
    unicode-range="U+0020-FB02"
  />
<missing-glyph horiz-adv-x="1064" 
d="M872 1679v-2130h-673v2130h673zM356 -303h353v70h-217l149 100h68v70h-353v-70h148l-148 -100v-70zM356 -14h353v241h-353v-241zM356 354h353v242h-213v-121h73v49h70v-100h-213v172h-70v-242zM356 643h353v213h-70v-141h-283v-72zM356 764h213v149h140v70h-353v-70h140
v-79h-140v-70zM356 1040h353v72h-140v150h-213v-222zM356 1317h353v72h-140v77h140v70h-351v-70h138v-77h-140v-72zM426 57v99h213v-99h-213zM426 1112v78h70v-78h-70z" />
    <glyph glyph-name="f_f" unicode="ff" horiz-adv-x="1273" 
d="M242 0q-32 0 -112 -5t-122 -5q-15 0 -20.5 4t-5.5 14q0 17 26 17q102 0 146.5 41.5t44.5 166.5v752q0 28 -17 45t-45 17h-96q-31 0 -31 16q0 18 31 18q169 0 188 86q22 143 87 243.5t152.5 147t190.5 46.5q89 0 167 -27.5t128 -79.5q74 101 167.5 155t172.5 54
q50 0 78.5 -28t28.5 -68q0 -45 -26.5 -78t-74.5 -33q-32 0 -107.5 22.5t-105.5 22.5q-96 0 -96 -207v-198q0 -64 72 -64q33 0 109 13.5t92 13.5q32 0 32 -29q0 -26 -36 -26h-207q-27 0 -44.5 -17.5t-17.5 -44.5v-752q0 -64 17.5 -106.5t53 -64t77.5 -29.5t102 -8
q35 0 35 -17q0 -18 -37 -18q-44 0 -151.5 5t-151.5 5h-96q-32 0 -98 -3.5t-93 -4.5q-4 -2 -16 -2h-21h-20q-13 0 -17 2q-27 1 -110.5 4.5t-120.5 3.5h-102zM397 233q0 -116 54 -160.5t161 -47.5q97 3 139 46t42 162l2 752q0 28 -18 45t-46 17h-272q-27 0 -44.5 -17.5
t-17.5 -44.5v-752zM397 1139q0 -34 23 -46t80 -12h86q44 0 65.5 0.5t51 4.5t42.5 11.5t29 21.5t22 36t10.5 53t4.5 74q0 134 -50 201t-138 67q-39 0 -77 -17t-72.5 -51.5t-55.5 -98t-21 -146.5v-98z" />
    <glyph glyph-name="f_f_i" unicode="ffi" horiz-adv-x="1777" 
d="M838 0q-31 0 -97 -3.5t-92 -4.5q-4 -2 -16 -2h-23h-20q-13 0 -17 2q-27 1 -109.5 4.5t-119.5 3.5h-102q-32 0 -112 -5t-122 -5q-15 0 -20.5 4t-5.5 14q0 17 26 17q102 0 146.5 41.5t44.5 166.5v752q0 28 -17 45t-45 17h-96q-31 0 -31 16q0 18 31 18q169 0 188 86
q22 143 87 243.5t152.5 147t190.5 46.5q204 0 314 -127q105 110 246.5 169.5t253.5 59.5q49 0 77.5 -28t28.5 -68q0 -45 -28.5 -78t-82.5 -33q-55 0 -168 18.5t-137 18.5q-76 0 -125 -67t-49 -175v-155q0 -30 18.5 -42t53.5 -12h258q45 0 134 19.5t122 19.5q14 0 23 -11
t8 -26q0 -3 -9.5 -169t-9.5 -244v-441q0 -64 13.5 -106.5t40.5 -64t59 -29.5t78 -8q26 0 26 -17q0 -18 -28 -18q-32 0 -115 5t-119 5h-115q-31 0 -97.5 -4.5t-96.5 -5.5h-8h-6h-7h-6q-31 1 -128.5 5.5t-141.5 4.5h-98zM397 233q0 -116 53.5 -160.5t159.5 -47.5q97 3 139 46
t42 162l2 752q0 28 -18 45t-46 17h-270q-27 0 -44.5 -17.5t-17.5 -44.5v-752zM397 1139q0 -34 23 -46t80 -12h86q44 0 65.5 0.5t51 4.5t42.5 11.5t29 21.5t22 36t10.5 53t4.5 74q0 134 -50 201t-138 67q-39 0 -77 -17t-72.5 -51.5t-55.5 -98t-21 -146.5v-98zM989 233
q0 -63 16 -104.5t48.5 -63.5t71 -30.5t94.5 -9.5q60 1 94 16.5t54.5 61.5t21.5 130v676q0 71 -20.5 104.5t-90.5 33.5h-227q-27 0 -44.5 -17.5t-17.5 -44.5v-752z" />
    <glyph glyph-name="f_i" unicode="fi" horiz-adv-x="1198" 
d="M258 0q-36 0 -120.5 -5t-127.5 -5q-17 0 -23.5 4t-6.5 14q0 17 28 17q54 0 89 8t62.5 30t39.5 63.5t12 106.5l2 752q0 28 -17.5 45t-45.5 17h-95q-30 0 -30 16q0 18 30 18q82 0 129 24.5t58 88.5q21 100 76.5 187t126.5 145t153 100t157 61t138 19q49 0 77.5 -28
t28.5 -68q0 -45 -28.5 -78t-81.5 -33q-55 0 -168 18.5t-137 18.5q-76 0 -125 -67t-49 -175v-155q0 -30 18 -42t53 -12h258q45 0 134 19.5t122 19.5q14 0 23 -11t8 -26q-1 -31 -6 -114.5t-8.5 -162t-3.5 -136.5v-441q0 -123 47.5 -165.5t142.5 -42.5q27 0 27 -17
q0 -18 -29 -18q-32 0 -115 5t-118 5h-115q-31 0 -98 -4.5t-97 -5.5h-8h-6h-6h-6q-31 1 -129 5.5t-142 4.5h-98zM410 233q0 -63 16 -104.5t48 -63.5t70.5 -30.5t94.5 -9.5q60 1 94 16.5t54.5 61.5t21.5 130v676q0 71 -20.5 104.5t-90.5 33.5h-227q-27 0 -44 -17.5t-17 -44.5
v-752z" />
    <glyph glyph-name="f_l" unicode="fl" horiz-adv-x="1212" 
d="M258 0q-36 0 -120.5 -5t-127.5 -5q-17 0 -23.5 4t-6.5 14q0 17 28 17q54 0 89 8t62.5 30t39.5 63.5t12 106.5l2 752q0 28 -17.5 45t-45.5 17h-95q-30 0 -30 16q0 18 30 18q82 0 129 24.5t58 88.5q31 116 80 202t114 144t152.5 93.5t187.5 51t228 15.5q34 0 34 -37
q0 -44 -6 -259t-8 -482v-689q0 -64 12.5 -106.5t38.5 -64t57 -29.5t76 -8q25 0 25 -17q0 -18 -27 -18q-33 0 -112.5 5t-112.5 5h-115q-32 0 -108 -5t-117 -5h-6h-6q-39 0 -134.5 5t-134.5 5h-102zM410 233q0 -64 15.5 -106.5t47 -64t68 -29.5t90.5 -8h4h4q100 0 143 41.5
t43 166.5v1082q0 153 -47.5 214.5t-138.5 61.5q-229 0 -229 -336v-116q0 -64 71 -64q33 0 109 13.5t92 13.5q33 0 33 -29q0 -26 -37 -26h-207q-27 0 -44 -17.5t-17 -44.5v-752z" />
    <glyph glyph-name=".notdef" horiz-adv-x="1064" 
d="M872 1679v-2130h-673v2130h673zM356 -303h353v70h-217l149 100h68v70h-353v-70h148l-148 -100v-70zM356 -14h353v241h-353v-241zM356 354h353v242h-213v-121h73v49h70v-100h-213v172h-70v-242zM356 643h353v213h-70v-141h-283v-72zM356 764h213v149h140v70h-353v-70h140
v-79h-140v-70zM356 1040h353v72h-140v150h-213v-222zM356 1317h353v72h-140v77h140v70h-351v-70h138v-77h-140v-72zM426 57v99h213v-99h-213zM426 1112v78h70v-78h-70z" />
    <glyph glyph-name=".null" horiz-adv-x="0" 
 />
    <glyph glyph-name="nonmarkingreturn" horiz-adv-x="682" 
 />
    <glyph glyph-name="space" unicode=" " horiz-adv-x="425" 
 />
    <glyph glyph-name="space" unicode="&#xa0;" horiz-adv-x="425" 
 />
    <glyph glyph-name="exclam" unicode="!" horiz-adv-x="452" 
d="M119 1544q0 135 108 135q52 0 80.5 -34.5t28.5 -100.5q0 -80 -21.5 -232t-44 -391.5t-24.5 -527.5q0 -31 -17 -31q-18 0 -18 31q0 225 -14.5 426.5t-31.5 316.5t-31.5 227.5t-14.5 180.5zM106 88q0 50 35 85.5t86 35.5q49 0 85 -35.5t36 -85.5q0 -51 -35.5 -86t-85.5 -35
q-51 0 -86 35t-35 86z" />
    <glyph glyph-name="quotedbl" unicode="&#x22;" horiz-adv-x="632" 
d="M109 1577q0 102 81 102q82 0 82 -102q0 -52 -27.5 -206t-31.5 -249q0 -17 -10 -23.5t-20 0t-11 23.5q-4 96 -33.5 249.5t-29.5 205.5zM360 1577q0 48 21 75t61 27q82 0 82 -102q0 -52 -27.5 -206t-31.5 -249q0 -17 -10 -23.5t-20 0t-11 23.5q-4 96 -34 249.5t-30 205.5z
" />
    <glyph glyph-name="numbersign" unicode="#" horiz-adv-x="1597" 
d="M752 1624q6 22 17 34.5t22 12.5q33 0 18 -47l-102 -354q-9 -31 5.5 -50.5t45.5 -19.5h305q32 0 57.5 19.5t34.5 50.5l102 354q6 22 18 34.5t23 12.5q32 0 17 -47l-103 -354q-9 -31 6 -50.5t46 -19.5h217q35 0 35 -29q0 -8 -9 -17t-26 -9h-236q-31 0 -57 -19.5t-35 -48.5
l-135 -467q-9 -31 5.5 -50t45.5 -19h268q35 0 35 -29q0 -8 -9 -17.5t-26 -9.5h-284q-31 0 -57 -19.5t-35 -49.5l-117 -404q-12 -45 -39 -45q-15 0 -19.5 17.5t0.5 27.5l117 404q9 31 -5 49t-46 18l-305 2q-31 0 -57 -19.5t-35 -49.5l-117 -404q-12 -45 -41 -45
q-15 0 -18 17.5t2 27.5l118 404q8 31 -6.5 49t-46.5 18l-233 2q-15 0 -24 9.5t-9 17.5q0 29 33 29h249q32 0 58 19t35 50l137 467q8 30 -6.5 49t-46.5 19h-283q-15 0 -24 9t-9 17q0 29 33 29h301q32 0 57.5 19.5t34.5 50.5zM512 610q-9 -31 5.5 -50t45.5 -19h305q32 0 58 19
t35 50l135 467q9 29 -5.5 48.5t-46.5 19.5h-305q-31 0 -57 -19.5t-35 -48.5z" />
    <glyph glyph-name="dollar" unicode="$" horiz-adv-x="1097" 
d="M172 -27q-20 0 -20 29q1 65 -30.5 263t-35.5 296q0 19 14 19q15 0 21 -21q24 -105 54.5 -189t74.5 -162.5t106.5 -129.5t139.5 -66q20 -3 32.5 8t12.5 31l4 604q0 56 -37 82q-189 141 -249 195q-120 111 -145 222q-8 36 -8 75q0 163 108.5 257.5t281.5 108.5
q20 1 31.5 14t11.5 33v64q0 31 22 31q21 0 21 -29q0 -12 -1 -34t-1 -32q0 -20 11.5 -33t31.5 -14q49 -2 115 -9t85 -7q27 0 48 6t30 6q23 0 23 -30q0 -43 2.5 -94.5t7 -109.5t8 -99t9.5 -100.5t7 -74.5q3 -34 -14 -34q-16 0 -22 30q-20 98 -43 170t-57.5 138.5t-84.5 107.5
t-114 55q-20 3 -32.5 -7t-12.5 -30l-5 -487q0 -25 12.5 -50t32.5 -40q93 -71 153.5 -125.5t113 -120.5t76.5 -137.5t24 -155.5q0 -174 -98.5 -289t-263.5 -137q-20 -1 -31.5 -14.5t-11.5 -34.5q0 -9 1 -28.5t1 -28.5q0 -31 -23 -31q-12 0 -16 7t-4 22v59q0 20 -11.5 33
t-31.5 14q-64 2 -141 10.5t-99 8.5q-24 0 -49 -7.5t-35 -7.5zM264 1341q0 -41 14.5 -80.5t33 -67t57.5 -63.5t63.5 -55t75.5 -57q37 -23 37 18l-4 477q0 20 -12.5 32t-32.5 11q-112 -12 -172 -69t-60 -146zM573 641l5 -590q0 -20 12.5 -31.5t32.5 -9.5q56 10 97.5 39.5
t63.5 69.5t32.5 81t10.5 83q0 61 -19.5 118.5t-55 105.5t-68.5 82.5t-76 69.5q-15 12 -25 7t-10 -25z" />
    <glyph glyph-name="percent" unicode="%" horiz-adv-x="1591" 
d="M274 -33q-19 2 -16.5 17.5t21.5 44.5q531 830 956 1534q17 28 11.5 38.5t-32.5 4.5q-204 -52 -290 -52q-128 0 -312 48q-33 9 -38.5 -4t16.5 -44q78 -113 78 -297q0 -174 -82 -295.5t-199 -121.5q-120 0 -202.5 121t-82.5 296q0 178 82.5 300t202.5 122q49 0 140 -23
t199 -46t198 -23q60 0 151.5 21t161.5 42t78 21q13 0 18 -8t1 -22t-15 -31q-527 -823 -1002 -1610q-12 -20 -20.5 -26.5t-22.5 -6.5zM250 1257q0 -77 7 -143t22 -122.5t43 -89t65 -32.5q69 0 101 111t32 276q0 79 -7 146t-22 124t-41.5 89.5t-62.5 32.5q-37 0 -65 -32.5
t-43 -89.5t-22 -124t-7 -146zM924 387q0 178 82 300t202 122q117 0 199 -122t82 -300q0 -177 -82 -298.5t-199 -121.5q-120 0 -202 121.5t-82 298.5zM1071 387q0 -78 7 -144.5t22 -123t43 -89t65 -32.5q36 0 62.5 32.5t41.5 89t22 123t7 144.5q0 79 -7 146t-22 123.5
t-41.5 89t-62.5 32.5q-37 0 -65 -32.5t-43 -89t-22 -123.5t-7 -146z" />
    <glyph glyph-name="ampersand" unicode="&#x26;" horiz-adv-x="1636" 
d="M553 -31q-129 0 -235.5 45t-174 138.5t-67.5 220.5q0 47 11.5 90.5t26.5 76.5t46.5 68t55 57t69 53.5t71.5 47.5t79 48q3 2 5 3q22 12 29 34.5t-2 45.5q-94 228 -94 389q0 99 34 179.5t92 131t131 77t154 26.5q155 0 265 -81t110 -173q0 -55 -30 -81t-76 -26
q-41 0 -71 26.5t-30 74.5q0 108 -41 162.5t-137 54.5q-94 0 -156.5 -83t-62.5 -210q0 -63 22.5 -147.5t48 -151.5t74 -164.5t71 -138l67.5 -121.5q94 -167 190 -293q15 -20 33.5 -19t32.5 21q137 223 137 361q0 55 -21 103t-42 85.5t-21 67.5q0 40 25.5 61t56.5 21
q69 0 103 -53.5t34 -137.5q0 -63 -21.5 -133t-62.5 -145t-76 -129t-86 -127q-15 -20 -13.5 -43.5t19.5 -40.5q100 -93 187 -93q72 0 133 67.5t117 227.5q9 33 22 33q15 0 6 -33q-30 -115 -59.5 -192t-71 -141.5t-97 -95.5t-128.5 -31q-126 0 -248 110q-19 19 -41 19t-39 -17
q-148 -125 -354 -125zM281 455q0 -94 32.5 -175.5t85.5 -135t120 -83.5t136 -30q127 0 226 90q19 17 19 39t-17 41q-111 127 -246 360q-65 114 -111 209q-10 22 -29 25.5t-38 -11.5q-95 -79 -136.5 -154.5t-41.5 -174.5z" />
    <glyph glyph-name="quotesingle" unicode="'" horiz-adv-x="380" 
d="M109 1577q0 102 81 102q82 0 82 -102q0 -52 -27.5 -206t-31.5 -249q0 -17 -10 -23.5t-20 0t-11 23.5q-4 96 -33.5 249.5t-29.5 205.5z" />
    <glyph glyph-name="parenleft" unicode="(" horiz-adv-x="737" 
d="M666 -481q-55 0 -105 41q-198 156 -320 444.5t-122 607.5q0 376 137 682.5t356 460.5q24 12 31 12q15 0 -2 -22q-3 -5 -12 -16q-171 -179 -277 -456.5t-106 -572.5q0 -216 57.5 -410.5t147 -334.5t208.5 -250q42 -40 60 -65t18 -52q0 -28 -20.5 -48.5t-50.5 -20.5z" />
    <glyph glyph-name="parenright" unicode=")" horiz-adv-x="737" 
d="M72 1765q54 0 104 -41q198 -156 320 -444.5t122 -607.5q0 -376 -137 -682.5t-356 -460.5q-24 -12 -31 -12q-15 0 3 23q3 5 12 16q171 179 277 456.5t106 571.5q0 317 -114.5 570.5t-299.5 424.5q-42 40 -60 65t-18 52q0 28 21 48.5t51 20.5z" />
    <glyph glyph-name="asterisk" unicode="*" horiz-adv-x="905" 
d="M453 848q-38 0 -63 26.5t-25 69.5q0 40 32 109.5t41 120.5q6 29 -14 39t-43 -9q-41 -33 -85 -94t-79 -82q-25 -14 -53 -14q-51 0 -76 43q-10 23 -10 45q0 51 51 80q34 19 111.5 25.5t126.5 23.5q29 9 28 32.5t-30 34.5q-50 19 -126 27t-110 27q-51 29 -51 82q0 23 10 43
q27 45 76 45q28 0 53 -17q29 -17 51.5 -45.5t50.5 -67.5t62 -69q22 -19 43.5 -7t15.5 42q-9 52 -42 121.5t-33 111.5q0 43 25 70t63 27t63 -27t25 -70q0 -41 -31 -110.5t-39 -122.5q-6 -29 13.5 -41.5t41.5 6.5q41 35 84.5 98.5t77.5 83.5q25 17 53 17q49 0 76 -45
q12 -18 12 -43q0 -52 -53 -82q-33 -19 -108.5 -27t-124.5 -27q-31 -10 -31 -34t29 -33q48 -17 125 -23.5t110 -25.5q53 -30 53 -80q0 -24 -12 -45q-25 -43 -76 -43q-28 0 -53 14q-34 20 -77.5 81.5t-84.5 94.5q-23 19 -42 9t-13 -39q8 -52 39 -121.5t31 -108.5
q0 -43 -25 -69.5t-63 -26.5z" />
    <glyph glyph-name="plus" unicode="+" horiz-adv-x="983" 
d="M123 590q-22 0 -31 12t0 24.5t31 12.5h299q20 0 32.5 12.5t12.5 32.5v299q0 22 12.5 31t24.5 0t12 -31v-299q0 -20 12.5 -32.5t32.5 -12.5h299q22 0 31 -12.5t0 -24.5t-31 -12h-299q-20 0 -32.5 -12.5t-12.5 -32.5v-299q0 -22 -12 -31t-24.5 0t-12.5 31v299
q0 20 -12.5 32.5t-32.5 12.5h-299z" />
    <glyph glyph-name="comma" unicode="," horiz-adv-x="473" 
d="M205 -39q-57 0 -88 35.5t-31 85.5q0 56 37 92.5t100 36.5q70 0 114 -50t44 -132q0 -45 -13 -97.5t-38 -103t-65.5 -93.5t-90.5 -63q-32 -11 -53 5.5t-21 39.5q0 21 23 33q84 37 152.5 106t68.5 126q0 41 -25 41q-7 0 -16.5 -9.5t-19 -21.5t-30.5 -21.5t-48 -9.5z" />
    <glyph glyph-name="hyphen" unicode="-" horiz-adv-x="806" 
d="M117 541q-35 0 -35 24q0 29 35 29h573q35 0 35 -27q0 -26 -35 -26h-573z" />
    <glyph glyph-name="period" unicode="." horiz-adv-x="446" 
d="M223 -33q-51 0 -86 35t-35 86q0 50 35 85.5t86 35.5q49 0 85 -35.5t36 -85.5q0 -51 -35.5 -86t-85.5 -35z" />
    <glyph glyph-name="slash" unicode="/" horiz-adv-x="587" 
d="M551 1671q10 29 35 29q13 0 19.5 -8t2.5 -21l-545 -1640q-12 -41 -40 -41q-18 0 -21 11t4 30z" />
    <glyph glyph-name="zero" unicode="0" horiz-adv-x="1179" 
d="M590 -31q-159 0 -273 116.5t-168.5 307.5t-54.5 432q0 238 54.5 426.5t168.5 304t273 115.5q158 0 271.5 -115.5t167.5 -304t54 -426.5q0 -179 -31.5 -333.5t-92 -271.5t-155.5 -184t-214 -67zM334 825q0 -397 60 -609t196 -212q256 0 256 821q0 811 -256 811t-256 -811z
" />
    <glyph glyph-name="one" unicode="1" horiz-adv-x="768" 
d="M504 233q0 -52 11.5 -89.5t31.5 -60t51.5 -36t65 -18t79.5 -4.5q33 0 33 -17q0 -18 -35 -18q-42 0 -145 5t-145 5h-97q-44 0 -151 -5t-164 -5q-37 0 -37 18q0 17 37 17q69 0 113 8t79 30t50.5 63.5t15.5 106.5v1086q0 78 -15 108.5t-53 30.5q-81 0 -221 -98
q-36 -18 -43 -4q-9 18 29 39q322 189 360 213q18 10 41 24.5t36 22.5t26.5 14t23.5 6q35 0 35 -47q0 -87 -6 -268.5t-6 -274.5v-852z" />
    <glyph glyph-name="two" unicode="2" horiz-adv-x="1067" 
d="M713 176q45 0 74 3.5t60.5 16t53 35t45.5 61.5t45 95t45 135q6 29 25 29q11 0 14.5 -9t-0.5 -24q-33 -116 -61 -205q-17 -63 -25.5 -116t-10 -80t-1.5 -74q0 -27 -10.5 -40t-36.5 -13q-19 0 -95.5 5t-136.5 5h-364q-95 0 -178 -5t-84 -5q-39 0 -46 22t21 51
q92 100 155 170.5t140 163t128 164t103.5 158t83 161t49.5 156.5t19 160q0 136 -61 216.5t-183 80.5q-149 0 -240 -122.5t-91 -330.5q0 -28 -17 -28q-18 0 -18 28q0 283 132 457t339 174q176 0 271 -104.5t95 -268.5q0 -71 -21 -148t-52 -144t-84 -146t-98 -137t-114 -135
t-113 -122t-114 -115.5t-98 -100.5q-29 -31 -24.5 -52.5t45.5 -21.5h434z" />
    <glyph glyph-name="three" unicode="3" horiz-adv-x="970" 
d="M33 129q0 37 25.5 60.5t64.5 23.5q26 0 48.5 -12.5t35 -26.5t31.5 -39q8 -9 28.5 -39t34.5 -45.5t41.5 -31t58.5 -15.5q46 0 90 25.5t82.5 75.5t62 136t23.5 195q0 110 -31.5 191t-87 126t-120 66t-139.5 21q-37 0 -37 20q0 8 9.5 16t27.5 11q170 41 253.5 130.5
t83.5 248.5q0 114 -57.5 186t-175.5 72q-121 0 -198.5 -73.5t-80.5 -162.5q-3 -39 -18 -39q-18 0 -18 33q4 67 32 134.5t76.5 125t124.5 93.5t166 36q161 0 265 -96.5t104 -261.5q0 -63 -24 -117t-72 -99t-102 -80t-130 -73q-43 -22 -40 -40t54 -27q73 -14 138 -46.5
t118.5 -82.5t85 -124t31.5 -161q0 -149 -75 -263.5t-196.5 -173.5t-267.5 -59q-129 0 -227 44.5t-98 117.5z" />
    <glyph glyph-name="four" unicode="4" horiz-adv-x="1126" 
d="M184 645q-23 -32 -12 -52t51 -20h365q28 0 44.5 17t16.5 45v381q0 17 11 28t30 11h127q19 0 30 -11t11 -28v-395q0 -22 12.5 -35t34.5 -13h111q19 0 30 -11t11 -30v-83q0 -17 -11 -28t-30 -11h-111q-21 0 -34 -14t-13 -36v-127q0 -64 14.5 -106.5t45 -64t66.5 -29.5
t89 -8q29 0 29 -17q0 -18 -31 -18q-38 0 -131 5t-131 5h-104q-42 0 -144 -5t-155 -5q-37 0 -37 18q0 17 34 17q65 0 107.5 8t75.5 30t48 63.5t15 106.5v127q0 22 -13 36t-34 14h-254q-55 0 -139 -6.5t-105 -6.5q-31 0 -51 15t-20 43q0 29 24 65q279 436 401 662.5t152 345.5
q40 135 152 135q51 0 79.5 -27.5t28.5 -74.5q0 -32 -26 -75.5t-86.5 -117t-134 -160t-195.5 -240.5t-244 -323z" />
    <glyph glyph-name="five" unicode="5" horiz-adv-x="1007" 
d="M375 -33q-82 0 -158.5 18.5t-128 56.5t-51.5 87q0 37 25 60.5t63 23.5q76 0 119 -84q30 -63 67 -94t105 -31q104 0 183 146t79 409q0 215 -68.5 322.5t-183.5 107.5q-119 0 -197 -104q-22 -28 -46 -13t-15 56l135 606q3 14 6.5 35.5t6 32.5t7 23t12 17t19.5 5t53.5 -4.5
t75.5 -4.5h258q46 0 94 5.5t54 5.5q22 0 22 -50q0 -46 -30.5 -94.5t-73.5 -48.5h-404q-47 0 -72 -18t-34 -64l-70 -344q-7 -32 6.5 -38t34.5 14q101 96 246 96q173 0 289.5 -139.5t116.5 -362.5q0 -152 -45.5 -275t-122.5 -200t-174 -117.5t-203 -40.5z" />
    <glyph glyph-name="six" unicode="6" horiz-adv-x="1114" 
d="M582 -33q-230 0 -359 185.5t-129 492.5q0 162 35 308.5t105 270t170.5 218t237 154.5t298.5 77q49 6 49 -10q0 -11 -39 -23q-150 -38 -273.5 -143t-205 -249t-127.5 -320q-8 -38 -3.5 -39.5t19.5 35.5q55 102 132 150t159 48q97 0 173.5 -42.5t124 -116t71.5 -167.5
t24 -202q0 -94 -17.5 -183.5t-55 -170.5t-90.5 -141.5t-130 -96t-169 -35.5zM324 610q0 -276 74 -442t198 -166q113 0 164 137.5t51 403.5q0 493 -252 493q-31 0 -61.5 -13t-62.5 -44.5t-56 -79t-39.5 -122t-15.5 -167.5z" />
    <glyph glyph-name="seven" unicode="7" horiz-adv-x="1040" 
d="M397 -33q-32 0 -55.5 16.5t-30.5 49.5t15 82l520 1235q26 51 26 77q0 37 -53 37h-446q-50 0 -80.5 -4.5t-61.5 -22t-48 -51t-29.5 -91.5t-16.5 -144q0 -31 -20 -31q-13 0 -13 31q0 14 6.5 108.5t6.5 176.5q0 42 -4 94.5t-4 68.5q0 26 7.5 38t26.5 12q28 0 105 -5.5
t135 -5.5h328q50 0 122 5.5t93 5.5q35 0 35 -25q0 -15 -17 -61l-448 -1510q-26 -86 -99 -86z" />
    <glyph glyph-name="eight" unicode="8" horiz-adv-x="1079" 
d="M553 1671q177 0 285 -88t108 -240q0 -45 -14 -85.5t-34 -71t-56.5 -65.5t-66.5 -58.5t-78 -59.5q-18 -13 -27 -20q-26 -20 -27 -46t23 -48q81 -71 133.5 -125.5t98 -117t66.5 -127t21 -134.5q0 -183 -127 -300.5t-328 -117.5q-196 0 -322 99.5t-126 257.5q0 64 23.5 126
t70.5 121.5t91 104.5t110 104q25 20 25 47.5t-23 49.5q-56 54 -95 97t-76 97.5t-56 113t-19 120.5q0 161 118.5 263.5t301.5 102.5zM254 371q0 -87 37 -170t106.5 -138t151.5 -55q107 0 168 83t61 222q0 113 -62.5 211t-215.5 242q-23 22 -49 19t-45 -29
q-78 -113 -115 -203.5t-37 -181.5zM334 1368q0 -97 53.5 -182t161.5 -191q19 -17 43 -17t43 17q84 82 114.5 157.5t30.5 184.5q0 127 -70 211t-169 84q-93 0 -150 -74t-57 -190z" />
    <glyph glyph-name="nine" unicode="9" horiz-adv-x="1144" 
d="M563 1671q230 0 359 -185.5t129 -492.5q0 -162 -35 -308.5t-105 -270t-170.5 -218t-237 -154.5t-298.5 -77q-49 -6 -49 10q0 11 39 23q113 29 212 95.5t174 161.5t130.5 210t89.5 246q8 38 3 39.5t-20 -35.5q-55 -103 -131.5 -151t-158.5 -48q-129 0 -220 74t-132.5 191
t-41.5 263q0 119 29 229t84 200t145.5 144t204.5 54zM334 1096q0 -494 252 -494q31 0 61.5 13t62.5 44.5t56 79t39.5 122t15.5 167.5q0 276 -74 442t-198 166q-113 0 -164 -137t-51 -403z" />
    <glyph glyph-name="colon" unicode=":" horiz-adv-x="446" 
d="M223 -33q-51 0 -86 35t-35 86q0 50 35 85.5t86 35.5q49 0 85 -35.5t36 -85.5q0 -51 -35.5 -86t-85.5 -35zM102 995q0 50 35 85.5t86 35.5q49 0 85 -36t36 -85q0 -51 -35.5 -86t-85.5 -35q-51 0 -86 35t-35 86z" />
    <glyph glyph-name="semicolon" unicode=";" horiz-adv-x="473" 
d="M227 877q-51 0 -86 34.5t-35 85.5q0 50 35 85.5t86 35.5q49 0 85 -36t36 -85q0 -51 -35.5 -85.5t-85.5 -34.5zM84 82q0 56 37 92.5t100 36.5q70 0 114 -50t44 -132q0 -45 -13 -97.5t-38 -103t-65.5 -93.5t-90.5 -63q-32 -11 -53 5.5t-21 39.5q0 21 23 33q84 37 152.5 106
t68.5 126q0 41 -25 41q-7 0 -16.5 -9.5t-19 -21.5t-30.5 -21.5t-48 -9.5q-57 0 -88 35.5t-31 85.5z" />
    <glyph glyph-name="less" unicode="&#x3c;" horiz-adv-x="819" 
d="M121 565q-41 14 -41 56q0 39 41 53l577 203q33 11 33 -15q0 -28 -33 -39l-483 -168q-51 -19 -51 -34q0 -18 51 -37l483 -168q33 -11 33 -39q0 -26 -33 -15z" />
    <glyph glyph-name="equal" unicode="=" horiz-adv-x="901" 
d="M123 426q-19 0 -27 12t0 24.5t27 12.5h655q19 0 27 -12.5t0 -24.5t-27 -12h-655zM123 754q-19 0 -27 12t0 24.5t27 12.5h655q19 0 27 -12.5t0 -24.5t-27 -12h-655z" />
    <glyph glyph-name="greater" unicode="&#x3e;" horiz-adv-x="819" 
d="M121 362q-33 -11 -33 15q0 28 33 39l483 168q51 19 51 37q0 15 -51 34l-483 168q-33 11 -33 39q0 26 33 15l577 -203q41 -14 41 -53q0 -42 -41 -56z" />
    <glyph glyph-name="question" unicode="?" horiz-adv-x="806" 
d="M373 410q-8 0 -16 7.5t-27 31.5q-180 208 -180 325q0 86 45 158.5t157 161.5q48 39 76 62.5t68.5 60.5t64 65t47.5 63t34.5 69t10.5 69q0 57 -42 97t-113 40q-35 0 -79 -21t-78.5 -45.5t-75.5 -45.5t-70 -21q-49 0 -75 35t-26 80q0 99 162 96q242 -1 369 -88t127 -246
q0 -110 -60 -198.5t-209 -217.5q-109 -95 -152.5 -160t-43.5 -133q0 -43 27.5 -104.5t56.5 -101.5q14 -32 10 -37q-3 -2 -8 -2zM236 88q0 50 34.5 85.5t85.5 35.5q50 0 85.5 -35.5t35.5 -85.5q0 -51 -35.5 -86t-85.5 -35q-51 0 -85.5 35t-34.5 86z" />
    <glyph glyph-name="at" unicode="@" horiz-adv-x="2086" 
d="M981 -465q-408 0 -647.5 225t-239.5 605q0 187 55 364.5t156.5 321.5t235.5 252.5t301 168.5t344 60q172 0 313 -55.5t234 -154t143.5 -232.5t50.5 -291q0 -160 -58.5 -314t-150 -263.5t-204.5 -177t-220 -67.5q-91 0 -138.5 51t-47.5 138q0 66 33 164q6 15 2 25t-15 10
q-20 0 -34 -33q-76 -167 -159.5 -261t-182.5 -94q-102 0 -154.5 74.5t-52.5 200.5q0 130 55 283t139 278t193 209t209 84q74 0 114 -43t52 -129q2 -26 7 -36t12.5 -2t16.5 32l17 45q9 26 21.5 36.5t37.5 10.5q23 0 46 15.5t38 33.5t33 33.5t31 15.5q33 0 14 -49
q-142 -316 -201 -479q-46 -132 -70 -221t-28 -121.5t-4 -67.5q0 -108 123 -108q78 0 157.5 59t141.5 156t101.5 232t39.5 276q0 142 -45 268.5t-128 223.5t-212.5 153.5t-286.5 56.5q-170 0 -323.5 -62.5t-270 -172.5t-202 -254t-130 -313t-44.5 -343q0 -358 224.5 -567
t616.5 -209q299 0 532.5 175.5t371.5 477.5q19 37 53 43q30 5 35 -22q3 -17 -9 -43q-128 -306 -405.5 -489t-636.5 -183zM735 264q0 -63 22 -98t64 -35q100 0 210 151.5t186 385.5q38 125 38 198q0 158 -94 158t-195 -123.5t-166 -302.5t-65 -334z" />
    <glyph glyph-name="A" unicode="A" horiz-adv-x="1523" 
d="M-18 8q0 17 22 17q98 0 159 40t99 156l469 1432q4 18 25 18h35q19 0 26 -18l473 -1432q38 -116 93.5 -156t140.5 -40q20 0 20 -17q0 -18 -20 -18q-36 0 -115 5t-102 5h-103q-35 0 -150 -5t-167 -5q-17 0 -24 4t-7 14q0 17 31 17q47 0 79 4.5t57.5 17t36 34.5t9.5 57
t-16 85l-76 242q-12 38 -44.5 62t-72.5 24h-368q-40 0 -72.5 -24t-44.5 -62l-78 -244q-16 -49 -18 -84t8 -56.5t35 -34t56.5 -17t78.5 -4.5q28 0 28 -17q0 -18 -30 -18q-37 0 -120.5 5t-127.5 5q-34 0 -102.5 -5t-98.5 -5q-14 0 -19 4t-5 14zM442 668q-12 -38 6 -62t58 -24
h344q38 0 55.5 24t5.5 62l-204 651q-7 24 -16.5 32.5t-19.5 0t-18 -32.5z" />
    <glyph glyph-name="B" unicode="B" horiz-adv-x="1265" 
d="M289 0q-33 0 -136 -5t-149 -5q-29 0 -29 18q0 17 27 17q55 0 90.5 8t64.5 30t42.5 63.5t13.5 106.5v1172q1 65 -12.5 107t-42.5 64t-65 30t-91 8q-27 0 -27 16q3 19 29 19q47 0 150.5 -5.5t134.5 -5.5h348q231 0 364.5 -102.5t133.5 -302.5q0 -81 -29 -151.5
t-74.5 -116.5t-98 -74.5t-104.5 -36.5q-18 -3 -18 -12q0 -11 18 -11q165 -14 273 -121t108 -270q0 -118 -46 -205t-128.5 -137t-186.5 -74t-231 -24h-329zM440 166q0 -82 33 -107.5t107 -25.5q81 0 149 20.5t126.5 65.5t92 126.5t33.5 192.5q0 101 -37.5 180t-96.5 123.5
t-123.5 67t-127.5 22.5q-90 0 -123 -18t-33 -72v-575zM440 938q0 -49 33.5 -66.5t120.5 -17.5q133 0 225 100t92 271q0 170 -96 275.5t-235 105.5q-76 0 -108 -22.5t-32 -92.5v-553z" />
    <glyph glyph-name="C" unicode="C" horiz-adv-x="1366" 
d="M72 780q0 262 91.5 465t255 314.5t372.5 111.5q83 0 173.5 -11t104.5 -11q40 0 69 8t33 8q10 0 14.5 -6t4.5 -25q-2 -180 29 -528q3 -33 -15 -33q-14 0 -20 31q-24 115 -46.5 194t-54.5 146.5t-71.5 106t-94 60t-126.5 21.5q-140 0 -248 -101t-166 -278t-58 -401
q0 -221 59.5 -396t170 -273.5t252.5 -98.5q123 0 223 83.5t158.5 214t79.5 290.5q3 21 6.5 28t11.5 7q18 0 12 -35q-11 -109 -38.5 -208.5t-75.5 -191.5t-112 -158.5t-154 -106.5t-197 -40q-195 0 -342.5 107t-224 290.5t-76.5 415.5z" />
    <glyph glyph-name="D" unicode="D" horiz-adv-x="1464" 
d="M289 0q-33 0 -136 -5t-149 -5q-29 0 -29 18q0 17 27 17q55 0 90.5 8t64.5 30t42.5 63.5t13.5 106.5v1172q1 65 -12.5 107t-42.5 64t-65 30t-91 8q-27 0 -27 16q3 19 29 19q47 0 150.5 -5.5t134.5 -5.5h309q132 0 250 -30.5t220 -96.5t176 -161.5t116.5 -233.5t42.5 -305
q0 -161 -39.5 -294.5t-111 -228.5t-171 -160.5t-219 -96.5t-256.5 -31h-317zM444 184q0 -92 32 -121.5t106 -29.5q119 0 216 41t163.5 112t112 168.5t66.5 208.5t21 234q0 230 -77 416t-208.5 289.5t-291.5 103.5q-78 0 -109 -25t-31 -106v-1291z" />
    <glyph glyph-name="E" unicode="E" horiz-adv-x="1226" 
d="M1044 -10q-20 0 -85 5t-125 5h-545q-33 0 -136 -5t-149 -5q-29 0 -29 18q0 17 27 17q55 0 90.5 8t64.5 30t42.5 63.5t13.5 106.5v1172q1 65 -12.5 107t-42.5 64t-65 30t-91 8q-27 0 -27 16q3 19 29 19q47 0 150.5 -5.5t134.5 -5.5h571q49 0 103.5 5.5t68.5 5.5
q27 0 37 -14t10 -42q0 -25 -2 -98t-2 -111q4 -65 29 -202q6 -35 -14 -35q-17 0 -23 31q-38 170 -77.5 259t-99 130t-155.5 41h-184q-107 0 -107 -111v-539q0 -38 22.5 -63t57.5 -25h183q58 -1 96 12.5t57.5 42t27 64.5t7.5 90q0 27 16 27q15 0 15 -27q0 -34 -4 -109t-4 -116
q0 -36 4 -113t4 -112q0 -27 -15 -27q-16 0 -16 27q0 109 -38.5 160t-149.5 51h-172q-40 0 -65.5 -22.5t-25.5 -57.5v-598q0 -74 23 -102.5t92 -28.5h182q67 0 114.5 18.5t95 72t91 135.5t103.5 222q14 33 26 33q21 0 11 -31q-6 -22 -25.5 -86.5t-32.5 -111.5
q-32 -110 -32 -238q0 -28 -10.5 -41.5t-37.5 -13.5z" />
    <glyph glyph-name="F" unicode="F" horiz-adv-x="1198" 
d="M1087 1649q48 0 48 -56q0 -15 -3.5 -96t-1.5 -125q7 -74 27 -190q6 -35 -12 -35q-17 0 -23 31q-57 251 -123 340.5t-208 89.5h-240q-54 0 -80.5 -32.5t-26.5 -78.5v-579q0 -38 25.5 -63.5t65.5 -25.5h188q58 -1 95.5 12t57 42.5t27 65t8.5 89.5q0 27 15 27q16 0 16 -27
q0 -38 -4.5 -114t-5.5 -111q1 -30 5.5 -108.5t4.5 -116.5q0 -29 -16 -29q-17 0 -17 27q0 111 -37.5 161t-148.5 50h-188q-40 0 -65.5 -25t-25.5 -63v-476q0 -65 14.5 -106.5t46 -63.5t70 -30t97.5 -8q26 0 26 -17q0 -11 -5.5 -14.5t-22.5 -3.5q-50 0 -161 5t-144 5h-76
q-33 0 -136 -5t-149 -5q-29 0 -29 18q0 17 27 17q55 0 90.5 8t64.5 30t42.5 63.5t13.5 106.5v1172q1 65 -12.5 107t-42.5 64t-65 30t-91 8q-27 0 -27 16q3 19 29 19q47 0 150.5 -5.5t134.5 -5.5h626q49 0 103.5 5.5t68.5 5.5z" />
    <glyph glyph-name="G" unicode="G" horiz-adv-x="1519" 
d="M836 -33q-185 0 -332 65t-240.5 178t-142.5 262.5t-49 322.5q0 190 52 350.5t148.5 277.5t241 182.5t322.5 65.5q84 0 172 -11t106 -11q39 0 66 8t34 8q21 0 21 -31q-2 -180 29 -528q3 -33 -15 -33q-15 0 -20 31q-29 143 -61 236t-80 162t-114.5 99.5t-160.5 30.5
q-115 0 -210.5 -64.5t-156 -171.5t-94 -242.5t-33.5 -281.5q0 -130 17 -250t58 -235t102.5 -199.5t157.5 -136t216 -51.5q109 0 175.5 55t66.5 144v413q0 123 -79.5 166t-248.5 43q-43 0 -43 17q0 16 45 16q71 0 232.5 -4t210.5 -4h59q29 0 100 4t107 4q25 0 25 -16
q0 -17 -23 -17q-91 0 -130.5 -42.5t-39.5 -166.5v-264q0 -53 5 -88.5t13 -61.5t9 -30q12 -42 -64 -89.5t-203 -79.5t-251 -32z" />
    <glyph glyph-name="H" unicode="H" horiz-adv-x="1523" 
d="M1079 1405q0 124 -45 166.5t-143 42.5q-23 0 -23 16q0 19 25 19q41 0 133 -5.5t119 -5.5h90q31 0 135 5.5t150 5.5q15 0 20.5 -4t5.5 -15q0 -16 -26 -16q-54 0 -90 -8t-65 -30t-42.5 -64t-13.5 -107v-1172q0 -124 50.5 -166t160.5 -42q26 0 26 -17q0 -11 -5.5 -14.5
t-22.5 -3.5q-45 0 -148 5t-135 5h-90q-29 0 -120.5 -5t-131.5 -5q-27 0 -27 18q0 17 25 17q48 0 80 8t58 30t38 63.5t12 106.5v537q0 40 -25 65t-65 25h-454q-40 0 -65.5 -25t-25.5 -65v-537q0 -124 44.5 -166t142.5 -42q24 0 24 -17q0 -10 -5 -14t-19 -4q-41 0 -133.5 5
t-120.5 5h-88q-33 0 -136 -5t-149 -5q-29 0 -29 18q0 17 27 17q55 0 90.5 8t64.5 30t42.5 63.5t13.5 106.5v1172q1 65 -12.5 107t-42.5 64t-65 30t-91 8q-27 0 -27 16q3 19 29 19q47 0 150.5 -5.5t134.5 -5.5h90q27 0 119 5.5t133 5.5q24 0 24 -19q0 -16 -22 -16
q-49 0 -81 -8t-58 -30t-38 -64t-12 -107v-424q0 -40 25.5 -65t65.5 -25h454q40 0 65 25t25 65v424z" />
    <glyph glyph-name="I" unicode="I" horiz-adv-x="657" 
d="M213 1405q1 65 -12.5 107t-42.5 64t-65 30t-91 8q-27 0 -27 16q3 19 29 19q47 0 150.5 -5.5t134.5 -5.5h82q31 0 134 5.5t150 5.5q27 0 27 -19q0 -16 -27 -16q-54 0 -90 -8t-65 -30t-42.5 -64t-13.5 -107v-1172q0 -65 13.5 -106.5t42.5 -63.5t64.5 -30t90.5 -8
q27 0 27 -17q0 -18 -29 -18q-46 0 -148.5 5t-135.5 5h-80q-33 0 -136 -5t-149 -5q-29 0 -29 18q0 17 27 17q55 0 90.5 8t64.5 30t42.5 63.5t13.5 106.5v1172z" />
    <glyph glyph-name="J" unicode="J" horiz-adv-x="716" 
d="M281 1405q1 65 -16 107t-54 64t-82.5 30t-114.5 8q-32 0 -32 16q0 11 7 15t27 4q59 0 189 -5.5t170 -5.5h67q29 0 125.5 5.5t139.5 5.5q24 0 24 -19q0 -16 -24 -16q-50 0 -83 -8t-60 -30t-39.5 -64t-12.5 -107v-938q0 -122 -21.5 -231t-57.5 -189t-82.5 -147t-95 -110.5
t-97 -74t-87.5 -44t-67 -13.5q-47 0 -75.5 29t-28.5 69q0 44 24 76t66 35q35 2 89.5 -3.5t94 -5.5t64.5 15q23 15 33 49t10 98v1385z" />
    <glyph glyph-name="K" unicode="K" horiz-adv-x="1538" 
d="M1245 190q47 -68 101 -106t97.5 -48.5t98.5 -10.5q25 0 25 -17q0 -18 -25 -18q-28 0 -99.5 5t-101.5 5h-159q-32 0 -135 -5t-150 -5q-27 0 -27 18q0 17 27 17q54 0 83 6t42.5 23t1 50t-50.5 86l-402 570q-45 76 -77 76q-26 0 -38 -28.5t-12 -92.5v-482q0 -65 12.5 -106.5
t39.5 -63.5t60 -30t83 -8q25 0 25 -17q0 -10 -6 -14t-21 -4q-42 0 -137.5 5t-124.5 5h-86q-33 0 -136 -5t-149 -5q-29 0 -29 18q0 17 27 17q55 0 90.5 8t64.5 30t42.5 63.5t13.5 106.5v1172q1 65 -12.5 107t-42.5 64t-65 30t-91 8q-27 0 -27 16q3 19 29 19q47 0 150.5 -5.5
t134.5 -5.5h82q31 0 134 5.5t150 5.5q27 0 27 -19q0 -16 -27 -16q-54 0 -90 -8t-65 -30t-42.5 -64t-13.5 -107v-410q0 -131 60 -131q4 0 8.5 1t9.5 4t9 6t10.5 8.5t10.5 9t11 11t11 11t12 12.5t12 13l422 463q59 64 59 113q0 42 -68.5 70t-181.5 28q-26 0 -26 16q0 8 8 13.5
t20 5.5q53 0 171 -5.5t180 -5.5h47q40 0 138.5 5.5t150.5 5.5q34 0 34 -19q0 -16 -34 -16q-132 0 -221.5 -29.5t-170.5 -120.5l-378 -422q-55 -63 -3 -137z" />
    <glyph glyph-name="L" unicode="L" horiz-adv-x="1148" 
d="M371 1638q31 0 134 5.5t150 5.5q27 0 27 -19q0 -16 -27 -16q-54 0 -90 -8t-65 -30t-42.5 -64t-13.5 -107v-1243q0 -74 23 -102.5t92 -28.5h160q51 0 88 10t75.5 38t72 80t70.5 134.5t79 202.5q11 32 26 32q21 0 11 -32q-25 -91 -38.5 -145t-26.5 -140.5t-13 -165.5
q0 -28 -9.5 -41.5t-35.5 -13.5q-20 0 -86 5t-127 5h-516q-33 0 -136 -5t-149 -5q-29 0 -29 18q0 17 27 17q55 0 90.5 8t64.5 30t42.5 63.5t13.5 106.5v1172q1 65 -12.5 107t-42.5 64t-65 30t-91 8q-27 0 -27 16q3 19 29 19q47 0 150.5 -5.5t134.5 -5.5h82z" />
    <glyph glyph-name="M" unicode="M" horiz-adv-x="1781" 
d="M-25 8q0 17 27 17q55 0 90.5 8t64.5 30t42.5 63.5t13.5 106.5v1172q1 65 -12.5 107t-42.5 64t-65 30t-91 8q-27 0 -27 16q3 19 29 19q47 0 150.5 -5.5t134.5 -5.5h71q51 0 76 -17t37 -60l391 -1217q8 -25 18 -34t20 0t18 34l387 1188q20 64 36 85t52 21h98q33 0 136 5.5
t149 5.5q28 0 28 -19q0 -16 -26 -16q-55 0 -91 -8t-64.5 -30t-42 -64t-13.5 -107l-2 -1172q0 -124 50.5 -166t160.5 -42q26 0 26 -17q0 -10 -5.5 -14t-20.5 -4q-46 0 -150 5t-135 5h-68q-38 0 -160.5 -5t-177.5 -5q-19 0 -25.5 3.5t-6.5 14.5q0 17 30 17q132 0 192 42
t60 166v1188q0 26 -3.5 35.5t-9.5 1t-13 -32.5l-463 -1439q-8 -19 -25 -19h-61q-17 0 -25 19l-461 1423q-8 25 -14.5 33.5t-10 -1.5t-3.5 -36v-1172q0 -65 16 -106.5t50.5 -63.5t77 -30t106.5 -8q32 0 32 -17q0 -11 -6.5 -14.5t-25.5 -3.5q-46 0 -146.5 3.5t-122.5 4.5
q-20 -1 -103 -4.5t-122 -3.5q-29 0 -29 18z" />
    <glyph glyph-name="N" unicode="N" horiz-adv-x="1466" 
d="M1167 -33q-18 0 -28 17l-781 1265q-22 34 -34.5 31t-12.5 -43v-1004q-1 -65 17 -106.5t57 -63.5t87.5 -30t121.5 -8q35 0 35 -19q0 -16 -37 -16q-50 0 -151.5 4.5t-147.5 5.5q-34 -1 -125.5 -5.5t-134.5 -4.5q-19 0 -26 4t-7 14q0 17 31 17q63 0 105 8t75.5 30t49 63.5
t15.5 106.5v1049q0 93 -47 166l-32 51q-33 53 -88 84t-113 31q-29 0 -29 14q0 21 31 21q64 0 157.5 -4t149.5 -5q50 -5 79 -22t56 -59l729 -1188q22 -34 35 -30t13 44v1020q1 65 -17 107t-57 64t-87.5 30t-121.5 8q-35 0 -35 18q0 17 37 17q50 0 151.5 -5t147.5 -6
q31 1 110 6t117 5q27 0 27 -19q0 -16 -27 -16q-54 0 -90 -8t-65 -30t-42.5 -64t-13.5 -107v-1419q0 -8 -5.5 -13.5t-12.5 -5.5h-66z" />
    <glyph glyph-name="O" unicode="O" horiz-adv-x="1417" 
d="M713 -33q-189 0 -336.5 113t-226 306t-78.5 431q0 239 78.5 432t224 305.5t332.5 112.5q189 0 336.5 -113.5t226 -306.5t78.5 -430q0 -239 -78 -432t-224 -305.5t-333 -112.5zM299 1047q0 -196 32.5 -379.5t92.5 -330t153 -235t205 -88.5q161 1 249.5 158t88.5 420
q0 194 -33 377t-93 328.5t-153 234t-204 88.5q-106 0 -183.5 -76t-116 -204.5t-38.5 -292.5z" />
    <glyph glyph-name="P" unicode="P" horiz-adv-x="1214" 
d="M289 0q-33 0 -136 -5t-149 -5q-29 0 -29 18q0 17 27 17q55 0 90.5 8t64.5 30t42.5 63.5t13.5 106.5v1172q1 65 -12.5 107t-42.5 64t-65 30t-91 8q-27 0 -27 16q3 19 29 19q47 0 150.5 -5.5t134.5 -5.5h311q276 0 426 -115t150 -347q0 -118 -39 -210t-106.5 -148
t-153 -84.5t-183.5 -28.5q-55 0 -170 18q-38 6 -59 -15t-21 -61v-414q0 -65 15 -106.5t47.5 -63.5t72 -30t99.5 -8q31 0 31 -17q0 -10 -7 -14t-24 -4q-52 0 -167.5 5t-150.5 5h-71zM444 899q0 -81 62 -123.5t149 -42.5q88 0 155.5 63.5t101.5 163.5t34 216q0 191 -97 310.5
t-253 119.5q-81 0 -116.5 -25.5t-35.5 -103.5v-578z" />
    <glyph glyph-name="Q" unicode="Q" horiz-adv-x="1417" 
d="M1196 -412q-57 0 -119.5 23t-119 56l-113 66t-121 56t-123.5 23q-52 0 -113.5 -24.5t-114.5 -49.5t-85 -25t-53 24t-21 54q0 59 76 68q114 7 222.5 23t154.5 38q26 5 43 14t21.5 15t4.5 10q0 7 -51 10q-182 7 -322.5 121.5t-215 304.5t-74.5 422q0 239 78.5 432
t224 305.5t332.5 112.5q189 0 336.5 -113.5t226 -306.5t78.5 -430q0 -273 -102.5 -483.5t-282.5 -308.5q-129 -73 -291 -140q-37 -13 -35.5 -20.5t41.5 -7.5h43q87 0 175 -22.5t168 -45t146 -22.5q74 0 143 32.5t101 94.5q12 28 27 28q16 0 4 -39q-36 -131 -110.5 -213
t-178.5 -82zM307 1014q0 -133 18 -271.5t55.5 -270t90 -234.5t127 -165.5t160.5 -62.5q89 0 158.5 51t111 138t63 195.5t21.5 230.5q0 132 -18 269.5t-55.5 268.5t-89 233.5t-126 165t-159.5 62.5q-88 0 -158 -50.5t-112.5 -137t-64.5 -194t-22 -228.5z" />
    <glyph glyph-name="R" unicode="R" horiz-adv-x="1325" 
d="M289 0q-33 0 -136 -5t-149 -5q-29 0 -29 18q0 17 27 17q55 0 90.5 8t64.5 30t42.5 63.5t13.5 106.5v1172q1 65 -12.5 107t-42.5 64t-65 30t-91 8q-27 0 -27 16q3 19 29 19q47 0 150.5 -5.5t134.5 -5.5h338q268 0 399 -108t131 -307q0 -96 -29.5 -169.5t-83.5 -120.5
t-120.5 -74.5t-149.5 -39.5q-45 -9 -45 -35q0 -16 21 -30q100 -99 179.5 -207t155.5 -266q70 -144 124.5 -200t140.5 -56q26 0 26 -17q0 -18 -28 -18q-93 1 -152.5 4.5t-111 15t-81 25.5t-58.5 44.5t-48 63.5t-45 90l-244 496q-22 48 -41.5 64t-50.5 16q-43 0 -57.5 -16.5
t-14.5 -69.5l-2 -490q0 -124 50.5 -166t160.5 -42q27 0 27 -17q0 -10 -6 -14t-21 -4q-47 0 -150 5t-134 5h-80zM444 942q0 -111 125 -111q158 0 255.5 102t97.5 302q0 167 -86.5 269t-245.5 102q-77 0 -111.5 -25t-34.5 -102v-537z" />
    <glyph glyph-name="S" unicode="S" horiz-adv-x="1064" 
d="M547 -33q-50 0 -140 9.5t-114 9.5q-31 0 -71.5 -6.5t-49.5 -6.5q-20 0 -20 29q1 65 -30.5 263t-35.5 296q0 19 14 19q17 0 23 -21q24 -106 46.5 -181t51.5 -140t62 -106t78 -71t100 -42.5t127 -12.5q63 0 111.5 26t75 68.5t39.5 88.5t13 94q0 59 -21 116.5t-50 100.5
t-81 93.5t-90 81.5t-102 79q-64 49 -100 78t-87.5 74t-79.5 81t-56.5 82t-41 95.5t-12.5 103.5q0 187 115 295t293 108q69 0 149.5 -9t104.5 -9q25 0 61 6t45 6q12 0 17.5 -6t5.5 -25q0 -67 6.5 -157.5t16.5 -189.5t12 -130q3 -35 -12 -35q-17 0 -23 31q-21 114 -42.5 189.5
t-52 134.5t-72.5 91t-98.5 48t-135.5 16q-112 0 -172 -73t-60 -179q0 -49 18.5 -96.5t45 -86t76 -85t91 -79.5t109.5 -85q75 -56 122.5 -94.5t102 -94t85 -106t51 -117t20.5 -139.5q0 -194 -120 -312t-318 -118z" />
    <glyph glyph-name="T" unicode="T" horiz-adv-x="1320" 
d="M633 0q-37 0 -160 -5t-178 -5q-33 0 -33 18q0 17 33 17q64 0 106.5 8t77 30t50.5 63.5t16 106.5v1307q0 32 -16.5 50t-45.5 18h-108q-105 0 -168 -110t-96 -314q-3 -33 -21 -33q-17 0 -14 33q0 24 3 101.5t3 121.5q0 54 -7 117.5t-7 74.5q0 26 7.5 38t26.5 12
q28 0 104.5 -5.5t127.5 -5.5h653q51 0 128 5.5t106 5.5q34 0 34 -50q0 -11 -8 -74.5t-8 -117.5q0 -44 3 -121.5t3 -101.5q3 -33 -14 -33q-15 0 -21 33q-33 206 -95 315t-169 109h-108q-29 0 -45.5 -18t-16.5 -50v-1307q-1 -124 58.5 -166t191.5 -42q31 0 31 -17
q0 -10 -7 -14t-26 -4q-55 0 -177.5 5t-160.5 5h-53z" />
    <glyph glyph-name="U" unicode="U" horiz-adv-x="1482" 
d="M766 -33q-116 0 -208 29t-154 80t-103 124.5t-59.5 159t-18.5 187.5v858q1 65 -12.5 107t-42.5 64t-65 30t-91 8q-26 0 -26 16q2 11 7.5 15t20.5 4q46 0 150 -5.5t135 -5.5h82q31 0 135 5.5t150 5.5q26 0 26 -19q0 -16 -26 -16q-54 0 -90 -8t-65 -30t-42.5 -64
t-13.5 -107v-858q0 -245 97 -360t292 -115q172 0 275.5 117t103.5 364v852q1 65 -12.5 107t-42.5 64t-65 30t-91 8q-27 0 -27 16q3 19 29 19q39 0 121 -4t106 -5q24 1 106 5t121 4q27 0 27 -19q0 -16 -27 -16q-54 0 -90 -8t-65 -30t-42.5 -64t-13.5 -107v-852
q0 -68 -6 -127.5t-21.5 -120t-39.5 -109.5t-62.5 -92.5t-88.5 -73t-119.5 -46.5t-153.5 -17z" />
    <glyph glyph-name="V" unicode="V" horiz-adv-x="1499" 
d="M233 1417q-38 115 -94 156t-133 41q-12 0 -16 3.5t-4 12.5q0 19 22 19q26 0 92.5 -5.5t94.5 -5.5h114q40 0 170 5.5t189 5.5q34 0 34 -19q0 -16 -32 -16q-55 0 -91.5 -4.5t-66 -17t-42 -34.5t-12 -57t16.5 -84l354 -1071q8 -25 18.5 -34t20.5 0t17 34l342 1069
q16 50 16 85.5t-13 57.5t-42.5 34.5t-66 17t-91.5 4.5q-33 0 -33 16q0 19 35 19q42 0 138 -5.5t149 -5.5q29 0 88.5 5.5t85.5 5.5q23 0 23 -19q0 -16 -21 -16q-86 0 -141 -41t-92 -158l-455 -1429q-8 -19 -25 -19h-43q-20 0 -24 19z" />
    <glyph glyph-name="W" unicode="W" horiz-adv-x="2029" 
d="M1329 -33q-16 0 -24 19l-248 1036q-6 25 -14 34t-16 0t-15 -34l-271 -1036q-4 -19 -22 -19h-57q-8 0 -15 6t-8 13l-393 1427q-32 119 -88 160t-150 41q-22 0 -22 16q0 19 22 19q39 0 126.5 -5.5t113.5 -5.5h86q36 0 153 5.5t168 5.5h9h8q52 0 168 -5.5t151 -5.5h70
q34 0 146 5.5t163 5.5q31 0 31 -19q0 -16 -31 -16q-46 0 -77.5 -5t-58.5 -17.5t-37.5 -35.5t-14 -58.5t11.5 -86.5l242 -1059q6 -25 13.5 -34.5t15 -1t14.5 33.5l278 1063q11 42 13 73.5t-6 53.5t-22 36.5t-38 22.5t-52 11.5t-67 3.5q-29 0 -29 16q0 19 31 19
q38 0 121.5 -5.5t128.5 -5.5q30 0 93.5 5.5t90.5 5.5q23 0 23 -19q0 -16 -21 -16q-43 0 -74.5 -8t-62 -28.5t-53.5 -61.5t-39 -103l-385 -1427q-1 -7 -8 -13t-15 -6h-57zM479 1413l285 -1063q6 -25 14 -34t16 0t15 34l197 770q21 89 -2 172l-33 121q-33 119 -104 160
t-197 41h-6h-9q-40 0 -68.5 -3t-53.5 -11t-39.5 -22.5t-22 -36.5t-5.5 -54t13 -74z" />
    <glyph glyph-name="X" unicode="X" horiz-adv-x="1550" 
d="M1190 0q-38 0 -161.5 -5t-178.5 -5q-35 0 -35 18q0 17 33 17q65 0 102 6.5t59 25.5t16 54.5t-38 91.5l-282 502q-20 34 -44.5 34t-44.5 -34l-288 -504q-45 -81 20.5 -128.5t218.5 -47.5q27 0 27 -17q0 -18 -27 -18q-69 0 -151.5 5t-108.5 5h-76q-24 0 -107 -5t-120 -5
q-22 0 -22 18q0 17 22 17q91 0 158 36.5t127 141.5l309 536q20 34 20 78t-20 78l-305 541q-31 55 -66 91.5t-73 54.5t-72.5 25t-77.5 7q-24 0 -24 16q0 19 26 19q30 0 105.5 -5.5t107.5 -5.5h133q38 0 161.5 5.5t178.5 5.5q35 0 35 -19q0 -16 -33 -16q-65 0 -102 -6.5
t-59 -25.5t-16 -54.5t38 -91.5l240 -420q20 -35 45 -35.5t45 33.5l260 438q51 85 -4.5 123.5t-212.5 38.5q-27 0 -27 16q0 19 29 19q61 0 149 -5.5t115 -5.5h49q41 0 140 5.5t149 5.5q35 0 35 -19q0 -16 -33 -16q-130 0 -211.5 -35.5t-144.5 -140.5l-277 -457
q-20 -33 -20.5 -78t18.5 -78l352 -622q31 -55 65.5 -91.5t71.5 -54.5t70.5 -25t75.5 -7q25 0 25 -17q0 -18 -25 -18q-30 0 -104 5t-103 5h-137z" />
    <glyph glyph-name="Y" unicode="Y" horiz-adv-x="1415" 
d="M838 233q0 -124 60 -166t192 -42q32 0 32 -17q0 -11 -6.5 -14.5t-25.5 -3.5q-56 0 -180 5t-162 5h-52q-38 0 -162 -5t-180 -5q-32 0 -32 18q0 17 32 17q65 0 108 8t78 30t51.5 63.5t16.5 106.5v398q0 86 -41 170l-315 629q-54 108 -114 146t-136 38q-12 0 -16 3.5
t-4 12.5q0 19 20 19q26 0 89 -5.5t89 -5.5h125q40 0 171 5.5t190 5.5q34 0 34 -19q0 -16 -34 -16q-68 0 -108 -6.5t-64.5 -26t-21.5 -56.5t32 -95l274 -553q19 -35 40 -34t38 36l252 548q28 58 32.5 95.5t-17 57.5t-57.5 27t-97 7q-29 0 -29 16q0 19 31 19q37 0 123.5 -5.5
t134.5 -5.5q29 0 92 5.5t90 5.5q23 0 23 -19q0 -16 -23 -16q-89 0 -151.5 -38.5t-114.5 -148.5l-271 -583q-36 -85 -36 -170v-441z" />
    <glyph glyph-name="Z" unicode="Z" horiz-adv-x="1251" 
d="M1100 1649q39 0 18 -41l-733 -1497q-18 -35 -4 -57.5t53 -22.5h248q67 0 117.5 9.5t94 35t76.5 58.5t68.5 93t65.5 124.5t72 166.5q9 25 22 25q20 0 14 -31q-13 -87 -49 -238t-67 -219q-14 -37 -29 -51t-53 -14q-16 0 -100 5t-160 5h-326q-99 0 -201.5 -5t-109.5 -5
q-27 0 -31.5 12t6.5 35l746 1491q17 35 2.5 57.5t-52.5 22.5h-284q-159 0 -233 -110.5t-97 -346.5q-3 -31 -20 -31q-15 0 -15 31q0 19 6.5 104.5t6.5 145.5q0 52 -4.5 115.5t-4.5 80.5q0 52 35 52q26 0 91.5 -5.5t123.5 -5.5h426q70 0 133 3t101 5.5t47 2.5z" />
    <glyph glyph-name="bracketleft" unicode="[" horiz-adv-x="598" 
d="M102 1720q0 29 16.5 45.5t45.5 16.5h366q25 0 25 -19q0 -8 -7 -14t-18 -6h-131q-29 0 -45 -18t-16 -48v-2087q0 -30 16 -47.5t45 -17.5h131q25 0 25 -21q0 -18 -25 -18h-366q-29 0 -45.5 16t-16.5 45v2173z" />
    <glyph glyph-name="backslash" unicode="\" horiz-adv-x="587" 
d="M582 31q7 -19 4 -30t-21 -11q-29 0 -41 41l-544 1640q-4 13 2.5 21t19.5 8q25 0 35 -29z" />
    <glyph glyph-name="bracketright" unicode="]" horiz-adv-x="602" 
d="M500 -453q0 -29 -16.5 -45t-45.5 -16h-366q-25 0 -25 18q0 21 25 21h131q29 0 45 17.5t16 47.5v2087q0 30 -16 48t-45 18h-131q-11 0 -18 6t-7 14q0 19 25 19h366q29 0 45.5 -16.5t16.5 -45.5v-2173z" />
    <glyph glyph-name="asciicircum" unicode="^" horiz-adv-x="1062" 
d="M467 1593q23 47 63 47q39 0 62 -47l360 -749q17 -33 -16 -33q-21 0 -35 33l-289 590q-43 92 -82 92q-19 0 -37.5 -21.5t-43.5 -70.5l-285 -590q-17 -33 -35 -33q-35 0 -18 33z" />
    <glyph glyph-name="underscore" unicode="_" horiz-adv-x="1585" 
d="M117 -260q-35 0 -35 22q0 25 35 25h1351q35 0 35 -25q0 -22 -35 -22h-1351z" />
    <glyph glyph-name="grave" unicode="`" horiz-adv-x="512" 
d="M369 1327q5 -11 7.5 -19.5t4 -15t1.5 -11t-1.5 -7t-4.5 -3.5t-7 -1q-15 0 -37 22l-205 252q-46 50 -38 93.5t71 43.5q41 0 68.5 -25t39.5 -63z" />
    <glyph glyph-name="a" unicode="a" horiz-adv-x="958" 
d="M285 -33q-103 0 -165.5 67.5t-62.5 174.5q0 59 26 113.5t66 95.5t102.5 82.5t119 70t133.5 62.5q37 17 60.5 52.5t23.5 74.5v33q0 157 -43.5 221.5t-122.5 64.5q-129 0 -129 -125q0 -30 15.5 -79.5t15.5 -83.5q0 -44 -27.5 -71.5t-75.5 -27.5q-54 0 -85.5 40t-31.5 99
q0 124 102.5 208.5t256.5 84.5q155 0 243.5 -83t88.5 -250q0 -101 -5.5 -303t-5.5 -302q0 -112 68 -112q31 0 66 45t61 149q3 21 14 21q17 0 11 -23q-31 -156 -88.5 -227.5t-159.5 -71.5q-89 0 -142.5 63.5t-27.5 172.5q6 27 -11 29q-17 3 -30 -23q-64 -139 -116.5 -190.5
t-143.5 -51.5zM254 283q0 -72 31 -115t92 -43q84 0 147.5 90.5t63.5 222.5v117q0 39 -23.5 53.5t-58.5 -0.5q-252 -129 -252 -325z" />
    <glyph glyph-name="b" unicode="b" horiz-adv-x="1034" 
d="M508 -33q-70 0 -159 13t-156 36.5t-62 49.5q29 133 29 260v1116q0 59 -9.5 90t-22 38t-34.5 7q-23 0 -50 -2.5t-52 -6t-31 -3.5q-22 -3 -22 14q0 15 28 20q58 10 199.5 55.5t173.5 45.5q35 0 35 -37q0 -89 -7.5 -269.5t-7.5 -269.5v-221q0 -24 15.5 -26.5t27.5 18.5
q135 227 269 227q136 0 217.5 -140.5t81.5 -389.5q0 -296 -115 -460.5t-348 -164.5zM360 297q0 -136 49 -208.5t134 -72.5q106 0 161.5 123t55.5 393q0 213 -52.5 328t-146.5 115q-76 0 -138.5 -87t-62.5 -235v-356z" />
    <glyph glyph-name="c" unicode="c" horiz-adv-x="858" 
d="M444 -33q-176 0 -277 153.5t-101 403.5q0 172 48 306t146 213t234 79q121 0 203.5 -73t82.5 -191q0 -62 -33 -100.5t-85 -38.5q-45 0 -72 22.5t-27 63.5q0 22 20.5 64.5t20.5 78.5q0 56 -36 92.5t-91 36.5q-53 0 -95 -43t-66.5 -112t-37 -148.5t-12.5 -159.5
q0 -218 72 -353.5t205 -135.5q69 0 132 61t107 183q7 22 21 22q13 0 4 -29q-43 -185 -134.5 -290t-228.5 -105z" />
    <glyph glyph-name="d" unicode="d" horiz-adv-x="1046" 
d="M373 -33q-147 0 -227 145t-80 384q0 276 105 452t261 176q53 0 116.5 -25.5t84.5 -25.5q24 0 30.5 16.5t6.5 73.5v279q0 85 -19 110t-55 25q-26 0 -56.5 -2.5t-59 -6t-34.5 -3.5q-28 -3 -28 14q0 14 33 20q67 9 217 53t188 48q29 -6 29 -37q0 -78 -8.5 -256.5
t-8.5 -267.5v-906q0 -125 44.5 -166.5t146.5 -41.5q15 0 20.5 -4t5.5 -15q0 -16 -26 -16q-37 0 -107 3t-110 3q-49 0 -111.5 -14.5t-71.5 -14.5q-17 -1 -23.5 10.5t-4 35.5t8 48t15 60.5t13.5 60.5q2 18 -5 24.5t-18 1t-20 -19.5q-124 -221 -252 -221zM276 549
q0 -438 189 -438q34 0 68.5 19.5t66 57t51 102t19.5 144.5v217q0 188 -48 302t-130 114q-69 0 -119 -74.5t-73.5 -190t-23.5 -253.5zM846 1700h10h14h-24z" />
    <glyph glyph-name="e" unicode="e" horiz-adv-x="884" 
d="M442 -33q-175 0 -275.5 142.5t-100.5 402.5q0 169 50 307t146 220.5t221 82.5q139 0 229.5 -94.5t90.5 -224.5q0 -90 -32.5 -121t-139.5 -31h-285q-38 0 -62 -23t-26 -59v-43q0 -182 71.5 -293.5t196.5 -111.5q38 0 74.5 13.5t76 45t76 95.5t62.5 155q10 25 21 25
q14 0 8 -29q-55 -236 -155 -347.5t-247 -111.5zM266 764q-2 -37 20.5 -61.5t59.5 -24.5h139q68 0 93.5 31.5t25.5 99.5q0 75 -14.5 134t-48.5 97.5t-84 38.5q-73 0 -124.5 -85.5t-66.5 -229.5z" />
    <glyph glyph-name="f" unicode="f" horiz-adv-x="692" 
d="M258 0q-36 0 -120.5 -5t-127.5 -5q-17 0 -23.5 4t-6.5 14q0 17 28 17q54 0 89 8t62.5 30t39.5 63.5t12 106.5l2 752q0 28 -17.5 45t-45.5 17h-95q-30 0 -30 16q0 18 30 18q82 0 129 24.5t58 88.5q26 125 82.5 226.5t124.5 161.5t136 92t128 32q50 0 78 -27.5t28 -68.5
q0 -45 -26 -78t-74 -33q-32 0 -107.5 22.5t-105.5 22.5q-96 0 -96 -207v-198q0 -64 71 -64q33 0 109 13.5t92 13.5q33 0 33 -29q0 -26 -37 -26h-207q-27 0 -44 -17.5t-17 -44.5v-752q0 -64 17.5 -106.5t53 -64t77 -29.5t101.5 -8q35 0 35 -17q0 -18 -37 -18q-44 0 -151.5 5
t-151.5 5h-96z" />
    <glyph glyph-name="g" unicode="g" horiz-adv-x="999" 
d="M420 -483q-113 0 -203.5 26t-148.5 83t-58 138q0 73 50 129t151 80q32 11 32.5 31.5t-36.5 32.5q-107 16 -107 117q0 54 39 97t103 83q24 19 19 47t-38 59q-51 50 -85 124t-34 157q0 175 104.5 287t278.5 112q85 0 177 -37q33 -14 51.5 -14.5t38.5 12.5q44 32 102 58
t111 26q69 0 69 -61q0 -30 -20 -50t-55 -20q-33 0 -96 11.5t-87 11.5t-32 -8.5t-3.5 -20.5t17.5 -27q102 -114 102 -274q0 -176 -103 -285.5t-274 -109.5q-38 0 -87.5 6.5t-76.5 6t-45 -14.5q-38 -28 -38 -72q0 -18 3.5 -30t16.5 -25t36.5 -21t66 -13t102.5 -5h237
q162 0 236 -50.5t74 -166.5q0 -174 -169 -302t-421 -128zM150 -186q0 -70 95 -122t263 -52q213 0 313.5 57t100.5 158q0 73 -50 104t-186 31h-307q-102 0 -165.5 -41.5t-63.5 -134.5zM305 821q0 -69 11.5 -141.5t34.5 -141.5t64.5 -113t94.5 -44q76 0 115 66t39 176
q0 70 -12.5 145.5t-36 145t-64 114.5t-90.5 45q-79 0 -117.5 -72t-38.5 -180z" />
    <glyph glyph-name="h" unicode="h" horiz-adv-x="1173" 
d="M266 0q-34 0 -114 -5t-123 -5q-29 0 -29 18q0 17 27 17q105 0 150.5 41.5t45.5 166.5v1209q0 59 -10 90t-22 38t-33 7q-24 0 -51 -2.5t-51.5 -6t-30.5 -3.5q-25 -3 -25 14q0 14 29 20q60 10 200 55.5t172 45.5q35 0 35 -37q0 -75 -7 -259t-7 -280v-151q0 -40 15.5 -46
t41.5 25q75 85 143.5 127.5t141.5 42.5q119 0 179.5 -75.5t60.5 -221.5v-592q0 -64 12 -106.5t37.5 -64t56 -29.5t74.5 -8q24 0 24 -17q0 -18 -26 -18q-32 0 -109.5 5t-109.5 5h-115q-42 0 -112 -3t-105 -3h-4h-9h-6h-4q-40 0 -113 3t-116 3h-113zM399 1700h2h-2zM422 258
q0 -125 40 -179.5t156 -55.5q110 1 148.5 55t38.5 180v571q0 85 -35.5 124.5t-110.5 39.5q-52 0 -105 -21.5t-92.5 -69.5t-39.5 -111v-533z" />
    <glyph glyph-name="i" unicode="i" horiz-adv-x="602" 
d="M410 233q0 -123 47.5 -165.5t144.5 -42.5q27 0 27 -17q0 -18 -29 -18q-34 0 -116 5t-117 5h-109q-36 0 -120.5 -5t-127.5 -5q-17 0 -23.5 4t-6.5 14q0 17 28 17q54 0 89 8t62.5 30t39.5 63.5t12 106.5l2 633q0 59 -10 90t-22.5 38t-33.5 7q-24 0 -51.5 -3t-52.5 -7
t-29 -4q-24 -3 -24 17q0 12 28 18q60 10 201 56t172 46q35 0 35 -45q0 -69 -8 -252.5t-8 -277.5v-316zM158 1448q0 57 35 91t92 34q59 0 95 -34t36 -91q0 -54 -36.5 -87.5t-94.5 -33.5q-57 0 -92 33.5t-35 87.5z" />
    <glyph glyph-name="j" unicode="j" horiz-adv-x="530" 
d="M-76 -479q-42 0 -68 28.5t-26 69.5q0 44 23.5 76t64.5 33q32 2 82.5 -3t88.5 -4.5t63 15.5q23 15 33 49t10 98v983q0 59 -9.5 90t-22 38t-34.5 7q-23 0 -50 -3t-51.5 -6.5l-31.5 -4.5q-23 -3 -23 17q0 13 29 18q58 10 198.5 56t172.5 46q37 0 37 -45q0 -69 -8.5 -252.5
t-8.5 -277.5v-227q0 -121 -19.5 -228.5t-51.5 -187t-74 -145.5t-86.5 -109.5t-89.5 -74t-82.5 -43.5t-65.5 -13zM156 1448q0 57 35 91t92 34q59 0 95 -34t36 -91q0 -54 -36.5 -87.5t-94.5 -33.5q-57 0 -92 33.5t-35 87.5zM373 1124h2h-2z" />
    <glyph glyph-name="k" unicode="k" horiz-adv-x="1198" 
d="M266 0q-36 0 -120.5 -5t-127.5 -5q-17 0 -23.5 4t-6.5 14q0 17 28 17q54 0 89 8t62.5 30t39.5 63.5t12 106.5l2 1209q0 59 -10 90t-22 38t-33 7q-24 0 -51 -2.5t-53.5 -6t-28.5 -3.5q-25 -3 -25 14q0 14 29 20q60 10 199.5 55.5t170.5 45.5q37 0 37 -37q0 -82 -8 -246
t-8 -246v-458q0 -46 12.5 -66.5t30.5 -16.5t39 25l233 250q26 28 38.5 50.5t9.5 42.5t-25 33.5t-68.5 21.5t-116.5 8q-22 0 -22 16q0 19 24 19q25 0 142 -5t207 -6q29 0 100 4.5t108 4.5q25 0 25 -17q0 -18 -22 -18q-98 2 -173.5 -27t-156.5 -119l-139 -151q-40 -43 -11 -90
l269 -469q61 -105 130 -141.5t156 -36.5q23 0 23 -17q0 -18 -25 -18q-29 0 -102.5 5t-104.5 5h-143q-46 0 -122 -3t-113 -3h-7h-4q-41 0 -115 3t-116 3h-113zM397 1700h2h-2zM418 258q0 -126 39.5 -180.5t152.5 -54.5h4h7q47 0 74.5 8t39 22t7.5 40.5t-17 56t-39 75.5
l-197 350q-24 41 -48 23q-23 -16 -23 -72v-268z" />
    <glyph glyph-name="l" unicode="l" horiz-adv-x="587" 
d="M401 233q0 -123 45.5 -165.5t137.5 -42.5q26 0 26 -17q0 -18 -26 -18q-33 0 -113 5t-113 5h-112q-34 0 -116 -5t-124 -5q-29 0 -29 18q0 17 29 17q52 0 85.5 8t60 30t38.5 63.5t13 106.5v1209q0 59 -10 90t-22.5 38t-33.5 7q-24 0 -51 -2.5t-51.5 -6t-30.5 -3.5
q-24 -3 -24 14q0 14 28 20q60 10 201 55.5t172 45.5q35 0 35 -37q0 -84 -7.5 -310.5t-7.5 -375.5v-744z" />
    <glyph glyph-name="m" unicode="m" horiz-adv-x="1660" 
d="M258 0q-36 0 -120.5 -5t-127.5 -5q-17 0 -23.5 4t-6.5 14q0 17 28 17q54 0 89 8t62.5 30t39.5 63.5t12 106.5l2 633q0 59 -10 90t-22.5 38t-33.5 7q-24 0 -51.5 -3t-52.5 -7t-29 -4q-24 -3 -24 17q0 12 28 18q60 10 201 56t172 46q35 0 35 -39q0 -13 -1 -28t-2.5 -33
t-2.5 -29q-4 -38 9.5 -43.5t39.5 23.5q132 147 246 147q116 0 186 -131q15 -36 41.5 -40t52.5 26q134 145 244 145q112 0 168.5 -75.5t56.5 -221.5v-592q0 -123 50.5 -165.5t152.5 -42.5q29 0 29 -17q0 -18 -29 -18q-36 0 -124 5t-124 5h-119q-37 0 -98.5 -3t-91.5 -3h-2
q-37 0 -101.5 3t-101.5 3h-129q-37 0 -98.5 -3t-91.5 -3h-4h-4q-37 0 -101.5 3t-101.5 3h-117zM410 258q0 -126 35 -180.5t133 -54.5h4h4q91 0 123 53.5t32 181.5v567q0 87 -31 127.5t-100 40.5q-22 0 -51.5 -8t-65 -26t-59.5 -57t-24 -91v-553zM940 258q0 -126 35 -180.5
t133 -54.5h2q92 0 124 53.5t32 181.5v567q0 87 -31 127.5t-100 40.5q-25 0 -55.5 -8t-63.5 -25t-54.5 -50t-21.5 -76v-576z" />
    <glyph glyph-name="n" unicode="n" horiz-adv-x="1175" 
d="M258 0q-36 0 -120.5 -5t-127.5 -5q-17 0 -23.5 4t-6.5 14q0 17 28 17q54 0 89 8t62.5 30t39.5 63.5t12 106.5l2 631q0 59 -10 90t-22.5 38t-33.5 7q-63 0 -133 -14q-24 0 -24 16q0 13 28 19q60 10 201 56t172 46h2q33 0 33 -37q0 -5 -10 -108q-2 -40 12 -46t39 25
q147 166 287 166q109 0 166 -76t57 -221v-592q0 -64 14.5 -106.5t43.5 -64t62.5 -29.5t82.5 -8q17 0 22.5 -4t5.5 -13q0 -18 -28 -18q-36 0 -124 5t-124 5h-109q-13 0 -196 -6h-11h-16h-14h-8q-25 1 -65.5 2.5t-75.5 2.5t-70 1h-109zM410 258q0 -123 39 -177.5t151 -57.5
q104 3 142 57.5t38 177.5v567q0 168 -131 168q-56 0 -108.5 -20.5t-91.5 -68.5t-39 -113v-533z" />
    <glyph glyph-name="o" unicode="o" horiz-adv-x="1009" 
d="M506 -33q-129 0 -231 79t-155.5 209t-53.5 284q0 166 51 297t152 208.5t237 77.5q128 0 230 -79t156 -208.5t54 -283.5q0 -166 -51.5 -297.5t-152.5 -209t-236 -77.5zM272 711q0 -92 11 -187t35.5 -187t59 -163.5t85 -115.5t110.5 -44q57 0 95 54t53.5 132t15.5 175
q0 116 -19.5 236t-55 224.5t-95 171t-131.5 66.5q-56 0 -94 -54t-54 -133t-16 -175z" />
    <glyph glyph-name="p" unicode="p" horiz-adv-x="1075" 
d="M244 -451q-32 0 -112 -5t-122 -5q-26 0 -26 19q0 16 26 16q50 0 83 8t59 30t37.5 64t11.5 107v1081q0 59 -9.5 90t-22 38t-34.5 7q-61 0 -131 -14q-24 0 -24 16q0 14 28 19q60 10 201 56t172 46q35 0 35 -37q0 -3 -10 -120q-3 -39 9 -42.5t34 29.5q118 170 247 170
q146 0 228 -147.5t82 -392.5q0 -174 -45 -314t-130 -222.5t-196 -82.5q-43 0 -86.5 15t-74.5 30t-46 15q-18 0 -23.5 -11t-5.5 -37v-192q0 -64 17 -106.5t51.5 -64.5t75 -30t98.5 -8q33 0 33 -16q0 -19 -35 -19q-41 0 -146 5t-149 5h-100zM399 381q0 -163 53 -263t138 -100
q66 0 113 71t69.5 189t22.5 269q0 97 -11 177t-34.5 142t-62.5 96.5t-91 34.5q-37 0 -70 -15.5t-62.5 -50t-47 -99.5t-17.5 -154v-297z" />
    <glyph glyph-name="q" unicode="q" horiz-adv-x="1038" 
d="M715 -451q-39 0 -136.5 -5t-148.5 -5q-35 0 -35 19q0 16 33 16q63 0 103.5 8t72.5 30.5t46 64t14 106.5v369q0 25 -16 27t-30 -21q-54 -95 -108.5 -143t-124.5 -48q-144 0 -231.5 138t-87.5 384q0 136 23 248.5t70.5 200.5t127 137t184.5 49q61 0 138 -19.5t100 -19.5
q27 0 75 19.5t62 19.5q29 0 26 -37q-10 -293 -10 -522v-782q0 -123 44 -166t132 -43q25 0 25 -16q0 -19 -25 -19q-30 0 -107.5 5t-109.5 5h-106zM274 549q0 -207 52 -322.5t159 -115.5q72 0 127.5 73.5t55.5 216.5v301q0 185 -38 281t-132 96q-74 0 -125.5 -72t-75 -189.5
t-23.5 -268.5z" />
    <glyph glyph-name="r" unicode="r" horiz-adv-x="837" 
d="M254 0q-32 0 -111 -5t-120 -5q-29 0 -29 18q0 17 26 17q103 0 147.5 41.5t45.5 166.5v631q0 59 -10 90t-22.5 38t-33.5 7q-63 0 -133 -14q-24 0 -24 16q0 13 28 19q60 10 201 56t172 46q33 0 33 -37q0 -14 -1.5 -35t-4 -52t-4.5 -54q-2 -25 2 -35t13 -3t20 30
q100 186 233 186q58 0 90.5 -29.5t32.5 -84.5q0 -64 -32 -99t-75 -35q-32 0 -53 15t-29 32.5t-26 32.5t-45 15q-49 0 -92 -71t-43 -161v-504q0 -64 20 -106.5t60.5 -64t88 -29.5t117.5 -8q41 0 41 -17q0 -18 -43 -18q-50 0 -173.5 5t-174.5 5h-92z" />
    <glyph glyph-name="s" unicode="s" horiz-adv-x="753" 
d="M406 -33q-59 0 -132.5 11.5t-97.5 11.5q-20 0 -50 -6.5t-40 -6.5q-20 0 -20 25q0 84 -10.5 174t-25 166.5t-14.5 79.5q-6 24 13 24q13 0 18 -22q15 -53 25 -84.5t26 -76t31 -71.5t36 -60t45 -52t55 -37t69.5 -25.5t83.5 -7.5q73 0 111 39.5t38 102.5q0 82 -59 154.5
t-211 197.5q-133 105 -183.5 178t-50.5 160q0 125 81.5 202.5t199.5 77.5q45 0 105.5 -10t89.5 -10q25 0 55 6t39 6q22 0 22 -24q-1 -90 4 -167t10.5 -130.5t6.5 -71.5q0 -27 -14 -27q-11 0 -17 25q-65 360 -311 360q-60 0 -95.5 -41t-35.5 -104q0 -65 51 -121.5t176 -153.5
q75 -60 120.5 -102.5t81.5 -90t51 -95t15 -105.5q0 -145 -83 -222t-209 -77z" />
    <glyph glyph-name="t" unicode="t" horiz-adv-x="731" 
d="M682 453q3 22 16 22t13 -22q-22 -247 -93 -366.5t-204 -119.5q-122 0 -184 88t-62 295v641q0 25 -15 40.5t-40 15.5h-103q-30 0 -30 16q0 18 30 18q130 0 214 73t95 222q3 19 8 26t15 7q13 0 16.5 -6t3.5 -27v-237q0 -31 20 -47.5t54 -16.5t102.5 13.5t82.5 13.5
q34 0 34 -29q0 -26 -37 -26h-196q-25 0 -40 -15.5t-15 -40.5v-588q0 -305 137 -305q61 0 110 89.5t68 265.5z" />
    <glyph glyph-name="u" unicode="u" horiz-adv-x="1099" 
d="M387 -33q-223 0 -223 281v618q0 59 -10 90t-22.5 38t-33.5 7q-23 0 -50.5 -3t-51.5 -6.5t-31 -4.5q-24 -3 -24 17q0 12 28 18q60 10 201 56t172 46h2q16 0 25.5 -12.5t9.5 -28.5q0 -55 -8.5 -191t-8.5 -204v-405q0 -91 30.5 -135t96.5 -44q94 0 163 93t69 235v457
q0 40 -4.5 64t-14 34t-17.5 12t-23 2q-20 0 -45 -3t-47.5 -7t-26.5 -4q-21 -3 -21 17q0 12 25 18q37 7 169 54.5t183 47.5q35 0 35 -41q0 -55 -7 -191t-7 -204v-455q0 -125 43.5 -166.5t146.5 -41.5q27 0 27 -19q0 -16 -29 -16q-35 0 -105 3t-110 3q-50 0 -112.5 -14.5
t-71.5 -14.5q-17 0 -22.5 12t-2 35t10 48t12.5 59t6 61q0 24 -16.5 25.5t-28.5 -19.5q-65 -108 -133.5 -164.5t-147.5 -56.5z" />
    <glyph glyph-name="v" unicode="v" horiz-adv-x="1071" 
d="M809 838q23 76 19.5 126t-52 74.5t-153.5 24.5h-5h-6q-97 0 -141.5 -23.5t-48 -73.5t19.5 -128l158 -541q7 -24 15.5 -32.5t17.5 0t16 32.5zM-14 1077q0 19 22 19q25 0 88 -5.5t90 -5.5h129q60 0 155 3.5t142 3.5h6h5q51 0 143 -3.5t141 -3.5q22 1 77 6t79 5q20 0 20 -19
q0 -16 -18 -16q-78 0 -128.5 -40.5t-86.5 -158.5l-254 -860q-7 -27 -37 -27h-37q-27 0 -37 27l-264 860q-35 116 -87.5 157.5t-127.5 41.5q-20 0 -20 16z" />
    <glyph glyph-name="w" unicode="w" horiz-adv-x="1568" 
d="M993 -25q-12 0 -22 8.5t-13 20.5l-153 612q-6 25 -14 34t-16 0t-15 -34l-174 -612q-3 -12 -13 -20.5t-22 -8.5h-53q-25 0 -37 27l-254 860q-35 116 -84.5 157.5t-118.5 41.5q-18 0 -18 16q0 19 20 19q23 0 81.5 -5.5t82.5 -5.5h154q33 0 95 3.5t95 3.5q34 0 98 -3.5
t101 -3.5h135q50 0 138.5 3.5t131.5 3.5q41 0 119 -3.5t113 -3.5h2q28 0 98 5.5t106 5.5q25 0 25 -19q0 -16 -25 -16q-91 0 -143.5 -40t-87.5 -159l-246 -858q-3 -12 -13 -20.5t-22 -8.5h-51zM428 838l162 -547q8 -24 17 -32.5t17.5 0t14.5 32.5l109 391q21 91 -5 172
l-14 49q-10 30 -18.5 49.5t-24.5 42.5t-36.5 36.5t-53.5 22.5t-76 9q-99 0 -116.5 -54t24.5 -171zM942 877l141 -590q9 -38 22 -38.5t23 36.5l154 544q38 131 -5.5 182.5t-158.5 51.5q-130 0 -165 -46t-11 -140z" />
    <glyph glyph-name="x" unicode="x" horiz-adv-x="1024" 
d="M727 0q-57 0 -149 -3t-138 -3h-6h-4q-42 0 -86 1t-95.5 2.5t-84.5 2.5q-17 -1 -77.5 -5.5t-94.5 -4.5q-23 0 -23 18q0 17 23 17q83 0 142 37.5t114 146.5l119 242q18 36 18 80.5t-18 80.5l-136 265q-55 109 -115 146.5t-136 37.5q-21 0 -21 16q0 19 23 19q25 0 88 -5.5
t90 -5.5h129q56 0 147.5 3.5t136.5 3.5q56 0 147.5 -3t117.5 -4q19 1 82 6t98 5q22 0 22 -19q0 -16 -22 -16q-58 0 -98.5 -12t-85.5 -53.5t-84 -116.5l-113 -220q-19 -35 -19 -79.5t19 -79.5l147 -291q38 -75 82 -117.5t81.5 -54.5t86.5 -12q21 0 21 -17q0 -18 -21 -18
q-25 0 -88 5t-90 5h-129zM293 231q-23 -46 -33 -76.5t-8.5 -57.5t20.5 -42t57.5 -23.5t100.5 -8.5h4h6q136 0 157 48.5t-42 157.5l-94 183q-17 35 -40 34t-40 -36zM459 856l82 -156q17 -35 40 -35t42 35l82 156q24 46 35 76.5t10 57t-19.5 41.5t-57 23.5t-100.5 8.5
q-70 0 -108 -11.5t-47 -38.5t1 -62.5t40 -94.5z" />
    <glyph glyph-name="y" unicode="y" horiz-adv-x="1081" 
d="M283 -477q-57 0 -92 33t-35 75q0 58 51 78q48 19 92 39.5t99 50.5t91 63.5t41 63.5q7 38 -7 90.5t-52 151.5l-235 696q-38 115 -93.5 156t-134.5 41q-20 0 -20 16q0 19 22 19q26 0 92.5 -5.5t94.5 -5.5h125q60 0 157 3.5t146 3.5h2h2q59 0 155.5 -3t124.5 -4q18 1 75.5 6
t88.5 5q21 0 21 -19q0 -16 -21 -16q-79 0 -129.5 -40t-87.5 -157l-270 -852q-154 -489 -303 -489zM457 840l161 -494q8 -25 18 -34t19.5 0t16.5 34l147 492q23 77 19 127t-53.5 74t-155.5 24h-2h-2q-145 0 -178.5 -53t10.5 -170z" />
    <glyph glyph-name="z" unicode="z" horiz-adv-x="837" 
d="M729 -23q-7 0 -41 5.5t-106.5 11.5t-175.5 6q-88 0 -161.5 -2.5t-114 -5t-46.5 -2.5q-50 0 -23 59l465 934q17 34 4.5 55t-49.5 21h-92q-84 0 -138.5 -23t-86 -76t-44.5 -122.5t-18 -180.5q-2 -19 -5 -25.5t-13 -6.5t-13 7t-3 25q16 312 16 416q0 20 7.5 26.5t23.5 6.5
q7 0 45 -5t116 -10.5t183 -5.5q77 0 145.5 2.5t107.5 5.5t46 3q49 0 22 -58l-467 -936q-15 -34 -2.5 -54.5t49.5 -20.5h95q68 0 116.5 18t79.5 51t49 90.5t25.5 124t9.5 164.5q0 31 17 31q16 0 16 -31q-1 -85 -4.5 -253t-3.5 -208q0 -37 -31 -37z" />
    <glyph glyph-name="braceleft" unicode="{" horiz-adv-x="821" 
d="M104 637q-34 0 -34 20q0 18 34 21q126 6 200.5 70.5t74.5 191.5q0 63 -34 212t-34 241q0 160 104.5 266.5t317.5 116.5q37 0 37 -17q0 -18 -37 -24q-239 -37 -239 -277q0 -64 24.5 -137t49 -149.5t24.5 -151.5q0 -88 -26.5 -156.5t-68 -106.5t-84.5 -58t-85 -23
q-25 -6 -25 -17q0 -6 3.5 -9.5t7.5 -4.5t14 -4q33 -3 67 -15.5t70 -39.5t63.5 -65t45.5 -97t18 -131q0 -91 -49 -245.5t-49 -233.5q0 -54 10 -95.5t34.5 -79.5t73.5 -63.5t121 -36.5q37 -6 37 -24q0 -17 -37 -17q-225 10 -323.5 109t-98.5 274q0 93 34 260.5t34 237.5
q0 124 -76 188.5t-199 69.5z" />
    <glyph glyph-name="bar" unicode="|" horiz-adv-x="247" 
d="M94 1649q0 13 8.5 21.5t22.5 8.5q29 0 29 -28q-15 -974 0 -1948q0 -31 -31 -31q-29 0 -29 29q15 974 0 1948z" />
    <glyph glyph-name="braceright" unicode="}" horiz-adv-x="821" 
d="M717 637q-123 -5 -199 -69.5t-76 -188.5q0 -70 34 -237.5t34 -260.5q0 -175 -98.5 -274t-323.5 -109q-37 0 -37 17q0 18 37 24q72 11 121 36.5t74 63.5t35 79.5t10 95.5q0 79 -49.5 233.5t-49.5 245.5q0 72 18 131t46 97t64 65t70 39.5t67 15.5q14 3 19 6.5t5 11.5
q0 11 -24 17q-42 3 -85 23t-85 58t-68.5 106.5t-26.5 156.5q0 60 15.5 121.5t34 105.5t34 101.5t15.5 109.5q0 46 -10 86.5t-34.5 81t-74.5 69.5t-121 40q-37 6 -37 24q0 17 37 17q213 -10 317.5 -116.5t104.5 -266.5q0 -92 -34 -241t-34 -212q0 -127 74.5 -191.5
t200.5 -70.5q35 -3 35 -21q0 -20 -35 -20z" />
    <glyph glyph-name="asciitilde" unicode="~" horiz-adv-x="1064" 
d="M928 719q0 14 8.5 19.5t17.5 0t9 -19.5q0 -103 -60 -158t-151 -55q-55 0 -118 22.5t-110.5 50t-109.5 50t-117 22.5q-65 0 -111.5 -37t-46.5 -106q0 -15 -9 -21t-18.5 0t-9.5 21q0 103 60 158t151 55q55 0 118 -23t110.5 -50t109.5 -50t117 -23q60 0 110 44.5t50 99.5z
" />
    <glyph glyph-name="exclamdown" unicode="&#xa1;" horiz-adv-x="452" 
d="M119 -453q0 68 14.5 180.5t31.5 227.5t31.5 316.5t14.5 426.5q0 31 18 31q17 0 17 -31q2 -288 24.5 -527.5t44 -391.5t21.5 -232q0 -66 -28.5 -100.5t-80.5 -34.5q-108 0 -108 135zM106 1004q0 51 35 85.5t86 34.5q50 0 85.5 -34.5t35.5 -85.5q0 -50 -36 -85.5t-85 -35.5
q-51 0 -86 35.5t-35 85.5z" />
    <glyph glyph-name="cent" unicode="&#xa2;" horiz-adv-x="940" 
d="M469 -33q-33 0 -63 6q-49 10 -58 -34l-74 -365q-3 -12 -10.5 -19.5t-15.5 -7.5q-17 0 -10 27l75 379q10 49 -30 72q-92 66 -142.5 196.5t-50.5 302.5t48 306t146 213t234 79h17q7 -1 13.5 4t8.5 13l98 481q6 25 25 25q18 0 12 -25l-98 -487q-4 -19 14 -23
q88 -24 142.5 -91t54.5 -161q0 -62 -33.5 -100.5t-87.5 -38.5q-45 0 -70.5 22.5t-25.5 63.5q0 22 19.5 64.5t19.5 78.5q0 58 -37 92q-6 6 -11.5 4t-7.5 -10l-168 -831q65 -78 164 -78q69 0 132.5 61.5t107.5 182.5q7 22 18 22q15 0 6 -29q-45 -186 -135 -290.5t-227 -104.5z
M291 614q0 -238 84 -372l164 811q1 7 -3 13.5t-12 8.5t-26 2q-51 0 -92 -43t-65.5 -112t-37 -148.5t-12.5 -159.5z" />
    <glyph glyph-name="sterling" unicode="&#xa3;" horiz-adv-x="1312" 
d="M573 1292q0 -63 12 -130t33 -154.5t31 -145.5q3 -22 20 -35.5t40 -13.5h264q27 0 27 -15t-24 -19q-5 -1 -11 -1h-252q-23 0 -36 -14t-11 -37q4 -66 4 -106q0 -205 -54 -369q-16 -44 25 -64q118 -59 217 -59q132 0 224 92.5t118 229.5q4 21 13 29t16 -0.5t6 -28.5
q-3 -54 -15.5 -113t-40 -127.5t-66 -122t-101 -89.5t-138.5 -36q-75 0 -143.5 32t-146.5 89q-15 12 -32.5 10.5t-29.5 -18.5q-95 -113 -227 -113q-88 0 -139.5 45.5t-51.5 126.5q0 88 60 136t153 48q51 0 109 -22q19 -7 32.5 1t16.5 28q17 122 17 235q0 72 -15 168
q-3 22 -19.5 35.5t-39.5 13.5h-193q-27 0 -27 15t24 19q5 1 11 1h177q23 0 33.5 13.5t5.5 35.5q-5 17 -21.5 71.5t-22.5 78t-16 66t-14 78t-4 71.5q0 215 104.5 333.5t282.5 118.5q160 0 247 -76.5t87 -172.5q0 -53 -29 -84t-84 -31t-86.5 33t-24.5 100q6 48 0 87.5t-34 70
t-78 30.5q-93 0 -138 -90t-45 -254zM170 137q0 -51 33 -84t86 -33q87 0 141 130q13 45 -22 67q-62 43 -115 43q-51 0 -87 -35.5t-36 -87.5z" />
    <glyph glyph-name="currency" unicode="&#xa4;" horiz-adv-x="1339" 
d="M678 336q-134 0 -240 53q-48 26 -86 -12l-139 -139q-10 -10 -19.5 -14t-14.5 -2t-7 7.5t2 15t14 19.5l174 174q-73 55 -113 134t-40 173q0 163 110 273q19 17 19.5 38t-16.5 38l-134 133q-25 25 -14.5 37.5t35.5 -9.5l4 -4l137 -137q38 -38 86 -12q106 53 242 53
q132 0 237 -57q20 -12 43.5 -9.5t40.5 19.5l144 143q26 26 38 15q10 -12 -14 -37l-141 -142q-17 -17 -17 -37.5t17 -37.5q102 -108 102 -267q0 -158 -102 -266q-17 -17 -17 -38t17 -38l141 -141q26 -26 14 -38t-38 14l-144 143q-37 37 -86 10q-107 -55 -235 -55zM348 745
q0 -157 94.5 -262.5t235.5 -105.5q132 0 222.5 106t90.5 262t-90.5 261.5t-222.5 105.5q-141 0 -235.5 -105t-94.5 -262z" />
    <glyph glyph-name="yen" unicode="&#xa5;" horiz-adv-x="1501" 
d="M745 0q-38 0 -161 -5t-178 -5q-35 0 -35 18q0 17 32 17q65 0 108 8t78 30t51.5 63.5t16.5 106.5v238q0 20 -12.5 32.5t-32.5 12.5h-393q-19 0 -27 8.5t0 17.5t27 9h393q20 0 32.5 12.5t12.5 32.5v59q0 20 -12.5 32.5t-32.5 12.5h-393q-19 0 -27 8.5t0 17.5t27 9h385
q20 0 27 11t-2 30l-328 654q-54 108 -114 146t-136 38q-20 0 -20 16q0 19 22 19q25 0 88 -5.5t88 -5.5h127q40 0 170 5.5t189 5.5q20 0 27.5 -4t7.5 -15q0 -16 -33 -16q-69 0 -109 -6.5t-65 -26t-22 -56.5t32 -95l283 -580q17 -35 37.5 -35t37.5 37l252 573q26 59 29 97
t-18.5 58t-57 27t-96.5 7q-31 0 -31 16q0 19 31 19q37 0 123.5 -5.5t134.5 -5.5q30 0 92.5 5.5t89.5 5.5q23 0 23 -19q0 -16 -21 -16q-89 0 -151.5 -39t-112.5 -150l-287 -649q-8 -19 -0.5 -30t27.5 -11h348q19 0 27 -8.5t0 -17.5t-27 -9h-354q-20 0 -32.5 -12.5
t-12.5 -32.5v-59q0 -20 12.5 -32.5t32.5 -12.5h354q19 0 27 -8.5t0 -17.5t-27 -9h-354q-20 0 -32.5 -12.5t-12.5 -32.5v-238q0 -65 16 -106.5t51 -63.5t78 -30t109 -8q30 0 30 -17q0 -11 -6.5 -14.5t-25.5 -3.5q-55 0 -179.5 5t-162.5 5h-52z" />
    <glyph glyph-name="brokenbar" unicode="&#xa6;" horiz-adv-x="247" 
d="M94 1642q0 12 10.5 20.5t20.5 8.5q11 0 20 -8t9 -21q-16 -380 0 -759q0 -14 -9 -22.5t-22 -8.5q-10 0 -19.5 8.5t-9.5 22.5q16 379 0 759zM94 -297q16 380 0 760q0 12 10.5 20.5t20.5 8.5q11 0 20 -8t9 -21q-16 -380 0 -760q0 -14 -9 -22.5t-22 -8.5q-10 0 -19.5 8.5
t-9.5 22.5z" />
    <glyph glyph-name="section" unicode="&#xa7;" horiz-adv-x="921" 
d="M295 1415q0 -82 53 -152.5t195 -189.5q80 -67 124 -108.5t83 -90.5t54 -95t15 -101q0 -86 -44 -155.5t-124 -143.5q-36 -31 4 -92q76 -120 76 -234q0 -75 -26 -136.5t-68.5 -99t-94 -57.5t-104.5 -20q-137 0 -221 67.5t-84 149.5q0 43 24.5 71.5t65.5 28.5q44 0 69 -26.5
t25 -79.5q0 -174 138 -174q73 0 122.5 69.5t49.5 157.5q0 80 -52.5 150.5t-195.5 191.5q-80 67 -124 108.5t-83.5 90.5t-54.5 95t-15 101q0 154 168 303q36 32 -4 93q-76 110 -76 229q0 100 45.5 172.5t113.5 105.5t147 33q128 0 209 -67.5t81 -147.5q0 -43 -24.5 -71.5
t-65.5 -28.5q-43 0 -68.5 26t-25.5 78q0 174 -131 174q-80 0 -128 -68t-48 -157zM207 827q0 -32 10.5 -64.5t34.5 -66.5t45 -60.5t60 -62.5t60 -55t65.5 -55t56.5 -47q35 -30 55 -34t41 17q78 84 78 193q-1 43 -29.5 95t-85.5 113.5t-93 95.5t-101 93q-14 13 -21 19
q-32 31 -54.5 34.5t-41.5 -18.5q-80 -89 -80 -197z" />
    <glyph glyph-name="dieresis" unicode="&#xa8;" horiz-adv-x="849" 
d="M256 1329q-50 0 -85.5 35t-35.5 84q0 51 35.5 86t85.5 35t85.5 -35t35.5 -86q0 -49 -35.5 -84t-85.5 -35zM473 1448q0 51 35.5 86t85.5 35t85.5 -35t35.5 -86q0 -49 -35.5 -84t-85.5 -35t-85.5 35t-35.5 84z" />
    <glyph glyph-name="copyright" unicode="&#xa9;" horiz-adv-x="1884" 
d="M944 1688q177 0 334 -68t269 -184t177.5 -277t65.5 -342q0 -176 -65.5 -336t-177.5 -276.5t-269.5 -185t-333.5 -68.5q-238 0 -433.5 116.5t-306 315t-110.5 434.5q0 181 65 342t177.5 277t270.5 184t337 68zM164 817q0 -165 59 -316.5t161 -264.5t248.5 -180.5
t311.5 -67.5q161 0 305.5 67.5t247 180t163 265t60.5 316.5t-60.5 316.5t-163 266.5t-247.5 182.5t-305 68.5q-165 0 -311.5 -68.5t-248.5 -182.5t-161 -266.5t-59 -316.5zM422 791q0 249 148.5 403t381.5 154q97 0 180.5 -13.5t108.5 -13.5t54.5 11t35.5 11q12 0 16.5 -5.5
t4.5 -24.5q0 -171 18 -410q3 -39 -14 -39q-15 0 -21 35q-10 86 -38.5 158.5t-74.5 131t-116.5 91.5t-157.5 33q-174 0 -272 -131.5t-98 -341.5q0 -129 45.5 -234.5t137.5 -171t216 -65.5q152 0 271 95.5t151 246.5q6 37 22 37q7 0 10.5 -11t0.5 -26q-41 -190 -168 -309
t-328 -119q-148 0 -266.5 67.5t-183 183t-64.5 257.5z" />
    <glyph glyph-name="guillemotleft" unicode="&#xab;" horiz-adv-x="929" 
d="M276 600q0 -41 66.5 -188.5t144.5 -298.5q11 -22 -7 -21q-16 1 -36 21q-128 142 -239 288.5t-111 198.5q0 53 109 196t241 289q26 25 42 19q9 -4 1 -19q-211 -407 -211 -485zM438 600q0 53 109 196t241 289q26 25 42 19q9 -4 1 -19q-80 -154 -145 -298.5t-65 -186.5
q0 -41 66.5 -189.5t143.5 -297.5q11 -22 -7 -21q-16 1 -36 21q-128 142 -239 288.5t-111 198.5z" />
    <glyph glyph-name="logicalnot" unicode="&#xac;" horiz-adv-x="1193" 
d="M1042 856q17 0 33.5 -16t16.5 -33v-422q0 -22 -12.5 -31t-25 0t-12.5 31v322q0 54 -21.5 77t-72.5 23h-825q-22 0 -31 12.5t0 24.5t31 12h919z" />
    <glyph glyph-name="registered" unicode="&#xae;" horiz-adv-x="1886" 
d="M942 -49q-142 0 -273 44t-234.5 124.5t-180.5 187.5t-118.5 240t-41.5 276q0 239 110.5 437t305.5 313t432 115t432 -114.5t306.5 -313t111.5 -437.5q0 -178 -65.5 -339.5t-178.5 -278t-271 -185.5t-335 -69zM164 819q0 -165 59.5 -317t161.5 -265.5t248 -181t309 -67.5
q162 0 307.5 68t248.5 181t163.5 265.5t60.5 316.5q0 131 -38 256t-109.5 228.5t-166.5 182t-215.5 122t-250.5 43.5q-164 0 -310 -68t-248 -182t-161 -266t-59 -316zM475 297q0 16 17 16q46 0 73 15t43.5 62t16.5 132v598q0 124 -31 166.5t-100 42.5q-17 0 -17 17
q0 18 17 18q29 0 93.5 -5t84.5 -5h207q46 0 88 -4.5t90 -15t87.5 -32t72 -52t51 -78t18.5 -107.5q0 -55 -19 -102.5t-51.5 -79.5t-69.5 -53.5t-77 -32.5q-16 -5 -21 -11.5t0 -16.5t14 -20.5t22.5 -28.5t21.5 -34l113 -199q52 -95 94 -130t102 -35q15 0 21 -8t0 -16.5
t-21 -8.5q-86 0 -142 7t-91 23.5t-53.5 36.5t-36.5 54l-164 317q-13 25 -33.5 34t-58.5 9q-70 0 -70 -57v-191q0 -85 18 -132t47.5 -62t79.5 -15q19 0 19 -16q0 -18 -19 -18q-32 0 -103 5t-93 5h-43q-20 0 -84.5 -5t-93.5 -5q-19 0 -19 18zM766 856q0 -59 72 -59
q130 0 210 74.5t80 189.5q0 119 -70 189.5t-177 70.5q-60 0 -87.5 -19t-27.5 -71v-375z" />
    <glyph glyph-name="macron" unicode="&#xaf;" horiz-adv-x="808" 
d="M662 1409q22 0 30 -4t8 -14q0 -19 -38 -19h-515q-38 0 -38 19q0 10 8 14t30 4h515z" />
    <glyph glyph-name="degree" unicode="&#xb0;" horiz-adv-x="780" 
d="M389 1051q-144 0 -236 91t-92 232q0 140 92 231t236 91t237 -91t93 -231q0 -141 -92.5 -232t-237.5 -91zM188 1374q0 -94 57.5 -161.5t143.5 -67.5t144.5 67.5t58.5 161.5q0 93 -58.5 161.5t-144.5 68.5t-143.5 -68.5t-57.5 -161.5z" />
    <glyph glyph-name="plusminus" unicode="&#xb1;" horiz-adv-x="985" 
d="M125 164q-19 0 -27 12t0 24.5t27 12.5h737q19 0 27 -12.5t0 -24.5t-27 -12h-737zM123 733q-22 0 -31 12.5t0 24.5t31 12h299q20 0 32.5 12.5t12.5 32.5v299q0 22 12.5 31t24.5 0t12 -31v-299q0 -20 12.5 -32.5t32.5 -12.5h299q22 0 31 -12t0 -24.5t-31 -12.5h-299
q-20 0 -32.5 -12.5t-12.5 -32.5v-299q0 -22 -12 -31t-24.5 0t-12.5 31v299q0 20 -12.5 32.5t-32.5 12.5h-299z" />
    <glyph glyph-name="acute" unicode="&#xb4;" horiz-adv-x="512" 
d="M244 1593q12 38 39.5 63t68.5 25q63 0 71 -43.5t-38 -93.5l-205 -252q-22 -22 -37 -22q-4 0 -7 1t-4.5 3.5t-1.5 7t1.5 11t4 15t7.5 19.5z" />
    <glyph glyph-name="paragraph" unicode="&#xb6;" horiz-adv-x="1095" 
d="M807 1638q33 0 136 5.5t149 5.5q28 0 28 -19q0 -16 -26 -16q-55 0 -91 -8t-64.5 -30t-42 -64t-13.5 -107l-2 -1622q0 -65 13.5 -107t42.5 -64t65 -30t90 -8q26 0 26 -16q0 -11 -5.5 -15t-20.5 -4q-46 0 -150 5t-135 5h-168q-31 0 -135 -5t-150 -5q-28 0 -28 19
q0 16 26 16q111 0 162 42.5t51 166.5v981q0 42 -27 68t-67 26q-195 0 -313.5 106t-118.5 283q0 191 127.5 291t341.5 100h299zM604 -244q0 -99 26.5 -143.5t96.5 -44.5q66 0 90.5 44t24.5 144v1753q0 40 -25 65t-65 25h-58q-40 0 -65 -25t-25 -65v-1753z" />
    <glyph glyph-name="periodcentered" unicode="&#xb7;" horiz-adv-x="446" 
d="M223 696q-51 0 -86 35t-35 86q0 50 35 85.5t86 35.5q49 0 85 -36t36 -85q0 -51 -35.5 -86t-85.5 -35z" />
    <glyph glyph-name="cedilla" unicode="&#xb8;" horiz-adv-x="681" 
d="M158 -510q-66 0 -66 18q0 10 10.5 12.5t36.5 2.5q133 0 214 49.5t81 146.5q0 56 -28.5 90.5t-71.5 34.5q-23 0 -58.5 -15t-44.5 -15q-10 0 -14.5 5t-3 13t6 17.5t11.5 19.5l103 151h41l-41 -77q-16 -29 0.5 -41.5t48.5 -12.5q81 0 140 -45t59 -133q0 -59 -39.5 -104
t-104.5 -69.5t-135.5 -36t-144.5 -11.5z" />
    <glyph glyph-name="guillemotright" unicode="&#xbb;" horiz-adv-x="929" 
d="M653 600q0 78 -211 485q-11 20 7 19q16 0 36 -19q133 -147 242 -289.5t109 -195.5q0 -52 -111 -198t-240 -289q-26 -26 -42 -20q-9 3 -1 20q78 151 144.5 298.5t66.5 188.5zM98 113q78 151 144.5 298.5t66.5 188.5q0 78 -211 485q-11 20 7 19q16 0 36 -19
q133 -147 242 -289.5t109 -195.5q0 -52 -111 -198t-240 -289q-26 -26 -42 -20q-9 3 -1 20z" />
    <glyph glyph-name="onequarter" unicode="&#xbc;" horiz-adv-x="1587" 
d="M438 858q0 -97 40.5 -131.5t119.5 -34.5q23 0 23 -14t-23 -14q-27 0 -96.5 4t-98.5 4h-73q-30 0 -102 -4t-109 -4q-27 0 -27 14t25 14q92 0 132.5 33.5t41.5 132.5v574q0 61 -18.5 82.5t-61.5 13.5t-129 -47q-30 -13 -33 0q-8 13 19 26l262 125q8 4 31.5 15.5t38 17.5
t22.5 6q16 0 16 -47v-766zM319 33q522 813 996 1603q20 35 51 35q41 0 2 -61q-566 -885 -995 -1604q-20 -35 -51 -35q-43 0 -3 62zM788 272q0 26 41 76q118 145 213 300.5t111 266.5q24 80 92 80q30 0 47 -16t17 -41q0 -49 -40.5 -114t-92.5 -121.5t-137.5 -148.5
t-141.5 -161q-15 -20 -9 -33.5t32 -13.5h204q22 0 34.5 13.5t12.5 35.5v207q0 12 8.5 19.5t20.5 7.5h80q12 0 20.5 -7.5t8.5 -19.5v-229q0 -11 7 -19t19 -8h74q11 0 19 -7.5t8 -19.5v-53q0 -12 -8 -19t-19 -7h-74q-12 0 -19 -8t-7 -19v-66q0 -71 36 -99t103 -28q18 0 18 -14
t-20 -14q-23 0 -82 4t-84 4h-76q-28 0 -91 -4t-95 -4q-23 0 -23 14t21 14q81 0 118 27.5t37 99.5v66q0 11 -7 19t-19 8h-111q-38 0 -105 -5.5t-83 -5.5q-58 0 -58 43z" />
    <glyph glyph-name="onehalf" unicode="&#xbd;" horiz-adv-x="1783" 
d="M438 858q0 -97 40.5 -131.5t119.5 -34.5q23 0 23 -14t-23 -14q-27 0 -96.5 4t-98.5 4h-73q-30 0 -102 -4t-109 -4q-27 0 -27 14t25 14q92 0 132.5 33.5t41.5 132.5v574q0 61 -18.5 82.5t-61.5 13.5t-129 -47q-30 -13 -33 0q-8 13 19 26l262 125q8 4 31.5 15.5t38 17.5
t22.5 6q16 0 16 -47v-766zM324 33q506 789 995 1603q20 35 51 35q41 0 2 -61q-566 -885 -995 -1604q-20 -35 -51 -35q-42 0 -2 62zM981 8q0 11 10 21q101 101 170.5 180t129.5 164t89 165.5t29 157.5q0 183 -160 183q-93 0 -149 -68t-56 -178q0 -21 -16 -21q-6 0 -11 6
t-5 15q0 162 84 264t227 102q115 0 177.5 -63.5t62.5 -167.5q0 -44 -12.5 -89.5t-40 -93t-54.5 -87t-71.5 -90.5t-74.5 -83.5t-81.5 -86t-75.5 -78.5q-10 -8 -10 -19q0 -22 31 -22h229q86 0 123.5 35.5t79.5 162.5q7 23 22 23t8 -25q-11 -30 -29.5 -75.5t-25.5 -65.5
q-25 -70 -33 -151q0 -31 -26 -31q-8 0 -43 4t-70 4h-256q-54 0 -102.5 -3t-49.5 -3q-20 0 -20 14z" />
    <glyph glyph-name="threequarters" unicode="&#xbe;" horiz-adv-x="1751" 
d="M190 762q0 26 18.5 42.5t43.5 16.5q18 0 32.5 -7.5t21 -14.5t22.5 -27q0 -1 11.5 -17.5t15.5 -21.5t16 -18.5t21 -18.5t22.5 -10.5t27.5 -5.5q26 0 53 14t52 42t41 78t16 114q0 65 -21 113t-57.5 74.5t-79 39t-92.5 12.5q-15 0 -21 8.5t-0.5 17.5t21.5 11q102 9 161.5 66
t59.5 155q0 65 -39 106.5t-120 41.5q-72 0 -119 -40.5t-53 -105.5q-1 -16 -14 -17t-15 16v8q6 111 79 174t177 63q110 0 181 -59.5t71 -161.5q0 -145 -211 -215q-29 -12 -26.5 -27t32.5 -20q46 -6 87.5 -23t78 -45.5t58.5 -73.5t22 -102q0 -134 -102.5 -212.5t-241.5 -78.5
q-91 0 -160.5 29t-69.5 80zM453 33q506 789 995 1603q20 35 51 35q41 0 2 -61q-566 -885 -995 -1604q-20 -35 -51 -35q-42 0 -2 62zM952 272q0 26 41 76q118 145 213 300.5t111 266.5q24 80 92 80q30 0 47 -16t17 -41q0 -49 -40.5 -114t-92.5 -121.5t-137.5 -148.5
t-141.5 -161q-15 -20 -9.5 -33.5t31.5 -13.5h205q22 0 34.5 13.5t12.5 35.5v207q0 12 8.5 19.5t20.5 7.5h80q12 0 20.5 -7.5t8.5 -19.5v-229q0 -11 7 -19t19 -8h74q11 0 18.5 -7.5t7.5 -19.5v-53q0 -12 -7.5 -19t-18.5 -7h-74q-12 0 -19 -8t-7 -19v-66q0 -71 36 -99t103 -28
q18 0 18 -14t-20 -14q-23 0 -82 4t-84 4h-76q-28 0 -91 -4t-95 -4q-23 0 -23 14t21 14q81 0 118 27.5t37 99.5v66q0 11 -7 19t-19 8h-111q-38 0 -105 -5.5t-83 -5.5q-58 0 -58 43z" />
    <glyph glyph-name="questiondown" unicode="&#xbf;" horiz-adv-x="806" 
d="M434 682q8 0 16 -7.5t27 -31.5q180 -208 180 -326q0 -86 -44.5 -157.5t-157.5 -161.5q-48 -39 -76 -62.5t-68.5 -60.5t-64 -65t-47.5 -63t-34.5 -69t-10.5 -69q0 -57 42 -97t113 -40q35 0 79 21t78.5 45.5t75.5 45.5t70 21q49 0 75 -35t26 -80q0 -99 -162 -96
q-242 1 -369 88t-127 246q0 110 59.5 198t209.5 217q109 95 152.5 160t43.5 133q0 43 -27.5 105t-56.5 102q-14 32 -10 37q3 2 8 2zM328 1004q0 51 35.5 85.5t85.5 34.5q51 0 85.5 -34.5t34.5 -85.5q0 -50 -34.5 -85.5t-85.5 -35.5q-49 0 -85 35.5t-36 85.5z" />
    <glyph glyph-name="Agrave" unicode="&#xc0;" horiz-adv-x="1523" 
d="M-18 8q0 17 22 17q98 0 159 40t99 156l469 1432q4 18 25 18h35q19 0 26 -18l473 -1432q38 -116 93.5 -156t140.5 -40q20 0 20 -17q0 -18 -20 -18q-36 0 -115 5t-102 5h-103q-35 0 -150 -5t-167 -5q-17 0 -24 4t-7 14q0 17 31 17q47 0 79 4.5t57.5 17t36 34.5t9.5 57
t-16 85l-76 242q-12 38 -44.5 62t-72.5 24h-368q-40 0 -72.5 -24t-44.5 -62l-78 -244q-16 -49 -18 -84t8 -56.5t35 -34t56.5 -17t78.5 -4.5q28 0 28 -17q0 -18 -30 -18q-37 0 -120.5 5t-127.5 5q-34 0 -102.5 -5t-98.5 -5q-14 0 -19 4t-5 14zM442 668q-12 -38 6 -62t58 -24
h344q38 0 55.5 24t5.5 62l-204 651q-7 24 -16.5 32.5t-19.5 0t-18 -32.5zM559 2048q-46 50 -38 93.5t71 43.5q41 0 68.5 -25t39.5 -63l101 -266q5 -11 7.5 -19.5t4 -15t1.5 -11t-1.5 -7t-4.5 -3.5t-7 -1q-15 0 -37 22z" />
    <glyph glyph-name="Aacute" unicode="&#xc1;" horiz-adv-x="1523" 
d="M-18 8q0 17 22 17q98 0 159 40t99 156l469 1432q4 18 25 18h35q19 0 26 -18l473 -1432q38 -116 93.5 -156t140.5 -40q20 0 20 -17q0 -18 -20 -18q-36 0 -115 5t-102 5h-103q-35 0 -150 -5t-167 -5q-17 0 -24 4t-7 14q0 17 31 17q47 0 79 4.5t57.5 17t36 34.5t9.5 57
t-16 85l-76 242q-12 38 -44.5 62t-72.5 24h-368q-40 0 -72.5 -24t-44.5 -62l-78 -244q-16 -49 -18 -84t8 -56.5t35 -34t56.5 -17t78.5 -4.5q28 0 28 -17q0 -18 -30 -18q-37 0 -120.5 5t-127.5 5q-34 0 -102.5 -5t-98.5 -5q-14 0 -19 4t-5 14zM442 668q-12 -38 6 -62t58 -24
h344q38 0 55.5 24t5.5 62l-204 651q-7 24 -16.5 32.5t-19.5 0t-18 -32.5zM731 1774q-4 0 -7 1t-4.5 3.5t-1.5 7t1.5 11t4 15t7.5 19.5l100 266q12 37 40 62.5t69 25.5q63 0 71 -43.5t-38 -93.5l-205 -252q-22 -22 -37 -22z" />
    <glyph glyph-name="Acircumflex" unicode="&#xc2;" horiz-adv-x="1523" 
d="M-18 8q0 17 22 17q98 0 159 40t99 156l469 1432q4 18 25 18h35q19 0 26 -18l473 -1432q38 -116 93.5 -156t140.5 -40q20 0 20 -17q0 -18 -20 -18q-36 0 -115 5t-102 5h-103q-35 0 -150 -5t-167 -5q-17 0 -24 4t-7 14q0 17 31 17q47 0 79 4.5t57.5 17t36 34.5t9.5 57
t-16 85l-76 242q-12 38 -44.5 62t-72.5 24h-368q-40 0 -72.5 -24t-44.5 -62l-78 -244q-16 -49 -18 -84t8 -56.5t35 -34t56.5 -17t78.5 -4.5q28 0 28 -17q0 -18 -30 -18q-37 0 -120.5 5t-127.5 5q-34 0 -102.5 -5t-98.5 -5q-14 0 -19 4t-5 14zM442 668q-12 -38 6 -62t58 -24
h344q38 0 55.5 24t5.5 62l-204 651q-7 24 -16.5 32.5t-19.5 0t-18 -32.5zM502 1800l141 262q33 60 61 85.5t64 25.5t66.5 -26t62.5 -85l139 -262q13 -22 -6 -22q-13 0 -37 24l-153 183q-45 45 -72 45q-25 0 -70 -45l-153 -183q-27 -24 -37 -24q-19 0 -6 22z" />
    <glyph glyph-name="Atilde" unicode="&#xc3;" horiz-adv-x="1523" 
d="M-18 8q0 17 22 17q98 0 159 40t99 156l469 1432q4 18 25 18h35q19 0 26 -18l473 -1432q38 -116 93.5 -156t140.5 -40q20 0 20 -17q0 -18 -20 -18q-36 0 -115 5t-102 5h-103q-35 0 -150 -5t-167 -5q-17 0 -24 4t-7 14q0 17 31 17q47 0 79 4.5t57.5 17t36 34.5t9.5 57
t-16 85l-76 242q-12 38 -44.5 62t-72.5 24h-368q-40 0 -72.5 -24t-44.5 -62l-78 -244q-16 -49 -18 -84t8 -56.5t35 -34t56.5 -17t78.5 -4.5q28 0 28 -17q0 -18 -30 -18q-37 0 -120.5 5t-127.5 5q-34 0 -102.5 -5t-98.5 -5q-14 0 -19 4t-5 14zM434 1804q9 55 20 95.5t31 83.5
t54 66.5t79 23.5t89 -23t74.5 -50t71.5 -50t79 -23q56 0 94.5 37.5t46.5 95.5q2 31 17 31q12 0 10 -31q-4 -51 -15.5 -95.5t-32.5 -85t-56.5 -64t-80.5 -23.5t-89 22.5t-74 50t-70.5 50t-77.5 22.5q-55 0 -91.5 -37t-47.5 -96q-5 -30 -21 -30q-13 0 -10 30zM442 668
q-12 -38 6 -62t58 -24h344q38 0 55.5 24t5.5 62l-204 651q-7 24 -16.5 32.5t-19.5 0t-18 -32.5z" />
    <glyph glyph-name="Adieresis" unicode="&#xc4;" horiz-adv-x="1523" 
d="M-18 8q0 17 22 17q98 0 159 40t99 156l469 1432q4 18 25 18h35q19 0 26 -18l473 -1432q38 -116 93.5 -156t140.5 -40q20 0 20 -17q0 -18 -20 -18q-36 0 -115 5t-102 5h-103q-35 0 -150 -5t-167 -5q-17 0 -24 4t-7 14q0 17 31 17q47 0 79 4.5t57.5 17t36 34.5t9.5 57
t-16 85l-76 242q-12 38 -44.5 62t-72.5 24h-368q-40 0 -72.5 -24t-44.5 -62l-78 -244q-16 -49 -18 -84t8 -56.5t35 -34t56.5 -17t78.5 -4.5q28 0 28 -17q0 -18 -30 -18q-37 0 -120.5 5t-127.5 5q-34 0 -102.5 -5t-98.5 -5q-14 0 -19 4t-5 14zM442 668q-12 -38 6 -62t58 -24
h344q38 0 55.5 24t5.5 62l-204 651q-7 24 -16.5 32.5t-19.5 0t-18 -32.5zM477 1952q0 51 35.5 86t85.5 35t85.5 -35t35.5 -86q0 -49 -35.5 -84t-85.5 -35t-85.5 35t-35.5 84zM815 1952q0 51 35.5 86t85.5 35t85.5 -35t35.5 -86q0 -49 -35.5 -84t-85.5 -35t-85.5 35t-35.5 84
z" />
    <glyph glyph-name="Aring" unicode="&#xc5;" horiz-adv-x="1523" 
d="M-18 8q0 17 22 17q98 0 159 40t99 156l469 1432q4 18 25 18h35q19 0 26 -18l473 -1432q38 -116 93.5 -156t140.5 -40q20 0 20 -17q0 -18 -20 -18q-36 0 -115 5t-102 5h-103q-35 0 -150 -5t-167 -5q-17 0 -24 4t-7 14q0 17 31 17q47 0 79 4.5t57.5 17t36 34.5t9.5 57
t-16 85l-76 242q-12 38 -44.5 62t-72.5 24h-368q-40 0 -72.5 -24t-44.5 -62l-78 -244q-16 -49 -18 -84t8 -56.5t35 -34t56.5 -17t78.5 -4.5q28 0 28 -17q0 -18 -30 -18q-37 0 -120.5 5t-127.5 5q-34 0 -102.5 -5t-98.5 -5q-14 0 -19 4t-5 14zM442 668q-12 -38 6 -62t58 -24
h344q38 0 55.5 24t5.5 62l-204 651q-7 24 -16.5 32.5t-19.5 0t-18 -32.5zM610 1958q0 66 40 109.5t118 43.5q75 0 114.5 -43.5t39.5 -109.5q0 -69 -39 -113.5t-115 -44.5q-78 0 -118 44.5t-40 113.5zM659 1958q0 -54 30 -86.5t79 -32.5q47 0 75.5 32.5t28.5 86.5
q0 52 -28.5 83.5t-75.5 31.5q-50 0 -79.5 -31.5t-29.5 -83.5z" />
    <glyph glyph-name="AE" unicode="&#xc6;" horiz-adv-x="1937" 
d="M1755 -10q-19 0 -85 5t-128 5h-545q-31 0 -134 -5t-150 -5q-29 0 -29 18q0 17 27 17q55 0 91 8t65.5 30t43 63.5t13.5 106.5v228q0 40 -25 65t-65 25h-275q-39 0 -74.5 -23t-50.5 -59l-112 -256q-26 -59 -30.5 -96.5t14.5 -57.5t51 -27t87 -7q27 0 27 -17q0 -18 -29 -18
q-34 0 -113 5t-122 5q-34 0 -102.5 -5t-98.5 -5q-14 0 -19 4t-5 14q0 17 22 17q99 0 164.5 38.5t114.5 149.5l526 1212q27 59 31.5 97t-14 58t-49.5 27t-85 7q-26 0 -26 16q0 19 28 19q45 0 148 -5.5t135 -5.5h592q49 0 104 5.5t70 5.5q26 0 35.5 -14t9.5 -42
q0 -10 -0.5 -42.5t-0.5 -68t1 -71.5q3 -65 24 -229q3 -35 -20 -35q-19 0 -27 31q-51 240 -113 333t-182 93h-210q-107 0 -107 -111v-532q0 -40 22.5 -65.5t57.5 -25.5h170q62 0 102 14.5t61 45.5t29 69t9 95q0 17 3.5 22.5t12.5 5.5t12.5 -5.5t3.5 -22.5q0 -42 -3.5 -130.5
t-4.5 -109.5q1 -23 4.5 -111.5t3.5 -130.5q0 -28 -16 -28q-18 0 -18 26q0 118 -40.5 172t-158.5 54h-160q-40 0 -65 -22.5t-25 -57.5v-590q0 -74 23.5 -102.5t93.5 -28.5h213q39 0 75.5 16.5t69.5 52t59.5 71.5t56.5 94.5t49.5 101t47.5 108.5q7 20 14 26.5t19 6.5
q11 0 16.5 -8.5t1.5 -22.5q-6 -23 -26 -87t-33 -111q-33 -114 -33 -238q0 -28 -9.5 -41.5t-35.5 -13.5zM518 666q-15 -35 0.5 -58.5t54.5 -23.5h261q40 0 65 25t25 65v829q0 39 -11 41.5t-26 -33.5z" />
    <glyph glyph-name="Ccedilla" unicode="&#xc7;" horiz-adv-x="1366" 
d="M72 780q0 262 91.5 465t255 314.5t372.5 111.5q83 0 173.5 -11t104.5 -11q40 0 69 8t33 8q10 0 14.5 -6t4.5 -25q-2 -180 29 -528q3 -33 -15 -33q-14 0 -20 31q-24 115 -46.5 194t-54.5 146.5t-71.5 106t-94 60t-126.5 21.5q-140 0 -248 -101t-166 -278t-58 -401
q0 -221 59.5 -396t170 -273.5t252.5 -98.5q123 0 223 83.5t158.5 214t79.5 290.5q3 21 6.5 28t11.5 7q18 0 12 -35q-11 -109 -38.5 -208.5t-75.5 -191.5t-112 -158.5t-154 -106.5t-197 -40q-29 0 -41 2l-15 -26q-16 -29 1 -41.5t49 -12.5q81 0 139.5 -44.5t58.5 -133.5
q0 -59 -39.5 -104t-104.5 -69.5t-135.5 -36t-144.5 -11.5q-65 0 -65 18q0 10 10.5 12.5t36.5 2.5q133 0 214 49.5t81 146.5q0 56 -28.5 90.5t-72.5 34.5q-23 0 -58 -15t-44 -15q-10 0 -14.5 5t-3 13t6 17.5t11.5 19.5l70 104q-170 23 -296.5 134t-192.5 285t-66 388z" />
    <glyph glyph-name="Egrave" unicode="&#xc8;" horiz-adv-x="1226" 
d="M1044 -10q-20 0 -85 5t-125 5h-545q-33 0 -136 -5t-149 -5q-29 0 -29 18q0 17 27 17q55 0 90.5 8t64.5 30t42.5 63.5t13.5 106.5v1172q1 65 -12.5 107t-42.5 64t-65 30t-91 8q-27 0 -27 16q3 19 29 19q47 0 150.5 -5.5t134.5 -5.5h571q49 0 103.5 5.5t68.5 5.5
q27 0 37 -14t10 -42q0 -25 -2 -98t-2 -111q4 -65 29 -202q6 -35 -14 -35q-17 0 -23 31q-38 170 -77.5 259t-99 130t-155.5 41h-184q-107 0 -107 -111v-539q0 -38 22.5 -63t57.5 -25h183q58 -1 96 12.5t57.5 42t27 64.5t7.5 90q0 27 16 27q15 0 15 -27q0 -34 -4 -109t-4 -116
q0 -36 4 -113t4 -112q0 -27 -15 -27q-16 0 -16 27q0 109 -38.5 160t-149.5 51h-172q-40 0 -65.5 -22.5t-25.5 -57.5v-598q0 -74 23 -102.5t92 -28.5h182q67 0 114.5 18.5t95 72t91 135.5t103.5 222q14 33 26 33q21 0 11 -31q-6 -22 -25.5 -86.5t-32.5 -111.5
q-32 -110 -32 -238q0 -28 -10.5 -41.5t-37.5 -13.5zM426 2048q-46 50 -38 93.5t71 43.5q41 0 68.5 -25t39.5 -63l101 -266q5 -11 7.5 -19.5t4 -15t1.5 -11t-1.5 -7t-4.5 -3.5t-7 -1q-15 0 -37 22z" />
    <glyph glyph-name="Eacute" unicode="&#xc9;" horiz-adv-x="1226" 
d="M1044 -10q-20 0 -85 5t-125 5h-545q-33 0 -136 -5t-149 -5q-29 0 -29 18q0 17 27 17q55 0 90.5 8t64.5 30t42.5 63.5t13.5 106.5v1172q1 65 -12.5 107t-42.5 64t-65 30t-91 8q-27 0 -27 16q3 19 29 19q47 0 150.5 -5.5t134.5 -5.5h571q49 0 103.5 5.5t68.5 5.5
q27 0 37 -14t10 -42q0 -25 -2 -98t-2 -111q4 -65 29 -202q6 -35 -14 -35q-17 0 -23 31q-38 170 -77.5 259t-99 130t-155.5 41h-184q-107 0 -107 -111v-539q0 -38 22.5 -63t57.5 -25h183q58 -1 96 12.5t57.5 42t27 64.5t7.5 90q0 27 16 27q15 0 15 -27q0 -34 -4 -109t-4 -116
q0 -36 4 -113t4 -112q0 -27 -15 -27q-16 0 -16 27q0 109 -38.5 160t-149.5 51h-172q-40 0 -65.5 -22.5t-25.5 -57.5v-598q0 -74 23 -102.5t92 -28.5h182q67 0 114.5 18.5t95 72t91 135.5t103.5 222q14 33 26 33q21 0 11 -31q-6 -22 -25.5 -86.5t-32.5 -111.5
q-32 -110 -32 -238q0 -28 -10.5 -41.5t-37.5 -13.5zM600 1774q-4 0 -7 1t-4.5 3.5t-1.5 7t1.5 11t4 15t7.5 19.5l100 266q12 37 40 62.5t69 25.5q63 0 71 -43.5t-38 -93.5l-205 -252q-22 -22 -37 -22z" />
    <glyph glyph-name="Ecircumflex" unicode="&#xca;" horiz-adv-x="1226" 
d="M1044 -10q-20 0 -85 5t-125 5h-545q-33 0 -136 -5t-149 -5q-29 0 -29 18q0 17 27 17q55 0 90.5 8t64.5 30t42.5 63.5t13.5 106.5v1172q1 65 -12.5 107t-42.5 64t-65 30t-91 8q-27 0 -27 16q3 19 29 19q47 0 150.5 -5.5t134.5 -5.5h571q49 0 103.5 5.5t68.5 5.5
q27 0 37 -14t10 -42q0 -25 -2 -98t-2 -111q4 -65 29 -202q6 -35 -14 -35q-17 0 -23 31q-38 170 -77.5 259t-99 130t-155.5 41h-184q-107 0 -107 -111v-539q0 -38 22.5 -63t57.5 -25h183q58 -1 96 12.5t57.5 42t27 64.5t7.5 90q0 27 16 27q15 0 15 -27q0 -34 -4 -109t-4 -116
q0 -36 4 -113t4 -112q0 -27 -15 -27q-16 0 -16 27q0 109 -38.5 160t-149.5 51h-172q-40 0 -65.5 -22.5t-25.5 -57.5v-598q0 -74 23 -102.5t92 -28.5h182q67 0 114.5 18.5t95 72t91 135.5t103.5 222q14 33 26 33q21 0 11 -31q-6 -22 -25.5 -86.5t-32.5 -111.5
q-32 -110 -32 -238q0 -28 -10.5 -41.5t-37.5 -13.5zM369 1800l141 262q33 60 61 85.5t64 25.5t66.5 -26t62.5 -85l139 -262q13 -22 -6 -22q-13 0 -37 24l-153 183q-45 45 -72 45q-25 0 -70 -45l-153 -183q-27 -24 -37 -24q-19 0 -6 22z" />
    <glyph glyph-name="Edieresis" unicode="&#xcb;" horiz-adv-x="1226" 
d="M1044 -10q-20 0 -85 5t-125 5h-545q-33 0 -136 -5t-149 -5q-29 0 -29 18q0 17 27 17q55 0 90.5 8t64.5 30t42.5 63.5t13.5 106.5v1172q1 65 -12.5 107t-42.5 64t-65 30t-91 8q-27 0 -27 16q3 19 29 19q47 0 150.5 -5.5t134.5 -5.5h571q49 0 103.5 5.5t68.5 5.5
q27 0 37 -14t10 -42q0 -25 -2 -98t-2 -111q4 -65 29 -202q6 -35 -14 -35q-17 0 -23 31q-38 170 -77.5 259t-99 130t-155.5 41h-184q-107 0 -107 -111v-539q0 -38 22.5 -63t57.5 -25h183q58 -1 96 12.5t57.5 42t27 64.5t7.5 90q0 27 16 27q15 0 15 -27q0 -34 -4 -109t-4 -116
q0 -36 4 -113t4 -112q0 -27 -15 -27q-16 0 -16 27q0 109 -38.5 160t-149.5 51h-172q-40 0 -65.5 -22.5t-25.5 -57.5v-598q0 -74 23 -102.5t92 -28.5h182q67 0 114.5 18.5t95 72t91 135.5t103.5 222q14 33 26 33q21 0 11 -31q-6 -22 -25.5 -86.5t-32.5 -111.5
q-32 -110 -32 -238q0 -28 -10.5 -41.5t-37.5 -13.5zM346 1952q0 51 35.5 86t85.5 35t85.5 -35t35.5 -86q0 -49 -35.5 -84t-85.5 -35t-85.5 35t-35.5 84zM684 1952q0 51 35.5 86t85.5 35t85.5 -35t35.5 -86q0 -49 -35.5 -84t-85.5 -35t-85.5 35t-35.5 84z" />
    <glyph glyph-name="Igrave" unicode="&#xcc;" horiz-adv-x="657" 
d="M213 1405q1 65 -12.5 107t-42.5 64t-65 30t-91 8q-27 0 -27 16q3 19 29 19q47 0 150.5 -5.5t134.5 -5.5h82q31 0 134 5.5t150 5.5q27 0 27 -19q0 -16 -27 -16q-54 0 -90 -8t-65 -30t-42.5 -64t-13.5 -107v-1172q0 -65 13.5 -106.5t42.5 -63.5t64.5 -30t90.5 -8
q27 0 27 -17q0 -18 -29 -18q-46 0 -148.5 5t-135.5 5h-80q-33 0 -136 -5t-149 -5q-29 0 -29 18q0 17 27 17q55 0 90.5 8t64.5 30t42.5 63.5t13.5 106.5v1172zM119 2048q-46 50 -38 93.5t71 43.5q41 0 68.5 -25t39.5 -63l100 -266q5 -11 7.5 -19.5t4 -15t1.5 -11t-1.5 -7
t-4.5 -3.5t-7 -1q-14 0 -36 22z" />
    <glyph glyph-name="Iacute" unicode="&#xcd;" horiz-adv-x="657" 
d="M213 1405q1 65 -12.5 107t-42.5 64t-65 30t-91 8q-27 0 -27 16q3 19 29 19q47 0 150.5 -5.5t134.5 -5.5h82q31 0 134 5.5t150 5.5q27 0 27 -19q0 -16 -27 -16q-54 0 -90 -8t-65 -30t-42.5 -64t-13.5 -107v-1172q0 -65 13.5 -106.5t42.5 -63.5t64.5 -30t90.5 -8
q27 0 27 -17q0 -18 -29 -18q-46 0 -148.5 5t-135.5 5h-80q-33 0 -136 -5t-149 -5q-29 0 -29 18q0 17 27 17q55 0 90.5 8t64.5 30t42.5 63.5t13.5 106.5v1172zM293 1774q-4 0 -7 1t-4.5 3.5t-1.5 7t1.5 11t4 15t7.5 19.5l100 266q12 37 40 62.5t69 25.5q63 0 71 -43.5
t-38 -93.5l-205 -252q-22 -22 -37 -22z" />
    <glyph glyph-name="Icircumflex" unicode="&#xce;" horiz-adv-x="657" 
d="M213 1405q1 65 -12.5 107t-42.5 64t-65 30t-91 8q-27 0 -27 16q3 19 29 19q47 0 150.5 -5.5t134.5 -5.5h82q31 0 134 5.5t150 5.5q27 0 27 -19q0 -16 -27 -16q-54 0 -90 -8t-65 -30t-42.5 -64t-13.5 -107v-1172q0 -65 13.5 -106.5t42.5 -63.5t64.5 -30t90.5 -8
q27 0 27 -17q0 -18 -29 -18q-46 0 -148.5 5t-135.5 5h-80q-33 0 -136 -5t-149 -5q-29 0 -29 18q0 17 27 17q55 0 90.5 8t64.5 30t42.5 63.5t13.5 106.5v1172zM61 1800l142 262q33 60 61 85.5t64 25.5t66.5 -26t62.5 -85l139 -262q13 -22 -6 -22q-13 0 -37 24l-154 183
q-45 45 -71 45q-25 0 -70 -45l-154 -183q-27 -24 -36 -24q-8 0 -10.5 6t3.5 16z" />
    <glyph glyph-name="Idieresis" unicode="&#xcf;" horiz-adv-x="657" 
d="M213 1405q1 65 -12.5 107t-42.5 64t-65 30t-91 8q-27 0 -27 16q3 19 29 19q47 0 150.5 -5.5t134.5 -5.5h82q31 0 134 5.5t150 5.5q27 0 27 -19q0 -16 -27 -16q-54 0 -90 -8t-65 -30t-42.5 -64t-13.5 -107v-1172q0 -65 13.5 -106.5t42.5 -63.5t64.5 -30t90.5 -8
q27 0 27 -17q0 -18 -29 -18q-46 0 -148.5 5t-135.5 5h-80q-33 0 -136 -5t-149 -5q-29 0 -29 18q0 17 27 17q55 0 90.5 8t64.5 30t42.5 63.5t13.5 106.5v1172zM39 1952q0 51 35.5 86t85.5 35t85.5 -35t35.5 -86q0 -49 -35.5 -84t-85.5 -35t-85.5 35t-35.5 84zM377 1952
q0 51 35.5 86t85.5 35t85 -35t35 -86q0 -49 -35 -84t-85 -35t-85.5 35t-35.5 84z" />
    <glyph glyph-name="Eth" unicode="&#xd0;" horiz-adv-x="1464" 
d="M289 0q-33 0 -136 -5t-149 -5q-29 0 -29 18q0 17 27 17q55 0 90.5 8t64.5 30t42.5 63.5t13.5 106.5v601q-11 22 -43 22h-131q-21 0 -21 16q0 17 21 17h131q32 0 43 22v494q1 65 -12.5 107t-42.5 64t-65 30t-91 8q-27 0 -27 16q3 19 29 19q47 0 150.5 -5.5t134.5 -5.5h309
q132 0 250 -30.5t220 -96.5t176 -161.5t116.5 -233.5t42.5 -305q0 -161 -39.5 -294.5t-111 -228.5t-171 -160.5t-219 -96.5t-256.5 -31h-317zM444 184q0 -92 32 -121.5t106 -29.5q119 0 216 41t163.5 112t112 168.5t66.5 208.5t21 234q0 230 -77 416t-208.5 289.5
t-291.5 103.5q-78 0 -109 -25t-31 -106v-543h5q0 -19 12 -31t35 -12h342q20 0 20 -17q0 -16 -20 -16h-342q-23 0 -35 -12t-12 -31h-5v-629z" />
    <glyph glyph-name="Ntilde" unicode="&#xd1;" horiz-adv-x="1466" 
d="M1167 -33q-18 0 -28 17l-781 1265q-22 34 -34.5 31t-12.5 -43v-1004q-1 -65 17 -106.5t57 -63.5t87.5 -30t121.5 -8q35 0 35 -19q0 -16 -37 -16q-50 0 -151.5 4.5t-147.5 5.5q-34 -1 -125.5 -5.5t-134.5 -4.5q-19 0 -26 4t-7 14q0 17 31 17q63 0 105 8t75.5 30t49 63.5
t15.5 106.5v1049q0 93 -47 166l-32 51q-33 53 -88 84t-113 31q-29 0 -29 14q0 21 31 21q64 0 157.5 -4t149.5 -5q50 -5 79 -22t56 -59l729 -1188q22 -34 35 -30t13 44v1020q1 65 -17 107t-57 64t-87.5 30t-121.5 8q-35 0 -35 18q0 17 37 17q50 0 151.5 -5t147.5 -6
q31 1 110 6t117 5q27 0 27 -19q0 -16 -27 -16q-54 0 -90 -8t-65 -30t-42.5 -64t-13.5 -107v-1419q0 -8 -5.5 -13.5t-12.5 -5.5h-66zM416 1843q7 43 14.5 76t22.5 71t33.5 63t47.5 41.5t66 16.5t72 -15t63 -36.5t55.5 -42.5t59 -36t63.5 -15q56 0 95 37.5t47 95.5q2 31 16 31
q12 0 10 -31q-6 -70 -23.5 -126.5t-59 -99t-101.5 -42.5q-45 0 -89 22.5t-74 50t-70.5 50t-77.5 22.5q-55 0 -92 -37t-48 -96q-5 -31 -20 -31q-13 0 -10 31z" />
    <glyph glyph-name="Ograve" unicode="&#xd2;" horiz-adv-x="1417" 
d="M713 -33q-189 0 -336.5 113t-226 306t-78.5 431q0 239 78.5 432t224 305.5t332.5 112.5q189 0 336.5 -113.5t226 -306.5t78.5 -430q0 -239 -78 -432t-224 -305.5t-333 -112.5zM299 1047q0 -196 32.5 -379.5t92.5 -330t153 -235t205 -88.5q161 1 249.5 158t88.5 420
q0 194 -33 377t-93 328.5t-153 234t-204 88.5q-106 0 -183.5 -76t-116 -204.5t-38.5 -292.5zM500 2048q-46 50 -38.5 93.5t70.5 43.5q41 0 69 -25.5t40 -62.5l100 -266q5 -11 7.5 -19.5t4 -15t1.5 -11t-1.5 -7t-4.5 -3.5t-7 -1q-14 0 -36 22z" />
    <glyph glyph-name="Oacute" unicode="&#xd3;" horiz-adv-x="1417" 
d="M713 -33q-189 0 -336.5 113t-226 306t-78.5 431q0 239 78.5 432t224 305.5t332.5 112.5q189 0 336.5 -113.5t226 -306.5t78.5 -430q0 -239 -78 -432t-224 -305.5t-333 -112.5zM299 1047q0 -196 32.5 -379.5t92.5 -330t153 -235t205 -88.5q161 1 249.5 158t88.5 420
q0 194 -33 377t-93 328.5t-153 234t-204 88.5q-106 0 -183.5 -76t-116 -204.5t-38.5 -292.5zM672 1774q-4 0 -7 1t-4.5 3.5t-1.5 7t1.5 11t4 15t7.5 19.5l100 266q12 37 40 62.5t69 25.5q63 0 70.5 -43.5t-38.5 -93.5l-204 -252q-22 -22 -37 -22z" />
    <glyph glyph-name="Ocircumflex" unicode="&#xd4;" horiz-adv-x="1417" 
d="M713 -33q-189 0 -336.5 113t-226 306t-78.5 431q0 239 78.5 432t224 305.5t332.5 112.5q189 0 336.5 -113.5t226 -306.5t78.5 -430q0 -239 -78 -432t-224 -305.5t-333 -112.5zM299 1047q0 -196 32.5 -379.5t92.5 -330t153 -235t205 -88.5q161 1 249.5 158t88.5 420
q0 194 -33 377t-93 328.5t-153 234t-204 88.5q-106 0 -183.5 -76t-116 -204.5t-38.5 -292.5zM442 1800l142 262q33 60 61 85.5t64 25.5t66.5 -26t62.5 -85l139 -262q13 -22 -6 -22q-13 0 -37 24l-154 183q-45 45 -71 45q-25 0 -70 -45l-154 -183q-27 -24 -36 -24
q-8 0 -10.5 6t3.5 16z" />
    <glyph glyph-name="Otilde" unicode="&#xd5;" horiz-adv-x="1417" 
d="M713 -33q-189 0 -336.5 113t-226 306t-78.5 431q0 239 78.5 432t224 305.5t332.5 112.5q189 0 336.5 -113.5t226 -306.5t78.5 -430q0 -239 -78 -432t-224 -305.5t-333 -112.5zM299 1047q0 -196 32.5 -379.5t92.5 -330t153 -235t205 -88.5q161 1 249.5 158t88.5 420
q0 194 -33 377t-93 328.5t-153 234t-204 88.5q-106 0 -183.5 -76t-116 -204.5t-38.5 -292.5zM375 1804q9 55 20 95.5t31 83.5t54 66.5t79 23.5t89 -23t74.5 -50t71 -50t78.5 -23q56 0 95 37.5t47 95.5q2 31 16 31q12 0 10 -31q-6 -70 -23.5 -126.5t-59 -99t-101.5 -42.5
q-45 0 -89 22.5t-74 50t-70.5 50t-77.5 22.5q-55 0 -91.5 -37t-47.5 -96q-5 -30 -21 -30q-13 0 -10 30z" />
    <glyph glyph-name="Odieresis" unicode="&#xd6;" horiz-adv-x="1417" 
d="M713 -33q-189 0 -336.5 113t-226 306t-78.5 431q0 239 78.5 432t224 305.5t332.5 112.5q189 0 336.5 -113.5t226 -306.5t78.5 -430q0 -239 -78 -432t-224 -305.5t-333 -112.5zM299 1047q0 -196 32.5 -379.5t92.5 -330t153 -235t205 -88.5q161 1 249.5 158t88.5 420
q0 194 -33 377t-93 328.5t-153 234t-204 88.5q-106 0 -183.5 -76t-116 -204.5t-38.5 -292.5zM420 1952q0 51 35.5 86t85.5 35t85.5 -35t35.5 -86q0 -49 -35.5 -84t-85.5 -35t-85.5 35t-35.5 84zM758 1952q0 51 35.5 86t85.5 35t85 -35t35 -86q0 -49 -35 -84t-85 -35
t-85.5 35t-35.5 84z" />
    <glyph glyph-name="multiply" unicode="&#xd7;" horiz-adv-x="815" 
d="M131 844q-26 26 -8.5 43t43.5 -8l213 -213q13 -14 31 -14t32 14l211 213q25 25 42.5 7.5t-7.5 -42.5l-213 -211q-13 -13 -13 -32t13 -32l211 -211q16 -17 13.5 -32.5t-16 -16t-30.5 14.5l-211 211q-14 13 -32 13t-31 -13l-213 -211q-16 -17 -31 -15t-15.5 16.5t13.5 32.5
l211 211q14 13 14 32t-14 32z" />
    <glyph glyph-name="Oslash" unicode="&#xd8;" horiz-adv-x="1417" 
d="M713 -33q-216 0 -377 148l-90 -156q-21 -35 -41 -35q-22 0 -4 35l106 182q-113 116 -174 291.5t-61 384.5q0 239 78.5 432t224 305.5t332.5 112.5q229 0 393 -164l78 133q13 21 19.5 28t16.5 7q25 0 7 -35l-95 -159q106 -118 164 -289t58 -371q0 -239 -78 -432
t-224 -305.5t-333 -112.5zM299 1047q0 -410 125 -707l563 971q-64 145 -152.5 227t-197.5 82q-106 0 -183.5 -76t-116 -204.5t-38.5 -292.5zM442 297q64 -133 150 -208t190 -75q161 1 249.5 158t88.5 420q0 394 -114 676z" />
    <glyph glyph-name="Ugrave" unicode="&#xd9;" horiz-adv-x="1482" 
d="M766 -33q-116 0 -208 29t-154 80t-103 124.5t-59.5 159t-18.5 187.5v858q1 65 -12.5 107t-42.5 64t-65 30t-91 8q-26 0 -26 16q2 11 7.5 15t20.5 4q46 0 150 -5.5t135 -5.5h82q31 0 135 5.5t150 5.5q26 0 26 -19q0 -16 -26 -16q-54 0 -90 -8t-65 -30t-42.5 -64
t-13.5 -107v-858q0 -245 97 -360t292 -115q172 0 275.5 117t103.5 364v852q1 65 -12.5 107t-42.5 64t-65 30t-91 8q-27 0 -27 16q3 19 29 19q39 0 121 -4t106 -5q24 1 106 5t121 4q27 0 27 -19q0 -16 -27 -16q-54 0 -90 -8t-65 -30t-42.5 -64t-13.5 -107v-852
q0 -68 -6 -127.5t-21.5 -120t-39.5 -109.5t-62.5 -92.5t-88.5 -73t-119.5 -46.5t-153.5 -17zM625 2048q-46 50 -38.5 93.5t70.5 43.5q41 0 69 -25.5t40 -62.5l100 -266q5 -11 7.5 -19.5t4 -15t1.5 -11t-1.5 -7t-4.5 -3.5t-7 -1q-15 0 -37 22z" />
    <glyph glyph-name="Uacute" unicode="&#xda;" horiz-adv-x="1482" 
d="M766 -33q-116 0 -208 29t-154 80t-103 124.5t-59.5 159t-18.5 187.5v858q1 65 -12.5 107t-42.5 64t-65 30t-91 8q-26 0 -26 16q2 11 7.5 15t20.5 4q46 0 150 -5.5t135 -5.5h82q31 0 135 5.5t150 5.5q26 0 26 -19q0 -16 -26 -16q-54 0 -90 -8t-65 -30t-42.5 -64
t-13.5 -107v-858q0 -245 97 -360t292 -115q172 0 275.5 117t103.5 364v852q1 65 -12.5 107t-42.5 64t-65 30t-91 8q-27 0 -27 16q3 19 29 19q39 0 121 -4t106 -5q24 1 106 5t121 4q27 0 27 -19q0 -16 -27 -16q-54 0 -90 -8t-65 -30t-42.5 -64t-13.5 -107v-852
q0 -68 -6 -127.5t-21.5 -120t-39.5 -109.5t-62.5 -92.5t-88.5 -73t-119.5 -46.5t-153.5 -17zM799 1774q-4 0 -7 1t-4.5 3.5t-1.5 7t1.5 11t4 15t7.5 19.5l100 266q12 37 40 62.5t69 25.5q63 0 70.5 -43.5t-38.5 -93.5l-204 -252q-22 -22 -37 -22z" />
    <glyph glyph-name="Ucircumflex" unicode="&#xdb;" horiz-adv-x="1482" 
d="M766 -33q-116 0 -208 29t-154 80t-103 124.5t-59.5 159t-18.5 187.5v858q1 65 -12.5 107t-42.5 64t-65 30t-91 8q-26 0 -26 16q2 11 7.5 15t20.5 4q46 0 150 -5.5t135 -5.5h82q31 0 135 5.5t150 5.5q26 0 26 -19q0 -16 -26 -16q-54 0 -90 -8t-65 -30t-42.5 -64
t-13.5 -107v-858q0 -245 97 -360t292 -115q172 0 275.5 117t103.5 364v852q1 65 -12.5 107t-42.5 64t-65 30t-91 8q-27 0 -27 16q3 19 29 19q39 0 121 -4t106 -5q24 1 106 5t121 4q27 0 27 -19q0 -16 -27 -16q-54 0 -90 -8t-65 -30t-42.5 -64t-13.5 -107v-852
q0 -68 -6 -127.5t-21.5 -120t-39.5 -109.5t-62.5 -92.5t-88.5 -73t-119.5 -46.5t-153.5 -17zM567 1800l142 262q33 60 61 85.5t64 25.5t66.5 -26t62.5 -85l139 -262q13 -22 -6 -22q-13 0 -37 24l-154 183q-45 45 -71 45q-25 0 -70 -45l-154 -183q-27 -24 -37 -24
q-19 0 -6 22z" />
    <glyph glyph-name="Udieresis" unicode="&#xdc;" horiz-adv-x="1482" 
d="M766 -33q-116 0 -208 29t-154 80t-103 124.5t-59.5 159t-18.5 187.5v858q1 65 -12.5 107t-42.5 64t-65 30t-91 8q-26 0 -26 16q2 11 7.5 15t20.5 4q46 0 150 -5.5t135 -5.5h82q31 0 135 5.5t150 5.5q26 0 26 -19q0 -16 -26 -16q-54 0 -90 -8t-65 -30t-42.5 -64
t-13.5 -107v-858q0 -245 97 -360t292 -115q172 0 275.5 117t103.5 364v852q1 65 -12.5 107t-42.5 64t-65 30t-91 8q-27 0 -27 16q3 19 29 19q39 0 121 -4t106 -5q24 1 106 5t121 4q27 0 27 -19q0 -16 -27 -16q-54 0 -90 -8t-65 -30t-42.5 -64t-13.5 -107v-852
q0 -68 -6 -127.5t-21.5 -120t-39.5 -109.5t-62.5 -92.5t-88.5 -73t-119.5 -46.5t-153.5 -17zM545 1952q0 51 35.5 86t85.5 35t85 -35t35 -86q0 -49 -35 -84t-85 -35t-85.5 35t-35.5 84zM883 1952q0 51 35.5 86t85.5 35t85 -35t35 -86q0 -49 -35 -84t-85 -35t-85.5 35
t-35.5 84z" />
    <glyph glyph-name="Yacute" unicode="&#xdd;" horiz-adv-x="1415" 
d="M838 233q0 -124 60 -166t192 -42q32 0 32 -17q0 -11 -6.5 -14.5t-25.5 -3.5q-56 0 -180 5t-162 5h-52q-38 0 -162 -5t-180 -5q-32 0 -32 18q0 17 32 17q65 0 108 8t78 30t51.5 63.5t16.5 106.5v398q0 86 -41 170l-315 629q-54 108 -114 146t-136 38q-12 0 -16 3.5
t-4 12.5q0 19 20 19q26 0 89 -5.5t89 -5.5h125q40 0 171 5.5t190 5.5q34 0 34 -19q0 -16 -34 -16q-68 0 -108 -6.5t-64.5 -26t-21.5 -56.5t32 -95l274 -553q19 -35 40 -34t38 36l252 548q28 58 32.5 95.5t-17 57.5t-57.5 27t-97 7q-29 0 -29 16q0 19 31 19q37 0 123.5 -5.5
t134.5 -5.5q29 0 92 5.5t90 5.5q23 0 23 -19q0 -16 -23 -16q-89 0 -151.5 -38.5t-114.5 -148.5l-271 -583q-36 -85 -36 -170v-441zM735 1774q-4 0 -7 1t-4.5 3.5t-1.5 7t1.5 11t4 15t7.5 19.5l101 266q12 38 39.5 63t68.5 25q63 0 71 -43.5t-38 -93.5l-205 -252
q-22 -22 -37 -22z" />
    <glyph glyph-name="Thorn" unicode="&#xde;" horiz-adv-x="1214" 
d="M524 412q-38 6 -59 -15.5t-21 -62.5v-101q0 -65 13.5 -106.5t42.5 -63.5t64.5 -30t90.5 -8q27 0 27 -17q0 -18 -29 -18q-46 0 -148.5 5t-135.5 5h-80q-33 0 -136 -5t-149 -5q-29 0 -29 18q0 17 27 17q55 0 90.5 8t64.5 30t42.5 63.5t13.5 106.5v1172q1 65 -12.5 107
t-42.5 64t-65 30t-91 8q-27 0 -27 16q3 19 29 19q47 0 150.5 -5.5t134.5 -5.5h82q31 0 134 5.5t150 5.5q27 0 27 -19q0 -16 -27 -16q-54 0 -90 -8t-65 -30t-42.5 -64t-13.5 -107v-10q0 -32 20 -53t52 -21l84 2q277 6 426.5 -111t149.5 -352q0 -118 -39 -209.5t-106.5 -147
t-153 -84t-183.5 -28.5q-63 0 -170 21zM444 586q0 -81 62 -123.5t149 -42.5q88 0 155.5 62.5t101.5 162t34 215.5q0 190 -97 311t-253 121q-81 0 -116.5 -25.5t-35.5 -103.5v-577z" />
    <glyph glyph-name="germandbls" unicode="&#xdf;" horiz-adv-x="1202" 
d="M573 -27q-20 0 -20 29q0 83 -11.5 175t-25 161.5t-14.5 79.5q-3 28 20 28q18 0 23 -24q16 -65 32.5 -117t42.5 -108t56.5 -93t74.5 -61.5t95 -24.5q70 0 103.5 46.5t33.5 125.5q0 81 -24 144.5t-68.5 115t-124.5 115.5q-121 97 -175 160t-54 129q0 19 6 38t13 33t25 36.5
t30 35.5t40.5 43t44.5 47q63 71 92 136t29 149q0 134 -53 205.5t-139 71.5q-109 0 -165.5 -94.5t-56.5 -274.5v-1219q0 -27 -17 -44t-44 -17h-84q-36 0 -120.5 -5t-127.5 -5q-17 0 -23.5 4t-6.5 14q0 17 28 17q54 0 89 8t62.5 30t39.5 63.5t12 106.5l2 750q0 29 -18.5 46.5
t-47.5 17.5h-92q-30 0 -30 20q0 23 30 23q75 0 116.5 20.5t41.5 56.5v76q0 118 33 207t91.5 140.5t130.5 76.5t157 25q168 0 276.5 -83t108.5 -223q0 -87 -58 -153t-170 -137q-70 -53 -102.5 -88.5t-32.5 -71.5q0 -38 53 -88.5t174 -132.5q49 -36 80.5 -61t72.5 -66
t64.5 -79.5t40.5 -91.5t17 -112q0 -150 -84 -242t-215 -92q-60 0 -123 11.5t-88 11.5q-19 0 -37.5 -10.5t-28.5 -10.5z" />
    <glyph glyph-name="agrave" unicode="&#xe0;" horiz-adv-x="958" 
d="M285 -33q-103 0 -165.5 67.5t-62.5 174.5q0 59 26 113.5t66 95.5t102.5 82.5t119 70t133.5 62.5q37 17 60.5 52.5t23.5 74.5v33q0 157 -43.5 221.5t-122.5 64.5q-129 0 -129 -125q0 -30 15.5 -79.5t15.5 -83.5q0 -44 -27.5 -71.5t-75.5 -27.5q-54 0 -85.5 40t-31.5 99
q0 124 102.5 208.5t256.5 84.5q155 0 243.5 -83t88.5 -250q0 -101 -5.5 -303t-5.5 -302q0 -112 68 -112q31 0 66 45t61 149q3 21 14 21q17 0 11 -23q-31 -156 -88.5 -227.5t-159.5 -71.5q-89 0 -142.5 63.5t-27.5 172.5q6 27 -11 29q-17 3 -30 -23q-64 -139 -116.5 -190.5
t-143.5 -51.5zM248 1544q-46 50 -38 93.5t71 43.5q41 0 68.5 -25t39.5 -63l100 -266q5 -11 7.5 -19.5t4 -15t1.5 -11t-1.5 -7t-4.5 -3.5t-7 -1q-14 0 -36 22zM254 283q0 -72 31 -115t92 -43q84 0 147.5 90.5t63.5 222.5v117q0 39 -23.5 53.5t-58.5 -0.5q-252 -129 -252 -325
z" />
    <glyph glyph-name="aacute" unicode="&#xe1;" horiz-adv-x="958" 
d="M285 -33q-103 0 -165.5 67.5t-62.5 174.5q0 59 26 113.5t66 95.5t102.5 82.5t119 70t133.5 62.5q37 17 60.5 52.5t23.5 74.5v33q0 157 -43.5 221.5t-122.5 64.5q-129 0 -129 -125q0 -30 15.5 -79.5t15.5 -83.5q0 -44 -27.5 -71.5t-75.5 -27.5q-54 0 -85.5 40t-31.5 99
q0 124 102.5 208.5t256.5 84.5q155 0 243.5 -83t88.5 -250q0 -101 -5.5 -303t-5.5 -302q0 -112 68 -112q31 0 66 45t61 149q3 21 14 21q17 0 11 -23q-31 -156 -88.5 -227.5t-159.5 -71.5q-89 0 -142.5 63.5t-27.5 172.5q6 27 -11 29q-17 3 -30 -23q-64 -139 -116.5 -190.5
t-143.5 -51.5zM254 283q0 -72 31 -115t92 -43q84 0 147.5 90.5t63.5 222.5v117q0 39 -23.5 53.5t-58.5 -0.5q-252 -129 -252 -325zM422 1270q-4 0 -7 1t-4.5 3.5t-1.5 7t1.5 11t4 15t7.5 19.5l100 266q12 37 40 62.5t69 25.5q63 0 71 -43.5t-38 -93.5l-205 -252
q-22 -22 -37 -22z" />
    <glyph glyph-name="acircumflex" unicode="&#xe2;" horiz-adv-x="958" 
d="M285 -33q-103 0 -165.5 67.5t-62.5 174.5q0 59 26 113.5t66 95.5t102.5 82.5t119 70t133.5 62.5q37 17 60.5 52.5t23.5 74.5v33q0 157 -43.5 221.5t-122.5 64.5q-129 0 -129 -125q0 -30 15.5 -79.5t15.5 -83.5q0 -44 -27.5 -71.5t-75.5 -27.5q-54 0 -85.5 40t-31.5 99
q0 124 102.5 208.5t256.5 84.5q155 0 243.5 -83t88.5 -250q0 -101 -5.5 -303t-5.5 -302q0 -112 68 -112q31 0 66 45t61 149q3 21 14 21q17 0 11 -23q-31 -156 -88.5 -227.5t-159.5 -71.5q-89 0 -142.5 63.5t-27.5 172.5q6 27 -11 29q-17 3 -30 -23q-64 -139 -116.5 -190.5
t-143.5 -51.5zM190 1296l142 263q33 60 61 85t64 25q37 0 67 -25.5t62 -84.5l139 -263q13 -22 -6 -22q-13 0 -37 24l-154 183q-45 45 -71 45q-25 0 -70 -45l-154 -183q-27 -24 -36 -24q-8 0 -10.5 6t3.5 16zM254 283q0 -72 31 -115t92 -43q84 0 147.5 90.5t63.5 222.5v117
q0 39 -23.5 53.5t-58.5 -0.5q-252 -129 -252 -325z" />
    <glyph glyph-name="atilde" unicode="&#xe3;" horiz-adv-x="958" 
d="M285 -33q-103 0 -165.5 67.5t-62.5 174.5q0 59 26 113.5t66 95.5t102.5 82.5t119 70t133.5 62.5q37 17 60.5 52.5t23.5 74.5v33q0 157 -43.5 221.5t-122.5 64.5q-129 0 -129 -125q0 -30 15.5 -79.5t15.5 -83.5q0 -44 -27.5 -71.5t-75.5 -27.5q-54 0 -85.5 40t-31.5 99
q0 124 102.5 208.5t256.5 84.5q155 0 243.5 -83t88.5 -250q0 -101 -5.5 -303t-5.5 -302q0 -112 68 -112q31 0 66 45t61 149q3 21 14 21q17 0 11 -23q-31 -156 -88.5 -227.5t-159.5 -71.5q-89 0 -142.5 63.5t-27.5 172.5q6 27 -11 29q-17 3 -30 -23q-64 -139 -116.5 -190.5
t-143.5 -51.5zM125 1300q9 55 20 95.5t31 83.5t54 66.5t79 23.5t89 -23t74.5 -50t71.5 -50t79 -23q56 0 94.5 37.5t46.5 95.5q2 31 16 31q13 0 11 -31q-4 -51 -15.5 -95.5t-32.5 -85t-56.5 -64t-80.5 -23.5t-89 23t-74 50t-70.5 50t-77.5 23q-55 0 -91.5 -37.5t-47.5 -96.5
q-5 -30 -21 -30q-13 0 -10 30zM254 283q0 -72 31 -115t92 -43q84 0 147.5 90.5t63.5 222.5v117q0 39 -23.5 53.5t-58.5 -0.5q-252 -129 -252 -325z" />
    <glyph glyph-name="adieresis" unicode="&#xe4;" horiz-adv-x="958" 
d="M285 -33q-103 0 -165.5 67.5t-62.5 174.5q0 59 26 113.5t66 95.5t102.5 82.5t119 70t133.5 62.5q37 17 60.5 52.5t23.5 74.5v33q0 157 -43.5 221.5t-122.5 64.5q-129 0 -129 -125q0 -30 15.5 -79.5t15.5 -83.5q0 -44 -27.5 -71.5t-75.5 -27.5q-54 0 -85.5 40t-31.5 99
q0 124 102.5 208.5t256.5 84.5q155 0 243.5 -83t88.5 -250q0 -101 -5.5 -303t-5.5 -302q0 -112 68 -112q31 0 66 45t61 149q3 21 14 21q17 0 11 -23q-31 -156 -88.5 -227.5t-159.5 -71.5q-89 0 -142.5 63.5t-27.5 172.5q6 27 -11 29q-17 3 -30 -23q-64 -139 -116.5 -190.5
t-143.5 -51.5zM168 1448q0 51 35.5 86t85.5 35t85.5 -35t35.5 -86q0 -49 -35.5 -84t-85.5 -35t-85.5 35t-35.5 84zM254 283q0 -72 31 -115t92 -43q84 0 147.5 90.5t63.5 222.5v117q0 39 -23.5 53.5t-58.5 -0.5q-252 -129 -252 -325zM506 1448q0 51 35.5 86t85.5 35t85.5 -35
t35.5 -86q0 -49 -35.5 -84t-85.5 -35t-85.5 35t-35.5 84z" />
    <glyph glyph-name="aring" unicode="&#xe5;" horiz-adv-x="958" 
d="M285 -33q-103 0 -165.5 67.5t-62.5 174.5q0 59 26 113.5t66 95.5t102.5 82.5t119 70t133.5 62.5q37 17 60.5 52.5t23.5 74.5v33q0 157 -43.5 221.5t-122.5 64.5q-129 0 -129 -125q0 -30 15.5 -79.5t15.5 -83.5q0 -44 -27.5 -71.5t-75.5 -27.5q-54 0 -85.5 40t-31.5 99
q0 124 102.5 208.5t256.5 84.5q155 0 243.5 -83t88.5 -250q0 -101 -5.5 -303t-5.5 -302q0 -112 68 -112q31 0 66 45t61 149q3 21 14 21q17 0 11 -23q-31 -156 -88.5 -227.5t-159.5 -71.5q-89 0 -142.5 63.5t-27.5 172.5q6 27 -11 29q-17 3 -30 -23q-64 -139 -116.5 -190.5
t-143.5 -51.5zM254 283q0 -72 31 -115t92 -43q84 0 147.5 90.5t63.5 222.5v117q0 39 -23.5 53.5t-58.5 -0.5q-252 -129 -252 -325zM301 1454q0 66 40 110t118 44q75 0 114 -44t39 -110q0 -69 -38.5 -113.5t-114.5 -44.5q-78 0 -118 44.5t-40 113.5zM350 1454q0 -54 30 -86.5
t79 -32.5q47 0 75.5 32.5t28.5 86.5q0 52 -28.5 83.5t-75.5 31.5q-50 0 -79.5 -31.5t-29.5 -83.5z" />
    <glyph glyph-name="ae" unicode="&#xe6;" horiz-adv-x="1415" 
d="M285 -33q-105 0 -166.5 69t-61.5 173q0 59 26 113.5t66 95.5t102.5 82.5t119 70t133.5 62.5q37 17 60.5 52.5t23.5 74.5v84q0 232 -168 235q-62 0 -94.5 -32t-32.5 -93q0 -30 15.5 -79.5t15.5 -83.5q0 -44 -27.5 -71.5t-75.5 -27.5q-54 0 -85.5 40t-31.5 99
q0 124 102.5 208.5t256.5 84.5q77 0 139 -31.5t94 -97.5q19 -33 37 -35t43 27q97 135 236 135q141 0 231 -94.5t90 -224.5q0 -89 -32.5 -119.5t-139.5 -30.5h-284q-38 0 -63 -22.5t-26 -59.5v-45q0 -183 70.5 -294t198.5 -111q30 0 58.5 7.5t61.5 28.5t62 54.5t58 89.5
t51 129q8 25 18 25q14 0 8 -29q-94 -459 -405 -459q-119 0 -213.5 69t-134.5 183q-11 34 -27.5 38t-30.5 -28q-62 -129 -126.5 -195.5t-151.5 -66.5zM254 283q0 -71 31.5 -115t91.5 -43q84 0 147.5 90.5t63.5 222.5v117q0 39 -23.5 53.5t-58.5 -0.5q-252 -129 -252 -325z
M799 764q-3 -37 19 -61.5t59 -24.5h139q68 0 93.5 31.5t25.5 99.5q0 116 -37 192t-111 76q-72 0 -123.5 -85.5t-64.5 -227.5z" />
    <glyph glyph-name="ccedilla" unicode="&#xe7;" horiz-adv-x="858" 
d="M444 -33h-2l-4 -8q-16 -29 0.5 -41t48.5 -12q81 0 140 -45t59 -133q0 -59 -39.5 -104t-104.5 -69.5t-135.5 -36.5t-144.5 -12q-65 0 -65 19q0 10 10 12t37 2q132 0 213.5 50t81.5 147q0 56 -28.5 90.5t-72.5 34.5q-23 0 -58 -15.5t-44 -15.5q-10 0 -14.5 5t-3 13t6 17.5
t11.5 19.5l57 86q-153 23 -240 173t-87 380q0 172 48 306t146 213t234 79q121 0 203.5 -73t82.5 -191q0 -62 -33 -100.5t-85 -38.5q-45 0 -72 22.5t-27 63.5q0 22 20.5 64.5t20.5 78.5q0 56 -36 92.5t-91 36.5q-53 0 -95 -43t-66.5 -112t-37 -148.5t-12.5 -159.5
q0 -218 72 -353.5t205 -135.5q69 0 132 61t107 183q7 22 21 22q13 0 4 -29q-43 -185 -134.5 -290t-228.5 -105z" />
    <glyph glyph-name="egrave" unicode="&#xe8;" horiz-adv-x="884" 
d="M442 -33q-175 0 -275.5 142.5t-100.5 402.5q0 169 50 307t146 220.5t221 82.5q139 0 229.5 -94.5t90.5 -224.5q0 -90 -32.5 -121t-139.5 -31h-285q-38 0 -62 -23t-26 -59v-43q0 -182 71.5 -293.5t196.5 -111.5q38 0 74.5 13.5t76 45t76 95.5t62.5 155q10 25 21 25
q14 0 8 -29q-55 -236 -155 -347.5t-247 -111.5zM258 1544q-46 50 -38 93.5t71 43.5q41 0 68.5 -25t39.5 -63l101 -266q5 -11 7.5 -19.5t4 -15t1.5 -11t-1.5 -7t-4.5 -3.5t-7 -1q-15 0 -37 22zM266 764q-2 -37 20.5 -61.5t59.5 -24.5h139q68 0 93.5 31.5t25.5 99.5
q0 75 -14.5 134t-48.5 97.5t-84 38.5q-73 0 -124.5 -85.5t-66.5 -229.5z" />
    <glyph glyph-name="eacute" unicode="&#xe9;" horiz-adv-x="884" 
d="M442 -33q-175 0 -275.5 142.5t-100.5 402.5q0 169 50 307t146 220.5t221 82.5q139 0 229.5 -94.5t90.5 -224.5q0 -90 -32.5 -121t-139.5 -31h-285q-38 0 -62 -23t-26 -59v-43q0 -182 71.5 -293.5t196.5 -111.5q38 0 74.5 13.5t76 45t76 95.5t62.5 155q10 25 21 25
q14 0 8 -29q-55 -236 -155 -347.5t-247 -111.5zM266 764q-2 -37 20.5 -61.5t59.5 -24.5h139q68 0 93.5 31.5t25.5 99.5q0 75 -14.5 134t-48.5 97.5t-84 38.5q-73 0 -124.5 -85.5t-66.5 -229.5zM432 1270q-4 0 -7 1t-4.5 3.5t-1.5 7t1.5 11t4 15t7.5 19.5l100 266
q12 37 40 62.5t69 25.5q63 0 71 -43.5t-38 -93.5l-205 -252q-22 -22 -37 -22z" />
    <glyph glyph-name="ecircumflex" unicode="&#xea;" horiz-adv-x="884" 
d="M442 -33q-175 0 -275.5 142.5t-100.5 402.5q0 169 50 307t146 220.5t221 82.5q139 0 229.5 -94.5t90.5 -224.5q0 -90 -32.5 -121t-139.5 -31h-285q-38 0 -62 -23t-26 -59v-43q0 -182 71.5 -293.5t196.5 -111.5q38 0 74.5 13.5t76 45t76 95.5t62.5 155q10 25 21 25
q14 0 8 -29q-55 -236 -155 -347.5t-247 -111.5zM201 1296l141 263q33 60 61 85t64 25q37 0 67 -25.5t62 -84.5l139 -263q13 -22 -6 -22q-13 0 -37 24l-153 183q-45 45 -72 45q-25 0 -70 -45l-153 -183q-27 -24 -37 -24q-19 0 -6 22zM266 764q-2 -37 20.5 -61.5t59.5 -24.5
h139q68 0 93.5 31.5t25.5 99.5q0 75 -14.5 134t-48.5 97.5t-84 38.5q-73 0 -124.5 -85.5t-66.5 -229.5z" />
    <glyph glyph-name="edieresis" unicode="&#xeb;" horiz-adv-x="884" 
d="M442 -33q-175 0 -275.5 142.5t-100.5 402.5q0 169 50 307t146 220.5t221 82.5q139 0 229.5 -94.5t90.5 -224.5q0 -90 -32.5 -121t-139.5 -31h-285q-38 0 -62 -23t-26 -59v-43q0 -182 71.5 -293.5t196.5 -111.5q38 0 74.5 13.5t76 45t76 95.5t62.5 155q10 25 21 25
q14 0 8 -29q-55 -236 -155 -347.5t-247 -111.5zM178 1448q0 51 35.5 86t85.5 35t85.5 -35t35.5 -86q0 -49 -35.5 -84t-85.5 -35t-85.5 35t-35.5 84zM266 764q-2 -37 20.5 -61.5t59.5 -24.5h139q68 0 93.5 31.5t25.5 99.5q0 75 -14.5 134t-48.5 97.5t-84 38.5
q-73 0 -124.5 -85.5t-66.5 -229.5zM516 1448q0 51 35.5 86t85.5 35t85.5 -35t35.5 -86q0 -49 -35.5 -84t-85.5 -35t-85.5 35t-35.5 84z" />
    <glyph glyph-name="igrave" unicode="&#xec;" horiz-adv-x="602" 
d="M410 233q0 -123 47.5 -165.5t144.5 -42.5q27 0 27 -17q0 -18 -29 -18q-34 0 -116 5t-117 5h-109q-36 0 -120.5 -5t-127.5 -5q-17 0 -23.5 4t-6.5 14q0 17 28 17q54 0 89 8t62.5 30t39.5 63.5t12 106.5l2 633q0 59 -10 90t-22.5 38t-33.5 7q-24 0 -51.5 -3t-52.5 -7
t-29 -4q-24 -3 -24 17q0 12 28 18q60 10 201 56t172 46q35 0 35 -45q0 -69 -8 -252.5t-8 -277.5v-316zM76 1544q-46 50 -38 93.5t71 43.5q41 0 68.5 -25t39.5 -63l100 -266q5 -11 7.5 -19.5t4 -15t1.5 -11t-1.5 -7t-4.5 -3.5t-7 -1q-14 0 -36 22z" />
    <glyph glyph-name="iacute" unicode="&#xed;" horiz-adv-x="602" 
d="M410 233q0 -123 47.5 -165.5t144.5 -42.5q27 0 27 -17q0 -18 -29 -18q-34 0 -116 5t-117 5h-109q-36 0 -120.5 -5t-127.5 -5q-17 0 -23.5 4t-6.5 14q0 17 28 17q54 0 89 8t62.5 30t39.5 63.5t12 106.5l2 633q0 59 -10 90t-22.5 38t-33.5 7q-24 0 -51.5 -3t-52.5 -7
t-29 -4q-24 -3 -24 17q0 12 28 18q60 10 201 56t172 46q35 0 35 -45q0 -69 -8 -252.5t-8 -277.5v-316zM250 1270q-4 0 -7 1t-4.5 3.5t-1.5 7t1.5 11t4 15t7.5 19.5l100 266q12 37 40 62.5t69 25.5q63 0 71 -43.5t-38 -93.5l-205 -252q-22 -22 -37 -22z" />
    <glyph glyph-name="icircumflex" unicode="&#xee;" horiz-adv-x="602" 
d="M410 233q0 -123 47.5 -165.5t144.5 -42.5q27 0 27 -17q0 -18 -29 -18q-34 0 -116 5t-117 5h-109q-36 0 -120.5 -5t-127.5 -5q-17 0 -23.5 4t-6.5 14q0 17 28 17q54 0 89 8t62.5 30t39.5 63.5t12 106.5l2 633q0 59 -10 90t-22.5 38t-33.5 7q-24 0 -51.5 -3t-52.5 -7
t-29 -4q-24 -3 -24 17q0 12 28 18q60 10 201 56t172 46q35 0 35 -45q0 -69 -8 -252.5t-8 -277.5v-316zM18 1296l142 263q33 60 61 85t64 25q37 0 67 -25.5t62 -84.5l139 -263q13 -22 -6 -22q-13 0 -37 24l-154 183q-45 45 -71 45q-25 0 -70 -45l-154 -183q-27 -24 -36 -24
q-8 0 -10.5 6t3.5 16z" />
    <glyph glyph-name="idieresis" unicode="&#xef;" horiz-adv-x="602" 
d="M410 233q0 -123 47.5 -165.5t144.5 -42.5q27 0 27 -17q0 -18 -29 -18q-34 0 -116 5t-117 5h-109q-36 0 -120.5 -5t-127.5 -5q-17 0 -23.5 4t-6.5 14q0 17 28 17q54 0 89 8t62.5 30t39.5 63.5t12 106.5l2 633q0 59 -10 90t-22.5 38t-33.5 7q-24 0 -51.5 -3t-52.5 -7
t-29 -4q-24 -3 -24 17q0 12 28 18q60 10 201 56t172 46q35 0 35 -45q0 -69 -8 -252.5t-8 -277.5v-316zM-4 1448q0 51 35.5 86t85.5 35t85.5 -35t35.5 -86q0 -49 -35.5 -84t-85.5 -35t-85.5 35t-35.5 84zM334 1448q0 51 35.5 86t85.5 35t85 -35t35 -86q0 -49 -35 -84t-85 -35
t-85.5 35t-35.5 84z" />
    <glyph glyph-name="eth" unicode="&#xf0;" horiz-adv-x="1017" 
d="M498 -33q-128 0 -226 76t-149 205t-51 289q0 157 46 285.5t131.5 204t194.5 75.5q38 0 74.5 -14t61.5 -27.5t36 -13.5q19 0 19 14q0 13 -14 45q-47 108 -121 213q-13 19 -34 24t-40 -6l-170 -88q-29 -13 -39 0q-7 15 25 31l159 84q20 10 23.5 27t-10.5 34
q-116 126 -244 213q-27 19 -25 33q1 5 7 6q12 9 47 -8q173 -88 307 -196q17 -15 40 -18t42 7l153 80q34 17 43 8q12 -17 -20 -34l-146 -76q-21 -11 -24 -27.5t14 -30.5q344 -337 344 -778q0 -286 -128 -461.5t-326 -175.5zM276 604q0 -155 31.5 -284.5t94 -209t143.5 -79.5
q48 0 82 24t55.5 66t33.5 111.5t16.5 146.5t4.5 184q0 50 -4 99t-13 105.5t-27 104t-42.5 87.5t-63 62.5t-85.5 22.5q-62 0 -107.5 -37t-70.5 -101t-36.5 -139t-11.5 -163z" />
    <glyph glyph-name="ntilde" unicode="&#xf1;" horiz-adv-x="1175" 
d="M258 0q-36 0 -120.5 -5t-127.5 -5q-17 0 -23.5 4t-6.5 14q0 17 28 17q54 0 89 8t62.5 30t39.5 63.5t12 106.5l2 631q0 59 -10 90t-22.5 38t-33.5 7q-63 0 -133 -14q-24 0 -24 16q0 13 28 19q60 10 201 56t172 46h2q33 0 33 -37q0 -5 -10 -108q-2 -40 12 -46t39 25
q147 166 287 166q109 0 166 -76t57 -221v-592q0 -64 14.5 -106.5t43.5 -64t62.5 -29.5t82.5 -8q17 0 22.5 -4t5.5 -13q0 -18 -28 -18q-36 0 -124 5t-124 5h-109q-13 0 -196 -6h-11h-16h-14h-8q-25 1 -65.5 2.5t-75.5 2.5t-70 1h-109zM276 1300q9 55 20 95.5t31.5 83.5
t54.5 66.5t79 23.5t89 -23t74.5 -50t71 -50t78.5 -23q56 0 94.5 37.5t46.5 95.5q2 31 17 31q12 0 10 -31q-6 -70 -23.5 -126.5t-59 -99t-101.5 -42.5q-45 0 -89 23t-74.5 50t-71 50t-77.5 23q-55 0 -91.5 -37.5t-47.5 -96.5q-5 -30 -20 -30q-14 0 -11 30zM410 258
q0 -123 39 -177.5t151 -57.5q104 3 142 57.5t38 177.5v567q0 168 -131 168q-56 0 -108.5 -20.5t-91.5 -68.5t-39 -113v-533z" />
    <glyph glyph-name="ograve" unicode="&#xf2;" horiz-adv-x="1009" 
d="M506 -33q-129 0 -231 79t-155.5 209t-53.5 284q0 166 51 297t152 208.5t237 77.5q128 0 230 -79t156 -208.5t54 -283.5q0 -166 -51.5 -297.5t-152.5 -209t-236 -77.5zM272 711q0 -92 11 -187t35.5 -187t59 -163.5t85 -115.5t110.5 -44q57 0 95 54t53.5 132t15.5 175
q0 116 -19.5 236t-55 224.5t-95 171t-131.5 66.5q-56 0 -94 -54t-54 -133t-16 -175zM287 1544q-46 50 -38.5 93.5t70.5 43.5q41 0 69 -25.5t40 -62.5l100 -266q5 -11 7.5 -19.5t4 -15t1.5 -11t-1.5 -7t-4.5 -3.5t-7 -1q-14 0 -36 22z" />
    <glyph glyph-name="oacute" unicode="&#xf3;" horiz-adv-x="1009" 
d="M506 -33q-129 0 -231 79t-155.5 209t-53.5 284q0 166 51 297t152 208.5t237 77.5q128 0 230 -79t156 -208.5t54 -283.5q0 -166 -51.5 -297.5t-152.5 -209t-236 -77.5zM272 711q0 -92 11 -187t35.5 -187t59 -163.5t85 -115.5t110.5 -44q57 0 95 54t53.5 132t15.5 175
q0 116 -19.5 236t-55 224.5t-95 171t-131.5 66.5q-56 0 -94 -54t-54 -133t-16 -175zM459 1270q-4 0 -7 1t-4.5 3.5t-1.5 7t1.5 11t4 15t7.5 19.5l100 266q12 37 40 62.5t69 25.5q63 0 70.5 -43.5t-38.5 -93.5l-204 -252q-22 -22 -37 -22z" />
    <glyph glyph-name="ocircumflex" unicode="&#xf4;" horiz-adv-x="1009" 
d="M506 -33q-129 0 -231 79t-155.5 209t-53.5 284q0 166 51 297t152 208.5t237 77.5q128 0 230 -79t156 -208.5t54 -283.5q0 -166 -51.5 -297.5t-152.5 -209t-236 -77.5zM229 1296l142 263q33 60 61 85t64 25q37 0 67 -25.5t62 -84.5l139 -263q13 -22 -6 -22q-13 0 -37 24
l-154 183q-45 45 -71 45q-25 0 -70 -45l-154 -183q-27 -24 -36 -24q-8 0 -10.5 6t3.5 16zM272 711q0 -92 11 -187t35.5 -187t59 -163.5t85 -115.5t110.5 -44q57 0 95 54t53.5 132t15.5 175q0 116 -19.5 236t-55 224.5t-95 171t-131.5 66.5q-56 0 -94 -54t-54 -133t-16 -175z
" />
    <glyph glyph-name="otilde" unicode="&#xf5;" horiz-adv-x="1009" 
d="M506 -33q-129 0 -231 79t-155.5 209t-53.5 284q0 166 51 297t152 208.5t237 77.5q128 0 230 -79t156 -208.5t54 -283.5q0 -166 -51.5 -297.5t-152.5 -209t-236 -77.5zM164 1300q9 55 20 95.5t31 83.5t54 66.5t79 23.5t89 -23t74.5 -50t71.5 -50t79 -23q56 0 94.5 37.5
t46.5 95.5q2 31 16 31q12 0 10 -31q-6 -70 -23.5 -126.5t-59 -99t-101.5 -42.5q-45 0 -89 23t-74 50t-70.5 50t-77.5 23q-55 0 -91.5 -37.5t-47.5 -96.5q-5 -30 -21 -30q-13 0 -10 30zM272 711q0 -92 11 -187t35.5 -187t59 -163.5t85 -115.5t110.5 -44q57 0 95 54t53.5 132
t15.5 175q0 116 -19.5 236t-55 224.5t-95 171t-131.5 66.5q-56 0 -94 -54t-54 -133t-16 -175z" />
    <glyph glyph-name="odieresis" unicode="&#xf6;" horiz-adv-x="1009" 
d="M506 -33q-129 0 -231 79t-155.5 209t-53.5 284q0 166 51 297t152 208.5t237 77.5q128 0 230 -79t156 -208.5t54 -283.5q0 -166 -51.5 -297.5t-152.5 -209t-236 -77.5zM207 1448q0 51 35.5 86t85.5 35t85.5 -35t35.5 -86q0 -49 -35.5 -84t-85.5 -35t-85.5 35t-35.5 84z
M272 711q0 -92 11 -187t35.5 -187t59 -163.5t85 -115.5t110.5 -44q57 0 95 54t53.5 132t15.5 175q0 116 -19.5 236t-55 224.5t-95 171t-131.5 66.5q-56 0 -94 -54t-54 -133t-16 -175zM545 1448q0 51 35.5 86t85.5 35t85 -35t35 -86q0 -49 -35 -84t-85 -35t-85.5 35t-35.5 84
z" />
    <glyph glyph-name="divide" unicode="&#xf7;" horiz-adv-x="901" 
d="M451 860q-29 0 -50.5 21.5t-21.5 50.5t21.5 50.5t50.5 21.5t50 -21.5t21 -50.5t-21 -50.5t-50 -21.5zM123 590q-19 0 -27 12t0 24.5t27 12.5h655q19 0 27 -12.5t0 -24.5t-27 -12h-655zM379 297q0 29 21.5 50.5t50.5 21.5t50 -21.5t21 -50.5t-21 -50.5t-50 -21.5
t-50.5 21.5t-21.5 50.5z" />
    <glyph glyph-name="oslash" unicode="&#xf8;" horiz-adv-x="1013" 
d="M856 1167q9 15 21 15q10 0 13 -10t-5 -21l-92 -160q72 -80 112.5 -195t40.5 -245q0 -166 -51.5 -297.5t-152.5 -209t-236 -77.5q-138 0 -248 92l-90 -155q-10 -13 -21 -13q-8 0 -11.5 8.5t1.5 20.5l94 164q-78 80 -121.5 199.5t-43.5 255.5q0 166 51 297t152 208.5
t237 77.5q153 0 262 -106zM272 711q0 -246 66 -441l326 564q-41 110 -99 174.5t-129 64.5q-56 0 -94 -54t-54 -133t-16 -175zM354 227q83 -213 219 -213q57 0 95 54t53.5 132t15.5 175q0 221 -59 416z" />
    <glyph glyph-name="ugrave" unicode="&#xf9;" horiz-adv-x="1099" 
d="M387 -33q-223 0 -223 281v618q0 59 -10 90t-22.5 38t-33.5 7q-23 0 -50.5 -3t-51.5 -6.5t-31 -4.5q-24 -3 -24 17q0 12 28 18q60 10 201 56t172 46h2q16 0 25.5 -12.5t9.5 -28.5q0 -55 -8.5 -191t-8.5 -204v-405q0 -91 30.5 -135t96.5 -44q94 0 163 93t69 235v457
q0 40 -4.5 64t-14 34t-17.5 12t-23 2q-20 0 -45 -3t-47.5 -7t-26.5 -4q-21 -3 -21 17q0 12 25 18q37 7 169 54.5t183 47.5q35 0 35 -41q0 -55 -7 -191t-7 -204v-455q0 -125 43.5 -166.5t146.5 -41.5q27 0 27 -19q0 -16 -29 -16q-35 0 -105 3t-110 3q-50 0 -112.5 -14.5
t-71.5 -14.5q-17 0 -22.5 12t-2 35t10 48t12.5 59t6 61q0 24 -16.5 25.5t-28.5 -19.5q-65 -108 -133.5 -164.5t-147.5 -56.5zM338 1544q-46 50 -38 93.5t71 43.5q41 0 68.5 -25t39.5 -63l101 -266q5 -11 7.5 -19.5t4 -15t1.5 -11t-1.5 -7t-4.5 -3.5t-7 -1q-15 0 -37 22z" />
    <glyph glyph-name="uacute" unicode="&#xfa;" horiz-adv-x="1099" 
d="M387 -33q-223 0 -223 281v618q0 59 -10 90t-22.5 38t-33.5 7q-23 0 -50.5 -3t-51.5 -6.5t-31 -4.5q-24 -3 -24 17q0 12 28 18q60 10 201 56t172 46h2q16 0 25.5 -12.5t9.5 -28.5q0 -55 -8.5 -191t-8.5 -204v-405q0 -91 30.5 -135t96.5 -44q94 0 163 93t69 235v457
q0 40 -4.5 64t-14 34t-17.5 12t-23 2q-20 0 -45 -3t-47.5 -7t-26.5 -4q-21 -3 -21 17q0 12 25 18q37 7 169 54.5t183 47.5q35 0 35 -41q0 -55 -7 -191t-7 -204v-455q0 -125 43.5 -166.5t146.5 -41.5q27 0 27 -19q0 -16 -29 -16q-35 0 -105 3t-110 3q-50 0 -112.5 -14.5
t-71.5 -14.5q-17 0 -22.5 12t-2 35t10 48t12.5 59t6 61q0 24 -16.5 25.5t-28.5 -19.5q-65 -108 -133.5 -164.5t-147.5 -56.5zM512 1270q-4 0 -7 1t-4.5 3.5t-1.5 7t1.5 11t4 15t7.5 19.5l100 266q12 37 40 62.5t69 25.5q63 0 71 -43.5t-38 -93.5l-205 -252q-22 -22 -37 -22z
" />
    <glyph glyph-name="ucircumflex" unicode="&#xfb;" horiz-adv-x="1099" 
d="M387 -33q-223 0 -223 281v618q0 59 -10 90t-22.5 38t-33.5 7q-23 0 -50.5 -3t-51.5 -6.5t-31 -4.5q-24 -3 -24 17q0 12 28 18q60 10 201 56t172 46h2q16 0 25.5 -12.5t9.5 -28.5q0 -55 -8.5 -191t-8.5 -204v-405q0 -91 30.5 -135t96.5 -44q94 0 163 93t69 235v457
q0 40 -4.5 64t-14 34t-17.5 12t-23 2q-20 0 -45 -3t-47.5 -7t-26.5 -4q-21 -3 -21 17q0 12 25 18q37 7 169 54.5t183 47.5q35 0 35 -41q0 -55 -7 -191t-7 -204v-455q0 -125 43.5 -166.5t146.5 -41.5q27 0 27 -19q0 -16 -29 -16q-35 0 -105 3t-110 3q-50 0 -112.5 -14.5
t-71.5 -14.5q-17 0 -22.5 12t-2 35t10 48t12.5 59t6 61q0 24 -16.5 25.5t-28.5 -19.5q-65 -108 -133.5 -164.5t-147.5 -56.5zM281 1296l141 263q33 60 61 85t64 25q37 0 67 -25.5t62 -84.5l139 -263q13 -22 -6 -22q-13 0 -37 24l-154 183q-45 45 -71 45q-25 0 -70 -45
l-153 -183q-27 -24 -37 -24q-19 0 -6 22z" />
    <glyph glyph-name="udieresis" unicode="&#xfc;" horiz-adv-x="1099" 
d="M387 -33q-223 0 -223 281v618q0 59 -10 90t-22.5 38t-33.5 7q-23 0 -50.5 -3t-51.5 -6.5t-31 -4.5q-24 -3 -24 17q0 12 28 18q60 10 201 56t172 46h2q16 0 25.5 -12.5t9.5 -28.5q0 -55 -8.5 -191t-8.5 -204v-405q0 -91 30.5 -135t96.5 -44q94 0 163 93t69 235v457
q0 40 -4.5 64t-14 34t-17.5 12t-23 2q-20 0 -45 -3t-47.5 -7t-26.5 -4q-21 -3 -21 17q0 12 25 18q37 7 169 54.5t183 47.5q35 0 35 -41q0 -55 -7 -191t-7 -204v-455q0 -125 43.5 -166.5t146.5 -41.5q27 0 27 -19q0 -16 -29 -16q-35 0 -105 3t-110 3q-50 0 -112.5 -14.5
t-71.5 -14.5q-17 0 -22.5 12t-2 35t10 48t12.5 59t6 61q0 24 -16.5 25.5t-28.5 -19.5q-65 -108 -133.5 -164.5t-147.5 -56.5zM258 1448q0 51 35.5 86t85.5 35t85.5 -35t35.5 -86q0 -49 -35.5 -84t-85.5 -35t-85.5 35t-35.5 84zM596 1448q0 51 35.5 86t85.5 35t85.5 -35
t35.5 -86q0 -49 -35.5 -84t-85.5 -35t-85.5 35t-35.5 84z" />
    <glyph glyph-name="yacute" unicode="&#xfd;" horiz-adv-x="1081" 
d="M283 -477q-57 0 -92 33t-35 75q0 58 51 78q48 19 92 39.5t99 50.5t91 63.5t41 63.5q7 38 -7 90.5t-52 151.5l-235 696q-38 115 -93.5 156t-134.5 41q-20 0 -20 16q0 19 22 19q26 0 92.5 -5.5t94.5 -5.5h125q60 0 157 3.5t146 3.5h2h2q59 0 155.5 -3t124.5 -4q18 1 75.5 6
t88.5 5q21 0 21 -19q0 -16 -21 -16q-79 0 -129.5 -40t-87.5 -157l-270 -852q-154 -489 -303 -489zM457 840l161 -494q8 -25 18 -34t19.5 0t16.5 34l147 492q23 77 19 127t-53.5 74t-155.5 24h-2h-2q-145 0 -178.5 -53t10.5 -170zM549 1270q-4 0 -7 1t-4.5 3.5t-1.5 7t1.5 11
t4 15t7.5 19.5l100 266q12 37 40 62.5t69 25.5q63 0 71 -43.5t-38 -93.5l-205 -252q-22 -22 -37 -22z" />
    <glyph glyph-name="thorn" unicode="&#xfe;" horiz-adv-x="1071" 
d="M244 -451q-32 0 -112 -5t-122 -5q-26 0 -26 19q0 16 26 16q50 0 83 8t59 30t37.5 64t11.5 107v1661q0 59 -9.5 90t-22 38t-34.5 7q-23 0 -50 -3t-51.5 -7t-29.5 -4q-14 0 -19 3t-5 13q0 8 5.5 11.5t22.5 6.5q60 10 201 56.5t172 46.5q17 0 26 -10.5t9 -26.5
q0 -99 -8.5 -299t-8.5 -285v-106q0 -40 14 -44t36 30q114 161 247 161q146 0 228 -147.5t82 -392.5q0 -174 -42 -314t-121.5 -222.5t-183.5 -82.5q-50 0 -99 19t-83.5 38t-48.5 19q-18 0 -23.5 -11t-5.5 -38v-207q0 -64 17 -106.5t51.5 -64.5t75 -30t98.5 -8q33 0 33 -16
q0 -19 -35 -19q-41 0 -146 5t-149 5h-100zM399 381q0 -162 57.5 -262.5t143.5 -100.5q65 0 110 71.5t65 188t20 269.5q0 97 -11 177t-34.5 142t-62.5 96.5t-91 34.5q-37 0 -70 -15.5t-62.5 -50t-47 -99.5t-17.5 -154v-297z" />
    <glyph glyph-name="ydieresis" unicode="&#xff;" horiz-adv-x="1081" 
d="M283 -477q-57 0 -92 33t-35 75q0 58 51 78q48 19 92 39.5t99 50.5t91 63.5t41 63.5q7 38 -7 90.5t-52 151.5l-235 696q-38 115 -93.5 156t-134.5 41q-20 0 -20 16q0 19 22 19q26 0 92.5 -5.5t94.5 -5.5h125q60 0 157 3.5t146 3.5h2h2q59 0 155.5 -3t124.5 -4q18 1 75.5 6
t88.5 5q21 0 21 -19q0 -16 -21 -16q-79 0 -129.5 -40t-87.5 -157l-270 -852q-154 -489 -303 -489zM295 1448q0 51 35.5 86t85.5 35t85.5 -35t35.5 -86q0 -49 -35.5 -84t-85.5 -35t-85.5 35t-35.5 84zM457 840l161 -494q8 -25 18 -34t19.5 0t16.5 34l147 492q23 77 19 127
t-53.5 74t-155.5 24h-2h-2q-145 0 -178.5 -53t10.5 -170zM633 1448q0 51 35.5 86t85.5 35t85 -35t35 -86q0 -49 -35 -84t-85 -35t-85.5 35t-35.5 84z" />
    <glyph glyph-name="Amacron" unicode="&#x100;" horiz-adv-x="1523" 
d="M-18 8q0 17 22 17q98 0 159 40t99 156l469 1432q4 18 25 18h35q19 0 26 -18l473 -1432q38 -116 93.5 -156t140.5 -40q20 0 20 -17q0 -18 -20 -18q-36 0 -115 5t-102 5h-103q-35 0 -150 -5t-167 -5q-17 0 -24 4t-7 14q0 17 31 17q47 0 79 4.5t57.5 17t36 34.5t9.5 57
t-16 85l-76 242q-12 38 -44.5 62t-72.5 24h-368q-40 0 -72.5 -24t-44.5 -62l-78 -244q-16 -49 -18 -84t8 -56.5t35 -34t56.5 -17t78.5 -4.5q28 0 28 -17q0 -18 -30 -18q-37 0 -120.5 5t-127.5 5q-34 0 -102.5 -5t-98.5 -5q-14 0 -19 4t-5 14zM442 668q-12 -38 6 -62t58 -24
h344q38 0 55.5 24t5.5 62l-204 651q-7 24 -16.5 32.5t-19.5 0t-18 -32.5zM471 1894q0 19 39 19h514q39 0 39 -19q0 -10 -8.5 -14t-30.5 -4h-514q-22 0 -30.5 4t-8.5 14z" />
    <glyph glyph-name="amacron" unicode="&#x101;" horiz-adv-x="958" 
d="M285 -33q-103 0 -165.5 67.5t-62.5 174.5q0 59 26 113.5t66 95.5t102.5 82.5t119 70t133.5 62.5q37 17 60.5 52.5t23.5 74.5v33q0 157 -43.5 221.5t-122.5 64.5q-129 0 -129 -125q0 -30 15.5 -79.5t15.5 -83.5q0 -44 -27.5 -71.5t-75.5 -27.5q-54 0 -85.5 40t-31.5 99
q0 124 102.5 208.5t256.5 84.5q155 0 243.5 -83t88.5 -250q0 -101 -5.5 -303t-5.5 -302q0 -112 68 -112q31 0 66 45t61 149q3 21 14 21q17 0 11 -23q-31 -156 -88.5 -227.5t-159.5 -71.5q-89 0 -142.5 63.5t-27.5 172.5q6 27 -11 29q-17 3 -30 -23q-64 -139 -116.5 -190.5
t-143.5 -51.5zM162 1391q0 10 8.5 14t30.5 4h514q22 0 30.5 -4t8.5 -14q0 -19 -39 -19h-514q-39 0 -39 19zM254 283q0 -72 31 -115t92 -43q84 0 147.5 90.5t63.5 222.5v117q0 39 -23.5 53.5t-58.5 -0.5q-252 -129 -252 -325z" />
    <glyph glyph-name="Abreve" unicode="&#x102;" horiz-adv-x="1523" 
d="M-18 8q0 17 22 17q98 0 159 40t99 156l469 1432q4 18 25 18h35q19 0 26 -18l473 -1432q38 -116 93.5 -156t140.5 -40q20 0 20 -17q0 -18 -20 -18q-36 0 -115 5t-102 5h-103q-35 0 -150 -5t-167 -5q-17 0 -24 4t-7 14q0 17 31 17q47 0 79 4.5t57.5 17t36 34.5t9.5 57
t-16 85l-76 242q-12 38 -44.5 62t-72.5 24h-368q-40 0 -72.5 -24t-44.5 -62l-78 -244q-16 -49 -18 -84t8 -56.5t35 -34t56.5 -17t78.5 -4.5q28 0 28 -17q0 -18 -30 -18q-37 0 -120.5 5t-127.5 5q-34 0 -102.5 -5t-98.5 -5q-14 0 -19 4t-5 14zM442 668q-12 -38 6 -62t58 -24
h344q38 0 55.5 24t5.5 62l-204 651q-7 24 -16.5 32.5t-19.5 0t-18 -32.5zM477 2099q-3 35 15 35q8 0 11.5 -6t10.5 -29q21 -69 88 -104t166 -35t165.5 35t86.5 104q3 12 4 15.5t4 9t6.5 7t9.5 1.5q16 0 13 -33q-19 -136 -93.5 -208t-195.5 -72q-122 0 -197 72t-94 208z" />
    <glyph glyph-name="abreve" unicode="&#x103;" horiz-adv-x="958" 
d="M285 -33q-103 0 -165.5 67.5t-62.5 174.5q0 59 26 113.5t66 95.5t102.5 82.5t119 70t133.5 62.5q37 17 60.5 52.5t23.5 74.5v33q0 157 -43.5 221.5t-122.5 64.5q-129 0 -129 -125q0 -30 15.5 -79.5t15.5 -83.5q0 -44 -27.5 -71.5t-75.5 -27.5q-54 0 -85.5 40t-31.5 99
q0 124 102.5 208.5t256.5 84.5q155 0 243.5 -83t88.5 -250q0 -101 -5.5 -303t-5.5 -302q0 -112 68 -112q31 0 66 45t61 149q3 21 14 21q17 0 11 -23q-31 -156 -88.5 -227.5t-159.5 -71.5q-89 0 -142.5 63.5t-27.5 172.5q6 27 -11 29q-17 3 -30 -23q-64 -139 -116.5 -190.5
t-143.5 -51.5zM168 1595q-3 35 14 35q6 0 10 -4t6 -10l7 -21q21 -69 88 -104t166 -35t165.5 35t86.5 104q3 12 4 15.5t4 9t6.5 7t9.5 1.5q16 0 13 -33q-19 -136 -93.5 -208t-195.5 -72q-122 0 -197 72t-94 208zM254 283q0 -72 31 -115t92 -43q84 0 147.5 90.5t63.5 222.5
v117q0 39 -23.5 53.5t-58.5 -0.5q-252 -129 -252 -325z" />
    <glyph glyph-name="Aogonek" unicode="&#x104;" horiz-adv-x="1523" 
d="M-18 8q0 17 22 17q98 0 159 40t99 156l469 1432q4 18 25 18h35q19 0 26 -18l473 -1432q38 -116 93.5 -156t140.5 -40q20 0 20 -17q0 -18 -20 -18q-35 0 -110.5 5t-100.5 5q-99 -75 -144 -136.5t-45 -139.5q0 -59 31 -92t88 -33q73 0 168 53q34 20 37 6q3 -12 -25 -39
q-113 -113 -241 -113q-84 0 -140.5 44.5t-56.5 125.5q0 31 8.5 60.5t19.5 52.5t32.5 47.5t38 40t45.5 37t44.5 31.5t46 29.5t40.5 25.5h-56q-35 0 -150 -5t-167 -5q-17 0 -24 4t-7 14q0 17 31 17q47 0 79 4.5t57.5 17t36 34.5t9.5 57t-16 85l-76 242q-12 38 -44.5 62
t-72.5 24h-368q-40 0 -72.5 -24t-44.5 -62l-78 -244q-16 -49 -18 -84t8 -56.5t35 -34t56.5 -17t78.5 -4.5q28 0 28 -17q0 -18 -30 -18q-37 0 -120.5 5t-127.5 5q-34 0 -102.5 -5t-98.5 -5q-14 0 -19 4t-5 14zM442 668q-12 -38 6 -62t58 -24h344q38 0 55.5 24t5.5 62
l-204 651q-7 24 -16.5 32.5t-19.5 0t-18 -32.5z" />
    <glyph glyph-name="aogonek" unicode="&#x105;" horiz-adv-x="958" 
d="M285 -33q-103 0 -165.5 67.5t-62.5 174.5q0 59 26 113.5t66 95.5t102.5 82.5t119 70t133.5 62.5q37 17 60.5 52.5t23.5 74.5v33q0 157 -43.5 221.5t-122.5 64.5q-129 0 -129 -125q0 -30 15.5 -79.5t15.5 -83.5q0 -44 -27.5 -71.5t-75.5 -27.5q-54 0 -85.5 40t-31.5 99
q0 124 102.5 208.5t256.5 84.5q155 0 243.5 -83t88.5 -250q0 -101 -5.5 -303t-5.5 -302q0 -112 68 -112q31 0 66 45t61 149q3 21 14 21q17 0 11 -23q-24 -119 -62 -187.5t-98 -94.5q-98 -75 -142.5 -135.5t-44.5 -139.5q0 -59 31 -92t88 -33q72 0 168 54q34 20 37 6
q3 -12 -25 -39q-113 -113 -241 -113q-84 0 -140.5 44.5t-56.5 125.5q0 32 9 63t21 54t35.5 49t40 41t48 37.5t45.5 31.5t47 29h-8q-89 0 -142.5 63.5t-27.5 172.5q6 27 -11 29q-17 3 -30 -23q-64 -139 -116.5 -190.5t-143.5 -51.5zM254 283q0 -72 31 -115t92 -43
q84 0 147.5 90.5t63.5 222.5v117q0 39 -23.5 53.5t-58.5 -0.5q-252 -129 -252 -325z" />
    <glyph glyph-name="Cacute" unicode="&#x106;" horiz-adv-x="1366" 
d="M72 780q0 262 91.5 465t255 314.5t372.5 111.5q83 0 173.5 -11t104.5 -11q40 0 69 8t33 8q10 0 14.5 -6t4.5 -25q-2 -180 29 -528q3 -33 -15 -33q-14 0 -20 31q-24 115 -46.5 194t-54.5 146.5t-71.5 106t-94 60t-126.5 21.5q-140 0 -248 -101t-166 -278t-58 -401
q0 -221 59.5 -396t170 -273.5t252.5 -98.5q123 0 223 83.5t158.5 214t79.5 290.5q3 21 6.5 28t11.5 7q18 0 12 -35q-11 -109 -38.5 -208.5t-75.5 -191.5t-112 -158.5t-154 -106.5t-197 -40q-195 0 -342.5 107t-224 290.5t-76.5 415.5zM709 1790q-4 0 -7 1t-4.5 3.5t-1.5 7
t1.5 11t4 15t7.5 19.5l100 267q12 37 40 62.5t69 25.5q63 0 70.5 -44t-38.5 -94l-205 -252q-22 -22 -36 -22z" />
    <glyph glyph-name="cacute" unicode="&#x107;" horiz-adv-x="858" 
d="M444 -33q-176 0 -277 153.5t-101 403.5q0 172 48 306t146 213t234 79q121 0 203.5 -73t82.5 -191q0 -62 -33 -100.5t-85 -38.5q-45 0 -72 22.5t-27 63.5q0 22 20.5 64.5t20.5 78.5q0 56 -36 92.5t-91 36.5q-53 0 -95 -43t-66.5 -112t-37 -148.5t-12.5 -159.5
q0 -218 72 -353.5t205 -135.5q69 0 132 61t107 183q7 22 21 22q13 0 4 -29q-43 -185 -134.5 -290t-228.5 -105zM442 1270q-4 0 -7 1t-4.5 3.5t-1.5 7t1.5 11t4 15t7.5 19.5l101 266q12 38 39.5 63t68.5 25q63 0 71 -43.5t-38 -93.5l-205 -252q-22 -22 -37 -22z" />
    <glyph glyph-name="Cdotaccent" unicode="&#x10a;" horiz-adv-x="1366" 
d="M72 780q0 262 91.5 465t255 314.5t372.5 111.5q83 0 173.5 -11t104.5 -11q40 0 69 8t33 8q10 0 14.5 -6t4.5 -25q-2 -180 29 -528q3 -33 -15 -33q-14 0 -20 31q-24 115 -46.5 194t-54.5 146.5t-71.5 106t-94 60t-126.5 21.5q-140 0 -248 -101t-166 -278t-58 -401
q0 -221 59.5 -396t170 -273.5t252.5 -98.5q123 0 223 83.5t158.5 214t79.5 290.5q3 21 6.5 28t11.5 7q18 0 12 -35q-11 -109 -38.5 -208.5t-75.5 -191.5t-112 -158.5t-154 -106.5t-197 -40q-195 0 -342.5 107t-224 290.5t-76.5 415.5zM625 1960q0 51 35 86t85 35t85.5 -35
t35.5 -86q0 -49 -35.5 -84t-85.5 -35t-85 35t-35 84z" />
    <glyph glyph-name="cdotaccent" unicode="&#x10b;" horiz-adv-x="858" 
d="M444 -33q-176 0 -277 153.5t-101 403.5q0 172 48 306t146 213t234 79q121 0 203.5 -73t82.5 -191q0 -62 -33 -100.5t-85 -38.5q-45 0 -72 22.5t-27 63.5q0 22 20.5 64.5t20.5 78.5q0 56 -36 92.5t-91 36.5q-53 0 -95 -43t-66.5 -112t-37 -148.5t-12.5 -159.5
q0 -218 72 -353.5t205 -135.5q69 0 132 61t107 183q7 22 21 22q13 0 4 -29q-43 -185 -134.5 -290t-228.5 -105zM358 1440q0 51 35.5 86t85.5 35t85.5 -35t35.5 -86q0 -49 -35.5 -84t-85.5 -35t-85.5 35t-35.5 84z" />
    <glyph glyph-name="Ccaron" unicode="&#x10c;" horiz-adv-x="1366" 
d="M72 780q0 262 91.5 465t255 314.5t372.5 111.5q83 0 173.5 -11t104.5 -11q40 0 69 8t33 8q10 0 14.5 -6t4.5 -25q-2 -180 29 -528q3 -33 -15 -33q-14 0 -20 31q-24 115 -46.5 194t-54.5 146.5t-71.5 106t-94 60t-126.5 21.5q-140 0 -248 -101t-166 -278t-58 -401
q0 -221 59.5 -396t170 -273.5t252.5 -98.5q123 0 223 83.5t158.5 214t79.5 290.5q3 21 6.5 28t11.5 7q18 0 12 -35q-11 -109 -38.5 -208.5t-75.5 -191.5t-112 -158.5t-154 -106.5t-197 -40q-195 0 -342.5 107t-224 290.5t-76.5 415.5zM479 2165q-13 22 6 22q10 0 37 -24
l154 -183q45 -45 69 -45q27 0 72 45l154 183q24 24 37 24q19 0 6 -22l-140 -262q-32 -59 -62.5 -85t-66.5 -26t-63.5 25.5t-60.5 85.5z" />
    <glyph glyph-name="ccaron" unicode="&#x10d;" horiz-adv-x="858" 
d="M444 -33q-176 0 -277 153.5t-101 403.5q0 172 48 306t146 213t234 79q121 0 203.5 -73t82.5 -191q0 -62 -33 -100.5t-85 -38.5q-45 0 -72 22.5t-27 63.5q0 22 20.5 64.5t20.5 78.5q0 56 -36 92.5t-91 36.5q-53 0 -95 -43t-66.5 -112t-37 -148.5t-12.5 -159.5
q0 -218 72 -353.5t205 -135.5q69 0 132 61t107 183q7 22 21 22q13 0 4 -29q-43 -185 -134.5 -290t-228.5 -105zM213 1645q-13 22 6 22q8 0 37 -25l154 -182q45 -45 69 -45q27 0 72 45l154 182q25 25 36 25q8 0 10.5 -5.5t-3.5 -16.5l-140 -263q-32 -59 -62 -84.5t-67 -25.5
q-36 0 -64 25t-61 85z" />
    <glyph glyph-name="Dcaron" unicode="&#x10e;" horiz-adv-x="1464" 
d="M289 0q-33 0 -136 -5t-149 -5q-29 0 -29 18q0 17 27 17q55 0 90.5 8t64.5 30t42.5 63.5t13.5 106.5v1172q1 65 -12.5 107t-42.5 64t-65 30t-91 8q-27 0 -27 16q3 19 29 19q47 0 150.5 -5.5t134.5 -5.5h309q132 0 250 -30.5t220 -96.5t176 -161.5t116.5 -233.5t42.5 -305
q0 -161 -39.5 -294.5t-111 -228.5t-171 -160.5t-219 -96.5t-256.5 -31h-317zM393 2165q-13 22 6 22q10 0 37 -24l154 -183q45 -45 69 -45q27 0 72 45l154 183q24 24 37 24q19 0 6 -22l-140 -262q-32 -59 -62.5 -85t-66.5 -26t-63.5 25.5t-60.5 85.5zM444 184
q0 -92 32 -121.5t106 -29.5q119 0 216 41t163.5 112t112 168.5t66.5 208.5t21 234q0 230 -77 416t-208.5 289.5t-291.5 103.5q-78 0 -109 -25t-31 -106v-1291z" />
    <glyph glyph-name="dcaron" unicode="&#x10f;" horiz-adv-x="1046" 
d="M373 -33q-147 0 -227 145t-80 384q0 276 105 452t261 176q53 0 116.5 -25.5t84.5 -25.5q24 0 30.5 16.5t6.5 73.5v279q0 85 -19 110t-55 25q-26 0 -56.5 -2.5t-59 -6t-34.5 -3.5q-28 -3 -28 14q0 14 33 20q67 9 217 53t188 48q29 -6 29 -37q0 -78 -8.5 -256.5
t-8.5 -267.5v-906q0 -125 44.5 -166.5t146.5 -41.5q15 0 20.5 -4t5.5 -15q0 -16 -26 -16q-37 0 -107 3t-110 3q-49 0 -111.5 -14.5t-71.5 -14.5q-17 -1 -23.5 10.5t-4 35.5t8 48t15 60.5t13.5 60.5q2 18 -5 24.5t-18 1t-20 -19.5q-124 -221 -252 -221zM276 549
q0 -438 189 -438q34 0 68.5 19.5t66 57t51 102t19.5 144.5v217q0 188 -48 302t-130 114q-69 0 -119 -74.5t-73.5 -190t-23.5 -253.5zM846 1700h10h14h-24zM971 1313l2 291q0 33 22 54t62 21q44 0 61 -21.5t2 -58.5l-112 -292q-12 -27 -25 -27q-12 0 -12 33z" />
    <glyph glyph-name="Dcroat" unicode="&#x110;" horiz-adv-x="1464" 
d="M289 0q-33 0 -136 -5t-149 -5q-29 0 -29 18q0 17 27 17q55 0 90.5 8t64.5 30t42.5 63.5t13.5 106.5v601q-11 22 -43 22h-131q-21 0 -21 16q0 17 21 17h131q32 0 43 22v494q1 65 -12.5 107t-42.5 64t-65 30t-91 8q-27 0 -27 16q3 19 29 19q47 0 150.5 -5.5t134.5 -5.5h309
q132 0 250 -30.5t220 -96.5t176 -161.5t116.5 -233.5t42.5 -305q0 -161 -39.5 -294.5t-111 -228.5t-171 -160.5t-219 -96.5t-256.5 -31h-317zM444 184q0 -92 32 -121.5t106 -29.5q119 0 216 41t163.5 112t112 168.5t66.5 208.5t21 234q0 230 -77 416t-208.5 289.5
t-291.5 103.5q-78 0 -109 -25t-31 -106v-543h5q0 -19 12 -31t35 -12h342q20 0 20 -17q0 -16 -20 -16h-342q-23 0 -35 -12t-12 -31h-5v-629z" />
    <glyph glyph-name="dcroat" unicode="&#x111;" horiz-adv-x="1046" 
d="M373 -33q-147 0 -227 145t-80 384q0 276 105 452t261 176q53 0 116.5 -25.5t84.5 -25.5q24 0 30.5 16.5t6.5 73.5v119q0 43 -47 43h-215q-21 0 -21 16q0 17 21 17h215q47 0 47 43v41q0 85 -19 110t-55 25q-26 0 -56.5 -2.5t-59 -6t-34.5 -3.5q-28 -3 -28 14q0 14 33 20
q67 9 217 53t188 48q29 -6 29 -37q0 -13 -11 -266q0 -39 44 -39h90q20 0 20 -17q0 -16 -20 -16h-90q-50 0 -50 -51v-1041q0 -125 44.5 -166.5t146.5 -41.5q15 0 20.5 -4t5.5 -15q0 -16 -26 -16q-37 0 -107 3t-110 3q-49 0 -111.5 -14.5t-71.5 -14.5q-17 -1 -23.5 10.5
t-4 35.5t8 48t15 60.5t13.5 60.5q2 18 -5 24.5t-18 1t-20 -19.5q-124 -221 -252 -221zM276 549q0 -438 189 -438q34 0 68.5 19.5t66 57t51 102t19.5 144.5v217q0 188 -48 302t-130 114q-69 0 -119 -74.5t-73.5 -190t-23.5 -253.5zM846 1700h10h14h-24z" />
    <glyph glyph-name="Emacron" unicode="&#x112;" horiz-adv-x="1226" 
d="M1044 -10q-20 0 -85 5t-125 5h-545q-33 0 -136 -5t-149 -5q-29 0 -29 18q0 17 27 17q55 0 90.5 8t64.5 30t42.5 63.5t13.5 106.5v1172q1 65 -12.5 107t-42.5 64t-65 30t-91 8q-27 0 -27 16q3 19 29 19q47 0 150.5 -5.5t134.5 -5.5h571q49 0 103.5 5.5t68.5 5.5
q27 0 37 -14t10 -42q0 -25 -2 -98t-2 -111q4 -65 29 -202q6 -35 -14 -35q-17 0 -23 31q-38 170 -77.5 259t-99 130t-155.5 41h-184q-107 0 -107 -111v-539q0 -38 22.5 -63t57.5 -25h183q58 -1 96 12.5t57.5 42t27 64.5t7.5 90q0 27 16 27q15 0 15 -27q0 -34 -4 -109t-4 -116
q0 -36 4 -113t4 -112q0 -27 -15 -27q-16 0 -16 27q0 109 -38.5 160t-149.5 51h-172q-40 0 -65.5 -22.5t-25.5 -57.5v-598q0 -74 23 -102.5t92 -28.5h182q67 0 114.5 18.5t95 72t91 135.5t103.5 222q14 33 26 33q21 0 11 -31q-6 -22 -25.5 -86.5t-32.5 -111.5
q-32 -110 -32 -238q0 -28 -10.5 -41.5t-37.5 -13.5zM340 1894q0 19 39 19h514q39 0 39 -19q0 -10 -8.5 -14t-30.5 -4h-514q-22 0 -30.5 4t-8.5 14z" />
    <glyph glyph-name="emacron" unicode="&#x113;" horiz-adv-x="884" 
d="M442 -33q-175 0 -275.5 142.5t-100.5 402.5q0 169 50 307t146 220.5t221 82.5q139 0 229.5 -94.5t90.5 -224.5q0 -90 -32.5 -121t-139.5 -31h-285q-38 0 -62 -23t-26 -59v-43q0 -182 71.5 -293.5t196.5 -111.5q38 0 74.5 13.5t76 45t76 95.5t62.5 155q10 25 21 25
q14 0 8 -29q-55 -236 -155 -347.5t-247 -111.5zM172 1391q0 10 8.5 14t30.5 4h514q22 0 30.5 -4t8.5 -14q0 -19 -39 -19h-514q-39 0 -39 19zM266 764q-2 -37 20.5 -61.5t59.5 -24.5h139q68 0 93.5 31.5t25.5 99.5q0 75 -14.5 134t-48.5 97.5t-84 38.5q-73 0 -124.5 -85.5
t-66.5 -229.5z" />
    <glyph glyph-name="Edotaccent" unicode="&#x116;" horiz-adv-x="1226" 
d="M1044 -10q-20 0 -85 5t-125 5h-545q-33 0 -136 -5t-149 -5q-29 0 -29 18q0 17 27 17q55 0 90.5 8t64.5 30t42.5 63.5t13.5 106.5v1172q1 65 -12.5 107t-42.5 64t-65 30t-91 8q-27 0 -27 16q3 19 29 19q47 0 150.5 -5.5t134.5 -5.5h571q49 0 103.5 5.5t68.5 5.5
q27 0 37 -14t10 -42q0 -25 -2 -98t-2 -111q4 -65 29 -202q6 -35 -14 -35q-17 0 -23 31q-38 170 -77.5 259t-99 130t-155.5 41h-184q-107 0 -107 -111v-539q0 -38 22.5 -63t57.5 -25h183q58 -1 96 12.5t57.5 42t27 64.5t7.5 90q0 27 16 27q15 0 15 -27q0 -34 -4 -109t-4 -116
q0 -36 4 -113t4 -112q0 -27 -15 -27q-16 0 -16 27q0 109 -38.5 160t-149.5 51h-172q-40 0 -65.5 -22.5t-25.5 -57.5v-598q0 -74 23 -102.5t92 -28.5h182q67 0 114.5 18.5t95 72t91 135.5t103.5 222q14 33 26 33q21 0 11 -31q-6 -22 -25.5 -86.5t-32.5 -111.5
q-32 -110 -32 -238q0 -28 -10.5 -41.5t-37.5 -13.5zM516 1944q0 51 35.5 85.5t85.5 34.5t85.5 -34.5t35.5 -85.5q0 -49 -35.5 -84t-85.5 -35t-85.5 35t-35.5 84z" />
    <glyph glyph-name="edotaccent" unicode="&#x117;" horiz-adv-x="884" 
d="M442 -33q-175 0 -275.5 142.5t-100.5 402.5q0 169 50 307t146 220.5t221 82.5q139 0 229.5 -94.5t90.5 -224.5q0 -90 -32.5 -121t-139.5 -31h-285q-38 0 -62 -23t-26 -59v-43q0 -182 71.5 -293.5t196.5 -111.5q38 0 74.5 13.5t76 45t76 95.5t62.5 155q10 25 21 25
q14 0 8 -29q-55 -236 -155 -347.5t-247 -111.5zM266 764q-2 -37 20.5 -61.5t59.5 -24.5h139q68 0 93.5 31.5t25.5 99.5q0 75 -14.5 134t-48.5 97.5t-84 38.5q-73 0 -124.5 -85.5t-66.5 -229.5zM348 1440q0 51 35.5 86t85.5 35t85.5 -35t35.5 -86q0 -49 -35.5 -84t-85.5 -35
t-85.5 35t-35.5 84z" />
    <glyph glyph-name="Eogonek" unicode="&#x118;" horiz-adv-x="1226" 
d="M1044 -10q-20 0 -63 3.5t-70 4.5q-98 -76 -142 -136t-44 -138q0 -59 31 -92t88 -33q73 0 168 53q34 20 37 6q3 -12 -25 -39q-113 -113 -242 -113q-84 0 -140 44.5t-56 125.5q0 31 8.5 60.5t19.5 52t32.5 47.5t37.5 40.5t45 37t44.5 31.5t46.5 29.5t40 25.5h-26h-545
q-33 0 -136 -5t-149 -5q-29 0 -29 18q0 17 27 17q55 0 90.5 8t64.5 30t42.5 63.5t13.5 106.5v1172q1 65 -12.5 107t-42.5 64t-65 30t-91 8q-27 0 -27 16q3 19 29 19q47 0 150.5 -5.5t134.5 -5.5h571q49 0 103.5 5.5t68.5 5.5q27 0 37 -14t10 -42q0 -25 -2 -98t-2 -111
q4 -65 29 -202q6 -35 -14 -35q-17 0 -23 31q-38 170 -77.5 259t-99 130t-155.5 41h-184q-107 0 -107 -111v-539q0 -38 22.5 -63t57.5 -25h183q58 -1 96 12.5t57.5 42t27 64.5t7.5 90q0 27 16 27q15 0 15 -27q0 -34 -4 -109t-4 -116q0 -36 4 -113t4 -112q0 -27 -15 -27
q-16 0 -16 27q0 109 -38.5 160t-149.5 51h-172q-40 0 -65.5 -22.5t-25.5 -57.5v-598q0 -74 23 -102.5t92 -28.5h182q67 0 114.5 18.5t95 72t91 135.5t103.5 222q14 33 26 33q21 0 11 -31q-6 -22 -25.5 -86.5t-32.5 -111.5q-32 -110 -32 -238q0 -28 -10.5 -41.5t-37.5 -13.5z
" />
    <glyph glyph-name="eogonek" unicode="&#x119;" horiz-adv-x="884" 
d="M442 -33q-175 0 -275.5 142.5t-100.5 402.5q0 169 50 307t146 220.5t221 82.5q139 0 229.5 -94.5t90.5 -224.5q0 -90 -32.5 -121t-139.5 -31h-285q-38 0 -62 -23t-26 -59v-43q0 -182 71.5 -293.5t196.5 -111.5q38 0 74.5 13.5t76 45t76 95.5t62.5 155q10 25 21 25
q14 0 8 -29q-83 -359 -279 -436h4q-98 -75 -143 -136.5t-45 -140.5q0 -59 31 -92t88 -33q72 0 168 54q34 20 37 6q3 -12 -25 -39q-113 -113 -242 -113q-84 0 -140 44.5t-56 125.5q0 44 16.5 85t37.5 69t59.5 60t62 47.5t65.5 41.5q-12 -2 -41 -2zM266 764q-2 -37 20.5 -61.5
t59.5 -24.5h139q68 0 93.5 31.5t25.5 99.5q0 75 -14.5 134t-48.5 97.5t-84 38.5q-73 0 -124.5 -85.5t-66.5 -229.5z" />
    <glyph glyph-name="Ecaron" unicode="&#x11a;" horiz-adv-x="1226" 
d="M1044 -10q-20 0 -85 5t-125 5h-545q-33 0 -136 -5t-149 -5q-29 0 -29 18q0 17 27 17q55 0 90.5 8t64.5 30t42.5 63.5t13.5 106.5v1172q1 65 -12.5 107t-42.5 64t-65 30t-91 8q-27 0 -27 16q3 19 29 19q47 0 150.5 -5.5t134.5 -5.5h571q49 0 103.5 5.5t68.5 5.5
q27 0 37 -14t10 -42q0 -25 -2 -98t-2 -111q4 -65 29 -202q6 -35 -14 -35q-17 0 -23 31q-38 170 -77.5 259t-99 130t-155.5 41h-184q-107 0 -107 -111v-539q0 -38 22.5 -63t57.5 -25h183q58 -1 96 12.5t57.5 42t27 64.5t7.5 90q0 27 16 27q15 0 15 -27q0 -34 -4 -109t-4 -116
q0 -36 4 -113t4 -112q0 -27 -15 -27q-16 0 -16 27q0 109 -38.5 160t-149.5 51h-172q-40 0 -65.5 -22.5t-25.5 -57.5v-598q0 -74 23 -102.5t92 -28.5h182q67 0 114.5 18.5t95 72t91 135.5t103.5 222q14 33 26 33q21 0 11 -31q-6 -22 -25.5 -86.5t-32.5 -111.5
q-32 -110 -32 -238q0 -28 -10.5 -41.5t-37.5 -13.5zM369 2148q-6 10 -4 16.5t10 6.5t37 -25l153 -182q45 -45 70 -45q27 0 72 45l153 182q25 25 37 25q8 0 10 -6.5t-4 -16.5l-139 -262q-32 -59 -62 -84.5t-67 -25.5q-36 0 -64 25t-61 85z" />
    <glyph glyph-name="ecaron" unicode="&#x11b;" horiz-adv-x="884" 
d="M442 -33q-175 0 -275.5 142.5t-100.5 402.5q0 169 50 307t146 220.5t221 82.5q139 0 229.5 -94.5t90.5 -224.5q0 -90 -32.5 -121t-139.5 -31h-285q-38 0 -62 -23t-26 -59v-43q0 -182 71.5 -293.5t196.5 -111.5q38 0 74.5 13.5t76 45t76 95.5t62.5 155q10 25 21 25
q14 0 8 -29q-55 -236 -155 -347.5t-247 -111.5zM201 1645q-13 22 6 22q8 0 37 -25l153 -182q45 -45 70 -45q27 0 72 45l153 182q25 25 37 25q19 0 6 -22l-139 -263q-32 -59 -62 -84.5t-67 -25.5q-36 0 -64 25t-61 85zM266 764q-2 -37 20.5 -61.5t59.5 -24.5h139
q68 0 93.5 31.5t25.5 99.5q0 75 -14.5 134t-48.5 97.5t-84 38.5q-73 0 -124.5 -85.5t-66.5 -229.5z" />
    <glyph glyph-name="Gbreve" unicode="&#x11e;" horiz-adv-x="1519" 
d="M836 -33q-185 0 -332 65t-240.5 178t-142.5 262.5t-49 322.5q0 190 52 350.5t148.5 277.5t241 182.5t322.5 65.5q84 0 172 -11t106 -11q39 0 66 8t34 8q21 0 21 -31q-2 -180 29 -528q3 -33 -15 -33q-15 0 -20 31q-29 143 -61 236t-80 162t-114.5 99.5t-160.5 30.5
q-115 0 -210.5 -64.5t-156 -171.5t-94 -242.5t-33.5 -281.5q0 -130 17 -250t58 -235t102.5 -199.5t157.5 -136t216 -51.5q109 0 175.5 55t66.5 144v413q0 123 -79.5 166t-248.5 43q-43 0 -43 17q0 16 45 16q71 0 232.5 -4t210.5 -4h59q29 0 100 4t107 4q25 0 25 -16
q0 -17 -23 -17q-91 0 -130.5 -42.5t-39.5 -166.5v-264q0 -53 5 -88.5t13 -61.5t9 -30q12 -42 -64 -89.5t-203 -79.5t-251 -32zM516 2099q-3 35 14 35q6 0 10 -4t6 -10l7 -21q21 -69 88 -104t166 -35t165.5 35t86.5 104q3 12 4 15.5t4 9t6.5 7t9.5 1.5q16 0 13 -33
q-19 -136 -93.5 -208t-195.5 -72q-122 0 -197 72t-94 208z" />
    <glyph glyph-name="gbreve" unicode="&#x11f;" horiz-adv-x="999" 
d="M420 -483q-113 0 -203.5 26t-148.5 83t-58 138q0 73 50 129t151 80q32 11 32.5 31.5t-36.5 32.5q-107 16 -107 117q0 54 39 97t103 83q24 19 19 47t-38 59q-51 50 -85 124t-34 157q0 175 104.5 287t278.5 112q85 0 177 -37q33 -14 51.5 -14.5t38.5 12.5q44 32 102 58
t111 26q69 0 69 -61q0 -30 -20 -50t-55 -20q-33 0 -96 11.5t-87 11.5t-32 -8.5t-3.5 -20.5t17.5 -27q102 -114 102 -274q0 -176 -103 -285.5t-274 -109.5q-38 0 -87.5 6.5t-76.5 6t-45 -14.5q-38 -28 -38 -72q0 -18 3.5 -30t16.5 -25t36.5 -21t66 -13t102.5 -5h237
q162 0 236 -50.5t74 -166.5q0 -174 -169 -302t-421 -128zM150 -186q0 -70 95 -122t263 -52q213 0 313.5 57t100.5 158q0 73 -50 104t-186 31h-307q-102 0 -165.5 -41.5t-63.5 -134.5zM182 1597q-3 35 15 35q8 0 11.5 -6t10.5 -29q21 -69 88 -104t166 -35t165.5 35t86.5 104
q5 19 9.5 26t15.5 7q15 0 12 -33q-19 -136 -93.5 -208t-195.5 -72q-122 0 -197 72t-94 208zM305 821q0 -69 11.5 -141.5t34.5 -141.5t64.5 -113t94.5 -44q76 0 115 66t39 176q0 70 -12.5 145.5t-36 145t-64 114.5t-90.5 45q-79 0 -117.5 -72t-38.5 -180z" />
    <glyph glyph-name="Gdotaccent" unicode="&#x120;" horiz-adv-x="1519" 
d="M836 -33q-185 0 -332 65t-240.5 178t-142.5 262.5t-49 322.5q0 190 52 350.5t148.5 277.5t241 182.5t322.5 65.5q84 0 172 -11t106 -11q39 0 66 8t34 8q21 0 21 -31q-2 -180 29 -528q3 -33 -15 -33q-15 0 -20 31q-29 143 -61 236t-80 162t-114.5 99.5t-160.5 30.5
q-115 0 -210.5 -64.5t-156 -171.5t-94 -242.5t-33.5 -281.5q0 -130 17 -250t58 -235t102.5 -199.5t157.5 -136t216 -51.5q109 0 175.5 55t66.5 144v413q0 123 -79.5 166t-248.5 43q-43 0 -43 17q0 16 45 16q71 0 232.5 -4t210.5 -4h59q29 0 100 4t107 4q25 0 25 -16
q0 -17 -23 -17q-91 0 -130.5 -42.5t-39.5 -166.5v-264q0 -53 5 -88.5t13 -61.5t9 -30q12 -42 -64 -89.5t-203 -79.5t-251 -32zM686 1944q0 51 35.5 85.5t85.5 34.5t85.5 -34.5t35.5 -85.5q0 -49 -35.5 -84t-85.5 -35t-85.5 35t-35.5 84z" />
    <glyph glyph-name="gdotaccent" unicode="&#x121;" horiz-adv-x="999" 
d="M420 -483q-113 0 -203.5 26t-148.5 83t-58 138q0 73 50 129t151 80q32 11 32.5 31.5t-36.5 32.5q-107 16 -107 117q0 54 39 97t103 83q24 19 19 47t-38 59q-51 50 -85 124t-34 157q0 175 104.5 287t278.5 112q85 0 177 -37q33 -14 51.5 -14.5t38.5 12.5q44 32 102 58
t111 26q69 0 69 -61q0 -30 -20 -50t-55 -20q-33 0 -96 11.5t-87 11.5t-32 -8.5t-3.5 -20.5t17.5 -27q102 -114 102 -274q0 -176 -103 -285.5t-274 -109.5q-38 0 -87.5 6.5t-76.5 6t-45 -14.5q-38 -28 -38 -72q0 -18 3.5 -30t16.5 -25t36.5 -21t66 -13t102.5 -5h237
q162 0 236 -50.5t74 -166.5q0 -174 -169 -302t-421 -128zM150 -186q0 -70 95 -122t263 -52q213 0 313.5 57t100.5 158q0 73 -50 104t-186 31h-307q-102 0 -165.5 -41.5t-63.5 -134.5zM305 821q0 -69 11.5 -141.5t34.5 -141.5t64.5 -113t94.5 -44q76 0 115 66t39 176
q0 70 -12.5 145.5t-36 145t-64 114.5t-90.5 45q-79 0 -117.5 -72t-38.5 -180zM352 1442q0 51 35.5 86t85.5 35t85.5 -35t35.5 -86q0 -49 -35.5 -84t-85.5 -35t-85.5 35t-35.5 84z" />
    <glyph glyph-name="uni0122" unicode="&#x122;" horiz-adv-x="1519" 
d="M836 -33q-185 0 -332 65t-240.5 178t-142.5 262.5t-49 322.5q0 190 52 350.5t148.5 277.5t241 182.5t322.5 65.5q84 0 172 -11t106 -11q39 0 66 8t34 8q21 0 21 -31q-2 -180 29 -528q3 -33 -15 -33q-15 0 -20 31q-29 143 -61 236t-80 162t-114.5 99.5t-160.5 30.5
q-115 0 -210.5 -64.5t-156 -171.5t-94 -242.5t-33.5 -281.5q0 -130 17 -250t58 -235t102.5 -199.5t157.5 -136t216 -51.5q109 0 175.5 55t66.5 144v413q0 123 -79.5 166t-248.5 43q-43 0 -43 17q0 16 45 16q71 0 232.5 -4t210.5 -4h59q29 0 100 4t107 4q25 0 25 -16
q0 -17 -23 -17q-91 0 -130.5 -42.5t-39.5 -166.5v-264q0 -53 5 -88.5t13 -61.5t9 -30q12 -42 -64 -89.5t-203 -79.5t-251 -32zM678 -489q0 20 35 34q168 62 168 129q0 31 -29 31q-13 0 -46 -19.5t-56 -19.5q-30 0 -51 25t-21 67q0 46 33 74.5t80 28.5q59 0 94 -38.5
t35 -107.5q0 -87 -69.5 -152.5t-137.5 -76.5q-35 -3 -35 25z" />
    <glyph glyph-name="uni0123" unicode="&#x123;" horiz-adv-x="999" 
d="M420 -483q-113 0 -203.5 26t-148.5 83t-58 138q0 73 50 129t151 80q32 11 32.5 31.5t-36.5 32.5q-107 16 -107 117q0 54 39 97t103 83q24 19 19 47t-38 59q-51 50 -85 124t-34 157q0 175 104.5 287t278.5 112q85 0 177 -37q33 -14 51.5 -14.5t38.5 12.5q44 32 102 58
t111 26q69 0 69 -61q0 -30 -20 -50t-55 -20q-33 0 -96 11.5t-87 11.5t-32 -8.5t-3.5 -20.5t17.5 -27q102 -114 102 -274q0 -176 -103 -285.5t-274 -109.5q-38 0 -87.5 6.5t-76.5 6t-45 -14.5q-38 -28 -38 -72q0 -18 3.5 -30t16.5 -25t36.5 -21t66 -13t102.5 -5h237
q162 0 236 -50.5t74 -166.5q0 -174 -169 -302t-421 -128zM150 -186q0 -70 95 -122t263 -52q213 0 313.5 57t100.5 158q0 73 -50 104t-186 31h-307q-102 0 -165.5 -41.5t-63.5 -134.5zM305 821q0 -69 11.5 -141.5t34.5 -141.5t64.5 -113t94.5 -44q76 0 115 66t39 176
q0 70 -12.5 145.5t-36 145t-64 114.5t-90.5 45q-79 0 -117.5 -72t-38.5 -180zM358 1475q0 87 69.5 152.5t137.5 76.5q35 3 35 -25q0 -20 -35 -34q-168 -62 -168 -129q0 -31 29 -31q13 0 46 19.5t56 19.5q30 0 51 -25t21 -67q0 -46 -33 -74.5t-80 -28.5q-59 0 -94 38.5
t-35 107.5z" />
    <glyph glyph-name="Hbar" unicode="&#x126;" horiz-adv-x="1523" 
d="M1079 1405q0 124 -45 166.5t-143 42.5q-23 0 -23 16q0 19 25 19q41 0 133 -5.5t119 -5.5h90q31 0 135 5.5t150 5.5q15 0 20.5 -4t5.5 -15q0 -16 -26 -16q-54 0 -90 -8t-65 -30t-42.5 -64t-13.5 -107v-84q0 -19 13 -31t36 -12h117q20 0 20 -18q0 -7 -6 -12t-14 -5h-117
q-23 0 -36 -12t-13 -31v-967q0 -124 50.5 -166t160.5 -42q26 0 26 -17q0 -11 -5.5 -14.5t-22.5 -3.5q-45 0 -148 5t-135 5h-90q-29 0 -120.5 -5t-131.5 -5q-27 0 -27 18q0 17 25 17q48 0 80 8t58 30t38 63.5t12 106.5v537q0 40 -25 65t-65 25h-454q-40 0 -65.5 -25
t-25.5 -65v-537q0 -124 44.5 -166t142.5 -42q24 0 24 -17q0 -10 -5 -14t-19 -4q-41 0 -133.5 5t-120.5 5h-88q-33 0 -136 -5t-149 -5q-29 0 -29 18q0 17 27 17q55 0 90.5 8t64.5 30t42.5 63.5t13.5 106.5v973q0 37 -45 37h-117q-20 0 -20 17q0 18 20 18h117q45 0 45 37v90
q1 65 -12.5 107t-42.5 64t-65 30t-91 8q-27 0 -27 16q3 19 29 19q47 0 150.5 -5.5t134.5 -5.5h90q27 0 119 5.5t133 5.5q24 0 24 -19q0 -16 -22 -16q-49 0 -81 -8t-58 -30t-38 -64t-12 -107v-84q0 -19 12.5 -31t35.5 -12h540q22 0 34.5 10t12.5 27v90zM444 981
q0 -40 25.5 -65t65.5 -25h454q40 0 65 25t25 65v225q0 17 -12.5 27t-34.5 10h-540q-23 0 -35.5 -12t-12.5 -31v-219z" />
    <glyph glyph-name="hbar" unicode="&#x127;" horiz-adv-x="1171" 
d="M266 0q-34 0 -114 -5t-123 -5q-29 0 -29 18q0 17 27 17q105 0 150.5 41.5t45.5 166.5v1049q0 43 -45 43h-90q-20 0 -20 16q0 17 20 17h90q45 0 45 43v41q0 59 -10 90t-22 38t-33 7q-24 0 -51 -2.5t-51.5 -6t-30.5 -3.5q-25 -3 -25 14q0 14 29 20q60 10 200 55.5t172 45.5
q35 0 35 -37q0 -48 -3 -150t-3 -120q0 -35 45 -35h213q21 0 21 -17q0 -16 -21 -16h-215q-49 0 -49 -39q0 -26 -1 -81t-1 -81v-151q0 -40 15.5 -46t41.5 25q75 85 143.5 127.5t141.5 42.5q119 0 179.5 -75.5t60.5 -221.5v-592q0 -64 12 -106.5t37.5 -64t56 -29.5t74.5 -8
q24 0 24 -17q0 -18 -26 -18q-32 0 -109.5 5t-109.5 5h-115q-42 0 -112 -3t-105 -3h-4h-9h-6h-4q-40 0 -113 3t-116 3h-113zM399 1700h2h-2zM422 258q0 -125 40 -179.5t156 -55.5q110 1 148.5 55t38.5 180v571q0 85 -35.5 124.5t-110.5 39.5q-52 0 -105 -21.5t-92.5 -69.5
t-39.5 -111v-533z" />
    <glyph glyph-name="Imacron" unicode="&#x12a;" horiz-adv-x="657" 
d="M213 1405q1 65 -12.5 107t-42.5 64t-65 30t-91 8q-27 0 -27 16q3 19 29 19q47 0 150.5 -5.5t134.5 -5.5h82q31 0 134 5.5t150 5.5q27 0 27 -19q0 -16 -27 -16q-54 0 -90 -8t-65 -30t-42.5 -64t-13.5 -107v-1172q0 -65 13.5 -106.5t42.5 -63.5t64.5 -30t90.5 -8
q27 0 27 -17q0 -18 -29 -18q-46 0 -148.5 5t-135.5 5h-80q-33 0 -136 -5t-149 -5q-29 0 -29 18q0 17 27 17q55 0 90.5 8t64.5 30t42.5 63.5t13.5 106.5v1172zM33 1894q0 19 39 19h514q39 0 39 -19q0 -10 -8.5 -14t-30.5 -4h-514q-22 0 -30.5 4t-8.5 14z" />
    <glyph glyph-name="imacron" unicode="&#x12b;" horiz-adv-x="602" 
d="M410 233q0 -123 47.5 -165.5t144.5 -42.5q27 0 27 -17q0 -18 -29 -18q-34 0 -116 5t-117 5h-109q-36 0 -120.5 -5t-127.5 -5q-17 0 -23.5 4t-6.5 14q0 17 28 17q54 0 89 8t62.5 30t39.5 63.5t12 106.5l2 633q0 59 -10 90t-22.5 38t-33.5 7q-24 0 -51.5 -3t-52.5 -7
t-29 -4q-24 -3 -24 17q0 12 28 18q60 10 201 56t172 46q35 0 35 -45q0 -69 -8 -252.5t-8 -277.5v-316zM-10 1391q0 10 8.5 14t30.5 4h514q22 0 30.5 -4t8.5 -14q0 -19 -39 -19h-514q-39 0 -39 19z" />
    <glyph glyph-name="Iogonek" unicode="&#x12e;" horiz-adv-x="657" 
d="M213 1405q1 65 -12.5 107t-42.5 64t-65 30t-91 8q-27 0 -27 16q3 19 29 19q47 0 150.5 -5.5t134.5 -5.5h82q31 0 134 5.5t150 5.5q27 0 27 -19q0 -16 -27 -16q-54 0 -90 -8t-65 -30t-42.5 -64t-13.5 -107v-1172q0 -65 13.5 -106.5t42.5 -63.5t64.5 -30t90.5 -8
q27 0 27 -17q0 -18 -29 -18q-41 0 -139 4q-93 -71 -136.5 -132t-43.5 -138q0 -59 31 -92t88 -33q73 0 168 53q34 20 37 6q3 -12 -25 -39q-113 -113 -242 -113q-84 0 -140 44.5t-56 125.5q0 45 16.5 86.5t41.5 72t60.5 60t66 49.5t66.5 41q13 7 19 11q-74 4 -96 4h-80
q-33 0 -136 -5t-149 -5q-29 0 -29 18q0 17 27 17q55 0 90.5 8t64.5 30t42.5 63.5t13.5 106.5v1172z" />
    <glyph glyph-name="iogonek" unicode="&#x12f;" horiz-adv-x="602" 
d="M410 233q0 -123 47.5 -165.5t144.5 -42.5q27 0 27 -17q0 -18 -29 -18q-48 0 -154 8q-96 -74 -140 -135.5t-44 -138.5q0 -59 31 -92t88 -33q73 0 168 53q34 20 37 6q3 -12 -25 -39q-113 -113 -242 -113q-84 0 -140 44.5t-56 125.5q0 31 8.5 60.5t19.5 52t32.5 47.5
t37.5 40.5t45 37t44.5 31.5t46.5 29.5t40 25.5h-30h-109q-36 0 -120.5 -5t-127.5 -5q-17 0 -23.5 4t-6.5 14q0 17 28 17q54 0 89 8t62.5 30t39.5 63.5t12 106.5l2 633q0 59 -10 90t-22.5 38t-33.5 7q-24 0 -51.5 -3t-52.5 -7t-29 -4q-24 -3 -24 17q0 12 28 18q60 10 201 56
t172 46q35 0 35 -45q0 -69 -8 -252.5t-8 -277.5v-316zM166 1440q0 51 35.5 86t85.5 35t85.5 -35t35.5 -86q0 -49 -35.5 -84t-85.5 -35t-85.5 35t-35.5 84z" />
    <glyph glyph-name="Idotaccent" unicode="&#x130;" horiz-adv-x="657" 
d="M213 1405q1 65 -12.5 107t-42.5 64t-65 30t-91 8q-27 0 -27 16q3 19 29 19q47 0 150.5 -5.5t134.5 -5.5h82q31 0 134 5.5t150 5.5q27 0 27 -19q0 -16 -27 -16q-54 0 -90 -8t-65 -30t-42.5 -64t-13.5 -107v-1172q0 -65 13.5 -106.5t42.5 -63.5t64.5 -30t90.5 -8
q27 0 27 -17q0 -18 -29 -18q-46 0 -148.5 5t-135.5 5h-80q-33 0 -136 -5t-149 -5q-29 0 -29 18q0 17 27 17q55 0 90.5 8t64.5 30t42.5 63.5t13.5 106.5v1172zM209 1944q0 51 35.5 85.5t85.5 34.5t85.5 -34.5t35.5 -85.5q0 -49 -35.5 -84t-85.5 -35t-85.5 35t-35.5 84z" />
    <glyph glyph-name="dotlessi" unicode="&#x131;" horiz-adv-x="602" 
d="M410 233q0 -123 47.5 -165.5t144.5 -42.5q27 0 27 -17q0 -18 -29 -18q-34 0 -116 5t-117 5h-109q-36 0 -120.5 -5t-127.5 -5q-17 0 -23.5 4t-6.5 14q0 17 28 17q54 0 89 8t62.5 30t39.5 63.5t12 106.5l2 633q0 59 -10 90t-22.5 38t-33.5 7q-24 0 -51.5 -3t-52.5 -7
t-29 -4q-24 -3 -24 17q0 12 28 18q60 10 201 56t172 46q35 0 35 -45q0 -69 -8 -252.5t-8 -277.5v-316z" />
    <glyph glyph-name="uni0136" unicode="&#x136;" horiz-adv-x="1538" 
d="M1245 190q47 -68 101 -106t97.5 -48.5t98.5 -10.5q25 0 25 -17q0 -18 -25 -18q-28 0 -99.5 5t-101.5 5h-159q-32 0 -135 -5t-150 -5q-27 0 -27 18q0 17 27 17q54 0 83 6t42.5 23t1 50t-50.5 86l-402 570q-45 76 -77 76q-26 0 -38 -28.5t-12 -92.5v-482q0 -65 12.5 -106.5
t39.5 -63.5t60 -30t83 -8q25 0 25 -17q0 -10 -6 -14t-21 -4q-42 0 -137.5 5t-124.5 5h-86q-33 0 -136 -5t-149 -5q-29 0 -29 18q0 17 27 17q55 0 90.5 8t64.5 30t42.5 63.5t13.5 106.5v1172q1 65 -12.5 107t-42.5 64t-65 30t-91 8q-27 0 -27 16q3 19 29 19q47 0 150.5 -5.5
t134.5 -5.5h82q31 0 134 5.5t150 5.5q27 0 27 -19q0 -16 -27 -16q-54 0 -90 -8t-65 -30t-42.5 -64t-13.5 -107v-410q0 -131 60 -131q4 0 8.5 1t9.5 4t9 6t10.5 8.5t10.5 9t11 11t11 11t12 12.5t12 13l422 463q59 64 59 113q0 42 -68.5 70t-181.5 28q-26 0 -26 16q0 8 8 13.5
t20 5.5q53 0 171 -5.5t180 -5.5h47q40 0 138.5 5.5t150.5 5.5q34 0 34 -19q0 -16 -34 -16q-132 0 -221.5 -29.5t-170.5 -120.5l-378 -422q-55 -63 -3 -137zM649 -489q0 20 35 34q168 62 168 129q0 31 -29 31q-13 0 -46 -19.5t-56 -19.5q-30 0 -51 25t-21 67q0 46 33 74.5
t80 28.5q59 0 94 -38.5t35 -107.5q0 -87 -69.5 -152.5t-137.5 -76.5q-35 -3 -35 25z" />
    <glyph glyph-name="uni0137" unicode="&#x137;" horiz-adv-x="1198" 
d="M266 0q-36 0 -120.5 -5t-127.5 -5q-17 0 -23.5 4t-6.5 14q0 17 28 17q54 0 89 8t62.5 30t39.5 63.5t12 106.5l2 1209q0 59 -10 90t-22 38t-33 7q-24 0 -51 -2.5t-53.5 -6t-28.5 -3.5q-25 -3 -25 14q0 14 29 20q60 10 199.5 55.5t170.5 45.5q37 0 37 -37q0 -82 -8 -246
t-8 -246v-458q0 -46 12.5 -66.5t30.5 -16.5t39 25l233 250q26 28 38.5 50.5t9.5 42.5t-25 33.5t-68.5 21.5t-116.5 8q-22 0 -22 16q0 19 24 19q25 0 142 -5t207 -6q29 0 100 4.5t108 4.5q25 0 25 -17q0 -18 -22 -18q-98 2 -173.5 -27t-156.5 -119l-139 -151q-40 -43 -11 -90
l269 -469q61 -105 130 -141.5t156 -36.5q23 0 23 -17q0 -18 -25 -18q-29 0 -102.5 5t-104.5 5h-143q-46 0 -122 -3t-113 -3h-7h-4q-41 0 -115 3t-116 3h-113zM397 1700h2h-2zM418 258q0 -126 39.5 -180.5t152.5 -54.5h4h7q47 0 74.5 8t39 22t7.5 40.5t-17 56t-39 75.5
l-197 350q-24 41 -48 23q-23 -16 -23 -72v-268zM469 -489q0 20 35 34q168 62 168 129q0 31 -29 31q-13 0 -46 -19.5t-56 -19.5q-30 0 -51 25t-21 67q0 46 33 74.5t80 28.5q59 0 94 -38.5t35 -107.5q0 -87 -69.5 -152.5t-137.5 -76.5q-35 -3 -35 25z" />
    <glyph glyph-name="Lacute" unicode="&#x139;" horiz-adv-x="1148" 
d="M371 1638q31 0 134 5.5t150 5.5q27 0 27 -19q0 -16 -27 -16q-54 0 -90 -8t-65 -30t-42.5 -64t-13.5 -107v-1243q0 -74 23 -102.5t92 -28.5h160q51 0 88 10t75.5 38t72 80t70.5 134.5t79 202.5q11 32 26 32q21 0 11 -32q-25 -91 -38.5 -145t-26.5 -140.5t-13 -165.5
q0 -28 -9.5 -41.5t-35.5 -13.5q-20 0 -86 5t-127 5h-516q-33 0 -136 -5t-149 -5q-29 0 -29 18q0 17 27 17q55 0 90.5 8t64.5 30t42.5 63.5t13.5 106.5v1172q1 65 -12.5 107t-42.5 64t-65 30t-91 8q-27 0 -27 16q3 19 29 19q47 0 150.5 -5.5t134.5 -5.5h82zM299 1774
q-4 0 -7 1t-4.5 3.5t-1.5 7t1.5 11t4 15t7.5 19.5l100 266q12 37 40 62.5t69 25.5q63 0 71 -43.5t-38 -93.5l-205 -252q-22 -22 -37 -22z" />
    <glyph glyph-name="lacute" unicode="&#x13a;" horiz-adv-x="587" 
d="M401 233q0 -123 45.5 -165.5t137.5 -42.5q26 0 26 -17q0 -18 -26 -18q-33 0 -113 5t-113 5h-112q-34 0 -116 -5t-124 -5q-29 0 -29 18q0 17 29 17q52 0 85.5 8t60 30t38.5 63.5t13 106.5v1209q0 59 -10 90t-22.5 38t-33.5 7q-24 0 -51 -2.5t-51.5 -6t-30.5 -3.5
q-24 -3 -24 14q0 14 28 20q60 10 201 55.5t172 45.5q35 0 35 -37q0 -84 -7.5 -310.5t-7.5 -375.5v-744zM254 1792q-4 0 -7 1t-4.5 3.5t-1.5 7t1.5 11t4 15t7.5 19.5l100 267q12 37 40 62.5t69 25.5q63 0 71 -44t-38 -94l-205 -251q-23 -23 -37 -23z" />
    <glyph glyph-name="uni013B" unicode="&#x13b;" horiz-adv-x="1148" 
d="M371 1638q31 0 134 5.5t150 5.5q27 0 27 -19q0 -16 -27 -16q-54 0 -90 -8t-65 -30t-42.5 -64t-13.5 -107v-1243q0 -74 23 -102.5t92 -28.5h160q51 0 88 10t75.5 38t72 80t70.5 134.5t79 202.5q11 32 26 32q21 0 11 -32q-25 -91 -38.5 -145t-26.5 -140.5t-13 -165.5
q0 -28 -9.5 -41.5t-35.5 -13.5q-20 0 -86 5t-127 5h-516q-33 0 -136 -5t-149 -5q-29 0 -29 18q0 17 27 17q55 0 90.5 8t64.5 30t42.5 63.5t13.5 106.5v1172q1 65 -12.5 107t-42.5 64t-65 30t-91 8q-27 0 -27 16q3 19 29 19q47 0 150.5 -5.5t134.5 -5.5h82zM471 -489
q0 20 35 34q168 62 168 129q0 31 -29 31q-13 0 -46 -19.5t-56 -19.5q-30 0 -51 25t-21 67q0 46 33 74.5t80 28.5q59 0 94 -38.5t35 -107.5q0 -87 -69.5 -152.5t-137.5 -76.5q-35 -3 -35 25z" />
    <glyph glyph-name="uni013C" unicode="&#x13c;" horiz-adv-x="587" 
d="M401 233q0 -123 45.5 -165.5t137.5 -42.5q26 0 26 -17q0 -18 -26 -18q-33 0 -113 5t-113 5h-112q-34 0 -116 -5t-124 -5q-29 0 -29 18q0 17 29 17q52 0 85.5 8t60 30t38.5 63.5t13 106.5v1209q0 59 -10 90t-22.5 38t-33.5 7q-24 0 -51 -2.5t-51.5 -6t-30.5 -3.5
q-24 -3 -24 14q0 14 28 20q60 10 201 55.5t172 45.5q35 0 35 -37q0 -84 -7.5 -310.5t-7.5 -375.5v-744zM172 -489q0 20 35 34q168 62 168 129q0 31 -29 31q-13 0 -46 -19.5t-56 -19.5q-30 0 -51 25t-21 67q0 46 33 74.5t80 28.5q59 0 94 -38.5t35 -107.5q0 -87 -69.5 -152.5
t-137.5 -76.5q-35 -3 -35 25z" />
    <glyph glyph-name="Lcaron" unicode="&#x13d;" horiz-adv-x="1148" 
d="M371 1638q31 0 134 5.5t150 5.5q27 0 27 -19q0 -16 -27 -16q-54 0 -90 -8t-65 -30t-42.5 -64t-13.5 -107v-1243q0 -74 23 -102.5t92 -28.5h160q51 0 88 10t75.5 38t72 80t70.5 134.5t79 202.5q11 32 26 32q21 0 11 -32q-25 -91 -38.5 -145t-26.5 -140.5t-13 -165.5
q0 -28 -9.5 -41.5t-35.5 -13.5q-20 0 -86 5t-127 5h-516q-33 0 -136 -5t-149 -5q-29 0 -29 18q0 17 27 17q55 0 90.5 8t64.5 30t42.5 63.5t13.5 106.5v1172q1 65 -12.5 107t-42.5 64t-65 30t-91 8q-27 0 -27 16q3 19 29 19q47 0 150.5 -5.5t134.5 -5.5h82zM842 1315l2 291
q0 33 22 54t62 21q44 0 61 -21t2 -58l-112 -293q-12 -27 -25 -27q-12 0 -12 33z" />
    <glyph glyph-name="lcaron" unicode="&#x13e;" horiz-adv-x="587" 
d="M401 233q0 -123 45.5 -165.5t137.5 -42.5q26 0 26 -17q0 -18 -26 -18q-33 0 -113 5t-113 5h-112q-34 0 -116 -5t-124 -5q-29 0 -29 18q0 17 29 17q52 0 85.5 8t60 30t38.5 63.5t13 106.5v1209q0 59 -10 90t-22.5 38t-33.5 7q-24 0 -51 -2.5t-51.5 -6t-30.5 -3.5
q-24 -3 -24 14q0 14 28 20q60 10 201 55.5t172 45.5q35 0 35 -37q0 -84 -7.5 -310.5t-7.5 -375.5v-744zM502 1313l2 291q0 33 22 54t62 21q44 0 61 -21.5t2 -58.5l-112 -292q-12 -27 -25 -27q-12 0 -12 33z" />
    <glyph glyph-name="Lslash" unicode="&#x141;" horiz-adv-x="1148" 
d="M371 1638q31 0 134 5.5t150 5.5q27 0 27 -19q0 -16 -27 -16q-54 0 -90 -8t-65 -30t-42.5 -64t-13.5 -107v-545q0 -27 8.5 -35t30.5 0l394 154q25 9 30 -4q7 -16 -18 -27l-393 -153q-31 -11 -41.5 -29t-10.5 -51v-553q0 -74 23 -102.5t92 -28.5h160q51 0 88 10t75.5 38
t72 80t70.5 134.5t79 202.5q11 32 26 32q21 0 11 -32q-25 -91 -38.5 -145t-26.5 -140.5t-13 -165.5q0 -28 -9.5 -41.5t-35.5 -13.5q-20 0 -86 5t-127 5h-516q-33 0 -136 -5t-149 -5q-29 0 -29 18q0 17 27 17q55 0 90.5 8t64.5 30t42.5 63.5t13.5 106.5v406q0 25 -7.5 35
t-27.5 2l-119 -49q-16 -7 -24 6q-7 17 14 24l127 52q37 16 37 65v631q1 65 -12.5 107t-42.5 64t-65 30t-91 8q-27 0 -27 16q3 19 29 19q47 0 150.5 -5.5t134.5 -5.5h82z" />
    <glyph glyph-name="lslash" unicode="&#x142;" horiz-adv-x="587" 
d="M401 233q0 -123 45.5 -165.5t137.5 -42.5q26 0 26 -17q0 -18 -26 -18q-33 0 -113 5t-113 5h-112q-34 0 -116 -5t-124 -5q-29 0 -29 18q0 17 29 17q52 0 85.5 8t60 30t38.5 63.5t13 106.5v523q0 27 -9.5 34t-29.5 -4l-119 -61q-6 -3 -14 -1.5t-11 7.5q-4 7 0 14t11 11
l119 61q33 19 43 34.5t10 49.5v541q0 59 -10 90t-22.5 38t-33.5 7q-24 0 -51 -2.5t-51.5 -6t-30.5 -3.5q-24 -3 -24 14q0 14 28 20q60 10 201 55.5t172 45.5q35 0 35 -37q0 -82 -7.5 -303t-7.5 -369q0 -26 9.5 -32.5t29.5 4.5l117 61q19 8 27 -6q7 -13 -13 -25l-116 -61
q-34 -17 -44 -33t-10 -51v-615z" />
    <glyph glyph-name="Nacute" unicode="&#x143;" horiz-adv-x="1466" 
d="M1167 -33q-18 0 -28 17l-781 1265q-22 34 -34.5 31t-12.5 -43v-1004q-1 -65 17 -106.5t57 -63.5t87.5 -30t121.5 -8q35 0 35 -19q0 -16 -37 -16q-50 0 -151.5 4.5t-147.5 5.5q-34 -1 -125.5 -5.5t-134.5 -4.5q-19 0 -26 4t-7 14q0 17 31 17q63 0 105 8t75.5 30t49 63.5
t15.5 106.5v1049q0 93 -47 166l-32 51q-33 53 -88 84t-113 31q-29 0 -29 14q0 21 31 21q64 0 157.5 -4t149.5 -5q50 -5 79 -22t56 -59l729 -1188q22 -34 35 -30t13 44v1020q1 65 -17 107t-57 64t-87.5 30t-121.5 8q-35 0 -35 18q0 17 37 17q50 0 151.5 -5t147.5 -6
q31 1 110 6t117 5q27 0 27 -19q0 -16 -27 -16q-54 0 -90 -8t-65 -30t-42.5 -64t-13.5 -107v-1419q0 -8 -5.5 -13.5t-12.5 -5.5h-66zM713 1812q-4 0 -7 1t-4.5 4t-1.5 7.5t1.5 10.5t4 15t7.5 20l100 266q12 37 40 62.5t69 25.5q63 0 70.5 -44t-38.5 -93l-204 -252
q-23 -23 -37 -23z" />
    <glyph glyph-name="nacute" unicode="&#x144;" horiz-adv-x="1175" 
d="M258 0q-36 0 -120.5 -5t-127.5 -5q-17 0 -23.5 4t-6.5 14q0 17 28 17q54 0 89 8t62.5 30t39.5 63.5t12 106.5l2 631q0 59 -10 90t-22.5 38t-33.5 7q-63 0 -133 -14q-24 0 -24 16q0 13 28 19q60 10 201 56t172 46h2q33 0 33 -37q0 -5 -10 -108q-2 -40 12 -46t39 25
q147 166 287 166q109 0 166 -76t57 -221v-592q0 -64 14.5 -106.5t43.5 -64t62.5 -29.5t82.5 -8q17 0 22.5 -4t5.5 -13q0 -18 -28 -18q-36 0 -124 5t-124 5h-109q-13 0 -196 -6h-11h-16h-14h-8q-25 1 -65.5 2.5t-75.5 2.5t-70 1h-109zM410 258q0 -123 39 -177.5t151 -57.5
q104 3 142 57.5t38 177.5v567q0 168 -131 168q-56 0 -108.5 -20.5t-91.5 -68.5t-39 -113v-533zM571 1270q-4 0 -7 1t-4.5 3.5t-1.5 7t1.5 11t4 15t7.5 19.5l101 266q12 38 39.5 63t68.5 25q63 0 71 -43.5t-38 -93.5l-205 -252q-22 -22 -37 -22z" />
    <glyph glyph-name="uni0145" unicode="&#x145;" horiz-adv-x="1466" 
d="M1167 -33q-18 0 -28 17l-781 1265q-22 34 -34.5 31t-12.5 -43v-1004q-1 -65 17 -106.5t57 -63.5t87.5 -30t121.5 -8q35 0 35 -19q0 -16 -37 -16q-50 0 -151.5 4.5t-147.5 5.5q-34 -1 -125.5 -5.5t-134.5 -4.5q-19 0 -26 4t-7 14q0 17 31 17q63 0 105 8t75.5 30t49 63.5
t15.5 106.5v1049q0 93 -47 166l-32 51q-33 53 -88 84t-113 31q-29 0 -29 14q0 21 31 21q64 0 157.5 -4t149.5 -5q50 -5 79 -22t56 -59l729 -1188q22 -34 35 -30t13 44v1020q1 65 -17 107t-57 64t-87.5 30t-121.5 8q-35 0 -35 18q0 17 37 17q50 0 151.5 -5t147.5 -6
q31 1 110 6t117 5q27 0 27 -19q0 -16 -27 -16q-54 0 -90 -8t-65 -30t-42.5 -64t-13.5 -107v-1419q0 -8 -5.5 -13.5t-12.5 -5.5h-66zM664 -489q0 20 34 34q168 62 168 129q0 31 -28 31q-13 0 -46.5 -19.5t-56.5 -19.5q-30 0 -50.5 25t-20.5 67q0 46 32.5 74.5t79.5 28.5
q59 0 94 -38.5t35 -107.5q0 -87 -69.5 -152.5t-137.5 -76.5q-34 -3 -34 25z" />
    <glyph glyph-name="uni0146" unicode="&#x146;" horiz-adv-x="1175" 
d="M258 0q-36 0 -120.5 -5t-127.5 -5q-17 0 -23.5 4t-6.5 14q0 17 28 17q54 0 89 8t62.5 30t39.5 63.5t12 106.5l2 631q0 59 -10 90t-22.5 38t-33.5 7q-63 0 -133 -14q-24 0 -24 16q0 13 28 19q60 10 201 56t172 46h2q33 0 33 -37q0 -5 -10 -108q-2 -40 12 -46t39 25
q147 166 287 166q109 0 166 -76t57 -221v-592q0 -64 14.5 -106.5t43.5 -64t62.5 -29.5t82.5 -8q17 0 22.5 -4t5.5 -13q0 -18 -28 -18q-36 0 -124 5t-124 5h-109q-13 0 -196 -6h-11h-16h-14h-8q-25 1 -65.5 2.5t-75.5 2.5t-70 1h-109zM410 258q0 -123 39 -177.5t151 -57.5
q104 3 142 57.5t38 177.5v567q0 168 -131 168q-56 0 -108.5 -20.5t-91.5 -68.5t-39 -113v-533zM461 -489q0 20 35 34q168 62 168 129q0 31 -29 31q-13 0 -46.5 -19.5t-56.5 -19.5q-30 0 -50.5 25t-20.5 67q0 46 32.5 74.5t79.5 28.5q59 0 94 -38.5t35 -107.5
q0 -87 -69 -152.5t-137 -76.5q-35 -3 -35 25z" />
    <glyph glyph-name="Ncaron" unicode="&#x147;" horiz-adv-x="1466" 
d="M1167 -33q-18 0 -28 17l-781 1265q-22 34 -34.5 31t-12.5 -43v-1004q-1 -65 17 -106.5t57 -63.5t87.5 -30t121.5 -8q35 0 35 -19q0 -16 -37 -16q-50 0 -151.5 4.5t-147.5 5.5q-34 -1 -125.5 -5.5t-134.5 -4.5q-19 0 -26 4t-7 14q0 17 31 17q63 0 105 8t75.5 30t49 63.5
t15.5 106.5v1049q0 93 -47 166l-32 51q-33 53 -88 84t-113 31q-29 0 -29 14q0 21 31 21q64 0 157.5 -4t149.5 -5q50 -5 79 -22t56 -59l729 -1188q22 -34 35 -30t13 44v1020q1 65 -17 107t-57 64t-87.5 30t-121.5 8q-35 0 -35 18q0 17 37 17q50 0 151.5 -5t147.5 -6
q31 1 110 6t117 5q27 0 27 -19q0 -16 -27 -16q-54 0 -90 -8t-65 -30t-42.5 -64t-13.5 -107v-1419q0 -8 -5.5 -13.5t-12.5 -5.5h-66zM483 2187q-6 11 -4 17t10 6t37 -25l154 -182q45 -45 70 -45q26 0 71 45l154 182q25 25 37 25q8 0 10 -6t-4 -17l-139 -262
q-32 -59 -62 -84.5t-67 -25.5q-36 0 -64 25t-61 85z" />
    <glyph glyph-name="ncaron" unicode="&#x148;" horiz-adv-x="1175" 
d="M258 0q-36 0 -120.5 -5t-127.5 -5q-17 0 -23.5 4t-6.5 14q0 17 28 17q54 0 89 8t62.5 30t39.5 63.5t12 106.5l2 631q0 59 -10 90t-22.5 38t-33.5 7q-63 0 -133 -14q-24 0 -24 16q0 13 28 19q60 10 201 56t172 46h2q33 0 33 -37q0 -5 -10 -108q-2 -40 12 -46t39 25
q147 166 287 166q109 0 166 -76t57 -221v-592q0 -64 14.5 -106.5t43.5 -64t62.5 -29.5t82.5 -8q17 0 22.5 -4t5.5 -13q0 -18 -28 -18q-36 0 -124 5t-124 5h-109q-13 0 -196 -6h-11h-16h-14h-8q-25 1 -65.5 2.5t-75.5 2.5t-70 1h-109zM342 1645q-13 22 6 22q8 0 37 -25
l154 -182q45 -45 69 -45q27 0 72 45l154 182q25 25 36 25q8 0 10.5 -5.5t-3.5 -16.5l-140 -263q-32 -59 -62 -84.5t-67 -25.5q-36 0 -64 25t-61 85zM410 258q0 -123 39 -177.5t151 -57.5q104 3 142 57.5t38 177.5v567q0 168 -131 168q-56 0 -108.5 -20.5t-91.5 -68.5
t-39 -113v-533z" />
    <glyph glyph-name="Eng" unicode="&#x14a;" horiz-adv-x="1460" 
d="M903 -481q-42 0 -67 28.5t-25 69.5q0 44 23.5 79t64.5 38q35 2 75 -5t64.5 -14.5t53.5 -9.5t41 10q47 38 47 166q0 46 -17 81t-63 92.5t-72 97.5l-678 1097q-20 34 -33.5 31t-13.5 -43v-1004q0 -65 18 -106.5t57 -63.5t87 -30t121 -8q20 0 27.5 -4t7.5 -15
q0 -9 -7.5 -12.5t-29.5 -3.5q-49 0 -150.5 4.5t-148.5 5.5q-31 -1 -113 -5.5t-121 -4.5q-28 0 -28 18q0 17 26 17q56 0 93.5 8t67.5 30t44 63.5t14 106.5v1049q0 93 -47 166l-33 51q-32 53 -86.5 84t-113.5 31q-29 0 -29 14q0 21 31 21q65 0 158 -4t149 -5q50 -5 79 -22
t56 -59l729 -1188q20 -34 33.5 -30t13.5 44v1020q0 65 -18 107t-56.5 64t-86.5 30t-121 8q-20 0 -27.5 4t-7.5 14q0 17 37 17q48 0 150.5 -5t150.5 -6q32 1 111 6t116 5q29 0 29 -19q0 -16 -27 -16q-111 0 -162 -42.5t-51 -166.5v-1274q0 -112 -13.5 -204t-35.5 -154
t-53 -109.5t-61.5 -74t-65.5 -43.5t-61 -22t-52 -5z" />
    <glyph glyph-name="eng" unicode="&#x14b;" horiz-adv-x="1079" 
d="M766 825q0 86 -32 127t-99 41q-49 0 -98.5 -20.5t-88 -68.5t-38.5 -113v-558q0 -64 12.5 -106.5t37 -64t53.5 -29.5t71 -8q24 0 24 -17q0 -18 -26 -18q-29 0 -104.5 5t-106.5 5h-113q-36 0 -120.5 -5t-127.5 -5q-17 0 -23.5 4t-6.5 14q0 17 28 17q54 0 89 8t62.5 30
t39.5 63.5t12 106.5l2 631q0 59 -10 90t-22.5 38t-33.5 7q-63 0 -133 -14q-24 0 -24 16q0 13 28 19q60 10 201 56t172 46h2q33 0 33 -37q0 -24 -8 -102q-3 -40 11 -45.5t40 23.5q148 161 272 161q109 0 166.5 -76t57.5 -221v-503q0 -141 -21 -259.5t-54 -198.5t-77.5 -143
t-89 -99t-90.5 -59.5t-79 -31.5t-58 -8q-43 0 -70 28.5t-27 69.5q0 43 24 78.5t64 36.5q36 3 78 -5.5t68 -18.5t56 -14t42 7q35 30 35 131v989z" />
    <glyph glyph-name="Omacron" unicode="&#x14c;" horiz-adv-x="1417" 
d="M713 -33q-189 0 -336.5 113t-226 306t-78.5 431q0 239 78.5 432t224 305.5t332.5 112.5q189 0 336.5 -113.5t226 -306.5t78.5 -430q0 -239 -78 -432t-224 -305.5t-333 -112.5zM299 1047q0 -196 32.5 -379.5t92.5 -330t153 -235t205 -88.5q161 1 249.5 158t88.5 420
q0 194 -33 377t-93 328.5t-153 234t-204 88.5q-106 0 -183.5 -76t-116 -204.5t-38.5 -292.5zM412 1894q0 19 39 19h514q39 0 39 -19q0 -10 -8.5 -14t-30.5 -4h-514q-22 0 -30.5 4t-8.5 14z" />
    <glyph glyph-name="omacron" unicode="&#x14d;" horiz-adv-x="1009" 
d="M506 -33q-129 0 -231 79t-155.5 209t-53.5 284q0 166 51 297t152 208.5t237 77.5q128 0 230 -79t156 -208.5t54 -283.5q0 -166 -51.5 -297.5t-152.5 -209t-236 -77.5zM201 1391q0 10 8.5 14t30.5 4h514q22 0 30.5 -4t8.5 -14q0 -19 -39 -19h-514q-39 0 -39 19zM272 711
q0 -92 11 -187t35.5 -187t59 -163.5t85 -115.5t110.5 -44q57 0 95 54t53.5 132t15.5 175q0 116 -19.5 236t-55 224.5t-95 171t-131.5 66.5q-56 0 -94 -54t-54 -133t-16 -175z" />
    <glyph glyph-name="Ohungarumlaut" unicode="&#x150;" horiz-adv-x="1417" 
d="M713 -33q-189 0 -336.5 113t-226 306t-78.5 431q0 239 78.5 432t224 305.5t332.5 112.5q189 0 336.5 -113.5t226 -306.5t78.5 -430q0 -239 -78 -432t-224 -305.5t-333 -112.5zM299 1047q0 -196 32.5 -379.5t92.5 -330t153 -235t205 -88.5q161 1 249.5 158t88.5 420
q0 194 -33 377t-93 328.5t-153 234t-204 88.5q-106 0 -183.5 -76t-116 -204.5t-38.5 -292.5zM551 1831l72 266q7 34 33 54t59 20q104 0 30 -119l-157 -256q-16 -22 -35 -22q-10 0 -10.5 11t8.5 46zM762 1831l84 266q10 34 36 54t58 20q56 0 62 -34t-33 -85l-170 -256
q-17 -22 -33 -22q-6 0 -9.5 2t-4 8.5t2 17.5t7.5 29z" />
    <glyph glyph-name="ohungarumlaut" unicode="&#x151;" horiz-adv-x="1009" 
d="M506 -33q-129 0 -231 79t-155.5 209t-53.5 284q0 166 51 297t152 208.5t237 77.5q128 0 230 -79t156 -208.5t54 -283.5q0 -166 -51.5 -297.5t-152.5 -209t-236 -77.5zM272 711q0 -92 11 -187t35.5 -187t59 -163.5t85 -115.5t110.5 -44q57 0 95 54t53.5 132t15.5 175
q0 116 -19.5 236t-55 224.5t-95 171t-131.5 66.5q-56 0 -94 -54t-54 -133t-16 -175zM338 1327l72 266q7 34 33 54t59 20q104 0 30 -119l-157 -256q-17 -22 -35 -22q-10 0 -10.5 11t8.5 46zM549 1327l84 266q10 34 36 54t58 20q56 0 62 -34t-33 -85l-170 -256
q-16 -22 -33 -22q-6 0 -9.5 2t-4 8.5t2 17.5t7.5 29z" />
    <glyph glyph-name="OE" unicode="&#x152;" horiz-adv-x="1941" 
d="M737 -29q-200 0 -352.5 107.5t-232.5 293.5t-80 421q0 141 28.5 270.5t85 239t135.5 190.5t186 126.5t230 45.5q87 0 186 -13.5t158 -13.5h494q49 0 100 5.5t66 5.5q26 0 35.5 -14t9.5 -42q0 -125 2 -159q2 -46 29 -252q6 -35 -13 -35q-16 0 -22 31q-26 124 -51 199
t-63 130.5t-90 78t-128 22.5h-184q-57 0 -83 -32t-26 -83v-532q0 -40 22.5 -65.5t57.5 -25.5h170q118 0 159.5 54t41.5 170q0 17 3.5 22.5t12.5 5.5t12.5 -5.5t3.5 -22.5q0 -42 -3.5 -130.5t-4.5 -109.5q1 -23 4.5 -111.5t3.5 -130.5q0 -28 -16 -28q-18 0 -18 26
q0 118 -40.5 172t-158.5 54h-160q-40 0 -65 -22.5t-25 -57.5v-594q0 -71 23.5 -99.5t93.5 -31.5h182q106 0 172.5 38.5t119.5 132.5t112 277q9 33 24 33q22 0 12 -31q-8 -31 -29 -102.5t-30 -104.5q-31 -103 -31 -229q0 -28 -10.5 -41.5t-36.5 -13.5q-20 0 -85.5 5t-125.5 5
h-403q-88 0 -213.5 -14.5t-194.5 -14.5zM311 956q0 -273 48 -483t144.5 -332.5t229.5 -122.5q93 0 143 57.5t50 170.5v1061q0 309 -240 309q-94 0 -167.5 -54t-118 -147t-67 -209.5t-22.5 -249.5z" />
    <glyph glyph-name="oe" unicode="&#x153;" horiz-adv-x="1597" 
d="M506 -33q-198 0 -319 159t-121 413q0 166 51 297t152 208.5t237 77.5q97 0 178 -54t139 -148q19 -34 42 -33.5t40 35.5q112 200 289 200q141 0 231.5 -94.5t90.5 -224.5q0 -89 -33 -119.5t-140 -30.5h-288q-37 0 -60.5 -22.5t-23.5 -59.5v-45q0 -183 70 -294t198 -111
q29 0 57.5 7.5t61.5 28.5t62 54t58 89.5t50 129.5q5 15 8.5 20t11.5 5q14 0 8 -29q-55 -235 -155.5 -347t-247.5 -112q-173 0 -268 176q-17 37 -39 38t-41 -34q-117 -180 -299 -180zM281 680q0 -110 15.5 -223.5t45.5 -215.5t81.5 -166.5t115.5 -64.5q52 0 91 36.5t60 96.5
t31 126.5t10 138.5q0 110 -16 223.5t-46 215.5t-81.5 167t-114.5 65q-53 0 -92 -36t-59.5 -96.5t-30.5 -127t-10 -139.5zM983 764q-4 -37 17.5 -61.5t56.5 -24.5h141q69 7 93 36t24 95q0 117 -35.5 192.5t-110.5 75.5q-76 0 -121.5 -76t-64.5 -237z" />
    <glyph glyph-name="Racute" unicode="&#x154;" horiz-adv-x="1325" 
d="M289 0q-33 0 -136 -5t-149 -5q-29 0 -29 18q0 17 27 17q55 0 90.5 8t64.5 30t42.5 63.5t13.5 106.5v1172q1 65 -12.5 107t-42.5 64t-65 30t-91 8q-27 0 -27 16q3 19 29 19q47 0 150.5 -5.5t134.5 -5.5h338q268 0 399 -108t131 -307q0 -96 -29.5 -169.5t-83.5 -120.5
t-120.5 -74.5t-149.5 -39.5q-45 -9 -45 -35q0 -16 21 -30q100 -99 179.5 -207t155.5 -266q70 -144 124.5 -200t140.5 -56q26 0 26 -17q0 -18 -28 -18q-93 1 -152.5 4.5t-111 15t-81 25.5t-58.5 44.5t-48 63.5t-45 90l-244 496q-22 48 -41.5 64t-50.5 16q-43 0 -57.5 -16.5
t-14.5 -69.5l-2 -490q0 -124 50.5 -166t160.5 -42q27 0 27 -17q0 -10 -6 -14t-21 -4q-47 0 -150 5t-134 5h-80zM444 942q0 -111 125 -111q158 0 255.5 102t97.5 302q0 167 -86.5 269t-245.5 102q-77 0 -111.5 -25t-34.5 -102v-537zM567 1774q-4 0 -7 1t-4.5 3.5t-1.5 7
t1.5 11t4 15t7.5 19.5l101 266q12 38 39.5 63t68.5 25q63 0 71 -43.5t-38 -93.5l-205 -252q-22 -22 -37 -22z" />
    <glyph glyph-name="racute" unicode="&#x155;" horiz-adv-x="837" 
d="M254 0q-32 0 -111 -5t-120 -5q-29 0 -29 18q0 17 26 17q103 0 147.5 41.5t45.5 166.5v631q0 59 -10 90t-22.5 38t-33.5 7q-63 0 -133 -14q-24 0 -24 16q0 13 28 19q60 10 201 56t172 46q33 0 33 -37q0 -14 -1.5 -35t-4 -52t-4.5 -54q-2 -25 2 -35t13 -3t20 30
q100 186 233 186q58 0 90.5 -29.5t32.5 -84.5q0 -64 -32 -99t-75 -35q-32 0 -53 15t-29 32.5t-26 32.5t-45 15q-49 0 -92 -71t-43 -161v-504q0 -64 20 -106.5t60.5 -64t88 -29.5t117.5 -8q41 0 41 -17q0 -18 -43 -18q-50 0 -173.5 5t-174.5 5h-92zM461 1270q-4 0 -7 1
t-4.5 3.5t-1.5 7t1.5 11t4 15t7.5 19.5l100 266q12 37 40 62.5t69 25.5q63 0 70.5 -43.5t-38.5 -93.5l-204 -252q-22 -22 -37 -22z" />
    <glyph glyph-name="uni0156" unicode="&#x156;" horiz-adv-x="1325" 
d="M289 0q-33 0 -136 -5t-149 -5q-29 0 -29 18q0 17 27 17q55 0 90.5 8t64.5 30t42.5 63.5t13.5 106.5v1172q1 65 -12.5 107t-42.5 64t-65 30t-91 8q-27 0 -27 16q3 19 29 19q47 0 150.5 -5.5t134.5 -5.5h338q268 0 399 -108t131 -307q0 -96 -29.5 -169.5t-83.5 -120.5
t-120.5 -74.5t-149.5 -39.5q-45 -9 -45 -35q0 -16 21 -30q100 -99 179.5 -207t155.5 -266q70 -144 124.5 -200t140.5 -56q26 0 26 -17q0 -18 -28 -18q-93 1 -152.5 4.5t-111 15t-81 25.5t-58.5 44.5t-48 63.5t-45 90l-244 496q-22 48 -41.5 64t-50.5 16q-43 0 -57.5 -16.5
t-14.5 -69.5l-2 -490q0 -124 50.5 -166t160.5 -42q27 0 27 -17q0 -10 -6 -14t-21 -4q-47 0 -150 5t-134 5h-80zM444 942q0 -111 125 -111q158 0 255.5 102t97.5 302q0 167 -86.5 269t-245.5 102q-77 0 -111.5 -25t-34.5 -102v-537zM666 -489q0 20 34 34q168 62 168 129
q0 31 -28 31q-13 0 -46.5 -19.5t-56.5 -19.5q-30 0 -50.5 25t-20.5 67q0 46 32.5 74.5t79.5 28.5q59 0 94 -38.5t35 -107.5q0 -87 -69.5 -152.5t-137.5 -76.5q-34 -3 -34 25z" />
    <glyph glyph-name="uni0157" unicode="&#x157;" horiz-adv-x="837" 
d="M254 0q-32 0 -111 -5t-120 -5q-29 0 -29 18q0 17 26 17q103 0 147.5 41.5t45.5 166.5v631q0 59 -10 90t-22.5 38t-33.5 7q-63 0 -133 -14q-24 0 -24 16q0 13 28 19q60 10 201 56t172 46q33 0 33 -37q0 -14 -1.5 -35t-4 -52t-4.5 -54q-2 -25 2 -35t13 -3t20 30
q100 186 233 186q58 0 90.5 -29.5t32.5 -84.5q0 -64 -32 -99t-75 -35q-32 0 -53 15t-29 32.5t-26 32.5t-45 15q-49 0 -92 -71t-43 -161v-504q0 -64 20 -106.5t60.5 -64t88 -29.5t117.5 -8q41 0 41 -17q0 -18 -43 -18q-50 0 -173.5 5t-174.5 5h-92zM207 -489q0 20 35 34
q168 62 168 129q0 31 -29 31q-13 0 -46 -19.5t-56 -19.5q-30 0 -51 25t-21 67q0 46 32.5 74.5t79.5 28.5q60 0 95 -38.5t35 -107.5q0 -87 -69.5 -152.5t-137.5 -76.5q-35 -3 -35 25z" />
    <glyph glyph-name="Rcaron" unicode="&#x158;" horiz-adv-x="1325" 
d="M289 0q-33 0 -136 -5t-149 -5q-29 0 -29 18q0 17 27 17q55 0 90.5 8t64.5 30t42.5 63.5t13.5 106.5v1172q1 65 -12.5 107t-42.5 64t-65 30t-91 8q-27 0 -27 16q3 19 29 19q47 0 150.5 -5.5t134.5 -5.5h338q268 0 399 -108t131 -307q0 -96 -29.5 -169.5t-83.5 -120.5
t-120.5 -74.5t-149.5 -39.5q-45 -9 -45 -35q0 -16 21 -30q100 -99 179.5 -207t155.5 -266q70 -144 124.5 -200t140.5 -56q26 0 26 -17q0 -18 -28 -18q-93 1 -152.5 4.5t-111 15t-81 25.5t-58.5 44.5t-48 63.5t-45 90l-244 496q-22 48 -41.5 64t-50.5 16q-43 0 -57.5 -16.5
t-14.5 -69.5l-2 -490q0 -124 50.5 -166t160.5 -42q27 0 27 -17q0 -10 -6 -14t-21 -4q-47 0 -150 5t-134 5h-80zM338 2148q-6 10 -4 16.5t10 6.5t37 -25l154 -182q45 -45 69 -45q27 0 72 45l153 182q25 25 37 25q8 0 10 -6.5t-4 -16.5l-139 -262q-32 -59 -62 -84.5t-67 -25.5
q-36 0 -64 25t-61 85zM444 942q0 -111 125 -111q158 0 255.5 102t97.5 302q0 167 -86.5 269t-245.5 102q-77 0 -111.5 -25t-34.5 -102v-537z" />
    <glyph glyph-name="rcaron" unicode="&#x159;" horiz-adv-x="837" 
d="M254 0q-32 0 -111 -5t-120 -5q-29 0 -29 18q0 17 26 17q103 0 147.5 41.5t45.5 166.5v631q0 59 -10 90t-22.5 38t-33.5 7q-63 0 -133 -14q-24 0 -24 16q0 13 28 19q60 10 201 56t172 46q33 0 33 -37q0 -14 -1.5 -35t-4 -52t-4.5 -54q-2 -25 2 -35t13 -3t20 30
q100 186 233 186q58 0 90.5 -29.5t32.5 -84.5q0 -64 -32 -99t-75 -35q-32 0 -53 15t-29 32.5t-26 32.5t-45 15q-49 0 -92 -71t-43 -161v-504q0 -64 20 -106.5t60.5 -64t88 -29.5t117.5 -8q41 0 41 -17q0 -18 -43 -18q-50 0 -173.5 5t-174.5 5h-92zM229 1645q-6 11 -3.5 16.5
t10.5 5.5q7 0 36 -25l154 -182q45 -45 70 -45q26 0 71 45l154 182q25 25 37 25q19 0 6 -22l-139 -263q-32 -59 -62 -84.5t-67 -25.5q-36 0 -64 25t-61 85z" />
    <glyph glyph-name="Sacute" unicode="&#x15a;" horiz-adv-x="1064" 
d="M547 -33q-50 0 -140 9.5t-114 9.5q-31 0 -71.5 -6.5t-49.5 -6.5q-20 0 -20 29q1 65 -30.5 263t-35.5 296q0 19 14 19q17 0 23 -21q24 -106 46.5 -181t51.5 -140t62 -106t78 -71t100 -42.5t127 -12.5q63 0 111.5 26t75 68.5t39.5 88.5t13 94q0 59 -21 116.5t-50 100.5
t-81 93.5t-90 81.5t-102 79q-64 49 -100 78t-87.5 74t-79.5 81t-56.5 82t-41 95.5t-12.5 103.5q0 187 115 295t293 108q69 0 149.5 -9t104.5 -9q25 0 61 6t45 6q12 0 17.5 -6t5.5 -25q0 -67 6.5 -157.5t16.5 -189.5t12 -130q3 -35 -12 -35q-17 0 -23 31q-21 114 -42.5 189.5
t-52 134.5t-72.5 91t-98.5 48t-135.5 16q-112 0 -172 -73t-60 -179q0 -49 18.5 -96.5t45 -86t76 -85t91 -79.5t109.5 -85q75 -56 122.5 -94.5t102 -94t85 -106t51 -117t20.5 -139.5q0 -194 -120 -312t-318 -118zM502 1774q-4 0 -7 1t-4.5 3.5t-1.5 7t1.5 11t4 15t7.5 19.5
l100 266q12 37 40 62.5t69 25.5q63 0 70.5 -43.5t-38.5 -93.5l-204 -252q-22 -22 -37 -22z" />
    <glyph glyph-name="sacute" unicode="&#x15b;" horiz-adv-x="753" 
d="M406 -33q-59 0 -132.5 11.5t-97.5 11.5q-20 0 -50 -6.5t-40 -6.5q-20 0 -20 25q0 84 -10.5 174t-25 166.5t-14.5 79.5q-6 24 13 24q13 0 18 -22q15 -53 25 -84.5t26 -76t31 -71.5t36 -60t45 -52t55 -37t69.5 -25.5t83.5 -7.5q73 0 111 39.5t38 102.5q0 82 -59 154.5
t-211 197.5q-133 105 -183.5 178t-50.5 160q0 125 81.5 202.5t199.5 77.5q45 0 105.5 -10t89.5 -10q25 0 55 6t39 6q22 0 22 -24q-1 -90 4 -167t10.5 -130.5t6.5 -71.5q0 -27 -14 -27q-11 0 -17 25q-65 360 -311 360q-60 0 -95.5 -41t-35.5 -104q0 -65 51 -121.5t176 -153.5
q75 -60 120.5 -102.5t81.5 -90t51 -95t15 -105.5q0 -145 -83 -222t-209 -77zM346 1272q-4 0 -7 1t-4.5 3.5t-1.5 7t1.5 11t4 15t7.5 19.5l100 266q12 37 40 62.5t69 25.5q63 0 71 -43.5t-38 -93.5l-205 -252q-22 -22 -37 -22z" />
    <glyph glyph-name="Scedilla" unicode="&#x15e;" horiz-adv-x="1064" 
d="M369 -530q-66 0 -66 18q0 10 10 12t37 2q132 0 213.5 50t81.5 147q0 56 -28.5 90.5t-71.5 34.5q-23 0 -58.5 -15.5t-44.5 -15.5q-10 0 -14.5 5t-3 13t6 17.5t11.5 19.5l80 119q-45 1 -124.5 10t-104.5 9q-31 0 -71.5 -6.5t-49.5 -6.5q-20 0 -20 29q1 65 -30.5 263
t-35.5 296q0 19 14 19q17 0 23 -21q24 -106 46.5 -181t51.5 -140t62 -106t78 -71t100 -42.5t127 -12.5q63 0 111.5 26t75 68.5t39.5 88.5t13 94q0 59 -21 116.5t-50 100.5t-81 93.5t-90 81.5t-102 79q-64 49 -100 78t-87.5 74t-79.5 81t-56.5 82t-41 95.5t-12.5 103.5
q0 187 115 295t293 108q69 0 149.5 -9t104.5 -9q25 0 61 6t45 6q12 0 17.5 -6t5.5 -25q0 -67 6.5 -157.5t16.5 -189.5t12 -130q3 -35 -12 -35q-17 0 -23 31q-21 114 -42.5 189.5t-52 134.5t-72.5 91t-98.5 48t-135.5 16q-112 0 -172 -73t-60 -179q0 -49 18.5 -96.5t45 -86
t76 -85t91 -79.5t109.5 -85q75 -56 122.5 -94.5t102 -94t85 -106t51 -117t20.5 -139.5q0 -188 -113.5 -305.5t-302.5 -124.5l-24 -45q-16 -29 0.5 -41t48.5 -12q81 0 140 -45t59 -133q0 -59 -39.5 -104t-104.5 -69.5t-135.5 -36t-144.5 -11.5z" />
    <glyph glyph-name="scedilla" unicode="&#x15f;" horiz-adv-x="753" 
d="M406 -33h-11l-20 -39q-16 -29 0.5 -41t48.5 -12q81 0 140 -45t59 -133q0 -59 -39.5 -104t-104.5 -69.5t-135.5 -36t-144.5 -11.5q-66 0 -66 18q0 10 10 12t37 2q132 0 213.5 50t81.5 147q0 56 -28.5 90.5t-71.5 34.5q-23 0 -58.5 -15.5t-44.5 -15.5q-10 0 -14.5 5
t-3 13.5t6 18t11.5 19.5l78 114q-36 3 -92 12t-82 9q-20 0 -50 -6.5t-40 -6.5q-20 0 -20 25q0 84 -10.5 174t-25 166.5t-14.5 79.5q-6 24 13 24q13 0 18 -22q15 -53 25 -84.5t26 -76t31 -71.5t36 -60t45 -52t55 -37t69.5 -25.5t83.5 -7.5q73 0 111 39.5t38 102.5
q0 82 -59 154.5t-211 197.5q-133 105 -183.5 178t-50.5 160q0 125 81.5 202.5t199.5 77.5q45 0 105.5 -10t89.5 -10q25 0 55 6t39 6q22 0 22 -24q-1 -90 4 -167t10.5 -130.5t6.5 -71.5q0 -27 -14 -27q-11 0 -17 25q-65 360 -311 360q-60 0 -95.5 -41t-35.5 -104
q0 -65 51 -121.5t176 -153.5q75 -60 120.5 -102.5t81.5 -90t51 -95t15 -105.5q0 -145 -83 -222t-209 -77z" />
    <glyph glyph-name="Scaron" unicode="&#x160;" horiz-adv-x="1064" 
d="M547 -33q-50 0 -140 9.5t-114 9.5q-31 0 -71.5 -6.5t-49.5 -6.5q-20 0 -20 29q1 65 -30.5 263t-35.5 296q0 19 14 19q17 0 23 -21q24 -106 46.5 -181t51.5 -140t62 -106t78 -71t100 -42.5t127 -12.5q63 0 111.5 26t75 68.5t39.5 88.5t13 94q0 59 -21 116.5t-50 100.5
t-81 93.5t-90 81.5t-102 79q-64 49 -100 78t-87.5 74t-79.5 81t-56.5 82t-41 95.5t-12.5 103.5q0 187 115 295t293 108q69 0 149.5 -9t104.5 -9q25 0 61 6t45 6q12 0 17.5 -6t5.5 -25q0 -67 6.5 -157.5t16.5 -189.5t12 -130q3 -35 -12 -35q-17 0 -23 31q-21 114 -42.5 189.5
t-52 134.5t-72.5 91t-98.5 48t-135.5 16q-112 0 -172 -73t-60 -179q0 -49 18.5 -96.5t45 -86t76 -85t91 -79.5t109.5 -85q75 -56 122.5 -94.5t102 -94t85 -106t51 -117t20.5 -139.5q0 -194 -120 -312t-318 -118zM272 2148q-6 10 -3.5 16.5t10.5 6.5q7 0 36 -25l154 -182
q45 -45 70 -45q26 0 71 45l154 182q25 25 37 25q8 0 10 -6.5t-4 -16.5l-139 -262q-32 -59 -62 -84.5t-67 -25.5q-36 0 -64 25t-61 85z" />
    <glyph glyph-name="scaron" unicode="&#x161;" horiz-adv-x="753" 
d="M406 -33q-59 0 -132.5 11.5t-97.5 11.5q-20 0 -50 -6.5t-40 -6.5q-20 0 -20 25q0 84 -10.5 174t-25 166.5t-14.5 79.5q-6 24 13 24q13 0 18 -22q15 -53 25 -84.5t26 -76t31 -71.5t36 -60t45 -52t55 -37t69.5 -25.5t83.5 -7.5q73 0 111 39.5t38 102.5q0 82 -59 154.5
t-211 197.5q-133 105 -183.5 178t-50.5 160q0 125 81.5 202.5t199.5 77.5q45 0 105.5 -10t89.5 -10q25 0 55 6t39 6q22 0 22 -24q-1 -90 4 -167t10.5 -130.5t6.5 -71.5q0 -27 -14 -27q-11 0 -17 25q-65 360 -311 360q-60 0 -95.5 -41t-35.5 -104q0 -65 51 -121.5t176 -153.5
q75 -60 120.5 -102.5t81.5 -90t51 -95t15 -105.5q0 -145 -83 -222t-209 -77zM115 1647q-13 22 6 22q10 0 37 -24l153 -183q45 -45 70 -45q27 0 72 45l153 183q24 24 37 24q19 0 6 -22l-139 -263q-32 -59 -62 -84.5t-67 -25.5q-36 0 -64 25t-61 85z" />
    <glyph glyph-name="uni0162" unicode="&#x162;" horiz-adv-x="1320" 
d="M633 0q-37 0 -160 -5t-178 -5q-33 0 -33 18q0 17 33 17q64 0 106.5 8t77 30t50.5 63.5t16 106.5v1307q0 32 -16.5 50t-45.5 18h-108q-105 0 -168 -110t-96 -314q-3 -33 -21 -33q-17 0 -14 33q0 24 3 101.5t3 121.5q0 54 -7 117.5t-7 74.5q0 26 7.5 38t26.5 12
q28 0 104.5 -5.5t127.5 -5.5h653q51 0 128 5.5t106 5.5q34 0 34 -50q0 -11 -8 -74.5t-8 -117.5q0 -44 3 -121.5t3 -101.5q3 -33 -14 -33q-15 0 -21 33q-33 206 -95 315t-169 109h-108q-29 0 -45.5 -18t-16.5 -50v-1307q-1 -124 58.5 -166t191.5 -42q31 0 31 -17
q0 -10 -7 -14t-26 -4q-54 0 -170.5 4.5t-142.5 5.5l-21 -41q-16 -29 0.5 -41t48.5 -12q81 0 140 -45t59 -133q0 -59 -39.5 -104t-104.5 -69.5t-135.5 -36.5t-144.5 -12q-65 0 -65 19q0 10 10 12t37 2q132 0 213.5 50t81.5 147q0 56 -28.5 90.5t-72.5 34.5q-23 0 -58 -15.5
t-44 -15.5q-10 0 -14.5 5t-3 13t6 17.5t11.5 19.5l78 115h-33z" />
    <glyph glyph-name="uni0163" unicode="&#x163;" horiz-adv-x="731" 
d="M682 453q3 22 16 22t13 -22q-22 -247 -93 -366.5t-204 -119.5h-23l-4 -8q-16 -29 0.5 -41t48.5 -12q81 0 140 -45t59 -133q0 -59 -39.5 -104t-104.5 -69.5t-135.5 -36.5t-144.5 -12q-66 0 -66 19q0 10 10.5 12t37.5 2q132 0 213 50t81 147q0 56 -28.5 90.5t-71.5 34.5
q-23 0 -58 -15.5t-44 -15.5q-10 0 -14.5 5t-3 13t6 17.5t11.5 19.5l61 90q-88 21 -133 110t-45 265v641q0 25 -15 40.5t-40 15.5h-103q-30 0 -30 16q0 18 30 18q130 0 214 73t95 222q3 19 8 26t15 7q13 0 16.5 -6t3.5 -27v-237q0 -31 20 -47.5t54 -16.5t102.5 13.5
t82.5 13.5q34 0 34 -29q0 -26 -37 -26h-196q-25 0 -40 -15.5t-15 -40.5v-588q0 -305 137 -305q61 0 110 89.5t68 265.5z" />
    <glyph glyph-name="Tcaron" unicode="&#x164;" horiz-adv-x="1320" 
d="M633 0q-37 0 -160 -5t-178 -5q-33 0 -33 18q0 17 33 17q64 0 106.5 8t77 30t50.5 63.5t16 106.5v1307q0 32 -16.5 50t-45.5 18h-108q-105 0 -168 -110t-96 -314q-3 -33 -21 -33q-17 0 -14 33q0 24 3 101.5t3 121.5q0 54 -7 117.5t-7 74.5q0 26 7.5 38t26.5 12
q28 0 104.5 -5.5t127.5 -5.5h653q51 0 128 5.5t106 5.5q34 0 34 -50q0 -11 -8 -74.5t-8 -117.5q0 -44 3 -121.5t3 -101.5q3 -33 -14 -33q-15 0 -21 33q-33 206 -95 315t-169 109h-108q-29 0 -45.5 -18t-16.5 -50v-1307q-1 -124 58.5 -166t191.5 -42q31 0 31 -17
q0 -10 -7 -14t-26 -4q-55 0 -177.5 5t-160.5 5h-53zM387 2148q-6 10 -4 16.5t10 6.5t37 -25l154 -182q45 -45 69 -45q27 0 72 45l154 182q25 25 36 25q8 0 10.5 -6.5t-3.5 -16.5l-140 -262q-32 -59 -62 -84.5t-67 -25.5q-36 0 -64 25t-61 85z" />
    <glyph glyph-name="tcaron" unicode="&#x165;" horiz-adv-x="731" 
d="M682 453q3 22 16 22t13 -22q-22 -247 -93 -366.5t-204 -119.5q-122 0 -184 88t-62 295v641q0 25 -15 40.5t-40 15.5h-103q-30 0 -30 16q0 18 30 18q130 0 214 73t95 222q3 19 8 26t15 7q13 0 16.5 -6t3.5 -27v-237q0 -31 20 -47.5t54 -16.5t102.5 13.5t82.5 13.5
q34 0 34 -29q0 -26 -37 -26h-196q-25 0 -40 -15.5t-15 -40.5v-588q0 -305 137 -305q61 0 110 89.5t68 265.5zM489 1247l3 291q0 34 21.5 55t61.5 21q44 0 61.5 -21.5t2.5 -58.5l-113 -293q-12 -27 -24 -27q-13 0 -13 33z" />
    <glyph glyph-name="Tbar" unicode="&#x166;" horiz-adv-x="1320" 
d="M633 0q-37 0 -160 -5t-178 -5q-33 0 -33 18q0 17 33 17q64 0 106.5 8t77 30t50.5 63.5t16 106.5v515q0 19 -12 31t-35 12h-260q-21 0 -21 16t21 16h260q23 0 35 12t12 31v674q0 32 -16.5 50t-45.5 18h-108q-105 0 -168 -110t-96 -314q-3 -33 -21 -33q-17 0 -14 33
q0 24 3 101.5t3 121.5q0 54 -7 117.5t-7 74.5q0 26 7.5 38t26.5 12q28 0 104.5 -5.5t127.5 -5.5h653q51 0 128 5.5t106 5.5q34 0 34 -50q0 -11 -8 -74.5t-8 -117.5q0 -44 3 -121.5t3 -101.5q3 -33 -14 -33q-15 0 -21 33q-33 206 -95 315t-169 109h-108q-29 0 -45.5 -18
t-16.5 -50v-674q0 -19 12 -31t35 -12h260q21 0 21 -16t-21 -16h-260q-23 0 -35 -12t-12 -31v-515q-1 -124 58.5 -166t191.5 -42q31 0 31 -17q0 -10 -7 -14t-26 -4q-55 0 -177.5 5t-160.5 5h-53z" />
    <glyph glyph-name="tbar" unicode="&#x167;" horiz-adv-x="679" 
d="M682 453q3 22 16 22t13 -22q-22 -247 -93 -366.5t-204 -119.5q-122 0 -184 88t-62 295v277q0 16 -12 26.5t-33 10.5h-105q-20 0 -20 16t20 16h107q43 0 43 35v260q0 25 -15 40.5t-40 15.5h-103q-30 0 -30 16q0 18 30 18q130 0 214 73t95 222q3 19 8 26t15 7q13 0 16.5 -6
t3.5 -27v-237q0 -31 20 -47.5t54 -16.5t102.5 13.5t82.5 13.5q34 0 34 -29q0 -26 -37 -26h-196q-25 0 -40 -15.5t-15 -40.5v-252q0 -43 47 -43h207q20 0 20 -16t-20 -16h-205q-49 0 -49 -43v-218q0 -305 137 -305q61 0 110 89.5t68 265.5z" />
    <glyph glyph-name="Umacron" unicode="&#x16a;" horiz-adv-x="1482" 
d="M766 -33q-116 0 -208 29t-154 80t-103 124.5t-59.5 159t-18.5 187.5v858q1 65 -12.5 107t-42.5 64t-65 30t-91 8q-26 0 -26 16q2 11 7.5 15t20.5 4q46 0 150 -5.5t135 -5.5h82q31 0 135 5.5t150 5.5q26 0 26 -19q0 -16 -26 -16q-54 0 -90 -8t-65 -30t-42.5 -64
t-13.5 -107v-858q0 -245 97 -360t292 -115q172 0 275.5 117t103.5 364v852q1 65 -12.5 107t-42.5 64t-65 30t-91 8q-27 0 -27 16q3 19 29 19q39 0 121 -4t106 -5q24 1 106 5t121 4q27 0 27 -19q0 -16 -27 -16q-54 0 -90 -8t-65 -30t-42.5 -64t-13.5 -107v-852
q0 -68 -6 -127.5t-21.5 -120t-39.5 -109.5t-62.5 -92.5t-88.5 -73t-119.5 -46.5t-153.5 -17zM539 1894q0 19 39 19h514q38 0 38 -19q0 -10 -8 -14t-30 -4h-514q-22 0 -30.5 4t-8.5 14z" />
    <glyph glyph-name="umacron" unicode="&#x16b;" horiz-adv-x="1099" 
d="M387 -33q-223 0 -223 281v618q0 59 -10 90t-22.5 38t-33.5 7q-23 0 -50.5 -3t-51.5 -6.5t-31 -4.5q-24 -3 -24 17q0 12 28 18q60 10 201 56t172 46h2q16 0 25.5 -12.5t9.5 -28.5q0 -55 -8.5 -191t-8.5 -204v-405q0 -91 30.5 -135t96.5 -44q94 0 163 93t69 235v457
q0 40 -4.5 64t-14 34t-17.5 12t-23 2q-20 0 -45 -3t-47.5 -7t-26.5 -4q-21 -3 -21 17q0 12 25 18q37 7 169 54.5t183 47.5q35 0 35 -41q0 -55 -7 -191t-7 -204v-455q0 -125 43.5 -166.5t146.5 -41.5q27 0 27 -19q0 -16 -29 -16q-35 0 -105 3t-110 3q-50 0 -112.5 -14.5
t-71.5 -14.5q-17 0 -22.5 12t-2 35t10 48t12.5 59t6 61q0 24 -16.5 25.5t-28.5 -19.5q-65 -108 -133.5 -164.5t-147.5 -56.5zM252 1391q0 10 8.5 14t30.5 4h514q22 0 30.5 -4t8.5 -14q0 -19 -39 -19h-514q-39 0 -39 19z" />
    <glyph glyph-name="Uring" unicode="&#x16e;" horiz-adv-x="1482" 
d="M766 -33q-116 0 -208 29t-154 80t-103 124.5t-59.5 159t-18.5 187.5v858q1 65 -12.5 107t-42.5 64t-65 30t-91 8q-26 0 -26 16q2 11 7.5 15t20.5 4q46 0 150 -5.5t135 -5.5h82q31 0 135 5.5t150 5.5q26 0 26 -19q0 -16 -26 -16q-54 0 -90 -8t-65 -30t-42.5 -64
t-13.5 -107v-858q0 -245 97 -360t292 -115q172 0 275.5 117t103.5 364v852q1 65 -12.5 107t-42.5 64t-65 30t-91 8q-27 0 -27 16q3 19 29 19q39 0 121 -4t106 -5q24 1 106 5t121 4q27 0 27 -19q0 -16 -27 -16q-54 0 -90 -8t-65 -30t-42.5 -64t-13.5 -107v-852
q0 -68 -6 -127.5t-21.5 -120t-39.5 -109.5t-62.5 -92.5t-88.5 -73t-119.5 -46.5t-153.5 -17zM678 1958q0 66 40 109.5t118 43.5q75 0 114 -43.5t39 -109.5q0 -69 -38.5 -113.5t-114.5 -44.5q-78 0 -118 44.5t-40 113.5zM727 1958q0 -54 30 -86.5t79 -32.5q47 0 75.5 32.5
t28.5 86.5q0 52 -28.5 83.5t-75.5 31.5q-50 0 -79.5 -31.5t-29.5 -83.5z" />
    <glyph glyph-name="uring" unicode="&#x16f;" horiz-adv-x="1099" 
d="M387 -33q-223 0 -223 281v618q0 59 -10 90t-22.5 38t-33.5 7q-23 0 -50.5 -3t-51.5 -6.5t-31 -4.5q-24 -3 -24 17q0 12 28 18q60 10 201 56t172 46h2q16 0 25.5 -12.5t9.5 -28.5q0 -55 -8.5 -191t-8.5 -204v-405q0 -91 30.5 -135t96.5 -44q94 0 163 93t69 235v457
q0 40 -4.5 64t-14 34t-17.5 12t-23 2q-20 0 -45 -3t-47.5 -7t-26.5 -4q-21 -3 -21 17q0 12 25 18q37 7 169 54.5t183 47.5q35 0 35 -41q0 -55 -7 -191t-7 -204v-455q0 -125 43.5 -166.5t146.5 -41.5q27 0 27 -19q0 -16 -29 -16q-35 0 -105 3t-110 3q-50 0 -112.5 -14.5
t-71.5 -14.5q-17 0 -22.5 12t-2 35t10 48t12.5 59t6 61q0 24 -16.5 25.5t-28.5 -19.5q-65 -108 -133.5 -164.5t-147.5 -56.5zM391 1454q0 66 40 110t118 44q75 0 114 -44t39 -110q0 -69 -38.5 -113.5t-114.5 -44.5q-78 0 -118 44.5t-40 113.5zM440 1454q0 -54 30 -86.5
t79 -32.5q47 0 75.5 32.5t28.5 86.5q0 52 -28.5 83.5t-75.5 31.5q-50 0 -79.5 -31.5t-29.5 -83.5z" />
    <glyph glyph-name="Uhungarumlaut" unicode="&#x170;" horiz-adv-x="1482" 
d="M766 -33q-116 0 -208 29t-154 80t-103 124.5t-59.5 159t-18.5 187.5v858q1 65 -12.5 107t-42.5 64t-65 30t-91 8q-26 0 -26 16q2 11 7.5 15t20.5 4q46 0 150 -5.5t135 -5.5h82q31 0 135 5.5t150 5.5q26 0 26 -19q0 -16 -26 -16q-54 0 -90 -8t-65 -30t-42.5 -64
t-13.5 -107v-858q0 -245 97 -360t292 -115q172 0 275.5 117t103.5 364v852q1 65 -12.5 107t-42.5 64t-65 30t-91 8q-27 0 -27 16q3 19 29 19q39 0 121 -4t106 -5q24 1 106 5t121 4q27 0 27 -19q0 -16 -27 -16q-54 0 -90 -8t-65 -30t-42.5 -64t-13.5 -107v-852
q0 -68 -6 -127.5t-21.5 -120t-39.5 -109.5t-62.5 -92.5t-88.5 -73t-119.5 -46.5t-153.5 -17zM678 1831l72 266q7 34 33 54t59 20q104 0 30 -119l-157 -256q-17 -22 -35 -22q-10 0 -10.5 11t8.5 46zM889 1831l84 266q10 34 36 54t58 20q56 0 62 -34t-33 -85l-170 -256
q-17 -22 -33 -22q-6 0 -9.5 2t-4 8.5t2 17.5t7.5 29z" />
    <glyph glyph-name="uhungarumlaut" unicode="&#x171;" horiz-adv-x="1099" 
d="M387 -33q-223 0 -223 281v618q0 59 -10 90t-22.5 38t-33.5 7q-23 0 -50.5 -3t-51.5 -6.5t-31 -4.5q-24 -3 -24 17q0 12 28 18q60 10 201 56t172 46h2q16 0 25.5 -12.5t9.5 -28.5q0 -55 -8.5 -191t-8.5 -204v-405q0 -91 30.5 -135t96.5 -44q94 0 163 93t69 235v457
q0 40 -4.5 64t-14 34t-17.5 12t-23 2q-20 0 -45 -3t-47.5 -7t-26.5 -4q-21 -3 -21 17q0 12 25 18q37 7 169 54.5t183 47.5q35 0 35 -41q0 -55 -7 -191t-7 -204v-455q0 -125 43.5 -166.5t146.5 -41.5q27 0 27 -19q0 -16 -29 -16q-35 0 -105 3t-110 3q-50 0 -112.5 -14.5
t-71.5 -14.5q-17 0 -22.5 12t-2 35t10 48t12.5 59t6 61q0 24 -16.5 25.5t-28.5 -19.5q-65 -108 -133.5 -164.5t-147.5 -56.5zM391 1327l72 266q7 34 33 54t59 20q105 0 31 -119l-158 -256q-16 -22 -35 -22q-10 0 -10.5 11t8.5 46zM602 1327l84 266q10 34 36 54t58 20
q56 0 62 -34t-33 -85l-170 -256q-17 -22 -33 -22q-6 0 -9.5 2t-4 8.5t2 17.5t7.5 29z" />
    <glyph glyph-name="Uogonek" unicode="&#x172;" horiz-adv-x="1482" 
d="M766 -33q-116 0 -208 29t-154 80t-103 124.5t-59.5 159t-18.5 187.5v858q1 65 -12.5 107t-42.5 64t-65 30t-91 8q-26 0 -26 16q2 11 7.5 15t20.5 4q46 0 150 -5.5t135 -5.5h82q31 0 135 5.5t150 5.5q26 0 26 -19q0 -16 -26 -16q-54 0 -90 -8t-65 -30t-42.5 -64
t-13.5 -107v-858q0 -245 97 -360t292 -115q172 0 275.5 117t103.5 364v852q1 65 -12.5 107t-42.5 64t-65 30t-91 8q-27 0 -27 16q3 19 29 19q39 0 121 -4t106 -5q24 1 106 5t121 4q27 0 27 -19q0 -16 -27 -16q-54 0 -90 -8t-65 -30t-42.5 -64t-13.5 -107v-852
q0 -108 -16 -195.5t-54.5 -168.5t-112 -135t-179.5 -74q-81 -66 -119.5 -124.5t-38.5 -129.5q0 -59 31 -92t88 -33q73 0 168 53q34 20 37 6q3 -12 -25 -39q-113 -113 -241 -113q-84 0 -140.5 44.5t-56.5 125.5q0 51 19 95.5t56.5 81.5t68 60.5t77.5 53.5q-16 -2 -53 -2z" />
    <glyph glyph-name="uogonek" unicode="&#x173;" horiz-adv-x="1099" 
d="M387 -33q-223 0 -223 281v618q0 59 -10 90t-22.5 38t-33.5 7q-23 0 -50.5 -3t-51.5 -6.5t-31 -4.5q-24 -3 -24 17q0 12 28 18q60 10 201 56t172 46h2q16 0 25.5 -12.5t9.5 -28.5q0 -55 -8.5 -191t-8.5 -204v-405q0 -91 30.5 -135t96.5 -44q94 0 163 93t69 235v457
q0 40 -4.5 64t-14 34t-17.5 12t-23 2q-20 0 -45 -3t-47.5 -7t-26.5 -4q-21 -3 -21 17q0 12 25 18q37 7 169 54.5t183 47.5q35 0 35 -41q0 -55 -7 -191t-7 -204v-455q0 -125 43.5 -166.5t146.5 -41.5q27 0 27 -19q0 -16 -29 -16q-35 0 -105 3t-110 3h-12q-95 -73 -139 -134
t-44 -138q0 -59 31 -92t88 -33q73 0 168 53q34 20 37 6q3 -12 -25 -39q-113 -113 -241 -113q-84 0 -140.5 44.5t-56.5 125.5q0 43 16.5 83.5t36 67.5t59 60.5t60 47.5t64.5 42q14 9 20 13q-17 -4 -42 -10t-40 -9.5t-24 -3.5q-17 0 -22.5 12t-2 35t10 48t12.5 59t6 61
q0 24 -16.5 25.5t-28.5 -19.5q-65 -108 -133.5 -164.5t-147.5 -56.5z" />
    <glyph glyph-name="Wcircumflex" unicode="&#x174;" horiz-adv-x="2029" 
d="M1329 -33q-16 0 -24 19l-248 1036q-6 25 -14 34t-16 0t-15 -34l-271 -1036q-4 -19 -22 -19h-57q-8 0 -15 6t-8 13l-393 1427q-32 119 -88 160t-150 41q-22 0 -22 16q0 19 22 19q39 0 126.5 -5.5t113.5 -5.5h86q36 0 153 5.5t168 5.5h9h8q52 0 168 -5.5t151 -5.5h70
q34 0 146 5.5t163 5.5q31 0 31 -19q0 -16 -31 -16q-46 0 -77.5 -5t-58.5 -17.5t-37.5 -35.5t-14 -58.5t11.5 -86.5l242 -1059q6 -25 13.5 -34.5t15 -1t14.5 33.5l278 1063q11 42 13 73.5t-6 53.5t-22 36.5t-38 22.5t-52 11.5t-67 3.5q-29 0 -29 16q0 19 31 19
q38 0 121.5 -5.5t128.5 -5.5q30 0 93.5 5.5t90.5 5.5q23 0 23 -19q0 -16 -21 -16q-43 0 -74.5 -8t-62 -28.5t-53.5 -61.5t-39 -103l-385 -1427q-1 -7 -8 -13t-15 -6h-57zM479 1413l285 -1063q6 -25 14 -34t16 0t15 34l197 770q21 89 -2 172l-33 121q-33 119 -104 160
t-197 41h-6h-9q-40 0 -68.5 -3t-53.5 -11t-39.5 -22.5t-22 -36.5t-5.5 -54t13 -74zM817 1815l141 262q33 60 61 85t64 25q37 0 67 -25.5t62 -84.5l140 -262q6 -11 4 -17t-10 -6q-12 0 -37 25l-154 182q-45 45 -72 45q-24 0 -69 -45l-154 -182q-29 -25 -37 -25t-10 6t4 17z
" />
    <glyph glyph-name="wcircumflex" unicode="&#x175;" horiz-adv-x="1568" 
d="M993 -25q-12 0 -22 8.5t-13 20.5l-153 612q-6 25 -14 34t-16 0t-15 -34l-174 -612q-3 -12 -13 -20.5t-22 -8.5h-53q-25 0 -37 27l-254 860q-35 116 -84.5 157.5t-118.5 41.5q-18 0 -18 16q0 19 20 19q23 0 81.5 -5.5t82.5 -5.5h154q33 0 95 3.5t95 3.5q34 0 98 -3.5
t101 -3.5h135q50 0 138.5 3.5t131.5 3.5q41 0 119 -3.5t113 -3.5h2q28 0 98 5.5t106 5.5q25 0 25 -19q0 -16 -25 -16q-91 0 -143.5 -40t-87.5 -159l-246 -858q-3 -12 -13 -20.5t-22 -8.5h-51zM428 838l162 -547q8 -24 17 -32.5t17.5 0t14.5 32.5l109 391q21 91 -5 172
l-14 49q-10 30 -18.5 49.5t-24.5 42.5t-36.5 36.5t-53.5 22.5t-76 9q-99 0 -116.5 -54t24.5 -171zM535 1298l141 263q33 60 61 85t64 25q37 0 67 -25.5t62 -84.5l139 -263q13 -22 -6 -22q-13 0 -37 24l-154 183q-45 45 -71 45q-25 0 -70 -45l-153 -183q-27 -24 -37 -24
q-19 0 -6 22zM942 877l141 -590q9 -38 22 -38.5t23 36.5l154 544q38 131 -5.5 182.5t-158.5 51.5q-130 0 -165 -46t-11 -140z" />
    <glyph glyph-name="Ycircumflex" unicode="&#x176;" horiz-adv-x="1415" 
d="M838 233q0 -124 60 -166t192 -42q32 0 32 -17q0 -11 -6.5 -14.5t-25.5 -3.5q-56 0 -180 5t-162 5h-52q-38 0 -162 -5t-180 -5q-32 0 -32 18q0 17 32 17q65 0 108 8t78 30t51.5 63.5t16.5 106.5v398q0 86 -41 170l-315 629q-54 108 -114 146t-136 38q-12 0 -16 3.5
t-4 12.5q0 19 20 19q26 0 89 -5.5t89 -5.5h125q40 0 171 5.5t190 5.5q34 0 34 -19q0 -16 -34 -16q-68 0 -108 -6.5t-64.5 -26t-21.5 -56.5t32 -95l274 -553q19 -35 40 -34t38 36l252 548q28 58 32.5 95.5t-17 57.5t-57.5 27t-97 7q-29 0 -29 16q0 19 31 19q37 0 123.5 -5.5
t134.5 -5.5q29 0 92 5.5t90 5.5q23 0 23 -19q0 -16 -23 -16q-89 0 -151.5 -38.5t-114.5 -148.5l-271 -583q-36 -85 -36 -170v-441zM504 1800l141 262q33 60 61 85.5t64 25.5t66.5 -26t62.5 -85l139 -262q13 -22 -6 -22q-13 0 -37 24l-153 183q-45 45 -72 45q-25 0 -70 -45
l-153 -183q-27 -24 -37 -24q-19 0 -6 22z" />
    <glyph glyph-name="ycircumflex" unicode="&#x177;" horiz-adv-x="1081" 
d="M283 -477q-57 0 -92 33t-35 75q0 58 51 78q48 19 92 39.5t99 50.5t91 63.5t41 63.5q7 38 -7 90.5t-52 151.5l-235 696q-38 115 -93.5 156t-134.5 41q-20 0 -20 16q0 19 22 19q26 0 92.5 -5.5t94.5 -5.5h125q60 0 157 3.5t146 3.5h2h2q59 0 155.5 -3t124.5 -4q18 1 75.5 6
t88.5 5q21 0 21 -19q0 -16 -21 -16q-79 0 -129.5 -40t-87.5 -157l-270 -852q-154 -489 -303 -489zM317 1296l142 263q33 60 61 85t64 25q37 0 67 -25.5t62 -84.5l139 -263q13 -22 -6 -22q-13 0 -37 24l-154 183q-45 45 -71 45q-25 0 -70 -45l-154 -183q-27 -24 -36 -24
q-8 0 -10.5 6t3.5 16zM457 840l161 -494q8 -25 18 -34t19.5 0t16.5 34l147 492q23 77 19 127t-53.5 74t-155.5 24h-2h-2q-145 0 -178.5 -53t10.5 -170z" />
    <glyph glyph-name="Ydieresis" unicode="&#x178;" horiz-adv-x="1415" 
d="M838 233q0 -124 60 -166t192 -42q32 0 32 -17q0 -11 -6.5 -14.5t-25.5 -3.5q-56 0 -180 5t-162 5h-52q-38 0 -162 -5t-180 -5q-32 0 -32 18q0 17 32 17q65 0 108 8t78 30t51.5 63.5t16.5 106.5v398q0 86 -41 170l-315 629q-54 108 -114 146t-136 38q-12 0 -16 3.5
t-4 12.5q0 19 20 19q26 0 89 -5.5t89 -5.5h125q40 0 171 5.5t190 5.5q34 0 34 -19q0 -16 -34 -16q-68 0 -108 -6.5t-64.5 -26t-21.5 -56.5t32 -95l274 -553q19 -35 40 -34t38 36l252 548q28 58 32.5 95.5t-17 57.5t-57.5 27t-97 7q-29 0 -29 16q0 19 31 19q37 0 123.5 -5.5
t134.5 -5.5q29 0 92 5.5t90 5.5q23 0 23 -19q0 -16 -23 -16q-89 0 -151.5 -38.5t-114.5 -148.5l-271 -583q-36 -85 -36 -170v-441zM481 1952q0 51 35.5 86t85.5 35t85.5 -35t35.5 -86q0 -49 -35.5 -84t-85.5 -35t-85.5 35t-35.5 84zM819 1952q0 51 35.5 86t85.5 35t85.5 -35
t35.5 -86q0 -49 -35.5 -84t-85.5 -35t-85.5 35t-35.5 84z" />
    <glyph glyph-name="Zacute" unicode="&#x179;" horiz-adv-x="1251" 
d="M1100 1649q39 0 18 -41l-733 -1497q-18 -35 -4 -57.5t53 -22.5h248q67 0 117.5 9.5t94 35t76.5 58.5t68.5 93t65.5 124.5t72 166.5q9 25 22 25q20 0 14 -31q-13 -87 -49 -238t-67 -219q-14 -37 -29 -51t-53 -14q-16 0 -100 5t-160 5h-326q-99 0 -201.5 -5t-109.5 -5
q-27 0 -31.5 12t6.5 35l746 1491q17 35 2.5 57.5t-52.5 22.5h-284q-159 0 -233 -110.5t-97 -346.5q-3 -31 -20 -31q-15 0 -15 31q0 19 6.5 104.5t6.5 145.5q0 52 -4.5 115.5t-4.5 80.5q0 52 35 52q26 0 91.5 -5.5t123.5 -5.5h426q70 0 133 3t101 5.5t47 2.5zM623 1774
q-4 0 -7 1t-4.5 3.5t-1.5 7t1.5 11t4 15t7.5 19.5l100 266q12 38 39.5 63t68.5 25q63 0 71 -43.5t-38 -93.5l-205 -252q-22 -22 -36 -22z" />
    <glyph glyph-name="zacute" unicode="&#x17a;" horiz-adv-x="837" 
d="M729 -23q-7 0 -41 5.5t-106.5 11.5t-175.5 6q-88 0 -161.5 -2.5t-114 -5t-46.5 -2.5q-50 0 -23 59l465 934q17 34 4.5 55t-49.5 21h-92q-84 0 -138.5 -23t-86 -76t-44.5 -122.5t-18 -180.5q-2 -19 -5 -25.5t-13 -6.5t-13 7t-3 25q16 312 16 416q0 20 7.5 26.5t23.5 6.5
q7 0 45 -5t116 -10.5t183 -5.5q77 0 145.5 2.5t107.5 5.5t46 3q49 0 22 -58l-467 -936q-15 -34 -2.5 -54.5t49.5 -20.5h95q68 0 116.5 18t79.5 51t49 90.5t25.5 124t9.5 164.5q0 31 17 31q16 0 16 -31q-1 -85 -4.5 -253t-3.5 -208q0 -37 -31 -37zM414 1270q-4 0 -7 1
t-4.5 3.5t-1.5 7t1.5 11t4 15t7.5 19.5l100 266q12 37 40 62.5t69 25.5q63 0 70.5 -43.5t-38.5 -93.5l-204 -252q-22 -22 -37 -22z" />
    <glyph glyph-name="Zdotaccent" unicode="&#x17b;" horiz-adv-x="1251" 
d="M1100 1649q39 0 18 -41l-733 -1497q-18 -35 -4 -57.5t53 -22.5h248q67 0 117.5 9.5t94 35t76.5 58.5t68.5 93t65.5 124.5t72 166.5q9 25 22 25q20 0 14 -31q-13 -87 -49 -238t-67 -219q-14 -37 -29 -51t-53 -14q-16 0 -100 5t-160 5h-326q-99 0 -201.5 -5t-109.5 -5
q-27 0 -31.5 12t6.5 35l746 1491q17 35 2.5 57.5t-52.5 22.5h-284q-159 0 -233 -110.5t-97 -346.5q-3 -31 -20 -31q-15 0 -15 31q0 19 6.5 104.5t6.5 145.5q0 52 -4.5 115.5t-4.5 80.5q0 52 35 52q26 0 91.5 -5.5t123.5 -5.5h426q70 0 133 3t101 5.5t47 2.5zM539 1944
q0 51 35 85.5t85 34.5t85.5 -34.5t35.5 -85.5q0 -49 -35.5 -84t-85.5 -35t-85 35t-35 84z" />
    <glyph glyph-name="zdotaccent" unicode="&#x17c;" horiz-adv-x="837" 
d="M729 -23q-7 0 -41 5.5t-106.5 11.5t-175.5 6q-88 0 -161.5 -2.5t-114 -5t-46.5 -2.5q-50 0 -23 59l465 934q17 34 4.5 55t-49.5 21h-92q-84 0 -138.5 -23t-86 -76t-44.5 -122.5t-18 -180.5q-2 -19 -5 -25.5t-13 -6.5t-13 7t-3 25q16 312 16 416q0 20 7.5 26.5t23.5 6.5
q7 0 45 -5t116 -10.5t183 -5.5q77 0 145.5 2.5t107.5 5.5t46 3q49 0 22 -58l-467 -936q-15 -34 -2.5 -54.5t49.5 -20.5h95q68 0 116.5 18t79.5 51t49 90.5t25.5 124t9.5 164.5q0 31 17 31q16 0 16 -31q-1 -85 -4.5 -253t-3.5 -208q0 -37 -31 -37zM330 1440q0 51 35.5 86
t85.5 35t85 -35t35 -86q0 -49 -35 -84t-85 -35t-85.5 35t-35.5 84z" />
    <glyph glyph-name="Zcaron" unicode="&#x17d;" horiz-adv-x="1251" 
d="M1100 1649q39 0 18 -41l-733 -1497q-18 -35 -4 -57.5t53 -22.5h248q67 0 117.5 9.5t94 35t76.5 58.5t68.5 93t65.5 124.5t72 166.5q9 25 22 25q20 0 14 -31q-13 -87 -49 -238t-67 -219q-14 -37 -29 -51t-53 -14q-16 0 -100 5t-160 5h-326q-99 0 -201.5 -5t-109.5 -5
q-27 0 -31.5 12t6.5 35l746 1491q17 35 2.5 57.5t-52.5 22.5h-284q-159 0 -233 -110.5t-97 -346.5q-3 -31 -20 -31q-15 0 -15 31q0 19 6.5 104.5t6.5 145.5q0 52 -4.5 115.5t-4.5 80.5q0 52 35 52q26 0 91.5 -5.5t123.5 -5.5h426q70 0 133 3t101 5.5t47 2.5zM393 2148
q-6 10 -4 16.5t10 6.5t37 -25l154 -182q45 -45 69 -45q27 0 72 45l154 182q25 25 37 25q8 0 10 -6.5t-4 -16.5l-140 -262q-32 -59 -62 -84.5t-67 -25.5q-36 0 -63.5 25t-60.5 85z" />
    <glyph glyph-name="zcaron" unicode="&#x17e;" horiz-adv-x="837" 
d="M729 -23q-7 0 -41 5.5t-106.5 11.5t-175.5 6q-88 0 -161.5 -2.5t-114 -5t-46.5 -2.5q-50 0 -23 59l465 934q17 34 4.5 55t-49.5 21h-92q-84 0 -138.5 -23t-86 -76t-44.5 -122.5t-18 -180.5q-2 -19 -5 -25.5t-13 -6.5t-13 7t-3 25q16 312 16 416q0 20 7.5 26.5t23.5 6.5
q7 0 45 -5t116 -10.5t183 -5.5q77 0 145.5 2.5t107.5 5.5t46 3q49 0 22 -58l-467 -936q-15 -34 -2.5 -54.5t49.5 -20.5h95q68 0 116.5 18t79.5 51t49 90.5t25.5 124t9.5 164.5q0 31 17 31q16 0 16 -31q-1 -85 -4.5 -253t-3.5 -208q0 -37 -31 -37zM182 1645q-13 22 6 22
q8 0 37 -25l154 -182q45 -45 70 -45q26 0 71 45l154 182q25 25 37 25q19 0 6 -22l-139 -263q-32 -59 -62 -84.5t-67 -25.5q-36 0 -64 25t-61 85z" />
    <glyph glyph-name="uni0218" unicode="&#x218;" horiz-adv-x="1064" 
d="M547 -33q-50 0 -140 9.5t-114 9.5q-31 0 -71.5 -6.5t-49.5 -6.5q-20 0 -20 29q1 65 -30.5 263t-35.5 296q0 19 14 19q17 0 23 -21q24 -106 46.5 -181t51.5 -140t62 -106t78 -71t100 -42.5t127 -12.5q63 0 111.5 26t75 68.5t39.5 88.5t13 94q0 59 -21 116.5t-50 100.5
t-81 93.5t-90 81.5t-102 79q-64 49 -100 78t-87.5 74t-79.5 81t-56.5 82t-41 95.5t-12.5 103.5q0 187 115 295t293 108q69 0 149.5 -9t104.5 -9q25 0 61 6t45 6q12 0 17.5 -6t5.5 -25q0 -67 6.5 -157.5t16.5 -189.5t12 -130q3 -35 -12 -35q-17 0 -23 31q-21 114 -42.5 189.5
t-52 134.5t-72.5 91t-98.5 48t-135.5 16q-112 0 -172 -73t-60 -179q0 -49 18.5 -96.5t45 -86t76 -85t91 -79.5t109.5 -85q75 -56 122.5 -94.5t102 -94t85 -106t51 -117t20.5 -139.5q0 -194 -120 -312t-318 -118zM416 -524q0 21 35 35q167 61 167 129q0 30 -28 30
q-13 0 -46.5 -19.5t-56.5 -19.5q-30 0 -50.5 25.5t-20.5 67.5q0 46 32.5 74t79.5 28q60 0 94.5 -38t34.5 -107q0 -87 -69.5 -153t-136.5 -77q-35 -3 -35 25z" />
    <glyph glyph-name="uni0219" unicode="&#x219;" horiz-adv-x="753" 
d="M406 -33q-59 0 -132.5 11.5t-97.5 11.5q-20 0 -50 -6.5t-40 -6.5q-20 0 -20 25q0 84 -10.5 174t-25 166.5t-14.5 79.5q-6 24 13 24q13 0 18 -22q15 -53 25 -84.5t26 -76t31 -71.5t36 -60t45 -52t55 -37t69.5 -25.5t83.5 -7.5q73 0 111 39.5t38 102.5q0 82 -59 154.5
t-211 197.5q-133 105 -183.5 178t-50.5 160q0 125 81.5 202.5t199.5 77.5q45 0 105.5 -10t89.5 -10q25 0 55 6t39 6q22 0 22 -24q-1 -90 4 -167t10.5 -130.5t6.5 -71.5q0 -27 -14 -27q-11 0 -17 25q-65 360 -311 360q-60 0 -95.5 -41t-35.5 -104q0 -65 51 -121.5t176 -153.5
q75 -60 120.5 -102.5t81.5 -90t51 -95t15 -105.5q0 -145 -83 -222t-209 -77zM248 -520q0 21 35 35q168 62 168 129q0 30 -29 30q-13 0 -46.5 -19.5t-56.5 -19.5q-30 0 -50.5 25.5t-20.5 67.5q0 46 32.5 74t79.5 28q60 0 94.5 -38t34.5 -107q0 -87 -69.5 -153t-136.5 -77
q-35 -3 -35 25z" />
    </font>
</defs>
</svg>
